<?xml version="1.0" encoding="utf-8" standalone="no"?>
<!DOCTYPE svg PUBLIC "-//W3C//DTD SVG 1.1//EN"
  "http://www.w3.org/Graphics/SVG/1.1/DTD/svg11.dtd">
<svg xmlns:xlink="http://www.w3.org/1999/xlink" width="1080pt" height="432pt" viewBox="0 0 1080 432" xmlns="http://www.w3.org/2000/svg" version="1.1">
 <metadata>
  <rdf:RDF xmlns:dc="http://purl.org/dc/elements/1.1/" xmlns:cc="http://creativecommons.org/ns#" xmlns:rdf="http://www.w3.org/1999/02/22-rdf-syntax-ns#">
   <cc:Work>
    <dc:type rdf:resource="http://purl.org/dc/dcmitype/StillImage"/>
    <dc:date>2022-02-02T22:06:53.485759</dc:date>
    <dc:format>image/svg+xml</dc:format>
    <dc:creator>
     <cc:Agent>
      <dc:title>Matplotlib v3.5.0, https://matplotlib.org/</dc:title>
     </cc:Agent>
    </dc:creator>
   </cc:Work>
  </rdf:RDF>
 </metadata>
 <defs>
  <style type="text/css">*{stroke-linejoin: round; stroke-linecap: butt}</style>
 </defs>
 <g id="figure_1">
  <g id="patch_1">
   <path d="M 0 432 
L 1080 432 
L 1080 0 
L 0 0 
L 0 432 
z
" style="fill: none"/>
  </g>
  <g id="axes_1">
   <g id="patch_2">
    <path d="M 135 378 
L 515.454545 378 
L 515.454545 51.84 
L 135 51.84 
z
" style="fill: #ffffff"/>
   </g>
   <g id="PolyCollection_1">
    <defs>
     <path id="m1b03f602d6" d="M 98.526084 -54.48326 
L 98.526084 -54 
L 100.521435 -54 
L 102.516785 -54 
L 104.512135 -54 
L 106.507486 -54 
L 108.502836 -54 
L 110.498186 -54 
L 112.493537 -54 
L 114.488887 -54 
L 116.484238 -54 
L 118.479588 -54 
L 120.474938 -54 
L 122.470289 -54 
L 124.465639 -54 
L 126.460989 -54 
L 128.45634 -54 
L 130.45169 -54 
L 132.447041 -54 
L 134.442391 -54 
L 136.437741 -54 
L 138.433092 -54 
L 140.428442 -54 
L 142.423792 -54 
L 144.419143 -54 
L 146.414493 -54 
L 148.409844 -54 
L 150.405194 -54 
L 152.400544 -54 
L 154.395895 -54 
L 156.391245 -54 
L 158.386596 -54 
L 160.381946 -54 
L 162.377296 -54 
L 164.372647 -54 
L 166.367997 -54 
L 168.363347 -54 
L 170.358698 -54 
L 172.354048 -54 
L 174.349399 -54 
L 176.344749 -54 
L 178.340099 -54 
L 180.33545 -54 
L 182.3308 -54 
L 184.32615 -54 
L 186.321501 -54 
L 188.316851 -54 
L 190.312202 -54 
L 192.307552 -54 
L 194.302902 -54 
L 196.298253 -54 
L 198.293603 -54 
L 200.288953 -54 
L 202.284304 -54 
L 204.279654 -54 
L 206.275005 -54 
L 208.270355 -54 
L 210.265705 -54 
L 212.261056 -54 
L 214.256406 -54 
L 216.251756 -54 
L 218.247107 -54 
L 220.242457 -54 
L 222.237808 -54 
L 224.233158 -54 
L 226.228508 -54 
L 228.223859 -54 
L 230.219209 -54 
L 232.214559 -54 
L 234.20991 -54 
L 236.20526 -54 
L 238.200611 -54 
L 240.195961 -54 
L 242.191311 -54 
L 244.186662 -54 
L 246.182012 -54 
L 248.177362 -54 
L 250.172713 -54 
L 252.168063 -54 
L 254.163414 -54 
L 256.158764 -54 
L 258.154114 -54 
L 260.149465 -54 
L 262.144815 -54 
L 264.140165 -54 
L 266.135516 -54 
L 268.130866 -54 
L 270.126217 -54 
L 272.121567 -54 
L 274.116917 -54 
L 276.112268 -54 
L 278.107618 -54 
L 280.102968 -54 
L 282.098319 -54 
L 284.093669 -54 
L 286.08902 -54 
L 288.08437 -54 
L 290.07972 -54 
L 292.075071 -54 
L 294.070421 -54 
L 296.065772 -54 
L 298.061122 -54 
L 300.056472 -54 
L 302.051823 -54 
L 304.047173 -54 
L 306.042523 -54 
L 308.037874 -54 
L 310.033224 -54 
L 312.028575 -54 
L 314.023925 -54 
L 316.019275 -54 
L 318.014626 -54 
L 320.009976 -54 
L 322.005326 -54 
L 324.000677 -54 
L 325.996027 -54 
L 327.991378 -54 
L 329.986728 -54 
L 331.982078 -54 
L 333.977429 -54 
L 335.972779 -54 
L 337.968129 -54 
L 339.96348 -54 
L 341.95883 -54 
L 343.954181 -54 
L 345.949531 -54 
L 347.944881 -54 
L 349.940232 -54 
L 351.935582 -54 
L 353.930932 -54 
L 355.926283 -54 
L 357.921633 -54 
L 359.916984 -54 
L 361.912334 -54 
L 363.907684 -54 
L 365.903035 -54 
L 367.898385 -54 
L 369.893735 -54 
L 371.889086 -54 
L 373.884436 -54 
L 375.879787 -54 
L 377.875137 -54 
L 379.870487 -54 
L 381.865838 -54 
L 383.861188 -54 
L 385.856538 -54 
L 387.851889 -54 
L 389.847239 -54 
L 391.84259 -54 
L 393.83794 -54 
L 395.83329 -54 
L 397.828641 -54 
L 399.823991 -54 
L 401.819341 -54 
L 403.814692 -54 
L 405.810042 -54 
L 407.805393 -54 
L 409.800743 -54 
L 411.796093 -54 
L 413.791444 -54 
L 415.786794 -54 
L 417.782145 -54 
L 419.777495 -54 
L 421.772845 -54 
L 423.768196 -54 
L 425.763546 -54 
L 427.758896 -54 
L 429.754247 -54 
L 431.749597 -54 
L 433.744948 -54 
L 435.740298 -54 
L 437.735648 -54 
L 439.730999 -54 
L 441.726349 -54 
L 443.721699 -54 
L 445.71705 -54 
L 447.7124 -54 
L 449.707751 -54 
L 451.703101 -54 
L 453.698451 -54 
L 455.693802 -54 
L 457.689152 -54 
L 459.684502 -54 
L 461.679853 -54 
L 463.675203 -54 
L 465.670554 -54 
L 467.665904 -54 
L 469.661254 -54 
L 471.656605 -54 
L 473.651955 -54 
L 475.647305 -54 
L 477.642656 -54 
L 479.638006 -54 
L 481.633357 -54 
L 483.628707 -54 
L 485.624057 -54 
L 487.619408 -54 
L 489.614758 -54 
L 491.610108 -54 
L 493.605459 -54 
L 495.600809 -54 
L 495.600809 -54.014204 
L 495.600809 -54.014204 
L 493.605459 -54.023648 
L 491.610108 -54.038387 
L 489.614758 -54.060769 
L 487.619408 -54.093834 
L 485.624057 -54.141362 
L 483.628707 -54.207834 
L 481.633357 -54.298301 
L 479.638006 -54.418127 
L 477.642656 -54.572618 
L 475.647305 -54.766554 
L 473.651955 -55.003672 
L 471.656605 -55.286169 
L 469.661254 -55.614313 
L 467.665904 -55.986224 
L 465.670554 -56.397896 
L 463.675203 -56.843457 
L 461.679853 -57.315643 
L 459.684502 -57.806412 
L 457.689152 -58.307581 
L 455.693802 -58.811398 
L 453.698451 -59.310942 
L 451.703101 -59.800329 
L 449.707751 -60.274737 
L 447.7124 -60.730301 
L 445.71705 -61.163997 
L 443.721699 -61.573576 
L 441.726349 -61.957609 
L 439.730999 -62.315653 
L 437.735648 -62.648449 
L 435.740298 -62.958076 
L 433.744948 -63.247926 
L 431.749597 -63.522433 
L 429.754247 -63.786539 
L 427.758896 -64.044959 
L 425.763546 -64.301401 
L 423.768196 -64.557915 
L 421.772845 -64.814559 
L 419.777495 -65.069496 
L 417.782145 -65.319544 
L 415.786794 -65.561088 
L 413.791444 -65.791164 
L 411.796093 -66.008504 
L 409.800743 -66.214342 
L 407.805393 -66.412871 
L 405.810042 -66.611382 
L 403.814692 -66.820216 
L 401.819341 -67.052723 
L 399.823991 -67.325442 
L 397.828641 -67.658558 
L 395.83329 -68.07654 
L 393.83794 -68.608634 
L 391.84259 -69.288708 
L 389.847239 -70.153895 
L 387.851889 -71.241561 
L 385.856538 -72.584414 
L 383.861188 -74.204028 
L 381.865838 -76.103555 
L 379.870487 -78.260872 
L 377.875137 -80.623715 
L 375.879787 -83.108296 
L 373.884436 -85.602525 
L 371.889086 -87.97422 
L 369.893735 -90.083705 
L 367.898385 -91.799237 
L 365.903035 -93.012957 
L 363.907684 -93.654714 
L 361.912334 -93.701374 
L 359.916984 -93.179957 
L 357.921633 -92.164075 
L 355.926283 -90.764355 
L 353.930932 -89.114627 
L 351.935582 -87.356263 
L 349.940232 -85.623221 
L 347.944881 -84.029958 
L 345.949531 -82.663599 
L 343.954181 -81.580859 
L 341.95883 -80.809318 
L 339.96348 -80.351988 
L 337.968129 -80.193795 
L 335.972779 -80.308565 
L 333.977429 -80.665344 
L 331.982078 -81.233301 
L 329.986728 -81.984852 
L 327.991378 -82.89708 
L 325.996027 -83.951745 
L 324.000677 -85.134371 
L 322.005326 -86.432899 
L 320.009976 -87.836392 
L 318.014626 -89.334172 
L 316.019275 -90.915716 
L 314.023925 -92.571491 
L 312.028575 -94.294819 
L 310.033224 -96.084664 
L 308.037874 -97.949027 
L 306.042523 -99.908401 
L 304.047173 -101.998477 
L 302.051823 -104.271164 
L 300.056472 -106.792981 
L 298.061122 -109.640087 
L 296.065772 -112.889716 
L 294.070421 -116.608398 
L 292.075071 -120.838219 
L 290.07972 -125.583045 
L 288.08437 -130.797227 
L 286.08902 -136.379361 
L 284.093669 -142.173313 
L 282.098319 -147.977685 
L 280.102968 -153.56351 
L 278.107618 -158.698358 
L 276.112268 -163.173577 
L 274.116917 -166.830465 
L 272.121567 -169.581059 
L 270.126217 -171.419964 
L 268.130866 -172.425221 
L 266.135516 -172.748194 
L 264.140165 -172.594475 
L 262.144815 -172.199348 
L 260.149465 -171.802061 
L 258.154114 -171.622945 
L 256.158764 -171.846327 
L 254.163414 -172.61061 
L 252.168063 -174.005174 
L 250.172713 -176.072437 
L 248.177362 -178.812739 
L 246.182012 -182.189813 
L 244.186662 -186.135359 
L 242.191311 -190.552427 
L 240.195961 -195.31841 
L 238.200611 -200.289166 
L 236.20526 -205.305892 
L 234.20991 -210.205683 
L 232.214559 -214.835575 
L 230.219209 -219.068525 
L 228.223859 -222.81876 
L 226.228508 -226.053524 
L 224.233158 -228.798748 
L 222.237808 -231.137416 
L 220.242457 -233.201072 
L 218.247107 -235.15653 
L 216.251756 -237.190817 
L 214.256406 -239.497463 
L 212.261056 -242.266252 
L 210.265705 -245.676859 
L 208.270355 -249.894871 
L 206.275005 -255.067302 
L 204.279654 -261.314271 
L 202.284304 -268.714532 
L 200.288953 -277.284692 
L 198.293603 -286.954892 
L 196.298253 -297.54646 
L 194.302902 -308.758758 
L 192.307552 -320.17233 
L 190.312202 -331.27316 
L 188.316851 -341.498761 
L 186.321501 -350.301608 
L 184.32615 -357.220605 
L 182.3308 -361.947932 
L 180.33545 -364.378111 
L 178.340099 -364.628571 
L 176.344749 -363.026201 
L 174.349399 -360.06109 
L 172.354048 -356.315224 
L 170.358698 -352.378757 
L 168.363347 -348.768396 
L 166.367997 -345.861063 
L 164.372647 -343.851904 
L 162.377296 -342.740071 
L 160.381946 -342.340219 
L 158.386596 -342.313562 
L 156.391245 -342.210599 
L 154.395895 -341.51818 
L 152.400544 -339.705728 
L 150.405194 -336.268123 
L 148.409844 -330.764804 
L 146.414493 -322.855319 
L 144.419143 -312.330916 
L 142.423792 -299.140161 
L 140.428442 -283.405065 
L 138.433092 -265.423577 
L 136.437741 -245.655193 
L 134.442391 -224.688774 
L 132.447041 -203.194843 
L 130.45169 -181.867891 
L 128.45634 -161.366399 
L 126.460989 -142.258929 
L 124.465639 -124.983474 
L 122.470289 -109.824687 
L 120.474938 -96.910263 
L 118.479588 -86.224532 
L 116.484238 -77.634853 
L 114.488887 -70.925144 
L 112.493537 -65.830857 
L 110.498186 -62.070705 
L 108.502836 -59.372036 
L 106.507486 -57.488434 
L 104.512135 -56.209672 
L 102.516785 -55.36515 
L 100.521435 -54.822516 
L 98.526084 -54.48326 
z
" style="stroke: #1f77b4"/>
    </defs>
    <g clip-path="url(#p872768e7e8)">
     <use xlink:href="#m1b03f602d6" x="0" y="432" style="fill: #1f77b4; fill-opacity: 0.25; stroke: #1f77b4"/>
    </g>
   </g>
   <g id="matplotlib.axis_1">
    <g id="xtick_1">
     <g id="line2d_1">
      <defs>
       <path id="mdddc1c578a" d="M 0 0 
L 0 3.5 
" style="stroke: #000000; stroke-width: 0.8"/>
      </defs>
      <g>
       <use xlink:href="#mdddc1c578a" x="135" y="378" style="stroke: #000000; stroke-width: 0.8"/>
      </g>
     </g>
     <g id="text_1">
      <!-- 0 -->
      <g transform="translate(131.81875 392.598437)scale(0.1 -0.1)">
       <defs>
        <path id="DejaVuSans-30" d="M 2034 4250 
Q 1547 4250 1301 3770 
Q 1056 3291 1056 2328 
Q 1056 1369 1301 889 
Q 1547 409 2034 409 
Q 2525 409 2770 889 
Q 3016 1369 3016 2328 
Q 3016 3291 2770 3770 
Q 2525 4250 2034 4250 
z
M 2034 4750 
Q 2819 4750 3233 4129 
Q 3647 3509 3647 2328 
Q 3647 1150 3233 529 
Q 2819 -91 2034 -91 
Q 1250 -91 836 529 
Q 422 1150 422 2328 
Q 422 3509 836 4129 
Q 1250 4750 2034 4750 
z
" transform="scale(0.015625)"/>
       </defs>
       <use xlink:href="#DejaVuSans-30"/>
      </g>
     </g>
    </g>
    <g id="xtick_2">
     <g id="line2d_2">
      <g>
       <use xlink:href="#mdddc1c578a" x="180.845388" y="378" style="stroke: #000000; stroke-width: 0.8"/>
      </g>
     </g>
     <g id="text_2">
      <!-- 1 -->
      <g transform="translate(177.664138 392.598437)scale(0.1 -0.1)">
       <defs>
        <path id="DejaVuSans-31" d="M 794 531 
L 1825 531 
L 1825 4091 
L 703 3866 
L 703 4441 
L 1819 4666 
L 2450 4666 
L 2450 531 
L 3481 531 
L 3481 0 
L 794 0 
L 794 531 
z
" transform="scale(0.015625)"/>
       </defs>
       <use xlink:href="#DejaVuSans-31"/>
      </g>
     </g>
    </g>
    <g id="xtick_3">
     <g id="line2d_3">
      <g>
       <use xlink:href="#mdddc1c578a" x="226.690776" y="378" style="stroke: #000000; stroke-width: 0.8"/>
      </g>
     </g>
     <g id="text_3">
      <!-- 2 -->
      <g transform="translate(223.509526 392.598437)scale(0.1 -0.1)">
       <defs>
        <path id="DejaVuSans-32" d="M 1228 531 
L 3431 531 
L 3431 0 
L 469 0 
L 469 531 
Q 828 903 1448 1529 
Q 2069 2156 2228 2338 
Q 2531 2678 2651 2914 
Q 2772 3150 2772 3378 
Q 2772 3750 2511 3984 
Q 2250 4219 1831 4219 
Q 1534 4219 1204 4116 
Q 875 4013 500 3803 
L 500 4441 
Q 881 4594 1212 4672 
Q 1544 4750 1819 4750 
Q 2544 4750 2975 4387 
Q 3406 4025 3406 3419 
Q 3406 3131 3298 2873 
Q 3191 2616 2906 2266 
Q 2828 2175 2409 1742 
Q 1991 1309 1228 531 
z
" transform="scale(0.015625)"/>
       </defs>
       <use xlink:href="#DejaVuSans-32"/>
      </g>
     </g>
    </g>
    <g id="xtick_4">
     <g id="line2d_4">
      <g>
       <use xlink:href="#mdddc1c578a" x="272.536164" y="378" style="stroke: #000000; stroke-width: 0.8"/>
      </g>
     </g>
     <g id="text_4">
      <!-- 3 -->
      <g transform="translate(269.354914 392.598437)scale(0.1 -0.1)">
       <defs>
        <path id="DejaVuSans-33" d="M 2597 2516 
Q 3050 2419 3304 2112 
Q 3559 1806 3559 1356 
Q 3559 666 3084 287 
Q 2609 -91 1734 -91 
Q 1441 -91 1130 -33 
Q 819 25 488 141 
L 488 750 
Q 750 597 1062 519 
Q 1375 441 1716 441 
Q 2309 441 2620 675 
Q 2931 909 2931 1356 
Q 2931 1769 2642 2001 
Q 2353 2234 1838 2234 
L 1294 2234 
L 1294 2753 
L 1863 2753 
Q 2328 2753 2575 2939 
Q 2822 3125 2822 3475 
Q 2822 3834 2567 4026 
Q 2313 4219 1838 4219 
Q 1578 4219 1281 4162 
Q 984 4106 628 3988 
L 628 4550 
Q 988 4650 1302 4700 
Q 1616 4750 1894 4750 
Q 2613 4750 3031 4423 
Q 3450 4097 3450 3541 
Q 3450 3153 3228 2886 
Q 3006 2619 2597 2516 
z
" transform="scale(0.015625)"/>
       </defs>
       <use xlink:href="#DejaVuSans-33"/>
      </g>
     </g>
    </g>
    <g id="xtick_5">
     <g id="line2d_5">
      <g>
       <use xlink:href="#mdddc1c578a" x="318.381552" y="378" style="stroke: #000000; stroke-width: 0.8"/>
      </g>
     </g>
     <g id="text_5">
      <!-- 4 -->
      <g transform="translate(315.200302 392.598437)scale(0.1 -0.1)">
       <defs>
        <path id="DejaVuSans-34" d="M 2419 4116 
L 825 1625 
L 2419 1625 
L 2419 4116 
z
M 2253 4666 
L 3047 4666 
L 3047 1625 
L 3713 1625 
L 3713 1100 
L 3047 1100 
L 3047 0 
L 2419 0 
L 2419 1100 
L 313 1100 
L 313 1709 
L 2253 4666 
z
" transform="scale(0.015625)"/>
       </defs>
       <use xlink:href="#DejaVuSans-34"/>
      </g>
     </g>
    </g>
    <g id="xtick_6">
     <g id="line2d_6">
      <g>
       <use xlink:href="#mdddc1c578a" x="364.22694" y="378" style="stroke: #000000; stroke-width: 0.8"/>
      </g>
     </g>
     <g id="text_6">
      <!-- 5 -->
      <g transform="translate(361.04569 392.598437)scale(0.1 -0.1)">
       <defs>
        <path id="DejaVuSans-35" d="M 691 4666 
L 3169 4666 
L 3169 4134 
L 1269 4134 
L 1269 2991 
Q 1406 3038 1543 3061 
Q 1681 3084 1819 3084 
Q 2600 3084 3056 2656 
Q 3513 2228 3513 1497 
Q 3513 744 3044 326 
Q 2575 -91 1722 -91 
Q 1428 -91 1123 -41 
Q 819 9 494 109 
L 494 744 
Q 775 591 1075 516 
Q 1375 441 1709 441 
Q 2250 441 2565 725 
Q 2881 1009 2881 1497 
Q 2881 1984 2565 2268 
Q 2250 2553 1709 2553 
Q 1456 2553 1204 2497 
Q 953 2441 691 2322 
L 691 4666 
z
" transform="scale(0.015625)"/>
       </defs>
       <use xlink:href="#DejaVuSans-35"/>
      </g>
     </g>
    </g>
    <g id="xtick_7">
     <g id="line2d_7">
      <g>
       <use xlink:href="#mdddc1c578a" x="410.072328" y="378" style="stroke: #000000; stroke-width: 0.8"/>
      </g>
     </g>
     <g id="text_7">
      <!-- 6 -->
      <g transform="translate(406.891078 392.598437)scale(0.1 -0.1)">
       <defs>
        <path id="DejaVuSans-36" d="M 2113 2584 
Q 1688 2584 1439 2293 
Q 1191 2003 1191 1497 
Q 1191 994 1439 701 
Q 1688 409 2113 409 
Q 2538 409 2786 701 
Q 3034 994 3034 1497 
Q 3034 2003 2786 2293 
Q 2538 2584 2113 2584 
z
M 3366 4563 
L 3366 3988 
Q 3128 4100 2886 4159 
Q 2644 4219 2406 4219 
Q 1781 4219 1451 3797 
Q 1122 3375 1075 2522 
Q 1259 2794 1537 2939 
Q 1816 3084 2150 3084 
Q 2853 3084 3261 2657 
Q 3669 2231 3669 1497 
Q 3669 778 3244 343 
Q 2819 -91 2113 -91 
Q 1303 -91 875 529 
Q 447 1150 447 2328 
Q 447 3434 972 4092 
Q 1497 4750 2381 4750 
Q 2619 4750 2861 4703 
Q 3103 4656 3366 4563 
z
" transform="scale(0.015625)"/>
       </defs>
       <use xlink:href="#DejaVuSans-36"/>
      </g>
     </g>
    </g>
    <g id="xtick_8">
     <g id="line2d_8">
      <g>
       <use xlink:href="#mdddc1c578a" x="455.917716" y="378" style="stroke: #000000; stroke-width: 0.8"/>
      </g>
     </g>
     <g id="text_8">
      <!-- 7 -->
      <g transform="translate(452.736466 392.598437)scale(0.1 -0.1)">
       <defs>
        <path id="DejaVuSans-37" d="M 525 4666 
L 3525 4666 
L 3525 4397 
L 1831 0 
L 1172 0 
L 2766 4134 
L 525 4134 
L 525 4666 
z
" transform="scale(0.015625)"/>
       </defs>
       <use xlink:href="#DejaVuSans-37"/>
      </g>
     </g>
    </g>
    <g id="xtick_9">
     <g id="line2d_9">
      <g>
       <use xlink:href="#mdddc1c578a" x="501.763104" y="378" style="stroke: #000000; stroke-width: 0.8"/>
      </g>
     </g>
     <g id="text_9">
      <!-- 8 -->
      <g transform="translate(498.581854 392.598437)scale(0.1 -0.1)">
       <defs>
        <path id="DejaVuSans-38" d="M 2034 2216 
Q 1584 2216 1326 1975 
Q 1069 1734 1069 1313 
Q 1069 891 1326 650 
Q 1584 409 2034 409 
Q 2484 409 2743 651 
Q 3003 894 3003 1313 
Q 3003 1734 2745 1975 
Q 2488 2216 2034 2216 
z
M 1403 2484 
Q 997 2584 770 2862 
Q 544 3141 544 3541 
Q 544 4100 942 4425 
Q 1341 4750 2034 4750 
Q 2731 4750 3128 4425 
Q 3525 4100 3525 3541 
Q 3525 3141 3298 2862 
Q 3072 2584 2669 2484 
Q 3125 2378 3379 2068 
Q 3634 1759 3634 1313 
Q 3634 634 3220 271 
Q 2806 -91 2034 -91 
Q 1263 -91 848 271 
Q 434 634 434 1313 
Q 434 1759 690 2068 
Q 947 2378 1403 2484 
z
M 1172 3481 
Q 1172 3119 1398 2916 
Q 1625 2713 2034 2713 
Q 2441 2713 2670 2916 
Q 2900 3119 2900 3481 
Q 2900 3844 2670 4047 
Q 2441 4250 2034 4250 
Q 1625 4250 1398 4047 
Q 1172 3844 1172 3481 
z
" transform="scale(0.015625)"/>
       </defs>
       <use xlink:href="#DejaVuSans-38"/>
      </g>
     </g>
    </g>
    <g id="text_10">
     <!-- Elevation error (m) -->
     <g transform="translate(277.949148 406.276563)scale(0.1 -0.1)">
      <defs>
       <path id="DejaVuSans-45" d="M 628 4666 
L 3578 4666 
L 3578 4134 
L 1259 4134 
L 1259 2753 
L 3481 2753 
L 3481 2222 
L 1259 2222 
L 1259 531 
L 3634 531 
L 3634 0 
L 628 0 
L 628 4666 
z
" transform="scale(0.015625)"/>
       <path id="DejaVuSans-6c" d="M 603 4863 
L 1178 4863 
L 1178 0 
L 603 0 
L 603 4863 
z
" transform="scale(0.015625)"/>
       <path id="DejaVuSans-65" d="M 3597 1894 
L 3597 1613 
L 953 1613 
Q 991 1019 1311 708 
Q 1631 397 2203 397 
Q 2534 397 2845 478 
Q 3156 559 3463 722 
L 3463 178 
Q 3153 47 2828 -22 
Q 2503 -91 2169 -91 
Q 1331 -91 842 396 
Q 353 884 353 1716 
Q 353 2575 817 3079 
Q 1281 3584 2069 3584 
Q 2775 3584 3186 3129 
Q 3597 2675 3597 1894 
z
M 3022 2063 
Q 3016 2534 2758 2815 
Q 2500 3097 2075 3097 
Q 1594 3097 1305 2825 
Q 1016 2553 972 2059 
L 3022 2063 
z
" transform="scale(0.015625)"/>
       <path id="DejaVuSans-76" d="M 191 3500 
L 800 3500 
L 1894 563 
L 2988 3500 
L 3597 3500 
L 2284 0 
L 1503 0 
L 191 3500 
z
" transform="scale(0.015625)"/>
       <path id="DejaVuSans-61" d="M 2194 1759 
Q 1497 1759 1228 1600 
Q 959 1441 959 1056 
Q 959 750 1161 570 
Q 1363 391 1709 391 
Q 2188 391 2477 730 
Q 2766 1069 2766 1631 
L 2766 1759 
L 2194 1759 
z
M 3341 1997 
L 3341 0 
L 2766 0 
L 2766 531 
Q 2569 213 2275 61 
Q 1981 -91 1556 -91 
Q 1019 -91 701 211 
Q 384 513 384 1019 
Q 384 1609 779 1909 
Q 1175 2209 1959 2209 
L 2766 2209 
L 2766 2266 
Q 2766 2663 2505 2880 
Q 2244 3097 1772 3097 
Q 1472 3097 1187 3025 
Q 903 2953 641 2809 
L 641 3341 
Q 956 3463 1253 3523 
Q 1550 3584 1831 3584 
Q 2591 3584 2966 3190 
Q 3341 2797 3341 1997 
z
" transform="scale(0.015625)"/>
       <path id="DejaVuSans-74" d="M 1172 4494 
L 1172 3500 
L 2356 3500 
L 2356 3053 
L 1172 3053 
L 1172 1153 
Q 1172 725 1289 603 
Q 1406 481 1766 481 
L 2356 481 
L 2356 0 
L 1766 0 
Q 1100 0 847 248 
Q 594 497 594 1153 
L 594 3053 
L 172 3053 
L 172 3500 
L 594 3500 
L 594 4494 
L 1172 4494 
z
" transform="scale(0.015625)"/>
       <path id="DejaVuSans-69" d="M 603 3500 
L 1178 3500 
L 1178 0 
L 603 0 
L 603 3500 
z
M 603 4863 
L 1178 4863 
L 1178 4134 
L 603 4134 
L 603 4863 
z
" transform="scale(0.015625)"/>
       <path id="DejaVuSans-6f" d="M 1959 3097 
Q 1497 3097 1228 2736 
Q 959 2375 959 1747 
Q 959 1119 1226 758 
Q 1494 397 1959 397 
Q 2419 397 2687 759 
Q 2956 1122 2956 1747 
Q 2956 2369 2687 2733 
Q 2419 3097 1959 3097 
z
M 1959 3584 
Q 2709 3584 3137 3096 
Q 3566 2609 3566 1747 
Q 3566 888 3137 398 
Q 2709 -91 1959 -91 
Q 1206 -91 779 398 
Q 353 888 353 1747 
Q 353 2609 779 3096 
Q 1206 3584 1959 3584 
z
" transform="scale(0.015625)"/>
       <path id="DejaVuSans-6e" d="M 3513 2113 
L 3513 0 
L 2938 0 
L 2938 2094 
Q 2938 2591 2744 2837 
Q 2550 3084 2163 3084 
Q 1697 3084 1428 2787 
Q 1159 2491 1159 1978 
L 1159 0 
L 581 0 
L 581 3500 
L 1159 3500 
L 1159 2956 
Q 1366 3272 1645 3428 
Q 1925 3584 2291 3584 
Q 2894 3584 3203 3211 
Q 3513 2838 3513 2113 
z
" transform="scale(0.015625)"/>
       <path id="DejaVuSans-20" transform="scale(0.015625)"/>
       <path id="DejaVuSans-72" d="M 2631 2963 
Q 2534 3019 2420 3045 
Q 2306 3072 2169 3072 
Q 1681 3072 1420 2755 
Q 1159 2438 1159 1844 
L 1159 0 
L 581 0 
L 581 3500 
L 1159 3500 
L 1159 2956 
Q 1341 3275 1631 3429 
Q 1922 3584 2338 3584 
Q 2397 3584 2469 3576 
Q 2541 3569 2628 3553 
L 2631 2963 
z
" transform="scale(0.015625)"/>
       <path id="DejaVuSans-28" d="M 1984 4856 
Q 1566 4138 1362 3434 
Q 1159 2731 1159 2009 
Q 1159 1288 1364 580 
Q 1569 -128 1984 -844 
L 1484 -844 
Q 1016 -109 783 600 
Q 550 1309 550 2009 
Q 550 2706 781 3412 
Q 1013 4119 1484 4856 
L 1984 4856 
z
" transform="scale(0.015625)"/>
       <path id="DejaVuSans-6d" d="M 3328 2828 
Q 3544 3216 3844 3400 
Q 4144 3584 4550 3584 
Q 5097 3584 5394 3201 
Q 5691 2819 5691 2113 
L 5691 0 
L 5113 0 
L 5113 2094 
Q 5113 2597 4934 2840 
Q 4756 3084 4391 3084 
Q 3944 3084 3684 2787 
Q 3425 2491 3425 1978 
L 3425 0 
L 2847 0 
L 2847 2094 
Q 2847 2600 2669 2842 
Q 2491 3084 2119 3084 
Q 1678 3084 1418 2786 
Q 1159 2488 1159 1978 
L 1159 0 
L 581 0 
L 581 3500 
L 1159 3500 
L 1159 2956 
Q 1356 3278 1631 3431 
Q 1906 3584 2284 3584 
Q 2666 3584 2933 3390 
Q 3200 3197 3328 2828 
z
" transform="scale(0.015625)"/>
       <path id="DejaVuSans-29" d="M 513 4856 
L 1013 4856 
Q 1481 4119 1714 3412 
Q 1947 2706 1947 2009 
Q 1947 1309 1714 600 
Q 1481 -109 1013 -844 
L 513 -844 
Q 928 -128 1133 580 
Q 1338 1288 1338 2009 
Q 1338 2731 1133 3434 
Q 928 4138 513 4856 
z
" transform="scale(0.015625)"/>
      </defs>
      <use xlink:href="#DejaVuSans-45"/>
      <use xlink:href="#DejaVuSans-6c" x="63.183594"/>
      <use xlink:href="#DejaVuSans-65" x="90.966797"/>
      <use xlink:href="#DejaVuSans-76" x="152.490234"/>
      <use xlink:href="#DejaVuSans-61" x="211.669922"/>
      <use xlink:href="#DejaVuSans-74" x="272.949219"/>
      <use xlink:href="#DejaVuSans-69" x="312.158203"/>
      <use xlink:href="#DejaVuSans-6f" x="339.941406"/>
      <use xlink:href="#DejaVuSans-6e" x="401.123047"/>
      <use xlink:href="#DejaVuSans-20" x="464.501953"/>
      <use xlink:href="#DejaVuSans-65" x="496.289062"/>
      <use xlink:href="#DejaVuSans-72" x="557.8125"/>
      <use xlink:href="#DejaVuSans-72" x="597.175781"/>
      <use xlink:href="#DejaVuSans-6f" x="636.039062"/>
      <use xlink:href="#DejaVuSans-72" x="697.220703"/>
      <use xlink:href="#DejaVuSans-20" x="738.333984"/>
      <use xlink:href="#DejaVuSans-28" x="770.121094"/>
      <use xlink:href="#DejaVuSans-6d" x="809.134766"/>
      <use xlink:href="#DejaVuSans-29" x="906.546875"/>
     </g>
    </g>
   </g>
   <g id="matplotlib.axis_2">
    <g id="ytick_1">
     <g id="line2d_10">
      <defs>
       <path id="mbddf1949f3" d="M 0 0 
L -3.5 0 
" style="stroke: #000000; stroke-width: 0.8"/>
      </defs>
      <g>
       <use xlink:href="#mbddf1949f3" x="135" y="378" style="stroke: #000000; stroke-width: 0.8"/>
      </g>
     </g>
     <g id="text_11">
      <!-- 0.00 -->
      <g transform="translate(105.734375 381.799219)scale(0.1 -0.1)">
       <defs>
        <path id="DejaVuSans-2e" d="M 684 794 
L 1344 794 
L 1344 0 
L 684 0 
L 684 794 
z
" transform="scale(0.015625)"/>
       </defs>
       <use xlink:href="#DejaVuSans-30"/>
       <use xlink:href="#DejaVuSans-2e" x="63.623047"/>
       <use xlink:href="#DejaVuSans-30" x="95.410156"/>
       <use xlink:href="#DejaVuSans-30" x="159.033203"/>
      </g>
     </g>
    </g>
    <g id="ytick_2">
     <g id="line2d_11">
      <g>
       <use xlink:href="#mbddf1949f3" x="135" y="337.827895" style="stroke: #000000; stroke-width: 0.8"/>
      </g>
     </g>
     <g id="text_12">
      <!-- 0.05 -->
      <g transform="translate(105.734375 341.627113)scale(0.1 -0.1)">
       <use xlink:href="#DejaVuSans-30"/>
       <use xlink:href="#DejaVuSans-2e" x="63.623047"/>
       <use xlink:href="#DejaVuSans-30" x="95.410156"/>
       <use xlink:href="#DejaVuSans-35" x="159.033203"/>
      </g>
     </g>
    </g>
    <g id="ytick_3">
     <g id="line2d_12">
      <g>
       <use xlink:href="#mbddf1949f3" x="135" y="297.655789" style="stroke: #000000; stroke-width: 0.8"/>
      </g>
     </g>
     <g id="text_13">
      <!-- 0.10 -->
      <g transform="translate(105.734375 301.455008)scale(0.1 -0.1)">
       <use xlink:href="#DejaVuSans-30"/>
       <use xlink:href="#DejaVuSans-2e" x="63.623047"/>
       <use xlink:href="#DejaVuSans-31" x="95.410156"/>
       <use xlink:href="#DejaVuSans-30" x="159.033203"/>
      </g>
     </g>
    </g>
    <g id="ytick_4">
     <g id="line2d_13">
      <g>
       <use xlink:href="#mbddf1949f3" x="135" y="257.483684" style="stroke: #000000; stroke-width: 0.8"/>
      </g>
     </g>
     <g id="text_14">
      <!-- 0.15 -->
      <g transform="translate(105.734375 261.282903)scale(0.1 -0.1)">
       <use xlink:href="#DejaVuSans-30"/>
       <use xlink:href="#DejaVuSans-2e" x="63.623047"/>
       <use xlink:href="#DejaVuSans-31" x="95.410156"/>
       <use xlink:href="#DejaVuSans-35" x="159.033203"/>
      </g>
     </g>
    </g>
    <g id="ytick_5">
     <g id="line2d_14">
      <g>
       <use xlink:href="#mbddf1949f3" x="135" y="217.311579" style="stroke: #000000; stroke-width: 0.8"/>
      </g>
     </g>
     <g id="text_15">
      <!-- 0.20 -->
      <g transform="translate(105.734375 221.110797)scale(0.1 -0.1)">
       <use xlink:href="#DejaVuSans-30"/>
       <use xlink:href="#DejaVuSans-2e" x="63.623047"/>
       <use xlink:href="#DejaVuSans-32" x="95.410156"/>
       <use xlink:href="#DejaVuSans-30" x="159.033203"/>
      </g>
     </g>
    </g>
    <g id="ytick_6">
     <g id="line2d_15">
      <g>
       <use xlink:href="#mbddf1949f3" x="135" y="177.139473" style="stroke: #000000; stroke-width: 0.8"/>
      </g>
     </g>
     <g id="text_16">
      <!-- 0.25 -->
      <g transform="translate(105.734375 180.938692)scale(0.1 -0.1)">
       <use xlink:href="#DejaVuSans-30"/>
       <use xlink:href="#DejaVuSans-2e" x="63.623047"/>
       <use xlink:href="#DejaVuSans-32" x="95.410156"/>
       <use xlink:href="#DejaVuSans-35" x="159.033203"/>
      </g>
     </g>
    </g>
    <g id="ytick_7">
     <g id="line2d_16">
      <g>
       <use xlink:href="#mbddf1949f3" x="135" y="136.967368" style="stroke: #000000; stroke-width: 0.8"/>
      </g>
     </g>
     <g id="text_17">
      <!-- 0.30 -->
      <g transform="translate(105.734375 140.766587)scale(0.1 -0.1)">
       <use xlink:href="#DejaVuSans-30"/>
       <use xlink:href="#DejaVuSans-2e" x="63.623047"/>
       <use xlink:href="#DejaVuSans-33" x="95.410156"/>
       <use xlink:href="#DejaVuSans-30" x="159.033203"/>
      </g>
     </g>
    </g>
    <g id="ytick_8">
     <g id="line2d_17">
      <g>
       <use xlink:href="#mbddf1949f3" x="135" y="96.795263" style="stroke: #000000; stroke-width: 0.8"/>
      </g>
     </g>
     <g id="text_18">
      <!-- 0.35 -->
      <g transform="translate(105.734375 100.594481)scale(0.1 -0.1)">
       <use xlink:href="#DejaVuSans-30"/>
       <use xlink:href="#DejaVuSans-2e" x="63.623047"/>
       <use xlink:href="#DejaVuSans-33" x="95.410156"/>
       <use xlink:href="#DejaVuSans-35" x="159.033203"/>
      </g>
     </g>
    </g>
    <g id="ytick_9">
     <g id="line2d_18">
      <g>
       <use xlink:href="#mbddf1949f3" x="135" y="56.623157" style="stroke: #000000; stroke-width: 0.8"/>
      </g>
     </g>
     <g id="text_19">
      <!-- 0.40 -->
      <g transform="translate(105.734375 60.422376)scale(0.1 -0.1)">
       <use xlink:href="#DejaVuSans-30"/>
       <use xlink:href="#DejaVuSans-2e" x="63.623047"/>
       <use xlink:href="#DejaVuSans-34" x="95.410156"/>
       <use xlink:href="#DejaVuSans-30" x="159.033203"/>
      </g>
     </g>
    </g>
    <g id="text_20">
     <!-- Density -->
     <g transform="translate(99.654687 233.928594)rotate(-90)scale(0.1 -0.1)">
      <defs>
       <path id="DejaVuSans-44" d="M 1259 4147 
L 1259 519 
L 2022 519 
Q 2988 519 3436 956 
Q 3884 1394 3884 2338 
Q 3884 3275 3436 3711 
Q 2988 4147 2022 4147 
L 1259 4147 
z
M 628 4666 
L 1925 4666 
Q 3281 4666 3915 4102 
Q 4550 3538 4550 2338 
Q 4550 1131 3912 565 
Q 3275 0 1925 0 
L 628 0 
L 628 4666 
z
" transform="scale(0.015625)"/>
       <path id="DejaVuSans-73" d="M 2834 3397 
L 2834 2853 
Q 2591 2978 2328 3040 
Q 2066 3103 1784 3103 
Q 1356 3103 1142 2972 
Q 928 2841 928 2578 
Q 928 2378 1081 2264 
Q 1234 2150 1697 2047 
L 1894 2003 
Q 2506 1872 2764 1633 
Q 3022 1394 3022 966 
Q 3022 478 2636 193 
Q 2250 -91 1575 -91 
Q 1294 -91 989 -36 
Q 684 19 347 128 
L 347 722 
Q 666 556 975 473 
Q 1284 391 1588 391 
Q 1994 391 2212 530 
Q 2431 669 2431 922 
Q 2431 1156 2273 1281 
Q 2116 1406 1581 1522 
L 1381 1569 
Q 847 1681 609 1914 
Q 372 2147 372 2553 
Q 372 3047 722 3315 
Q 1072 3584 1716 3584 
Q 2034 3584 2315 3537 
Q 2597 3491 2834 3397 
z
" transform="scale(0.015625)"/>
       <path id="DejaVuSans-79" d="M 2059 -325 
Q 1816 -950 1584 -1140 
Q 1353 -1331 966 -1331 
L 506 -1331 
L 506 -850 
L 844 -850 
Q 1081 -850 1212 -737 
Q 1344 -625 1503 -206 
L 1606 56 
L 191 3500 
L 800 3500 
L 1894 763 
L 2988 3500 
L 3597 3500 
L 2059 -325 
z
" transform="scale(0.015625)"/>
      </defs>
      <use xlink:href="#DejaVuSans-44"/>
      <use xlink:href="#DejaVuSans-65" x="77.001953"/>
      <use xlink:href="#DejaVuSans-6e" x="138.525391"/>
      <use xlink:href="#DejaVuSans-73" x="201.904297"/>
      <use xlink:href="#DejaVuSans-69" x="254.003906"/>
      <use xlink:href="#DejaVuSans-74" x="281.787109"/>
      <use xlink:href="#DejaVuSans-79" x="320.996094"/>
     </g>
    </g>
   </g>
   <g id="patch_3">
    <path d="M 135 378 
L 135 51.84 
" style="fill: none; stroke: #000000; stroke-width: 0.8; stroke-linejoin: miter; stroke-linecap: square"/>
   </g>
   <g id="patch_4">
    <path d="M 515.454545 378 
L 515.454545 51.84 
" style="fill: none; stroke: #000000; stroke-width: 0.8; stroke-linejoin: miter; stroke-linecap: square"/>
   </g>
   <g id="patch_5">
    <path d="M 135 378 
L 515.454545 378 
" style="fill: none; stroke: #000000; stroke-width: 0.8; stroke-linejoin: miter; stroke-linecap: square"/>
   </g>
   <g id="patch_6">
    <path d="M 135 51.84 
L 515.454545 51.84 
" style="fill: none; stroke: #000000; stroke-width: 0.8; stroke-linejoin: miter; stroke-linecap: square"/>
   </g>
   <g id="text_21">
    <!-- Excluding outliers, avg= 1.67m -->
    <g transform="translate(230.793835 45.84)scale(0.12 -0.12)">
     <defs>
      <path id="DejaVuSans-78" d="M 3513 3500 
L 2247 1797 
L 3578 0 
L 2900 0 
L 1881 1375 
L 863 0 
L 184 0 
L 1544 1831 
L 300 3500 
L 978 3500 
L 1906 2253 
L 2834 3500 
L 3513 3500 
z
" transform="scale(0.015625)"/>
      <path id="DejaVuSans-63" d="M 3122 3366 
L 3122 2828 
Q 2878 2963 2633 3030 
Q 2388 3097 2138 3097 
Q 1578 3097 1268 2742 
Q 959 2388 959 1747 
Q 959 1106 1268 751 
Q 1578 397 2138 397 
Q 2388 397 2633 464 
Q 2878 531 3122 666 
L 3122 134 
Q 2881 22 2623 -34 
Q 2366 -91 2075 -91 
Q 1284 -91 818 406 
Q 353 903 353 1747 
Q 353 2603 823 3093 
Q 1294 3584 2113 3584 
Q 2378 3584 2631 3529 
Q 2884 3475 3122 3366 
z
" transform="scale(0.015625)"/>
      <path id="DejaVuSans-75" d="M 544 1381 
L 544 3500 
L 1119 3500 
L 1119 1403 
Q 1119 906 1312 657 
Q 1506 409 1894 409 
Q 2359 409 2629 706 
Q 2900 1003 2900 1516 
L 2900 3500 
L 3475 3500 
L 3475 0 
L 2900 0 
L 2900 538 
Q 2691 219 2414 64 
Q 2138 -91 1772 -91 
Q 1169 -91 856 284 
Q 544 659 544 1381 
z
M 1991 3584 
L 1991 3584 
z
" transform="scale(0.015625)"/>
      <path id="DejaVuSans-64" d="M 2906 2969 
L 2906 4863 
L 3481 4863 
L 3481 0 
L 2906 0 
L 2906 525 
Q 2725 213 2448 61 
Q 2172 -91 1784 -91 
Q 1150 -91 751 415 
Q 353 922 353 1747 
Q 353 2572 751 3078 
Q 1150 3584 1784 3584 
Q 2172 3584 2448 3432 
Q 2725 3281 2906 2969 
z
M 947 1747 
Q 947 1113 1208 752 
Q 1469 391 1925 391 
Q 2381 391 2643 752 
Q 2906 1113 2906 1747 
Q 2906 2381 2643 2742 
Q 2381 3103 1925 3103 
Q 1469 3103 1208 2742 
Q 947 2381 947 1747 
z
" transform="scale(0.015625)"/>
      <path id="DejaVuSans-67" d="M 2906 1791 
Q 2906 2416 2648 2759 
Q 2391 3103 1925 3103 
Q 1463 3103 1205 2759 
Q 947 2416 947 1791 
Q 947 1169 1205 825 
Q 1463 481 1925 481 
Q 2391 481 2648 825 
Q 2906 1169 2906 1791 
z
M 3481 434 
Q 3481 -459 3084 -895 
Q 2688 -1331 1869 -1331 
Q 1566 -1331 1297 -1286 
Q 1028 -1241 775 -1147 
L 775 -588 
Q 1028 -725 1275 -790 
Q 1522 -856 1778 -856 
Q 2344 -856 2625 -561 
Q 2906 -266 2906 331 
L 2906 616 
Q 2728 306 2450 153 
Q 2172 0 1784 0 
Q 1141 0 747 490 
Q 353 981 353 1791 
Q 353 2603 747 3093 
Q 1141 3584 1784 3584 
Q 2172 3584 2450 3431 
Q 2728 3278 2906 2969 
L 2906 3500 
L 3481 3500 
L 3481 434 
z
" transform="scale(0.015625)"/>
      <path id="DejaVuSans-2c" d="M 750 794 
L 1409 794 
L 1409 256 
L 897 -744 
L 494 -744 
L 750 256 
L 750 794 
z
" transform="scale(0.015625)"/>
      <path id="DejaVuSans-3d" d="M 678 2906 
L 4684 2906 
L 4684 2381 
L 678 2381 
L 678 2906 
z
M 678 1631 
L 4684 1631 
L 4684 1100 
L 678 1100 
L 678 1631 
z
" transform="scale(0.015625)"/>
     </defs>
     <use xlink:href="#DejaVuSans-45"/>
     <use xlink:href="#DejaVuSans-78" x="63.183594"/>
     <use xlink:href="#DejaVuSans-63" x="120.613281"/>
     <use xlink:href="#DejaVuSans-6c" x="175.59375"/>
     <use xlink:href="#DejaVuSans-75" x="203.376953"/>
     <use xlink:href="#DejaVuSans-64" x="266.755859"/>
     <use xlink:href="#DejaVuSans-69" x="330.232422"/>
     <use xlink:href="#DejaVuSans-6e" x="358.015625"/>
     <use xlink:href="#DejaVuSans-67" x="421.394531"/>
     <use xlink:href="#DejaVuSans-20" x="484.871094"/>
     <use xlink:href="#DejaVuSans-6f" x="516.658203"/>
     <use xlink:href="#DejaVuSans-75" x="577.839844"/>
     <use xlink:href="#DejaVuSans-74" x="641.21875"/>
     <use xlink:href="#DejaVuSans-6c" x="680.427734"/>
     <use xlink:href="#DejaVuSans-69" x="708.210938"/>
     <use xlink:href="#DejaVuSans-65" x="735.994141"/>
     <use xlink:href="#DejaVuSans-72" x="797.517578"/>
     <use xlink:href="#DejaVuSans-73" x="838.630859"/>
     <use xlink:href="#DejaVuSans-2c" x="890.730469"/>
     <use xlink:href="#DejaVuSans-20" x="922.517578"/>
     <use xlink:href="#DejaVuSans-61" x="954.304688"/>
     <use xlink:href="#DejaVuSans-76" x="1015.583984"/>
     <use xlink:href="#DejaVuSans-67" x="1074.763672"/>
     <use xlink:href="#DejaVuSans-3d" x="1138.240234"/>
     <use xlink:href="#DejaVuSans-20" x="1222.029297"/>
     <use xlink:href="#DejaVuSans-31" x="1253.816406"/>
     <use xlink:href="#DejaVuSans-2e" x="1317.439453"/>
     <use xlink:href="#DejaVuSans-36" x="1349.226562"/>
     <use xlink:href="#DejaVuSans-37" x="1412.849609"/>
     <use xlink:href="#DejaVuSans-6d" x="1476.472656"/>
    </g>
   </g>
  </g>
  <g id="axes_2">
   <g id="patch_7">
    <path d="M 591.545455 378 
L 972 378 
L 972 51.84 
L 591.545455 51.84 
z
" style="fill: #ffffff"/>
   </g>
   <g id="PolyCollection_2">
    <defs>
     <path id="mca21c28069" d="M 580.688666 -54.773624 
L 580.688666 -54 
L 582.561417 -54 
L 584.434168 -54 
L 586.306919 -54 
L 588.17967 -54 
L 590.052421 -54 
L 591.925172 -54 
L 593.797923 -54 
L 595.670674 -54 
L 597.543425 -54 
L 599.416176 -54 
L 601.288927 -54 
L 603.161678 -54 
L 605.034429 -54 
L 606.907181 -54 
L 608.779932 -54 
L 610.652683 -54 
L 612.525434 -54 
L 614.398185 -54 
L 616.270936 -54 
L 618.143687 -54 
L 620.016438 -54 
L 621.889189 -54 
L 623.76194 -54 
L 625.634691 -54 
L 627.507442 -54 
L 629.380193 -54 
L 631.252944 -54 
L 633.125695 -54 
L 634.998446 -54 
L 636.871198 -54 
L 638.743949 -54 
L 640.6167 -54 
L 642.489451 -54 
L 644.362202 -54 
L 646.234953 -54 
L 648.107704 -54 
L 649.980455 -54 
L 651.853206 -54 
L 653.725957 -54 
L 655.598708 -54 
L 657.471459 -54 
L 659.34421 -54 
L 661.216961 -54 
L 663.089712 -54 
L 664.962463 -54 
L 666.835215 -54 
L 668.707966 -54 
L 670.580717 -54 
L 672.453468 -54 
L 674.326219 -54 
L 676.19897 -54 
L 678.071721 -54 
L 679.944472 -54 
L 681.817223 -54 
L 683.689974 -54 
L 685.562725 -54 
L 687.435476 -54 
L 689.308227 -54 
L 691.180978 -54 
L 693.053729 -54 
L 694.92648 -54 
L 696.799231 -54 
L 698.671983 -54 
L 700.544734 -54 
L 702.417485 -54 
L 704.290236 -54 
L 706.162987 -54 
L 708.035738 -54 
L 709.908489 -54 
L 711.78124 -54 
L 713.653991 -54 
L 715.526742 -54 
L 717.399493 -54 
L 719.272244 -54 
L 721.144995 -54 
L 723.017746 -54 
L 724.890497 -54 
L 726.763248 -54 
L 728.636 -54 
L 730.508751 -54 
L 732.381502 -54 
L 734.254253 -54 
L 736.127004 -54 
L 737.999755 -54 
L 739.872506 -54 
L 741.745257 -54 
L 743.618008 -54 
L 745.490759 -54 
L 747.36351 -54 
L 749.236261 -54 
L 751.109012 -54 
L 752.981763 -54 
L 754.854514 -54 
L 756.727265 -54 
L 758.600017 -54 
L 760.472768 -54 
L 762.345519 -54 
L 764.21827 -54 
L 766.091021 -54 
L 767.963772 -54 
L 769.836523 -54 
L 771.709274 -54 
L 773.582025 -54 
L 775.454776 -54 
L 777.327527 -54 
L 779.200278 -54 
L 781.073029 -54 
L 782.94578 -54 
L 784.818531 -54 
L 786.691282 -54 
L 788.564034 -54 
L 790.436785 -54 
L 792.309536 -54 
L 794.182287 -54 
L 796.055038 -54 
L 797.927789 -54 
L 799.80054 -54 
L 801.673291 -54 
L 803.546042 -54 
L 805.418793 -54 
L 807.291544 -54 
L 809.164295 -54 
L 811.037046 -54 
L 812.909797 -54 
L 814.782548 -54 
L 816.655299 -54 
L 818.52805 -54 
L 820.400802 -54 
L 822.273553 -54 
L 824.146304 -54 
L 826.019055 -54 
L 827.891806 -54 
L 829.764557 -54 
L 831.637308 -54 
L 833.510059 -54 
L 835.38281 -54 
L 837.255561 -54 
L 839.128312 -54 
L 841.001063 -54 
L 842.873814 -54 
L 844.746565 -54 
L 846.619316 -54 
L 848.492067 -54 
L 850.364819 -54 
L 852.23757 -54 
L 854.110321 -54 
L 855.983072 -54 
L 857.855823 -54 
L 859.728574 -54 
L 861.601325 -54 
L 863.474076 -54 
L 865.346827 -54 
L 867.219578 -54 
L 869.092329 -54 
L 870.96508 -54 
L 872.837831 -54 
L 874.710582 -54 
L 876.583333 -54 
L 878.456084 -54 
L 880.328836 -54 
L 882.201587 -54 
L 884.074338 -54 
L 885.947089 -54 
L 887.81984 -54 
L 889.692591 -54 
L 891.565342 -54 
L 893.438093 -54 
L 895.310844 -54 
L 897.183595 -54 
L 899.056346 -54 
L 900.929097 -54 
L 902.801848 -54 
L 904.674599 -54 
L 906.54735 -54 
L 908.420101 -54 
L 910.292853 -54 
L 912.165604 -54 
L 914.038355 -54 
L 915.911106 -54 
L 917.783857 -54 
L 919.656608 -54 
L 921.529359 -54 
L 923.40211 -54 
L 925.274861 -54 
L 927.147612 -54 
L 929.020363 -54 
L 930.893114 -54 
L 932.765865 -54 
L 934.638616 -54 
L 936.511367 -54 
L 938.384118 -54 
L 940.25687 -54 
L 942.129621 -54 
L 944.002372 -54 
L 945.875123 -54 
L 947.747874 -54 
L 949.620625 -54 
L 951.493376 -54 
L 953.366127 -54 
L 953.366127 -54.001161 
L 953.366127 -54.001161 
L 951.493376 -54.004798 
L 949.620625 -54.015166 
L 947.747874 -54.036672 
L 945.875123 -54.067843 
L 944.002372 -54.096024 
L 942.129621 -54.10398 
L 940.25687 -54.086145 
L 938.384118 -54.054622 
L 936.511367 -54.026643 
L 934.638616 -54.010757 
L 932.765865 -54.006795 
L 930.893114 -54.013747 
L 929.020363 -54.033078 
L 927.147612 -54.063324 
L 925.274861 -54.092992 
L 923.40211 -54.104495 
L 921.529359 -54.089837 
L 919.656608 -54.059089 
L 917.783857 -54.029735 
L 915.911106 -54.011448 
L 914.038355 -54.003372 
L 912.165604 -54.00076 
L 910.292853 -54.000131 
L 908.420101 -54.000017 
L 906.54735 -54.000002 
L 904.674599 -54.000006 
L 902.801848 -54.000054 
L 900.929097 -54.000351 
L 899.056346 -54.001763 
L 897.183595 -54.006778 
L 895.310844 -54.019985 
L 893.438093 -54.04537 
L 891.565342 -54.080068 
L 889.692591 -54.112359 
L 887.81984 -54.131361 
L 885.947089 -54.137433 
L 884.074338 -54.136026 
L 882.201587 -54.125218 
L 880.328836 -54.099921 
L 878.456084 -54.064903 
L 876.583333 -54.033128 
L 874.710582 -54.013078 
L 872.837831 -54.003967 
L 870.96508 -54.000922 
L 869.092329 -54.000165 
L 867.219578 -54.000036 
L 865.346827 -54.000106 
L 863.474076 -54.000624 
L 861.601325 -54.002859 
L 859.728574 -54.010023 
L 857.855823 -54.026887 
L 855.983072 -54.055181 
L 854.110321 -54.086648 
L 852.23757 -54.104145 
L 850.364819 -54.096081 
L 848.492067 -54.069348 
L 846.619316 -54.043964 
L 844.746565 -54.037046 
L 842.873814 -54.052958 
L 841.001063 -54.081797 
L 839.128312 -54.104389 
L 837.255561 -54.106904 
L 835.38281 -54.095139 
L 833.510059 -54.088503 
L 831.637308 -54.096691 
L 829.764557 -54.107644 
L 827.891806 -54.102326 
L 826.019055 -54.076843 
L 824.146304 -54.044528 
L 822.273553 -54.019785 
L 820.400802 -54.006729 
L 818.52805 -54.001751 
L 816.655299 -54.000349 
L 814.782548 -54.000054 
L 812.909797 -54.000011 
L 811.037046 -54.000041 
L 809.164295 -54.000285 
L 807.291544 -54.001531 
L 805.418793 -54.006388 
L 803.546042 -54.020788 
L 801.673291 -54.053289 
L 799.80054 -54.109296 
L 797.927789 -54.183711 
L 796.055038 -54.261751 
L 794.182287 -54.328859 
L 792.309536 -54.376809 
L 790.436785 -54.399947 
L 788.564034 -54.390859 
L 786.691282 -54.343272 
L 784.818531 -54.261382 
L 782.94578 -54.166118 
L 781.073029 -54.085367 
L 779.200278 -54.034731 
L 777.327527 -54.011307 
L 775.454776 -54.00432 
L 773.582025 -54.006847 
L 771.709274 -54.018954 
L 769.836523 -54.043029 
L 767.963772 -54.074997 
L 766.091021 -54.100022 
L 764.21827 -54.102065 
L 762.345519 -54.079729 
L 760.472768 -54.047958 
L 758.600017 -54.023606 
L 756.727265 -54.014686 
L 754.854514 -54.022681 
L 752.981763 -54.046652 
L 751.109012 -54.080243 
L 749.236261 -54.109871 
L 747.36351 -54.124745 
L 745.490759 -54.127953 
L 743.618008 -54.129604 
L 741.745257 -54.1325 
L 739.872506 -54.137299 
L 737.999755 -54.158482 
L 736.127004 -54.216586 
L 734.254253 -54.31065 
L 732.381502 -54.415304 
L 730.508751 -54.510842 
L 728.636 -54.595626 
L 726.763248 -54.661995 
L 724.890497 -54.688192 
L 723.017746 -54.666515 
L 721.144995 -54.618759 
L 719.272244 -54.57958 
L 717.399493 -54.572848 
L 715.526742 -54.593092 
L 713.653991 -54.606941 
L 711.78124 -54.585718 
L 709.908489 -54.533336 
L 708.035738 -54.476572 
L 706.162987 -54.438653 
L 704.290236 -54.424587 
L 702.417485 -54.423772 
L 700.544734 -54.426654 
L 698.671983 -54.43669 
L 696.799231 -54.458933 
L 694.92648 -54.485505 
L 693.053729 -54.50414 
L 691.180978 -54.514156 
L 689.308227 -54.529524 
L 687.435476 -54.570664 
L 685.562725 -54.646121 
L 683.689974 -54.740767 
L 681.817223 -54.834348 
L 679.944472 -54.928133 
L 678.071721 -55.043706 
L 676.19897 -55.19512 
L 674.326219 -55.353484 
L 672.453468 -55.445525 
L 670.580717 -55.417335 
L 668.707966 -55.297075 
L 666.835215 -55.17629 
L 664.962463 -55.148474 
L 663.089712 -55.265323 
L 661.216961 -55.50058 
L 659.34421 -55.744189 
L 657.471459 -55.882681 
L 655.598708 -55.90753 
L 653.725957 -55.918189 
L 651.853206 -56.013903 
L 649.980455 -56.210548 
L 648.107704 -56.462845 
L 646.234953 -56.72621 
L 644.362202 -56.979049 
L 642.489451 -57.214708 
L 640.6167 -57.431825 
L 638.743949 -57.620036 
L 636.871198 -57.747221 
L 634.998446 -57.779595 
L 633.125695 -57.747943 
L 631.252944 -57.797563 
L 629.380193 -58.140929 
L 627.507442 -58.961957 
L 625.634691 -60.36468 
L 623.76194 -62.302869 
L 621.889189 -64.465071 
L 620.016438 -66.346074 
L 618.143687 -67.599692 
L 616.270936 -68.367484 
L 614.398185 -69.367041 
L 612.525434 -71.803232 
L 610.652683 -77.090856 
L 608.779932 -86.547687 
L 606.907181 -101.67952 
L 605.034429 -125.06274 
L 603.161678 -160.271738 
L 601.288927 -209.485936 
L 599.416176 -269.543227 
L 597.543425 -328.299778 
L 595.670674 -364.628571 
L 593.797923 -357.601251 
L 591.925172 -303.182908 
L 590.052421 -221.984418 
L 588.17967 -145.467779 
L 586.306919 -93.730448 
L 584.434168 -67.640676 
L 582.561417 -57.676215 
L 580.688666 -54.773624 
z
" style="stroke: #1f77b4"/>
    </defs>
    <g clip-path="url(#p012e88e4c9)">
     <use xlink:href="#mca21c28069" x="0" y="432" style="fill: #1f77b4; fill-opacity: 0.25; stroke: #1f77b4"/>
    </g>
   </g>
   <g id="matplotlib.axis_3">
    <g id="xtick_10">
     <g id="line2d_19">
      <g>
       <use xlink:href="#mdddc1c578a" x="591.545455" y="378" style="stroke: #000000; stroke-width: 0.8"/>
      </g>
     </g>
     <g id="text_22">
      <!-- 0 -->
      <g transform="translate(588.364205 392.598437)scale(0.1 -0.1)">
       <use xlink:href="#DejaVuSans-30"/>
      </g>
     </g>
    </g>
    <g id="xtick_11">
     <g id="line2d_20">
      <g>
       <use xlink:href="#mdddc1c578a" x="649.080517" y="378" style="stroke: #000000; stroke-width: 0.8"/>
      </g>
     </g>
     <g id="text_23">
      <!-- 20 -->
      <g transform="translate(642.718017 392.598437)scale(0.1 -0.1)">
       <use xlink:href="#DejaVuSans-32"/>
       <use xlink:href="#DejaVuSans-30" x="63.623047"/>
      </g>
     </g>
    </g>
    <g id="xtick_12">
     <g id="line2d_21">
      <g>
       <use xlink:href="#mdddc1c578a" x="706.61558" y="378" style="stroke: #000000; stroke-width: 0.8"/>
      </g>
     </g>
     <g id="text_24">
      <!-- 40 -->
      <g transform="translate(700.25308 392.598437)scale(0.1 -0.1)">
       <use xlink:href="#DejaVuSans-34"/>
       <use xlink:href="#DejaVuSans-30" x="63.623047"/>
      </g>
     </g>
    </g>
    <g id="xtick_13">
     <g id="line2d_22">
      <g>
       <use xlink:href="#mdddc1c578a" x="764.150643" y="378" style="stroke: #000000; stroke-width: 0.8"/>
      </g>
     </g>
     <g id="text_25">
      <!-- 60 -->
      <g transform="translate(757.788143 392.598437)scale(0.1 -0.1)">
       <use xlink:href="#DejaVuSans-36"/>
       <use xlink:href="#DejaVuSans-30" x="63.623047"/>
      </g>
     </g>
    </g>
    <g id="xtick_14">
     <g id="line2d_23">
      <g>
       <use xlink:href="#mdddc1c578a" x="821.685706" y="378" style="stroke: #000000; stroke-width: 0.8"/>
      </g>
     </g>
     <g id="text_26">
      <!-- 80 -->
      <g transform="translate(815.323206 392.598437)scale(0.1 -0.1)">
       <use xlink:href="#DejaVuSans-38"/>
       <use xlink:href="#DejaVuSans-30" x="63.623047"/>
      </g>
     </g>
    </g>
    <g id="xtick_15">
     <g id="line2d_24">
      <g>
       <use xlink:href="#mdddc1c578a" x="879.220769" y="378" style="stroke: #000000; stroke-width: 0.8"/>
      </g>
     </g>
     <g id="text_27">
      <!-- 100 -->
      <g transform="translate(869.677019 392.598437)scale(0.1 -0.1)">
       <use xlink:href="#DejaVuSans-31"/>
       <use xlink:href="#DejaVuSans-30" x="63.623047"/>
       <use xlink:href="#DejaVuSans-30" x="127.246094"/>
      </g>
     </g>
    </g>
    <g id="xtick_16">
     <g id="line2d_25">
      <g>
       <use xlink:href="#mdddc1c578a" x="936.755832" y="378" style="stroke: #000000; stroke-width: 0.8"/>
      </g>
     </g>
     <g id="text_28">
      <!-- 120 -->
      <g transform="translate(927.212082 392.598437)scale(0.1 -0.1)">
       <use xlink:href="#DejaVuSans-31"/>
       <use xlink:href="#DejaVuSans-32" x="63.623047"/>
       <use xlink:href="#DejaVuSans-30" x="127.246094"/>
      </g>
     </g>
    </g>
    <g id="text_29">
     <!-- Elevation error (m) -->
     <g transform="translate(734.494602 406.276563)scale(0.1 -0.1)">
      <use xlink:href="#DejaVuSans-45"/>
      <use xlink:href="#DejaVuSans-6c" x="63.183594"/>
      <use xlink:href="#DejaVuSans-65" x="90.966797"/>
      <use xlink:href="#DejaVuSans-76" x="152.490234"/>
      <use xlink:href="#DejaVuSans-61" x="211.669922"/>
      <use xlink:href="#DejaVuSans-74" x="272.949219"/>
      <use xlink:href="#DejaVuSans-69" x="312.158203"/>
      <use xlink:href="#DejaVuSans-6f" x="339.941406"/>
      <use xlink:href="#DejaVuSans-6e" x="401.123047"/>
      <use xlink:href="#DejaVuSans-20" x="464.501953"/>
      <use xlink:href="#DejaVuSans-65" x="496.289062"/>
      <use xlink:href="#DejaVuSans-72" x="557.8125"/>
      <use xlink:href="#DejaVuSans-72" x="597.175781"/>
      <use xlink:href="#DejaVuSans-6f" x="636.039062"/>
      <use xlink:href="#DejaVuSans-72" x="697.220703"/>
      <use xlink:href="#DejaVuSans-20" x="738.333984"/>
      <use xlink:href="#DejaVuSans-28" x="770.121094"/>
      <use xlink:href="#DejaVuSans-6d" x="809.134766"/>
      <use xlink:href="#DejaVuSans-29" x="906.546875"/>
     </g>
    </g>
   </g>
   <g id="matplotlib.axis_4">
    <g id="ytick_10">
     <g id="line2d_26">
      <g>
       <use xlink:href="#mbddf1949f3" x="591.545455" y="378" style="stroke: #000000; stroke-width: 0.8"/>
      </g>
     </g>
     <g id="text_30">
      <!-- 0.000 -->
      <g transform="translate(555.91733 381.799219)scale(0.1 -0.1)">
       <use xlink:href="#DejaVuSans-30"/>
       <use xlink:href="#DejaVuSans-2e" x="63.623047"/>
       <use xlink:href="#DejaVuSans-30" x="95.410156"/>
       <use xlink:href="#DejaVuSans-30" x="159.033203"/>
       <use xlink:href="#DejaVuSans-30" x="222.65625"/>
      </g>
     </g>
    </g>
    <g id="ytick_11">
     <g id="line2d_27">
      <g>
       <use xlink:href="#mbddf1949f3" x="591.545455" y="340.604911" style="stroke: #000000; stroke-width: 0.8"/>
      </g>
     </g>
     <g id="text_31">
      <!-- 0.025 -->
      <g transform="translate(555.91733 344.40413)scale(0.1 -0.1)">
       <use xlink:href="#DejaVuSans-30"/>
       <use xlink:href="#DejaVuSans-2e" x="63.623047"/>
       <use xlink:href="#DejaVuSans-30" x="95.410156"/>
       <use xlink:href="#DejaVuSans-32" x="159.033203"/>
       <use xlink:href="#DejaVuSans-35" x="222.65625"/>
      </g>
     </g>
    </g>
    <g id="ytick_12">
     <g id="line2d_28">
      <g>
       <use xlink:href="#mbddf1949f3" x="591.545455" y="303.209823" style="stroke: #000000; stroke-width: 0.8"/>
      </g>
     </g>
     <g id="text_32">
      <!-- 0.050 -->
      <g transform="translate(555.91733 307.009042)scale(0.1 -0.1)">
       <use xlink:href="#DejaVuSans-30"/>
       <use xlink:href="#DejaVuSans-2e" x="63.623047"/>
       <use xlink:href="#DejaVuSans-30" x="95.410156"/>
       <use xlink:href="#DejaVuSans-35" x="159.033203"/>
       <use xlink:href="#DejaVuSans-30" x="222.65625"/>
      </g>
     </g>
    </g>
    <g id="ytick_13">
     <g id="line2d_29">
      <g>
       <use xlink:href="#mbddf1949f3" x="591.545455" y="265.814734" style="stroke: #000000; stroke-width: 0.8"/>
      </g>
     </g>
     <g id="text_33">
      <!-- 0.075 -->
      <g transform="translate(555.91733 269.613953)scale(0.1 -0.1)">
       <use xlink:href="#DejaVuSans-30"/>
       <use xlink:href="#DejaVuSans-2e" x="63.623047"/>
       <use xlink:href="#DejaVuSans-30" x="95.410156"/>
       <use xlink:href="#DejaVuSans-37" x="159.033203"/>
       <use xlink:href="#DejaVuSans-35" x="222.65625"/>
      </g>
     </g>
    </g>
    <g id="ytick_14">
     <g id="line2d_30">
      <g>
       <use xlink:href="#mbddf1949f3" x="591.545455" y="228.419646" style="stroke: #000000; stroke-width: 0.8"/>
      </g>
     </g>
     <g id="text_34">
      <!-- 0.100 -->
      <g transform="translate(555.91733 232.218865)scale(0.1 -0.1)">
       <use xlink:href="#DejaVuSans-30"/>
       <use xlink:href="#DejaVuSans-2e" x="63.623047"/>
       <use xlink:href="#DejaVuSans-31" x="95.410156"/>
       <use xlink:href="#DejaVuSans-30" x="159.033203"/>
       <use xlink:href="#DejaVuSans-30" x="222.65625"/>
      </g>
     </g>
    </g>
    <g id="ytick_15">
     <g id="line2d_31">
      <g>
       <use xlink:href="#mbddf1949f3" x="591.545455" y="191.024557" style="stroke: #000000; stroke-width: 0.8"/>
      </g>
     </g>
     <g id="text_35">
      <!-- 0.125 -->
      <g transform="translate(555.91733 194.823776)scale(0.1 -0.1)">
       <use xlink:href="#DejaVuSans-30"/>
       <use xlink:href="#DejaVuSans-2e" x="63.623047"/>
       <use xlink:href="#DejaVuSans-31" x="95.410156"/>
       <use xlink:href="#DejaVuSans-32" x="159.033203"/>
       <use xlink:href="#DejaVuSans-35" x="222.65625"/>
      </g>
     </g>
    </g>
    <g id="ytick_16">
     <g id="line2d_32">
      <g>
       <use xlink:href="#mbddf1949f3" x="591.545455" y="153.629469" style="stroke: #000000; stroke-width: 0.8"/>
      </g>
     </g>
     <g id="text_36">
      <!-- 0.150 -->
      <g transform="translate(555.91733 157.428687)scale(0.1 -0.1)">
       <use xlink:href="#DejaVuSans-30"/>
       <use xlink:href="#DejaVuSans-2e" x="63.623047"/>
       <use xlink:href="#DejaVuSans-31" x="95.410156"/>
       <use xlink:href="#DejaVuSans-35" x="159.033203"/>
       <use xlink:href="#DejaVuSans-30" x="222.65625"/>
      </g>
     </g>
    </g>
    <g id="ytick_17">
     <g id="line2d_33">
      <g>
       <use xlink:href="#mbddf1949f3" x="591.545455" y="116.23438" style="stroke: #000000; stroke-width: 0.8"/>
      </g>
     </g>
     <g id="text_37">
      <!-- 0.175 -->
      <g transform="translate(555.91733 120.033599)scale(0.1 -0.1)">
       <use xlink:href="#DejaVuSans-30"/>
       <use xlink:href="#DejaVuSans-2e" x="63.623047"/>
       <use xlink:href="#DejaVuSans-31" x="95.410156"/>
       <use xlink:href="#DejaVuSans-37" x="159.033203"/>
       <use xlink:href="#DejaVuSans-35" x="222.65625"/>
      </g>
     </g>
    </g>
    <g id="ytick_18">
     <g id="line2d_34">
      <g>
       <use xlink:href="#mbddf1949f3" x="591.545455" y="78.839292" style="stroke: #000000; stroke-width: 0.8"/>
      </g>
     </g>
     <g id="text_38">
      <!-- 0.200 -->
      <g transform="translate(555.91733 82.63851)scale(0.1 -0.1)">
       <use xlink:href="#DejaVuSans-30"/>
       <use xlink:href="#DejaVuSans-2e" x="63.623047"/>
       <use xlink:href="#DejaVuSans-32" x="95.410156"/>
       <use xlink:href="#DejaVuSans-30" x="159.033203"/>
       <use xlink:href="#DejaVuSans-30" x="222.65625"/>
      </g>
     </g>
    </g>
    <g id="text_39">
     <!-- Density -->
     <g transform="translate(549.837642 233.928594)rotate(-90)scale(0.1 -0.1)">
      <use xlink:href="#DejaVuSans-44"/>
      <use xlink:href="#DejaVuSans-65" x="77.001953"/>
      <use xlink:href="#DejaVuSans-6e" x="138.525391"/>
      <use xlink:href="#DejaVuSans-73" x="201.904297"/>
      <use xlink:href="#DejaVuSans-69" x="254.003906"/>
      <use xlink:href="#DejaVuSans-74" x="281.787109"/>
      <use xlink:href="#DejaVuSans-79" x="320.996094"/>
     </g>
    </g>
   </g>
   <g id="patch_8">
    <path d="M 591.545455 378 
L 591.545455 51.84 
" style="fill: none; stroke: #000000; stroke-width: 0.8; stroke-linejoin: miter; stroke-linecap: square"/>
   </g>
   <g id="patch_9">
    <path d="M 972 378 
L 972 51.84 
" style="fill: none; stroke: #000000; stroke-width: 0.8; stroke-linejoin: miter; stroke-linecap: square"/>
   </g>
   <g id="patch_10">
    <path d="M 591.545455 378 
L 972 378 
" style="fill: none; stroke: #000000; stroke-width: 0.8; stroke-linejoin: miter; stroke-linecap: square"/>
   </g>
   <g id="patch_11">
    <path d="M 591.545455 51.84 
L 972 51.84 
" style="fill: none; stroke: #000000; stroke-width: 0.8; stroke-linejoin: miter; stroke-linecap: square"/>
   </g>
   <g id="text_40">
    <!-- Including outliers, avg= 3.03m -->
    <g transform="translate(689.00429 45.84)scale(0.12 -0.12)">
     <defs>
      <path id="DejaVuSans-49" d="M 628 4666 
L 1259 4666 
L 1259 0 
L 628 0 
L 628 4666 
z
" transform="scale(0.015625)"/>
     </defs>
     <use xlink:href="#DejaVuSans-49"/>
     <use xlink:href="#DejaVuSans-6e" x="29.492188"/>
     <use xlink:href="#DejaVuSans-63" x="92.871094"/>
     <use xlink:href="#DejaVuSans-6c" x="147.851562"/>
     <use xlink:href="#DejaVuSans-75" x="175.634766"/>
     <use xlink:href="#DejaVuSans-64" x="239.013672"/>
     <use xlink:href="#DejaVuSans-69" x="302.490234"/>
     <use xlink:href="#DejaVuSans-6e" x="330.273438"/>
     <use xlink:href="#DejaVuSans-67" x="393.652344"/>
     <use xlink:href="#DejaVuSans-20" x="457.128906"/>
     <use xlink:href="#DejaVuSans-6f" x="488.916016"/>
     <use xlink:href="#DejaVuSans-75" x="550.097656"/>
     <use xlink:href="#DejaVuSans-74" x="613.476562"/>
     <use xlink:href="#DejaVuSans-6c" x="652.685547"/>
     <use xlink:href="#DejaVuSans-69" x="680.46875"/>
     <use xlink:href="#DejaVuSans-65" x="708.251953"/>
     <use xlink:href="#DejaVuSans-72" x="769.775391"/>
     <use xlink:href="#DejaVuSans-73" x="810.888672"/>
     <use xlink:href="#DejaVuSans-2c" x="862.988281"/>
     <use xlink:href="#DejaVuSans-20" x="894.775391"/>
     <use xlink:href="#DejaVuSans-61" x="926.5625"/>
     <use xlink:href="#DejaVuSans-76" x="987.841797"/>
     <use xlink:href="#DejaVuSans-67" x="1047.021484"/>
     <use xlink:href="#DejaVuSans-3d" x="1110.498047"/>
     <use xlink:href="#DejaVuSans-20" x="1194.287109"/>
     <use xlink:href="#DejaVuSans-33" x="1226.074219"/>
     <use xlink:href="#DejaVuSans-2e" x="1289.697266"/>
     <use xlink:href="#DejaVuSans-30" x="1321.484375"/>
     <use xlink:href="#DejaVuSans-33" x="1385.107422"/>
     <use xlink:href="#DejaVuSans-6d" x="1448.730469"/>
    </g>
   </g>
  </g>
  <g id="text_41">
   <!-- Elevation measurement errors (m) -->
   <g transform="translate(436.378125 17.758125)scale(0.12 -0.12)">
    <use xlink:href="#DejaVuSans-45"/>
    <use xlink:href="#DejaVuSans-6c" x="63.183594"/>
    <use xlink:href="#DejaVuSans-65" x="90.966797"/>
    <use xlink:href="#DejaVuSans-76" x="152.490234"/>
    <use xlink:href="#DejaVuSans-61" x="211.669922"/>
    <use xlink:href="#DejaVuSans-74" x="272.949219"/>
    <use xlink:href="#DejaVuSans-69" x="312.158203"/>
    <use xlink:href="#DejaVuSans-6f" x="339.941406"/>
    <use xlink:href="#DejaVuSans-6e" x="401.123047"/>
    <use xlink:href="#DejaVuSans-20" x="464.501953"/>
    <use xlink:href="#DejaVuSans-6d" x="496.289062"/>
    <use xlink:href="#DejaVuSans-65" x="593.701172"/>
    <use xlink:href="#DejaVuSans-61" x="655.224609"/>
    <use xlink:href="#DejaVuSans-73" x="716.503906"/>
    <use xlink:href="#DejaVuSans-75" x="768.603516"/>
    <use xlink:href="#DejaVuSans-72" x="831.982422"/>
    <use xlink:href="#DejaVuSans-65" x="870.845703"/>
    <use xlink:href="#DejaVuSans-6d" x="932.369141"/>
    <use xlink:href="#DejaVuSans-65" x="1029.78125"/>
    <use xlink:href="#DejaVuSans-6e" x="1091.304688"/>
    <use xlink:href="#DejaVuSans-74" x="1154.683594"/>
    <use xlink:href="#DejaVuSans-20" x="1193.892578"/>
    <use xlink:href="#DejaVuSans-65" x="1225.679688"/>
    <use xlink:href="#DejaVuSans-72" x="1287.203125"/>
    <use xlink:href="#DejaVuSans-72" x="1326.566406"/>
    <use xlink:href="#DejaVuSans-6f" x="1365.429688"/>
    <use xlink:href="#DejaVuSans-72" x="1426.611328"/>
    <use xlink:href="#DejaVuSans-73" x="1467.724609"/>
    <use xlink:href="#DejaVuSans-20" x="1519.824219"/>
    <use xlink:href="#DejaVuSans-28" x="1551.611328"/>
    <use xlink:href="#DejaVuSans-6d" x="1590.625"/>
    <use xlink:href="#DejaVuSans-29" x="1688.037109"/>
   </g>
  </g>
 </g>
 <defs>
  <clipPath id="p872768e7e8">
   <rect x="135" y="51.84" width="380.454545" height="326.16"/>
  </clipPath>
  <clipPath id="p012e88e4c9">
   <rect x="591.545455" y="51.84" width="380.454545" height="326.16"/>
  </clipPath>
 </defs>
</svg>
