<?xml version="1.0" encoding="utf-8" standalone="no"?>
<!DOCTYPE svg PUBLIC "-//W3C//DTD SVG 1.1//EN"
  "http://www.w3.org/Graphics/SVG/1.1/DTD/svg11.dtd">
<svg xmlns:xlink="http://www.w3.org/1999/xlink" width="576pt" height="576pt" viewBox="0 0 576 576" xmlns="http://www.w3.org/2000/svg" version="1.1">
 <metadata>
  <rdf:RDF xmlns:dc="http://purl.org/dc/elements/1.1/" xmlns:cc="http://creativecommons.org/ns#" xmlns:rdf="http://www.w3.org/1999/02/22-rdf-syntax-ns#">
   <cc:Work>
    <dc:type rdf:resource="http://purl.org/dc/dcmitype/StillImage"/>
    <dc:date>2022-05-02T17:09:11.504171</dc:date>
    <dc:format>image/svg+xml</dc:format>
    <dc:creator>
     <cc:Agent>
      <dc:title>Matplotlib v3.5.1, https://matplotlib.org/</dc:title>
     </cc:Agent>
    </dc:creator>
   </cc:Work>
  </rdf:RDF>
 </metadata>
 <defs>
  <style type="text/css">*{stroke-linejoin: round; stroke-linecap: butt}</style>
 </defs>
 <g id="figure_1">
  <g id="patch_1">
   <path d="M 0 576 
L 576 576 
L 576 0 
L 0 0 
L 0 576 
z
" style="fill: none"/>
  </g>
  <g id="axes_1">
   <g id="patch_2">
    <path d="M 83.325 181.5 
L 545.55 181.5 
L 545.55 29.2 
L 83.325 29.2 
z
" style="fill: #ffffff"/>
   </g>
   <g id="PolyCollection_1">
    <defs>
     <path id="m3d011fc3b0" d="M 63.557299 -394.505212 
L 63.557299 -394.5 
L 65.996704 -394.5 
L 68.43611 -394.5 
L 70.875516 -394.5 
L 73.314922 -394.5 
L 75.754328 -394.5 
L 78.193734 -394.5 
L 80.633139 -394.5 
L 83.072545 -394.5 
L 85.511951 -394.5 
L 87.951357 -394.5 
L 90.390763 -394.5 
L 92.830169 -394.5 
L 95.269574 -394.5 
L 97.70898 -394.5 
L 100.148386 -394.5 
L 102.587792 -394.5 
L 105.027198 -394.5 
L 107.466604 -394.5 
L 109.906009 -394.5 
L 112.345415 -394.5 
L 114.784821 -394.5 
L 117.224227 -394.5 
L 119.663633 -394.5 
L 122.103039 -394.5 
L 124.542444 -394.5 
L 126.98185 -394.5 
L 129.421256 -394.5 
L 131.860662 -394.5 
L 134.300068 -394.5 
L 136.739474 -394.5 
L 139.178879 -394.5 
L 141.618285 -394.5 
L 144.057691 -394.5 
L 146.497097 -394.5 
L 148.936503 -394.5 
L 151.375909 -394.5 
L 153.815314 -394.5 
L 156.25472 -394.5 
L 158.694126 -394.5 
L 161.133532 -394.5 
L 163.572938 -394.5 
L 166.012344 -394.5 
L 168.451749 -394.5 
L 170.891155 -394.5 
L 173.330561 -394.5 
L 175.769967 -394.5 
L 178.209373 -394.5 
L 180.648779 -394.5 
L 183.088184 -394.5 
L 185.52759 -394.5 
L 187.966996 -394.5 
L 190.406402 -394.5 
L 192.845808 -394.5 
L 195.285214 -394.5 
L 197.724619 -394.5 
L 200.164025 -394.5 
L 202.603431 -394.5 
L 205.042837 -394.5 
L 207.482243 -394.5 
L 209.921649 -394.5 
L 212.361054 -394.5 
L 214.80046 -394.5 
L 217.239866 -394.5 
L 219.679272 -394.5 
L 222.118678 -394.5 
L 224.558084 -394.5 
L 226.997489 -394.5 
L 229.436895 -394.5 
L 231.876301 -394.5 
L 234.315707 -394.5 
L 236.755113 -394.5 
L 239.194519 -394.5 
L 241.633924 -394.5 
L 244.07333 -394.5 
L 246.512736 -394.5 
L 248.952142 -394.5 
L 251.391548 -394.5 
L 253.830954 -394.5 
L 256.270359 -394.5 
L 258.709765 -394.5 
L 261.149171 -394.5 
L 263.588577 -394.5 
L 266.027983 -394.5 
L 268.467389 -394.5 
L 270.906794 -394.5 
L 273.3462 -394.5 
L 275.785606 -394.5 
L 278.225012 -394.5 
L 280.664418 -394.5 
L 283.103824 -394.5 
L 285.543229 -394.5 
L 287.982635 -394.5 
L 290.422041 -394.5 
L 292.861447 -394.5 
L 295.300853 -394.5 
L 297.740259 -394.5 
L 300.179664 -394.5 
L 302.61907 -394.5 
L 305.058476 -394.5 
L 307.497882 -394.5 
L 309.937288 -394.5 
L 312.376694 -394.5 
L 314.816099 -394.5 
L 317.255505 -394.5 
L 319.694911 -394.5 
L 322.134317 -394.5 
L 324.573723 -394.5 
L 327.013129 -394.5 
L 329.452534 -394.5 
L 331.89194 -394.5 
L 334.331346 -394.5 
L 336.770752 -394.5 
L 339.210158 -394.5 
L 341.649564 -394.5 
L 344.088969 -394.5 
L 346.528375 -394.5 
L 348.967781 -394.5 
L 351.407187 -394.5 
L 353.846593 -394.5 
L 356.285999 -394.5 
L 358.725404 -394.5 
L 361.16481 -394.5 
L 363.604216 -394.5 
L 366.043622 -394.5 
L 368.483028 -394.5 
L 370.922434 -394.5 
L 373.361839 -394.5 
L 375.801245 -394.5 
L 378.240651 -394.5 
L 380.680057 -394.5 
L 383.119463 -394.5 
L 385.558869 -394.5 
L 387.998274 -394.5 
L 390.43768 -394.5 
L 392.877086 -394.5 
L 395.316492 -394.5 
L 397.755898 -394.5 
L 400.195304 -394.5 
L 402.634709 -394.5 
L 405.074115 -394.5 
L 407.513521 -394.5 
L 409.952927 -394.5 
L 412.392333 -394.5 
L 414.831739 -394.5 
L 417.271144 -394.5 
L 419.71055 -394.5 
L 422.149956 -394.5 
L 424.589362 -394.5 
L 427.028768 -394.5 
L 429.468174 -394.5 
L 431.907579 -394.5 
L 434.346985 -394.5 
L 436.786391 -394.5 
L 439.225797 -394.5 
L 441.665203 -394.5 
L 444.104609 -394.5 
L 446.544014 -394.5 
L 448.98342 -394.5 
L 451.422826 -394.5 
L 453.862232 -394.5 
L 456.301638 -394.5 
L 458.741044 -394.5 
L 461.180449 -394.5 
L 463.619855 -394.5 
L 466.059261 -394.5 
L 468.498667 -394.5 
L 470.938073 -394.5 
L 473.377479 -394.5 
L 475.816884 -394.5 
L 478.25629 -394.5 
L 480.695696 -394.5 
L 483.135102 -394.5 
L 485.574508 -394.5 
L 488.013914 -394.5 
L 490.453319 -394.5 
L 492.892725 -394.5 
L 495.332131 -394.5 
L 497.771537 -394.5 
L 500.210943 -394.5 
L 502.650349 -394.5 
L 505.089754 -394.5 
L 507.52916 -394.5 
L 509.968566 -394.5 
L 512.407972 -394.5 
L 514.847378 -394.5 
L 517.286784 -394.5 
L 519.726189 -394.5 
L 522.165595 -394.5 
L 524.605001 -394.5 
L 527.044407 -394.5 
L 529.483813 -394.5 
L 531.923219 -394.5 
L 534.362624 -394.5 
L 536.80203 -394.5 
L 539.241436 -394.5 
L 541.680842 -394.5 
L 544.120248 -394.5 
L 546.559654 -394.5 
L 548.999059 -394.5 
L 548.999059 -394.50018 
L 548.999059 -394.50018 
L 546.559654 -394.500481 
L 544.120248 -394.501157 
L 541.680842 -394.502516 
L 539.241436 -394.504981 
L 536.80203 -394.509049 
L 534.362624 -394.515241 
L 531.923219 -394.524052 
L 529.483813 -394.5359 
L 527.044407 -394.551008 
L 524.605001 -394.569188 
L 522.165595 -394.589618 
L 519.726189 -394.610827 
L 517.286784 -394.631009 
L 514.847378 -394.648597 
L 512.407972 -394.662846 
L 509.968566 -394.674223 
L 507.52916 -394.684439 
L 505.089754 -394.695977 
L 502.650349 -394.711076 
L 500.210943 -394.730583 
L 497.771537 -394.75345 
L 495.332131 -394.777476 
L 492.892725 -394.800863 
L 490.453319 -394.823264 
L 488.013914 -394.845251 
L 485.574508 -394.866645 
L 483.135102 -394.885451 
L 480.695696 -394.898863 
L 478.25629 -394.905989 
L 475.816884 -394.910237 
L 473.377479 -394.919427 
L 470.938073 -394.943422 
L 468.498667 -394.990928 
L 466.059261 -395.067456 
L 463.619855 -395.175208 
L 461.180449 -395.314148 
L 458.741044 -395.482838 
L 456.301638 -395.678254 
L 453.862232 -395.894857 
L 451.422826 -396.123976 
L 448.98342 -396.354524 
L 446.544014 -396.575341 
L 444.104609 -396.778355 
L 441.665203 -396.96084 
L 439.225797 -397.125122 
L 436.786391 -397.275369 
L 434.346985 -397.413058 
L 431.907579 -397.533903 
L 429.468174 -397.628549 
L 427.028768 -397.687193 
L 424.589362 -397.705757 
L 422.149956 -397.68997 
L 419.71055 -397.654837 
L 417.271144 -397.619913 
L 414.831739 -397.603327 
L 412.392333 -397.617849 
L 409.952927 -397.670319 
L 407.513521 -397.763254 
L 405.074115 -397.896249 
L 402.634709 -398.065623 
L 400.195304 -398.262804 
L 397.755898 -398.473583 
L 395.316492 -398.6801 
L 392.877086 -398.865323 
L 390.43768 -399.017377 
L 387.998274 -399.1306 
L 385.558869 -399.202601 
L 383.119463 -399.230119 
L 380.680057 -399.208095 
L 378.240651 -399.134012 
L 375.801245 -399.014854 
L 373.361839 -398.871184 
L 370.922434 -398.734428 
L 368.483028 -398.638265 
L 366.043622 -398.608772 
L 363.604216 -398.65815 
L 361.16481 -398.78394 
L 358.725404 -398.972525 
L 356.285999 -399.204593 
L 353.846593 -399.461008 
L 351.407187 -399.728316 
L 348.967781 -400.002605 
L 346.528375 -400.289624 
L 344.088969 -400.600085 
L 341.649564 -400.942248 
L 339.210158 -401.316609 
L 336.770752 -401.71701 
L 334.331346 -402.138594 
L 331.89194 -402.588416 
L 329.452534 -403.092644 
L 327.013129 -403.696268 
L 324.573723 -404.455461 
L 322.134317 -405.426264 
L 319.694911 -406.654126 
L 317.255505 -408.167526 
L 314.816099 -409.976819 
L 312.376694 -412.077835 
L 309.937288 -414.458781 
L 307.497882 -417.108715 
L 305.058476 -420.02593 
L 302.61907 -423.22458 
L 300.179664 -426.737838 
L 297.740259 -430.616324 
L 295.300853 -434.921334 
L 292.861447 -439.712462 
L 290.422041 -445.027961 
L 287.982635 -450.856577 
L 285.543229 -457.105377 
L 283.103824 -463.577744 
L 280.664418 -469.979892 
L 278.225012 -475.963286 
L 275.785606 -481.187645 
L 273.3462 -485.373466 
L 270.906794 -488.321042 
L 268.467389 -489.900016 
L 266.027983 -490.034645 
L 263.588577 -488.706127 
L 261.149171 -485.971449 
L 258.709765 -481.98159 
L 256.270359 -476.983798 
L 253.830954 -471.304926 
L 251.391548 -465.319906 
L 248.952142 -459.407677 
L 246.512736 -453.895478 
L 244.07333 -449.000327 
L 241.633924 -444.789272 
L 239.194519 -441.182893 
L 236.755113 -438.009313 
L 234.315707 -435.086571 
L 231.876301 -432.292166 
L 229.436895 -429.587304 
L 226.997489 -426.994325 
L 224.558084 -424.554643 
L 222.118678 -422.299376 
L 219.679272 -420.245675 
L 217.239866 -418.40766 
L 214.80046 -416.802209 
L 212.361054 -415.440925 
L 209.921649 -414.317387 
L 207.482243 -413.406177 
L 205.042837 -412.680573 
L 202.603431 -412.137809 
L 200.164025 -411.810214 
L 197.724619 -411.74701 
L 195.285214 -411.971443 
L 192.845808 -412.437308 
L 190.406402 -413.014275 
L 187.966996 -413.517991 
L 185.52759 -413.775634 
L 183.088184 -413.695256 
L 180.648779 -413.30239 
L 178.209373 -412.724448 
L 175.769967 -412.131823 
L 173.330561 -411.665868 
L 170.891155 -411.38612 
L 168.451749 -411.254931 
L 166.012344 -411.158988 
L 163.572938 -410.953892 
L 161.133532 -410.512937 
L 158.694126 -409.763236 
L 156.25472 -408.699414 
L 153.815314 -407.374782 
L 151.375909 -405.878493 
L 148.936503 -404.311001 
L 146.497097 -402.767541 
L 144.057691 -401.331656 
L 141.618285 -400.073072 
L 139.178879 -399.042107 
L 136.739474 -398.258561 
L 134.300068 -397.702053 
L 131.860662 -397.314601 
L 129.421256 -397.020076 
L 126.98185 -396.752848 
L 124.542444 -396.480098 
L 122.103039 -396.206209 
L 119.663633 -395.959829 
L 117.224227 -395.773766 
L 114.784821 -395.667991 
L 112.345415 -395.64042 
L 109.906009 -395.666577 
L 107.466604 -395.708822 
L 105.027198 -395.733518 
L 102.587792 -395.728298 
L 100.148386 -395.70759 
L 97.70898 -395.700066 
L 95.269574 -395.724752 
L 92.830169 -395.772317 
L 90.390763 -395.805477 
L 87.951357 -395.778993 
L 85.511951 -395.665937 
L 83.072545 -395.473063 
L 80.633139 -395.236539 
L 78.193734 -395.002945 
L 75.754328 -394.808851 
L 73.314922 -394.670224 
L 70.875516 -394.584093 
L 68.43611 -394.5372 
L 65.996704 -394.514725 
L 63.557299 -394.505212 
z
" style="stroke: #2ca02c"/>
    </defs>
    <g clip-path="url(#p68bed9b7e0)">
     <use xlink:href="#m3d011fc3b0" x="0" y="576" style="fill: #2ca02c; fill-opacity: 0.3; stroke: #2ca02c"/>
    </g>
   </g>
   <g id="PolyCollection_2">
    <path d="M 65.61347 181.497151 
L 65.61347 181.5 
L 69.520465 181.5 
L 73.42746 181.5 
L 77.334455 181.5 
L 81.24145 181.5 
L 85.148445 181.5 
L 89.05544 181.5 
L 92.962435 181.5 
L 96.86943 181.5 
L 100.776425 181.5 
L 104.68342 181.5 
L 108.590415 181.5 
L 112.49741 181.5 
L 116.404405 181.5 
L 120.3114 181.5 
L 124.218395 181.5 
L 128.12539 181.5 
L 132.032385 181.5 
L 135.93938 181.5 
L 139.846375 181.5 
L 143.75337 181.5 
L 147.660365 181.5 
L 151.56736 181.5 
L 155.474355 181.5 
L 159.38135 181.5 
L 163.288345 181.5 
L 167.19534 181.5 
L 171.102335 181.5 
L 175.00933 181.5 
L 178.916325 181.5 
L 182.82332 181.5 
L 186.730315 181.5 
L 190.63731 181.5 
L 194.544305 181.5 
L 198.4513 181.5 
L 202.358295 181.5 
L 206.26529 181.5 
L 210.172285 181.5 
L 214.07928 181.5 
L 217.986275 181.5 
L 221.89327 181.5 
L 225.800265 181.5 
L 229.70726 181.5 
L 233.614255 181.5 
L 237.52125 181.5 
L 241.428245 181.5 
L 245.33524 181.5 
L 249.242235 181.5 
L 253.14923 181.5 
L 257.056225 181.5 
L 260.96322 181.5 
L 264.870215 181.5 
L 268.77721 181.5 
L 272.684205 181.5 
L 276.591199 181.5 
L 280.498194 181.5 
L 284.405189 181.5 
L 288.312184 181.5 
L 292.219179 181.5 
L 296.126174 181.5 
L 300.033169 181.5 
L 303.940164 181.5 
L 307.847159 181.5 
L 311.754154 181.5 
L 315.661149 181.5 
L 319.568144 181.5 
L 323.475139 181.5 
L 327.382134 181.5 
L 331.289129 181.5 
L 335.196124 181.5 
L 339.103119 181.5 
L 343.010114 181.5 
L 346.917109 181.5 
L 350.824104 181.5 
L 354.731099 181.5 
L 358.638094 181.5 
L 362.545089 181.5 
L 366.452084 181.5 
L 370.359079 181.5 
L 374.266074 181.5 
L 378.173069 181.5 
L 382.080064 181.5 
L 385.987059 181.5 
L 389.894054 181.5 
L 393.801049 181.5 
L 397.708044 181.5 
L 401.615039 181.5 
L 405.522034 181.5 
L 409.429029 181.5 
L 413.336024 181.5 
L 417.243019 181.5 
L 421.150014 181.5 
L 425.057009 181.5 
L 428.964004 181.5 
L 432.870999 181.5 
L 436.777994 181.5 
L 440.684989 181.5 
L 444.591984 181.5 
L 448.498979 181.5 
L 452.405974 181.5 
L 456.312969 181.5 
L 460.219964 181.5 
L 464.126959 181.5 
L 468.033954 181.5 
L 471.940949 181.5 
L 475.847944 181.5 
L 479.754939 181.5 
L 483.661934 181.5 
L 487.568929 181.5 
L 491.475924 181.5 
L 495.382919 181.5 
L 499.289914 181.5 
L 503.196909 181.5 
L 507.103904 181.5 
L 511.010899 181.5 
L 514.917894 181.5 
L 518.824889 181.5 
L 522.731884 181.5 
L 526.638879 181.5 
L 530.545874 181.5 
L 534.452869 181.5 
L 538.359864 181.5 
L 542.266859 181.5 
L 546.173854 181.5 
L 550.080849 181.5 
L 553.987844 181.5 
L 557.894839 181.5 
L 561.801834 181.5 
L 565.708829 181.5 
L 569.615824 181.5 
L 573.522819 181.5 
L 577.429814 181.5 
L 581.336809 181.5 
L 585.243804 181.5 
L 589.150799 181.5 
L 593.057794 181.5 
L 596.964789 181.5 
L 600.871784 181.5 
L 604.778779 181.5 
L 608.685774 181.5 
L 612.592769 181.5 
L 616.499764 181.5 
L 620.406759 181.5 
L 624.313754 181.5 
L 628.220749 181.5 
L 632.127744 181.5 
L 636.034739 181.5 
L 639.941734 181.5 
L 643.848729 181.5 
L 647.755724 181.5 
L 651.662719 181.5 
L 655.569714 181.5 
L 659.476709 181.5 
L 663.383704 181.5 
L 667.290699 181.5 
L 671.197694 181.5 
L 675.104689 181.5 
L 679.011684 181.5 
L 682.918679 181.5 
L 686.825674 181.5 
L 690.732669 181.5 
L 694.639664 181.5 
L 698.546659 181.5 
L 702.453654 181.5 
L 706.360649 181.5 
L 710.267644 181.5 
L 714.174639 181.5 
L 718.081634 181.5 
L 721.988629 181.5 
L 725.895624 181.5 
L 729.802619 181.5 
L 733.709614 181.5 
L 737.616609 181.5 
L 741.523604 181.5 
L 745.430599 181.5 
L 749.337594 181.5 
L 753.244589 181.5 
L 757.151584 181.5 
L 761.058579 181.5 
L 764.965574 181.5 
L 768.872569 181.5 
L 772.779564 181.5 
L 776.686559 181.5 
L 780.593554 181.5 
L 784.500549 181.5 
L 788.407544 181.5 
L 792.314539 181.5 
L 796.221534 181.5 
L 800.128529 181.5 
L 804.035524 181.5 
L 807.942519 181.5 
L 811.849514 181.5 
L 815.756509 181.5 
L 819.663504 181.5 
L 823.570499 181.5 
L 827.477494 181.5 
L 831.384489 181.5 
L 835.291484 181.5 
L 839.198479 181.5 
L 843.105474 181.5 
L 843.105474 181.49991 
L 843.105474 181.49991 
L 839.198479 181.49953 
L 835.291484 181.498244 
L 831.384489 181.495275 
L 827.477494 181.490799 
L 823.570499 181.48694 
L 819.663504 181.486238 
L 815.756509 181.488512 
L 811.849514 181.490792 
L 807.942519 181.490881 
L 804.035524 181.488991 
L 800.128529 181.484938 
L 796.221534 181.475531 
L 792.314539 181.456152 
L 788.407544 181.424659 
L 784.500549 181.382812 
L 780.593554 181.333705 
L 776.686559 181.279652 
L 772.779564 181.224166 
L 768.872569 181.177512 
L 764.965574 181.158949 
L 761.058579 181.182929 
L 757.151584 181.238988 
L 753.244589 181.296122 
L 749.337594 181.330301 
L 745.430599 181.338612 
L 741.523604 181.32755 
L 737.616609 181.302642 
L 733.709614 181.273801 
L 729.802619 181.255468 
L 725.895624 181.25105 
L 721.988629 181.247042 
L 718.081634 181.231478 
L 714.174639 181.210859 
L 710.267644 181.202608 
L 706.360649 181.214485 
L 702.453654 181.236848 
L 698.546659 181.257571 
L 694.639664 181.277694 
L 690.732669 181.303941 
L 686.825674 181.334041 
L 682.918679 181.361286 
L 679.011684 181.385253 
L 675.104689 181.407986 
L 671.197694 181.427848 
L 667.290699 181.442865 
L 663.383704 181.453227 
L 659.476709 181.458393 
L 655.569714 181.457461 
L 651.662719 181.453154 
L 647.755724 181.450382 
L 643.848729 181.44991 
L 639.941734 181.448365 
L 636.034739 181.445333 
L 632.127744 181.444419 
L 628.220749 181.44607 
L 624.313754 181.444775 
L 620.406759 181.434744 
L 616.499764 181.414528 
L 612.592769 181.381731 
L 608.685774 181.321139 
L 604.778779 181.200795 
L 600.871784 180.989866 
L 596.964789 180.702885 
L 593.057794 180.43845 
L 589.150799 180.340454 
L 585.243804 180.476426 
L 581.336809 180.762905 
L 577.429814 181.042505 
L 573.522819 181.218286 
L 569.615824 181.292624 
L 565.708829 181.315549 
L 561.801834 181.331197 
L 557.894839 181.356379 
L 553.987844 181.386101 
L 550.080849 181.41073 
L 546.173854 181.425985 
L 542.266859 181.431882 
L 538.359864 181.428879 
L 534.452869 181.416923 
L 530.545874 181.396328 
L 526.638879 181.366669 
L 522.731884 181.324366 
L 518.824889 181.263584 
L 514.917894 181.182479 
L 511.010899 181.094894 
L 507.103904 181.035502 
L 503.196909 181.036795 
L 499.289914 181.095053 
L 495.382919 181.172331 
L 491.475924 181.234311 
L 487.568929 181.275566 
L 483.661934 181.305953 
L 479.754939 181.324155 
L 475.847944 181.311899 
L 471.940949 181.244666 
L 468.033954 181.098793 
L 464.126959 180.858642 
L 460.219964 180.543336 
L 456.312969 180.239836 
L 452.405974 180.076318 
L 448.498979 180.111321 
L 444.591984 180.256 
L 440.684989 180.349086 
L 436.777994 180.308386 
L 432.870999 180.192686 
L 428.964004 180.123551 
L 425.057009 180.154399 
L 421.150014 180.224458 
L 417.243019 180.246268 
L 413.336024 180.208397 
L 409.429029 180.153579 
L 405.522034 180.091758 
L 401.615039 180.000104 
L 397.708044 179.876205 
L 393.801049 179.759851 
L 389.894054 179.737878 
L 385.987059 179.880829 
L 382.080064 180.13837 
L 378.173069 180.376456 
L 374.266074 180.516057 
L 370.359079 180.561807 
L 366.452084 180.526179 
L 362.545089 180.386027 
L 358.638094 180.100408 
L 354.731099 179.656071 
L 350.824104 179.111345 
L 346.917109 178.580787 
L 343.010114 178.144498 
L 339.103119 177.762665 
L 335.196124 177.282954 
L 331.289129 176.577825 
L 327.382134 175.695031 
L 323.475139 174.774633 
L 319.568144 173.751666 
L 315.661149 172.235827 
L 311.754154 169.742707 
L 307.847159 165.920612 
L 303.940164 160.521743 
L 300.033169 153.331416 
L 296.126174 144.110263 
L 292.219179 132.206047 
L 288.312184 116.107235 
L 284.405189 94.500515 
L 280.498194 69.263357 
L 276.591199 47.067441 
L 272.684205 36.452381 
L 268.77721 42.470158 
L 264.870215 63.212104 
L 260.96322 90.709551 
L 257.056225 116.009574 
L 253.14923 134.216649 
L 249.242235 145.35387 
L 245.33524 151.983705 
L 241.428245 156.534513 
L 237.52125 159.957071 
L 233.614255 162.045266 
L 229.70726 162.346363 
L 225.800265 160.35895 
L 221.89327 155.361059 
L 217.986275 147.133507 
L 214.07928 137.425069 
L 210.172285 130.16126 
L 206.26529 129.091431 
L 202.358295 134.772532 
L 198.4513 144.329144 
L 194.544305 154.147876 
L 190.63731 161.995162 
L 186.730315 167.042707 
L 182.82332 169.559933 
L 178.916325 170.803592 
L 175.00933 172.137519 
L 171.102335 173.935037 
L 167.19534 175.678127 
L 163.288345 176.939194 
L 159.38135 177.798787 
L 155.474355 178.50133 
L 151.56736 179.145438 
L 147.660365 179.720338 
L 143.75337 180.237118 
L 139.846375 180.710798 
L 135.93938 181.087936 
L 132.032385 181.289011 
L 128.12539 181.269464 
L 124.218395 180.998526 
L 120.3114 180.456207 
L 116.404405 179.698609 
L 112.49741 178.822706 
L 108.590415 177.770414 
L 104.68342 176.445963 
L 100.776425 175.315223 
L 96.86943 175.332292 
L 92.962435 176.749614 
L 89.05544 178.669896 
L 85.148445 180.132146 
L 81.24145 180.926529 
L 77.334455 181.287076 
L 73.42746 181.43375 
L 69.520465 181.483999 
L 65.61347 181.497151 
z
" clip-path="url(#p68bed9b7e0)" style="fill: #ff7f0e; fill-opacity: 0.3; stroke: #ff7f0e"/>
   </g>
   <g id="PolyCollection_3">
    <path d="M 93.050033 181.499678 
L 93.050033 181.5 
L 97.261935 181.5 
L 101.473836 181.5 
L 105.685738 181.5 
L 109.89764 181.5 
L 114.109541 181.5 
L 118.321443 181.5 
L 122.533345 181.5 
L 126.745246 181.5 
L 130.957148 181.5 
L 135.16905 181.5 
L 139.380951 181.5 
L 143.592853 181.5 
L 147.804755 181.5 
L 152.016656 181.5 
L 156.228558 181.5 
L 160.44046 181.5 
L 164.652361 181.5 
L 168.864263 181.5 
L 173.076165 181.5 
L 177.288066 181.5 
L 181.499968 181.5 
L 185.71187 181.5 
L 189.923771 181.5 
L 194.135673 181.5 
L 198.347575 181.5 
L 202.559476 181.5 
L 206.771378 181.5 
L 210.98328 181.5 
L 215.195181 181.5 
L 219.407083 181.5 
L 223.618985 181.5 
L 227.830887 181.5 
L 232.042788 181.5 
L 236.25469 181.5 
L 240.466592 181.5 
L 244.678493 181.5 
L 248.890395 181.5 
L 253.102297 181.5 
L 257.314198 181.5 
L 261.5261 181.5 
L 265.738002 181.5 
L 269.949903 181.5 
L 274.161805 181.5 
L 278.373707 181.5 
L 282.585608 181.5 
L 286.79751 181.5 
L 291.009412 181.5 
L 295.221313 181.5 
L 299.433215 181.5 
L 303.645117 181.5 
L 307.857018 181.5 
L 312.06892 181.5 
L 316.280822 181.5 
L 320.492723 181.5 
L 324.704625 181.5 
L 328.916527 181.5 
L 333.128428 181.5 
L 337.34033 181.5 
L 341.552232 181.5 
L 345.764133 181.5 
L 349.976035 181.5 
L 354.187937 181.5 
L 358.399838 181.5 
L 362.61174 181.5 
L 366.823642 181.5 
L 371.035543 181.5 
L 375.247445 181.5 
L 379.459347 181.5 
L 383.671248 181.5 
L 387.88315 181.5 
L 392.095052 181.5 
L 396.306953 181.5 
L 400.518855 181.5 
L 404.730757 181.5 
L 408.942658 181.5 
L 413.15456 181.5 
L 417.366462 181.5 
L 421.578363 181.5 
L 425.790265 181.5 
L 430.002167 181.5 
L 434.214068 181.5 
L 438.42597 181.5 
L 442.637872 181.5 
L 446.849773 181.5 
L 451.061675 181.5 
L 455.273577 181.5 
L 459.485478 181.5 
L 463.69738 181.5 
L 467.909282 181.5 
L 472.121183 181.5 
L 476.333085 181.5 
L 480.544987 181.5 
L 484.756888 181.5 
L 488.96879 181.5 
L 493.180692 181.5 
L 497.392593 181.5 
L 501.604495 181.5 
L 505.816397 181.5 
L 510.028298 181.5 
L 514.2402 181.5 
L 518.452102 181.5 
L 522.664003 181.5 
L 526.875905 181.5 
L 531.087807 181.5 
L 535.299708 181.5 
L 539.51161 181.5 
L 543.723512 181.5 
L 547.935413 181.5 
L 552.147315 181.5 
L 556.359217 181.5 
L 560.571118 181.5 
L 564.78302 181.5 
L 568.994922 181.5 
L 573.206823 181.5 
L 577.418725 181.5 
L 581.630627 181.5 
L 585.842528 181.5 
L 590.05443 181.5 
L 594.266332 181.5 
L 598.478233 181.5 
L 602.690135 181.5 
L 606.902037 181.5 
L 611.113938 181.5 
L 615.32584 181.5 
L 619.537742 181.5 
L 623.749643 181.5 
L 627.961545 181.5 
L 632.173447 181.5 
L 636.385348 181.5 
L 640.59725 181.5 
L 644.809152 181.5 
L 649.021053 181.5 
L 653.232955 181.5 
L 657.444857 181.5 
L 661.656758 181.5 
L 665.86866 181.5 
L 670.080562 181.5 
L 674.292463 181.5 
L 678.504365 181.5 
L 682.716267 181.5 
L 686.928168 181.5 
L 691.14007 181.5 
L 695.351972 181.5 
L 699.563873 181.5 
L 703.775775 181.5 
L 707.987677 181.5 
L 712.199579 181.5 
L 716.41148 181.5 
L 720.623382 181.5 
L 724.835284 181.5 
L 729.047185 181.5 
L 733.259087 181.5 
L 737.470989 181.5 
L 741.68289 181.5 
L 745.894792 181.5 
L 750.106694 181.5 
L 754.318595 181.5 
L 758.530497 181.5 
L 762.742399 181.5 
L 766.9543 181.5 
L 771.166202 181.5 
L 775.378104 181.5 
L 779.590005 181.5 
L 783.801907 181.5 
L 788.013809 181.5 
L 792.22571 181.5 
L 796.437612 181.5 
L 800.649514 181.5 
L 804.861415 181.5 
L 809.073317 181.5 
L 813.285219 181.5 
L 817.49712 181.5 
L 821.709022 181.5 
L 825.920924 181.5 
L 830.132825 181.5 
L 834.344727 181.5 
L 838.556629 181.5 
L 842.76853 181.5 
L 846.980432 181.5 
L 851.192334 181.5 
L 855.404235 181.5 
L 859.616137 181.5 
L 863.828039 181.5 
L 868.03994 181.5 
L 872.251842 181.5 
L 876.463744 181.5 
L 880.675645 181.5 
L 884.887547 181.5 
L 889.099449 181.5 
L 893.31135 181.5 
L 897.523252 181.5 
L 901.735154 181.5 
L 905.947055 181.5 
L 910.158957 181.5 
L 914.370859 181.5 
L 918.58276 181.5 
L 922.794662 181.5 
L 927.006564 181.5 
L 931.218465 181.5 
L 931.218465 181.499678 
L 931.218465 181.499678 
L 927.006564 181.498914 
L 922.794662 181.496971 
L 918.58276 181.493027 
L 914.370859 181.486737 
L 910.158957 181.479154 
L 905.947055 181.472872 
L 901.735154 181.470584 
L 897.523252 181.472837 
L 893.31135 181.47717 
L 889.099449 181.479785 
L 884.887547 181.478418 
L 880.675645 181.473982 
L 876.463744 181.469513 
L 872.251842 181.467153 
L 868.03994 181.465662 
L 863.828039 181.460912 
L 859.616137 181.449098 
L 855.404235 181.429593 
L 851.192334 181.404876 
L 846.980432 181.378521 
L 842.76853 181.353926 
L 838.556629 181.333862 
L 834.344727 181.318937 
L 830.132825 181.306269 
L 825.920924 181.292139 
L 821.709022 181.277253 
L 817.49712 181.2674 
L 813.285219 181.266513 
L 809.073317 181.269295 
L 804.861415 181.262621 
L 800.649514 181.235477 
L 796.437612 181.187993 
L 792.22571 181.131539 
L 788.013809 181.080846 
L 783.801907 181.045484 
L 779.590005 181.026928 
L 775.378104 181.021505 
L 771.166202 181.024528 
L 766.9543 181.031486 
L 762.742399 181.037058 
L 758.530497 181.035311 
L 754.318595 181.021683 
L 750.106694 180.994433 
L 745.894792 180.954767 
L 741.68289 180.907074 
L 737.470989 180.859134 
L 733.259087 180.82039 
L 729.047185 180.798618 
L 724.835284 180.798272 
L 720.623382 180.821798 
L 716.41148 180.870553 
L 712.199579 180.941903 
L 707.987677 181.025256 
L 703.775775 181.103823 
L 699.563873 181.163202 
L 695.351972 181.198438 
L 691.14007 181.212333 
L 686.928168 181.209675 
L 682.716267 181.196431 
L 678.504365 181.182363 
L 674.292463 181.178739 
L 670.080562 181.191605 
L 665.86866 181.219225 
L 661.656758 181.255934 
L 657.444857 181.296205 
L 653.232955 181.335491 
L 649.021053 181.370384 
L 644.809152 181.399656 
L 640.59725 181.424213 
L 636.385348 181.445018 
L 632.173447 181.461264 
L 627.961545 181.471052 
L 623.749643 181.473836 
L 619.537742 181.47204 
L 615.32584 181.470103 
L 611.113938 181.47166 
L 606.902037 181.47731 
L 602.690135 181.484895 
L 598.478233 181.491679 
L 594.266332 181.496212 
L 590.05443 181.498576 
L 585.842528 181.499558 
L 581.630627 181.499887 
L 577.418725 181.499976 
L 573.206823 181.499996 
L 568.994922 181.499999 
L 564.78302 181.5 
L 560.571118 181.5 
L 556.359217 181.5 
L 552.147315 181.5 
L 547.935413 181.5 
L 543.723512 181.5 
L 539.51161 181.5 
L 535.299708 181.5 
L 531.087807 181.5 
L 526.875905 181.5 
L 522.664003 181.5 
L 518.452102 181.5 
L 514.2402 181.5 
L 510.028298 181.5 
L 505.816397 181.5 
L 501.604495 181.5 
L 497.392593 181.5 
L 493.180692 181.5 
L 488.96879 181.5 
L 484.756888 181.5 
L 480.544987 181.5 
L 476.333085 181.5 
L 472.121183 181.5 
L 467.909282 181.5 
L 463.69738 181.499998 
L 459.485478 181.499987 
L 455.273577 181.499928 
L 451.061675 181.499665 
L 446.849773 181.498699 
L 442.637872 181.495791 
L 438.42597 181.488599 
L 434.214068 181.473999 
L 430.002167 181.449632 
L 425.790265 181.415957 
L 421.578363 181.376462 
L 417.366462 181.334487 
L 413.15456 181.28882 
L 408.942658 181.232637 
L 404.730757 181.156948 
L 400.518855 181.054111 
L 396.306953 180.917561 
L 392.095052 180.740291 
L 387.88315 180.51597 
L 383.671248 180.239882 
L 379.459347 179.90491 
L 375.247445 179.496282 
L 371.035543 178.994325 
L 366.823642 178.387343 
L 362.61174 177.684752 
L 358.399838 176.915107 
L 354.187937 176.09957 
L 349.976035 175.210353 
L 345.764133 174.144829 
L 341.552232 172.745405 
L 337.34033 170.86266 
L 333.128428 168.418482 
L 328.916527 165.419655 
L 324.704625 161.919039 
L 320.492723 157.97957 
L 316.280822 153.691704 
L 312.06892 149.219266 
L 307.857018 144.794638 
L 303.645117 140.628644 
L 299.433215 136.794141 
L 295.221313 133.175665 
L 291.009412 129.522336 
L 286.79751 125.569147 
L 282.585608 121.170303 
L 278.373707 116.402568 
L 274.161805 111.599259 
L 269.949903 107.275447 
L 265.738002 103.950561 
L 261.5261 101.961245 
L 257.314198 101.398556 
L 253.102297 102.209878 
L 248.890395 104.330058 
L 244.678493 107.66545 
L 240.466592 111.954631 
L 236.25469 116.728267 
L 232.042788 121.493165 
L 227.830887 125.986496 
L 223.618985 130.264577 
L 219.407083 134.589928 
L 215.195181 139.26079 
L 210.98328 144.486249 
L 206.771378 150.296251 
L 202.559476 156.479303 
L 198.347575 162.602404 
L 194.135673 168.144681 
L 189.923771 172.685841 
L 185.71187 176.044465 
L 181.499968 178.29747 
L 177.288066 179.689431 
L 173.076165 180.502567 
L 168.864263 180.964077 
L 164.652361 181.220305 
L 160.44046 181.355889 
L 156.228558 181.421535 
L 152.016656 181.45061 
L 147.804755 181.464316 
L 143.592853 181.472935 
L 139.380951 181.478608 
L 135.16905 181.480153 
L 130.957148 181.477423 
L 126.745246 181.472959 
L 122.533345 181.470629 
L 118.321443 181.472885 
L 114.109541 181.479157 
L 109.89764 181.486738 
L 105.685738 181.493027 
L 101.473836 181.496971 
L 97.261935 181.498914 
L 93.050033 181.499678 
z
" clip-path="url(#p68bed9b7e0)" style="fill: #1f77b4; fill-opacity: 0.3; stroke: #1f77b4"/>
   </g>
   <g id="matplotlib.axis_1">
    <g id="xtick_1">
     <g id="line2d_1">
      <defs>
       <path id="m21dfa3c42b" d="M 0 0 
L 0 3.5 
" style="stroke: #000000; stroke-width: 0.8"/>
      </defs>
      <g>
       <use xlink:href="#m21dfa3c42b" x="83.325" y="181.5" style="stroke: #000000; stroke-width: 0.8"/>
      </g>
     </g>
    </g>
    <g id="xtick_2">
     <g id="line2d_2">
      <g>
       <use xlink:href="#m21dfa3c42b" x="160.3625" y="181.5" style="stroke: #000000; stroke-width: 0.8"/>
      </g>
     </g>
    </g>
    <g id="xtick_3">
     <g id="line2d_3">
      <g>
       <use xlink:href="#m21dfa3c42b" x="237.4" y="181.5" style="stroke: #000000; stroke-width: 0.8"/>
      </g>
     </g>
    </g>
    <g id="xtick_4">
     <g id="line2d_4">
      <g>
       <use xlink:href="#m21dfa3c42b" x="314.4375" y="181.5" style="stroke: #000000; stroke-width: 0.8"/>
      </g>
     </g>
    </g>
    <g id="xtick_5">
     <g id="line2d_5">
      <g>
       <use xlink:href="#m21dfa3c42b" x="391.475" y="181.5" style="stroke: #000000; stroke-width: 0.8"/>
      </g>
     </g>
    </g>
    <g id="xtick_6">
     <g id="line2d_6">
      <g>
       <use xlink:href="#m21dfa3c42b" x="468.5125" y="181.5" style="stroke: #000000; stroke-width: 0.8"/>
      </g>
     </g>
    </g>
    <g id="xtick_7">
     <g id="line2d_7">
      <g>
       <use xlink:href="#m21dfa3c42b" x="545.55" y="181.5" style="stroke: #000000; stroke-width: 0.8"/>
      </g>
     </g>
    </g>
   </g>
   <g id="matplotlib.axis_2">
    <g id="ytick_1">
     <g id="line2d_8">
      <defs>
       <path id="mddff6cd8a8" d="M 0 0 
L -3.5 0 
" style="stroke: #000000; stroke-width: 0.8"/>
      </defs>
      <g>
       <use xlink:href="#mddff6cd8a8" x="83.325" y="181.5" style="stroke: #000000; stroke-width: 0.8"/>
      </g>
     </g>
    </g>
    <g id="ytick_2">
     <g id="line2d_9">
      <g>
       <use xlink:href="#mddff6cd8a8" x="83.325" y="133.235972" style="stroke: #000000; stroke-width: 0.8"/>
      </g>
     </g>
    </g>
    <g id="ytick_3">
     <g id="line2d_10">
      <g>
       <use xlink:href="#mddff6cd8a8" x="83.325" y="84.971944" style="stroke: #000000; stroke-width: 0.8"/>
      </g>
     </g>
    </g>
    <g id="ytick_4">
     <g id="line2d_11">
      <g>
       <use xlink:href="#mddff6cd8a8" x="83.325" y="36.707917" style="stroke: #000000; stroke-width: 0.8"/>
      </g>
     </g>
    </g>
    <g id="text_1">
     <!-- Density -->
     <g transform="translate(69.205469 133.862891)rotate(-90)scale(0.15 -0.15)">
      <defs>
       <path id="DejaVuSans-44" d="M 1259 4147 
L 1259 519 
L 2022 519 
Q 2988 519 3436 956 
Q 3884 1394 3884 2338 
Q 3884 3275 3436 3711 
Q 2988 4147 2022 4147 
L 1259 4147 
z
M 628 4666 
L 1925 4666 
Q 3281 4666 3915 4102 
Q 4550 3538 4550 2338 
Q 4550 1131 3912 565 
Q 3275 0 1925 0 
L 628 0 
L 628 4666 
z
" transform="scale(0.015625)"/>
       <path id="DejaVuSans-65" d="M 3597 1894 
L 3597 1613 
L 953 1613 
Q 991 1019 1311 708 
Q 1631 397 2203 397 
Q 2534 397 2845 478 
Q 3156 559 3463 722 
L 3463 178 
Q 3153 47 2828 -22 
Q 2503 -91 2169 -91 
Q 1331 -91 842 396 
Q 353 884 353 1716 
Q 353 2575 817 3079 
Q 1281 3584 2069 3584 
Q 2775 3584 3186 3129 
Q 3597 2675 3597 1894 
z
M 3022 2063 
Q 3016 2534 2758 2815 
Q 2500 3097 2075 3097 
Q 1594 3097 1305 2825 
Q 1016 2553 972 2059 
L 3022 2063 
z
" transform="scale(0.015625)"/>
       <path id="DejaVuSans-6e" d="M 3513 2113 
L 3513 0 
L 2938 0 
L 2938 2094 
Q 2938 2591 2744 2837 
Q 2550 3084 2163 3084 
Q 1697 3084 1428 2787 
Q 1159 2491 1159 1978 
L 1159 0 
L 581 0 
L 581 3500 
L 1159 3500 
L 1159 2956 
Q 1366 3272 1645 3428 
Q 1925 3584 2291 3584 
Q 2894 3584 3203 3211 
Q 3513 2838 3513 2113 
z
" transform="scale(0.015625)"/>
       <path id="DejaVuSans-73" d="M 2834 3397 
L 2834 2853 
Q 2591 2978 2328 3040 
Q 2066 3103 1784 3103 
Q 1356 3103 1142 2972 
Q 928 2841 928 2578 
Q 928 2378 1081 2264 
Q 1234 2150 1697 2047 
L 1894 2003 
Q 2506 1872 2764 1633 
Q 3022 1394 3022 966 
Q 3022 478 2636 193 
Q 2250 -91 1575 -91 
Q 1294 -91 989 -36 
Q 684 19 347 128 
L 347 722 
Q 666 556 975 473 
Q 1284 391 1588 391 
Q 1994 391 2212 530 
Q 2431 669 2431 922 
Q 2431 1156 2273 1281 
Q 2116 1406 1581 1522 
L 1381 1569 
Q 847 1681 609 1914 
Q 372 2147 372 2553 
Q 372 3047 722 3315 
Q 1072 3584 1716 3584 
Q 2034 3584 2315 3537 
Q 2597 3491 2834 3397 
z
" transform="scale(0.015625)"/>
       <path id="DejaVuSans-69" d="M 603 3500 
L 1178 3500 
L 1178 0 
L 603 0 
L 603 3500 
z
M 603 4863 
L 1178 4863 
L 1178 4134 
L 603 4134 
L 603 4863 
z
" transform="scale(0.015625)"/>
       <path id="DejaVuSans-74" d="M 1172 4494 
L 1172 3500 
L 2356 3500 
L 2356 3053 
L 1172 3053 
L 1172 1153 
Q 1172 725 1289 603 
Q 1406 481 1766 481 
L 2356 481 
L 2356 0 
L 1766 0 
Q 1100 0 847 248 
Q 594 497 594 1153 
L 594 3053 
L 172 3053 
L 172 3500 
L 594 3500 
L 594 4494 
L 1172 4494 
z
" transform="scale(0.015625)"/>
       <path id="DejaVuSans-79" d="M 2059 -325 
Q 1816 -950 1584 -1140 
Q 1353 -1331 966 -1331 
L 506 -1331 
L 506 -850 
L 844 -850 
Q 1081 -850 1212 -737 
Q 1344 -625 1503 -206 
L 1606 56 
L 191 3500 
L 800 3500 
L 1894 763 
L 2988 3500 
L 3597 3500 
L 2059 -325 
z
" transform="scale(0.015625)"/>
      </defs>
      <use xlink:href="#DejaVuSans-44"/>
      <use xlink:href="#DejaVuSans-65" x="77.001953"/>
      <use xlink:href="#DejaVuSans-6e" x="138.525391"/>
      <use xlink:href="#DejaVuSans-73" x="201.904297"/>
      <use xlink:href="#DejaVuSans-69" x="254.003906"/>
      <use xlink:href="#DejaVuSans-74" x="281.787109"/>
      <use xlink:href="#DejaVuSans-79" x="320.996094"/>
     </g>
    </g>
   </g>
   <g id="patch_3">
    <path d="M 83.325 181.5 
L 83.325 29.2 
" style="fill: none; stroke: #000000; stroke-width: 0.8; stroke-linejoin: miter; stroke-linecap: square"/>
   </g>
   <g id="patch_4">
    <path d="M 545.55 181.5 
L 545.55 29.2 
" style="fill: none; stroke: #000000; stroke-width: 0.8; stroke-linejoin: miter; stroke-linecap: square"/>
   </g>
   <g id="patch_5">
    <path d="M 83.325 181.5 
L 545.55 181.5 
" style="fill: none; stroke: #000000; stroke-width: 0.8; stroke-linejoin: miter; stroke-linecap: square"/>
   </g>
   <g id="patch_6">
    <path d="M 83.325 29.2 
L 545.55 29.2 
" style="fill: none; stroke: #000000; stroke-width: 0.8; stroke-linejoin: miter; stroke-linecap: square"/>
   </g>
   <g id="text_2">
    <!-- Radiometric ages - WALIS -->
    <g transform="translate(83.325 23.2)scale(0.08 -0.08)">
     <defs>
      <path id="DejaVuSans-52" d="M 2841 2188 
Q 3044 2119 3236 1894 
Q 3428 1669 3622 1275 
L 4263 0 
L 3584 0 
L 2988 1197 
Q 2756 1666 2539 1819 
Q 2322 1972 1947 1972 
L 1259 1972 
L 1259 0 
L 628 0 
L 628 4666 
L 2053 4666 
Q 2853 4666 3247 4331 
Q 3641 3997 3641 3322 
Q 3641 2881 3436 2590 
Q 3231 2300 2841 2188 
z
M 1259 4147 
L 1259 2491 
L 2053 2491 
Q 2509 2491 2742 2702 
Q 2975 2913 2975 3322 
Q 2975 3731 2742 3939 
Q 2509 4147 2053 4147 
L 1259 4147 
z
" transform="scale(0.015625)"/>
      <path id="DejaVuSans-61" d="M 2194 1759 
Q 1497 1759 1228 1600 
Q 959 1441 959 1056 
Q 959 750 1161 570 
Q 1363 391 1709 391 
Q 2188 391 2477 730 
Q 2766 1069 2766 1631 
L 2766 1759 
L 2194 1759 
z
M 3341 1997 
L 3341 0 
L 2766 0 
L 2766 531 
Q 2569 213 2275 61 
Q 1981 -91 1556 -91 
Q 1019 -91 701 211 
Q 384 513 384 1019 
Q 384 1609 779 1909 
Q 1175 2209 1959 2209 
L 2766 2209 
L 2766 2266 
Q 2766 2663 2505 2880 
Q 2244 3097 1772 3097 
Q 1472 3097 1187 3025 
Q 903 2953 641 2809 
L 641 3341 
Q 956 3463 1253 3523 
Q 1550 3584 1831 3584 
Q 2591 3584 2966 3190 
Q 3341 2797 3341 1997 
z
" transform="scale(0.015625)"/>
      <path id="DejaVuSans-64" d="M 2906 2969 
L 2906 4863 
L 3481 4863 
L 3481 0 
L 2906 0 
L 2906 525 
Q 2725 213 2448 61 
Q 2172 -91 1784 -91 
Q 1150 -91 751 415 
Q 353 922 353 1747 
Q 353 2572 751 3078 
Q 1150 3584 1784 3584 
Q 2172 3584 2448 3432 
Q 2725 3281 2906 2969 
z
M 947 1747 
Q 947 1113 1208 752 
Q 1469 391 1925 391 
Q 2381 391 2643 752 
Q 2906 1113 2906 1747 
Q 2906 2381 2643 2742 
Q 2381 3103 1925 3103 
Q 1469 3103 1208 2742 
Q 947 2381 947 1747 
z
" transform="scale(0.015625)"/>
      <path id="DejaVuSans-6f" d="M 1959 3097 
Q 1497 3097 1228 2736 
Q 959 2375 959 1747 
Q 959 1119 1226 758 
Q 1494 397 1959 397 
Q 2419 397 2687 759 
Q 2956 1122 2956 1747 
Q 2956 2369 2687 2733 
Q 2419 3097 1959 3097 
z
M 1959 3584 
Q 2709 3584 3137 3096 
Q 3566 2609 3566 1747 
Q 3566 888 3137 398 
Q 2709 -91 1959 -91 
Q 1206 -91 779 398 
Q 353 888 353 1747 
Q 353 2609 779 3096 
Q 1206 3584 1959 3584 
z
" transform="scale(0.015625)"/>
      <path id="DejaVuSans-6d" d="M 3328 2828 
Q 3544 3216 3844 3400 
Q 4144 3584 4550 3584 
Q 5097 3584 5394 3201 
Q 5691 2819 5691 2113 
L 5691 0 
L 5113 0 
L 5113 2094 
Q 5113 2597 4934 2840 
Q 4756 3084 4391 3084 
Q 3944 3084 3684 2787 
Q 3425 2491 3425 1978 
L 3425 0 
L 2847 0 
L 2847 2094 
Q 2847 2600 2669 2842 
Q 2491 3084 2119 3084 
Q 1678 3084 1418 2786 
Q 1159 2488 1159 1978 
L 1159 0 
L 581 0 
L 581 3500 
L 1159 3500 
L 1159 2956 
Q 1356 3278 1631 3431 
Q 1906 3584 2284 3584 
Q 2666 3584 2933 3390 
Q 3200 3197 3328 2828 
z
" transform="scale(0.015625)"/>
      <path id="DejaVuSans-72" d="M 2631 2963 
Q 2534 3019 2420 3045 
Q 2306 3072 2169 3072 
Q 1681 3072 1420 2755 
Q 1159 2438 1159 1844 
L 1159 0 
L 581 0 
L 581 3500 
L 1159 3500 
L 1159 2956 
Q 1341 3275 1631 3429 
Q 1922 3584 2338 3584 
Q 2397 3584 2469 3576 
Q 2541 3569 2628 3553 
L 2631 2963 
z
" transform="scale(0.015625)"/>
      <path id="DejaVuSans-63" d="M 3122 3366 
L 3122 2828 
Q 2878 2963 2633 3030 
Q 2388 3097 2138 3097 
Q 1578 3097 1268 2742 
Q 959 2388 959 1747 
Q 959 1106 1268 751 
Q 1578 397 2138 397 
Q 2388 397 2633 464 
Q 2878 531 3122 666 
L 3122 134 
Q 2881 22 2623 -34 
Q 2366 -91 2075 -91 
Q 1284 -91 818 406 
Q 353 903 353 1747 
Q 353 2603 823 3093 
Q 1294 3584 2113 3584 
Q 2378 3584 2631 3529 
Q 2884 3475 3122 3366 
z
" transform="scale(0.015625)"/>
      <path id="DejaVuSans-20" transform="scale(0.015625)"/>
      <path id="DejaVuSans-67" d="M 2906 1791 
Q 2906 2416 2648 2759 
Q 2391 3103 1925 3103 
Q 1463 3103 1205 2759 
Q 947 2416 947 1791 
Q 947 1169 1205 825 
Q 1463 481 1925 481 
Q 2391 481 2648 825 
Q 2906 1169 2906 1791 
z
M 3481 434 
Q 3481 -459 3084 -895 
Q 2688 -1331 1869 -1331 
Q 1566 -1331 1297 -1286 
Q 1028 -1241 775 -1147 
L 775 -588 
Q 1028 -725 1275 -790 
Q 1522 -856 1778 -856 
Q 2344 -856 2625 -561 
Q 2906 -266 2906 331 
L 2906 616 
Q 2728 306 2450 153 
Q 2172 0 1784 0 
Q 1141 0 747 490 
Q 353 981 353 1791 
Q 353 2603 747 3093 
Q 1141 3584 1784 3584 
Q 2172 3584 2450 3431 
Q 2728 3278 2906 2969 
L 2906 3500 
L 3481 3500 
L 3481 434 
z
" transform="scale(0.015625)"/>
      <path id="DejaVuSans-2d" d="M 313 2009 
L 1997 2009 
L 1997 1497 
L 313 1497 
L 313 2009 
z
" transform="scale(0.015625)"/>
      <path id="DejaVuSans-57" d="M 213 4666 
L 850 4666 
L 1831 722 
L 2809 4666 
L 3519 4666 
L 4500 722 
L 5478 4666 
L 6119 4666 
L 4947 0 
L 4153 0 
L 3169 4050 
L 2175 0 
L 1381 0 
L 213 4666 
z
" transform="scale(0.015625)"/>
      <path id="DejaVuSans-41" d="M 2188 4044 
L 1331 1722 
L 3047 1722 
L 2188 4044 
z
M 1831 4666 
L 2547 4666 
L 4325 0 
L 3669 0 
L 3244 1197 
L 1141 1197 
L 716 0 
L 50 0 
L 1831 4666 
z
" transform="scale(0.015625)"/>
      <path id="DejaVuSans-4c" d="M 628 4666 
L 1259 4666 
L 1259 531 
L 3531 531 
L 3531 0 
L 628 0 
L 628 4666 
z
" transform="scale(0.015625)"/>
      <path id="DejaVuSans-49" d="M 628 4666 
L 1259 4666 
L 1259 0 
L 628 0 
L 628 4666 
z
" transform="scale(0.015625)"/>
      <path id="DejaVuSans-53" d="M 3425 4513 
L 3425 3897 
Q 3066 4069 2747 4153 
Q 2428 4238 2131 4238 
Q 1616 4238 1336 4038 
Q 1056 3838 1056 3469 
Q 1056 3159 1242 3001 
Q 1428 2844 1947 2747 
L 2328 2669 
Q 3034 2534 3370 2195 
Q 3706 1856 3706 1288 
Q 3706 609 3251 259 
Q 2797 -91 1919 -91 
Q 1588 -91 1214 -16 
Q 841 59 441 206 
L 441 856 
Q 825 641 1194 531 
Q 1563 422 1919 422 
Q 2459 422 2753 634 
Q 3047 847 3047 1241 
Q 3047 1584 2836 1778 
Q 2625 1972 2144 2069 
L 1759 2144 
Q 1053 2284 737 2584 
Q 422 2884 422 3419 
Q 422 4038 858 4394 
Q 1294 4750 2059 4750 
Q 2388 4750 2728 4690 
Q 3069 4631 3425 4513 
z
" transform="scale(0.015625)"/>
     </defs>
     <use xlink:href="#DejaVuSans-52"/>
     <use xlink:href="#DejaVuSans-61" x="67.232422"/>
     <use xlink:href="#DejaVuSans-64" x="128.511719"/>
     <use xlink:href="#DejaVuSans-69" x="191.988281"/>
     <use xlink:href="#DejaVuSans-6f" x="219.771484"/>
     <use xlink:href="#DejaVuSans-6d" x="280.953125"/>
     <use xlink:href="#DejaVuSans-65" x="378.365234"/>
     <use xlink:href="#DejaVuSans-74" x="439.888672"/>
     <use xlink:href="#DejaVuSans-72" x="479.097656"/>
     <use xlink:href="#DejaVuSans-69" x="520.210938"/>
     <use xlink:href="#DejaVuSans-63" x="547.994141"/>
     <use xlink:href="#DejaVuSans-20" x="602.974609"/>
     <use xlink:href="#DejaVuSans-61" x="634.761719"/>
     <use xlink:href="#DejaVuSans-67" x="696.041016"/>
     <use xlink:href="#DejaVuSans-65" x="759.517578"/>
     <use xlink:href="#DejaVuSans-73" x="821.041016"/>
     <use xlink:href="#DejaVuSans-20" x="873.140625"/>
     <use xlink:href="#DejaVuSans-2d" x="904.927734"/>
     <use xlink:href="#DejaVuSans-20" x="941.011719"/>
     <use xlink:href="#DejaVuSans-57" x="972.798828"/>
     <use xlink:href="#DejaVuSans-41" x="1066.175781"/>
     <use xlink:href="#DejaVuSans-4c" x="1134.583984"/>
     <use xlink:href="#DejaVuSans-49" x="1190.296875"/>
     <use xlink:href="#DejaVuSans-53" x="1219.789062"/>
    </g>
   </g>
   <g id="legend_1">
    <g id="patch_7">
     <path d="M 379.659375 129.26875 
L 535.05 129.26875 
Q 538.05 129.26875 538.05 126.26875 
L 538.05 39.7 
Q 538.05 36.7 535.05 36.7 
L 379.659375 36.7 
Q 376.659375 36.7 376.659375 39.7 
L 376.659375 126.26875 
Q 376.659375 129.26875 379.659375 129.26875 
z
" style="fill: #ffffff; opacity: 0.8; stroke: #cccccc; stroke-linejoin: miter"/>
    </g>
    <g id="text_3">
     <!-- Method -->
     <g transform="translate(429.225 54.097656)scale(0.15 -0.15)">
      <defs>
       <path id="DejaVuSans-4d" d="M 628 4666 
L 1569 4666 
L 2759 1491 
L 3956 4666 
L 4897 4666 
L 4897 0 
L 4281 0 
L 4281 4097 
L 3078 897 
L 2444 897 
L 1241 4097 
L 1241 0 
L 628 0 
L 628 4666 
z
" transform="scale(0.015625)"/>
       <path id="DejaVuSans-68" d="M 3513 2113 
L 3513 0 
L 2938 0 
L 2938 2094 
Q 2938 2591 2744 2837 
Q 2550 3084 2163 3084 
Q 1697 3084 1428 2787 
Q 1159 2491 1159 1978 
L 1159 0 
L 581 0 
L 581 4863 
L 1159 4863 
L 1159 2956 
Q 1366 3272 1645 3428 
Q 1925 3584 2291 3584 
Q 2894 3584 3203 3211 
Q 3513 2838 3513 2113 
z
" transform="scale(0.015625)"/>
      </defs>
      <use xlink:href="#DejaVuSans-4d"/>
      <use xlink:href="#DejaVuSans-65" x="86.279297"/>
      <use xlink:href="#DejaVuSans-74" x="147.802734"/>
      <use xlink:href="#DejaVuSans-68" x="187.011719"/>
      <use xlink:href="#DejaVuSans-6f" x="250.390625"/>
      <use xlink:href="#DejaVuSans-64" x="311.572266"/>
     </g>
    </g>
    <g id="patch_8">
     <path d="M 382.659375 76.114844 
L 412.659375 76.114844 
L 412.659375 65.614844 
L 382.659375 65.614844 
z
" style="fill: #1f77b4; fill-opacity: 0.3; stroke: #1f77b4; stroke-linejoin: miter"/>
    </g>
    <g id="text_4">
     <!-- ESR -->
     <g transform="translate(424.659375 76.114844)scale(0.15 -0.15)">
      <defs>
       <path id="DejaVuSans-45" d="M 628 4666 
L 3578 4666 
L 3578 4134 
L 1259 4134 
L 1259 2753 
L 3481 2753 
L 3481 2222 
L 1259 2222 
L 1259 531 
L 3634 531 
L 3634 0 
L 628 0 
L 628 4666 
z
" transform="scale(0.015625)"/>
      </defs>
      <use xlink:href="#DejaVuSans-45"/>
      <use xlink:href="#DejaVuSans-53" x="63.183594"/>
      <use xlink:href="#DejaVuSans-52" x="126.660156"/>
     </g>
    </g>
    <g id="patch_9">
     <path d="M 382.659375 98.132031 
L 412.659375 98.132031 
L 412.659375 87.632031 
L 382.659375 87.632031 
z
" style="fill: #ff7f0e; fill-opacity: 0.3; stroke: #ff7f0e; stroke-linejoin: miter"/>
    </g>
    <g id="text_5">
     <!-- U-Series -->
     <g transform="translate(424.659375 98.132031)scale(0.15 -0.15)">
      <defs>
       <path id="DejaVuSans-55" d="M 556 4666 
L 1191 4666 
L 1191 1831 
Q 1191 1081 1462 751 
Q 1734 422 2344 422 
Q 2950 422 3222 751 
Q 3494 1081 3494 1831 
L 3494 4666 
L 4128 4666 
L 4128 1753 
Q 4128 841 3676 375 
Q 3225 -91 2344 -91 
Q 1459 -91 1007 375 
Q 556 841 556 1753 
L 556 4666 
z
" transform="scale(0.015625)"/>
      </defs>
      <use xlink:href="#DejaVuSans-55"/>
      <use xlink:href="#DejaVuSans-2d" x="73.193359"/>
      <use xlink:href="#DejaVuSans-53" x="109.277344"/>
      <use xlink:href="#DejaVuSans-65" x="172.753906"/>
      <use xlink:href="#DejaVuSans-72" x="234.277344"/>
      <use xlink:href="#DejaVuSans-69" x="275.390625"/>
      <use xlink:href="#DejaVuSans-65" x="303.173828"/>
      <use xlink:href="#DejaVuSans-73" x="364.697266"/>
     </g>
    </g>
    <g id="patch_10">
     <path d="M 382.659375 120.149219 
L 412.659375 120.149219 
L 412.659375 109.649219 
L 382.659375 109.649219 
z
" style="fill: #2ca02c; fill-opacity: 0.3; stroke: #2ca02c; stroke-linejoin: miter"/>
    </g>
    <g id="text_6">
     <!-- Luminescence -->
     <g transform="translate(424.659375 120.149219)scale(0.15 -0.15)">
      <defs>
       <path id="DejaVuSans-75" d="M 544 1381 
L 544 3500 
L 1119 3500 
L 1119 1403 
Q 1119 906 1312 657 
Q 1506 409 1894 409 
Q 2359 409 2629 706 
Q 2900 1003 2900 1516 
L 2900 3500 
L 3475 3500 
L 3475 0 
L 2900 0 
L 2900 538 
Q 2691 219 2414 64 
Q 2138 -91 1772 -91 
Q 1169 -91 856 284 
Q 544 659 544 1381 
z
M 1991 3584 
L 1991 3584 
z
" transform="scale(0.015625)"/>
      </defs>
      <use xlink:href="#DejaVuSans-4c"/>
      <use xlink:href="#DejaVuSans-75" x="53.962891"/>
      <use xlink:href="#DejaVuSans-6d" x="117.341797"/>
      <use xlink:href="#DejaVuSans-69" x="214.753906"/>
      <use xlink:href="#DejaVuSans-6e" x="242.537109"/>
      <use xlink:href="#DejaVuSans-65" x="305.916016"/>
      <use xlink:href="#DejaVuSans-73" x="367.439453"/>
      <use xlink:href="#DejaVuSans-63" x="419.539062"/>
      <use xlink:href="#DejaVuSans-65" x="474.519531"/>
      <use xlink:href="#DejaVuSans-6e" x="536.042969"/>
      <use xlink:href="#DejaVuSans-63" x="599.421875"/>
      <use xlink:href="#DejaVuSans-65" x="654.402344"/>
     </g>
    </g>
   </g>
  </g>
  <g id="axes_2">
   <g id="patch_11">
    <path d="M 83.325 518.8 
L 545.55 518.8 
L 545.55 214.2 
L 83.325 214.2 
z
" style="fill: #ffffff"/>
   </g>
   <g id="PolyCollection_4">
    <path d="M 83.325 284.259635 
L 83.325 255.052637 
L 84.86575 257.341634 
L 86.4065 261.503445 
L 87.94725 263.74785 
L 89.488 269.202796 
L 91.02875 274.092924 
L 92.5695 280.78155 
L 94.11025 282.282775 
L 95.651 286.102723 
L 97.19175 289.461899 
L 98.7325 296.403206 
L 100.27325 307.848187 
L 101.814 324.213024 
L 103.35475 341.008905 
L 104.8955 360.688328 
L 106.43625 373.366989 
L 107.977 386.699649 
L 109.51775 397.193359 
L 111.0585 406.765525 
L 112.59925 414.895921 
L 114.14 423.858679 
L 115.68075 429.78926 
L 117.2215 439.361426 
L 118.76225 450.107817 
L 120.303 457.227487 
L 121.84375 454.641219 
L 123.3845 450.464544 
L 124.92525 445.024462 
L 126.466 438.14261 
L 128.00675 431.751257 
L 129.5475 426.757083 
L 131.08825 420.172503 
L 132.629 415.312102 
L 134.16975 412.354243 
L 135.7105 411.239472 
L 137.25125 409.113976 
L 138.792 408.47484 
L 140.33275 409.143703 
L 141.8735 406.810116 
L 143.41425 402.306441 
L 144.955 394.889499 
L 146.49575 389.642644 
L 148.0365 386.967194 
L 149.57725 383.875562 
L 151.118 382.30002 
L 152.65875 381.646021 
L 154.1995 382.062202 
L 155.74025 381.735202 
L 157.281 379.223252 
L 158.82175 373.322398 
L 160.3625 368.729542 
L 161.90325 367.94177 
L 163.444 366.782409 
L 164.98475 364.909594 
L 166.5255 369.130859 
L 168.06625 372.296809 
L 169.607 375.403304 
L 171.14775 378.643571 
L 172.6885 379.966432 
L 174.22925 378.59898 
L 175.77 379.802933 
L 177.31075 376.369438 
L 178.8515 378.331435 
L 180.39225 380.546113 
L 181.933 384.678197 
L 183.47375 386.878012 
L 185.0145 383.801244 
L 186.55525 377.781481 
L 188.096 371.568492 
L 189.63675 357.730469 
L 191.1775 345.126126 
L 192.71825 334.350007 
L 194.259 325.119704 
L 195.79975 316.350173 
L 197.3405 313.273406 
L 198.88125 309.096731 
L 200.422 305.6781 
L 201.96275 306.228053 
L 203.5035 306.436144 
L 205.04425 308.576504 
L 206.585 310.508774 
L 208.12575 307.313097 
L 209.6665 305.291646 
L 211.20725 303.270195 
L 212.748 303.225604 
L 214.28875 304.920056 
L 215.8295 308.576504 
L 217.37025 312.753179 
L 218.911 319.932304 
L 220.45175 324.213024 
L 221.9925 324.644069 
L 223.53325 322.132118 
L 225.074 320.764666 
L 226.61475 323.098253 
L 228.1555 321.15112 
L 229.69625 313.689587 
L 231.237 305.811872 
L 232.77775 298.082794 
L 234.3185 296.299161 
L 235.85925 295.585707 
L 237.4 295.511389 
L 238.94075 295.55598 
L 240.4815 297.844976 
L 242.02225 302.735105 
L 243.563 315.027312 
L 245.10375 321.834846 
L 246.6445 326.650656 
L 248.18525 331.347558 
L 249.726 335.568824 
L 251.26675 337.010594 
L 252.8075 334.662143 
L 254.34825 332.269102 
L 255.889 325.357522 
L 257.42975 316.587991 
L 258.9705 307.327961 
L 260.51125 297.354477 
L 262.052 288.466037 
L 263.59275 282.119275 
L 265.1335 273.974016 
L 266.67425 263.926214 
L 268.215 260.953491 
L 269.75575 259.63063 
L 271.2965 260.433265 
L 272.83725 264.372122 
L 274.378 269.871659 
L 275.91875 276.025194 
L 277.4595 283.754272 
L 279.00025 293.980437 
L 280.541 305.365964 
L 282.08175 322.0578 
L 283.6225 341.454814 
L 285.16325 368.239043 
L 286.704 393.343683 
L 288.24475 410.347655 
L 289.7855 428.823125 
L 291.32625 440.699151 
L 292.867 444.712326 
L 294.40775 444.816371 
L 295.9485 443.344874 
L 297.48925 439.569516 
L 299.03 435.452296 
L 300.57075 431.097258 
L 302.1115 425.196404 
L 303.65225 420.03873 
L 305.193 415.38642 
L 306.73375 411.432699 
L 308.2745 407.285751 
L 309.81525 405.294027 
L 311.356 400.716035 
L 312.89675 394.963817 
L 314.4375 388.453555 
L 315.97825 382.924291 
L 317.519 379.892114 
L 319.05975 378.301708 
L 320.6005 378.628707 
L 322.14125 380.233977 
L 323.682 382.656746 
L 325.22275 384.410652 
L 326.7635 385.733514 
L 328.30425 385.51056 
L 329.845 382.954018 
L 331.38575 379.416479 
L 332.9265 373.604807 
L 334.46725 368.387679 
L 336.008 361.253145 
L 337.54875 355.263109 
L 339.0895 353.672703 
L 340.63025 350.714844 
L 342.171 346.597624 
L 343.71175 344.382945 
L 345.2525 343.297902 
L 346.79325 344.546445 
L 348.334 346.344942 
L 349.87475 349.287937 
L 351.4155 350.625662 
L 352.95625 349.570346 
L 354.497 349.763573 
L 356.03775 351.160752 
L 357.5785 353.33084 
L 359.11925 354.93611 
L 360.66 357.299424 
L 362.20075 357.685878 
L 363.7415 358.637149 
L 365.28225 359.633011 
L 366.823 359.974874 
L 368.36375 359.737057 
L 369.9045 358.800649 
L 371.44525 356.036017 
L 372.986 350.209481 
L 374.52675 344.353218 
L 376.0675 334.498643 
L 377.60825 327.631655 
L 379.149 322.741526 
L 380.68975 315.651583 
L 382.2305 308.948094 
L 383.77125 298.93002 
L 385.312 289.313263 
L 386.85275 283.263773 
L 388.3935 283.263773 
L 389.93425 283.977226 
L 391.475 284.69068 
L 393.01575 287.276948 
L 394.5565 290.918533 
L 396.09725 291.542805 
L 397.638 286.979676 
L 399.17875 278.997916 
L 400.7195 274.286151 
L 402.26025 271.387747 
L 403.801 268.697433 
L 405.34175 269.351432 
L 406.8825 267.835344 
L 408.42325 266.512482 
L 409.964 264.44644 
L 411.50475 265.739574 
L 413.0455 267.582662 
L 414.58625 273.929425 
L 416.127 280.603186 
L 417.66775 287.20263 
L 419.2085 298.885429 
L 420.74925 312.470771 
L 422.29 324.658932 
L 423.83075 336.921412 
L 425.3715 349.986527 
L 426.91225 358.934422 
L 428.453 364.582594 
L 429.99375 367.079681 
L 431.5345 366.068955 
L 433.07525 365.147411 
L 434.616 361.743644 
L 436.15675 354.207793 
L 437.6975 345.616625 
L 439.23825 332.313692 
L 440.779 319.590441 
L 442.31975 309.825048 
L 443.8605 299.940746 
L 445.40125 291.067169 
L 446.942 286.756722 
L 448.48275 288.674128 
L 450.0235 292.01844 
L 451.56425 296.120797 
L 453.105 303.760694 
L 454.64575 310.508774 
L 456.1865 318.906714 
L 457.72725 314.893539 
L 459.268 324.540023 
L 460.80875 328.895062 
L 462.3495 332.01642 
L 463.89025 348.098848 
L 465.431 376.191075 
L 466.97175 382.106793 
L 468.5125 386.922603 
L 470.05325 388.126555 
L 471.594 384.574152 
L 473.13475 380.635295 
L 474.6755 378.316572 
L 476.21625 374.229078 
L 477.757 368.655224 
L 479.29775 375.670849 
L 480.8385 389.612917 
L 482.37925 390.504733 
L 483.92 384.752515 
L 485.46075 377.930118 
L 487.0015 375.700576 
L 488.54225 377.90039 
L 490.083 378.613844 
L 491.62375 376.696438 
L 493.1645 381.170385 
L 494.70525 385.302469 
L 496.246 388.260328 
L 497.78675 392.243776 
L 499.3275 395.647543 
L 500.86825 389.761553 
L 502.409 382.820246 
L 503.94975 371.196901 
L 505.4905 358.547968 
L 507.03125 349.748709 
L 508.572 340.919724 
L 510.11275 334.127053 
L 511.6535 327.36411 
L 513.19425 323.573889 
L 514.735 320.140394 
L 516.27575 317.539262 
L 517.8165 312.515361 
L 519.35725 311.311409 
L 520.898 312.188362 
L 522.43875 315.413766 
L 523.9795 317.227126 
L 525.52025 323.12798 
L 527.061 329.385561 
L 528.60175 338.690182 
L 530.1425 347.073259 
L 531.68325 349.674391 
L 533.224 346.894896 
L 534.76475 343.401947 
L 536.3055 339.581999 
L 537.84625 335.76205 
L 539.387 328.597789 
L 540.92775 325.089977 
L 542.4685 320.541712 
L 544.00925 317.093354 
L 545.55 314.848948 
L 547.09075 310.196638 
L 548.6315 305.737554 
L 550.17225 302.006788 
L 551.713 301.813561 
L 553.25375 299.435383 
L 554.7945 297.904431 
L 556.33525 295.333026 
L 557.876 291.899532 
L 559.41675 288.688991 
L 560.9575 284.913634 
L 562.49825 282.401684 
L 564.039 277.526419 
L 565.57975 273.810516 
L 567.1205 269.693295 
L 568.66125 268.028571 
L 570.202 265.30853 
L 571.74275 265.992256 
L 573.2835 267.850207 
L 574.82425 268.415025 
L 576.365 266.928663 
L 577.90575 263.851896 
L 579.4465 260.760264 
L 580.98725 260.760264 
L 582.528 258.590177 
L 584.06875 261.711536 
L 585.6095 263.628942 
L 587.15025 263.227624 
L 588.691 261.280491 
L 590.23175 261.993944 
L 591.7725 264.832894 
L 593.31325 270.317567 
L 594.854 285.38927 
L 596.39475 299.79211 
L 597.9355 314.893539 
L 599.47625 325.75884 
L 601.017 337.070048 
L 602.55775 356.37788 
L 604.0985 385.911877 
L 605.63925 395.320544 
L 607.18 401.622715 
L 608.72075 404.803528 
L 610.2615 406.839843 
L 611.80225 411.417835 
L 613.343 412.666379 
L 614.88375 412.725833 
L 616.4245 412.473152 
L 617.96525 411.061109 
L 619.506 410.823291 
L 621.04675 409.143703 
L 622.5875 402.945577 
L 624.12825 397.906812 
L 625.669 395.662407 
L 627.20975 393.135593 
L 628.7505 393.016684 
L 630.29125 396.494769 
L 631.832 404.535983 
L 633.37275 408.10325 
L 634.9135 404.476529 
L 636.45425 396.836632 
L 637.995 386.491558 
L 639.53575 374.674987 
L 641.0765 367.763407 
L 642.61725 365.533865 
L 644.158 357.225106 
L 645.69875 345.928761 
L 647.2395 338.972591 
L 648.78025 334.632416 
L 650.321 329.920651 
L 651.86175 326.873611 
L 653.4025 326.82902 
L 654.94325 330.515195 
L 656.484 333.978417 
L 658.02475 337.263275 
L 659.5655 338.883409 
L 661.10625 340.399497 
L 662.647 338.853682 
L 664.18775 328.404563 
L 665.7285 311.93568 
L 667.26925 299.152974 
L 668.81 295.630298 
L 670.35075 289.952398 
L 671.8915 287.232357 
L 673.43225 288.525492 
L 674.973 293.04403 
L 676.51375 291.43876 
L 678.0545 293.25212 
L 679.59525 294.976299 
L 681.136 297.413932 
L 682.67675 298.082794 
L 684.2175 295.674889 
L 685.75825 289.803762 
L 687.299 278.1061 
L 688.83975 268.563661 
L 690.3805 264.372122 
L 691.92125 258.56045 
L 693.462 254.517547 
L 695.00275 246.030425 
L 696.5435 240.08498 
L 698.08425 233.426082 
L 699.625 230.914132 
L 701.16575 228.253545 
L 702.7065 228.045455 
L 704.24725 230.096633 
L 705.788 232.653174 
L 707.32875 231.954584 
L 708.8695 235.952896 
L 710.41025 241.214615 
L 711.951 245.852062 
L 713.49175 250.177373 
L 715.0325 256.984907 
L 716.57325 265.724711 
L 718.114 276.01033 
L 719.65475 280.855868 
L 721.1955 285.790587 
L 722.73625 293.103484 
L 724.277 301.159562 
L 725.81775 311.014137 
L 727.3585 317.464944 
L 728.89925 321.760528 
L 730.44 322.265891 
L 731.98075 336.163368 
L 733.5215 352.63225 
L 735.06225 362.843551 
L 736.603 375.581667 
L 738.14375 388.096828 
L 739.6845 398.88781 
L 741.22525 414.271649 
L 742.766 422.015591 
L 744.30675 425.523403 
L 745.8475 426.965173 
L 745.8475 503.735729 
L 745.8475 503.735729 
L 744.30675 504.954545 
L 742.766 502.516913 
L 741.22525 494.505426 
L 739.6845 483.119899 
L 738.14375 471.912736 
L 736.603 456.172171 
L 735.06225 435.586068 
L 733.5215 422.17909 
L 731.98075 414.836466 
L 730.44 407.419524 
L 728.89925 400.716035 
L 727.3585 390.757415 
L 725.81775 380.590704 
L 724.277 366.321637 
L 722.73625 354.118611 
L 721.1955 349.109574 
L 719.65475 344.457263 
L 718.114 339.180681 
L 716.57325 332.165056 
L 715.0325 322.949617 
L 713.49175 317.747353 
L 711.951 310.8655 
L 710.41025 306.837462 
L 708.8695 302.898604 
L 707.32875 301.828424 
L 705.788 300.282609 
L 704.24725 299.896155 
L 702.7065 301.709515 
L 701.16575 305.484873 
L 699.625 310.464183 
L 698.08425 314.804358 
L 696.5435 316.409628 
L 695.00275 318.490533 
L 693.462 319.976895 
L 691.92125 321.567301 
L 690.3805 326.115566 
L 688.83975 331.436739 
L 687.299 338.318592 
L 685.75825 340.771088 
L 684.2175 342.792539 
L 682.67675 341.187269 
L 681.136 341.335905 
L 679.59525 342.822266 
L 678.0545 347.459713 
L 676.51375 350.001391 
L 674.973 352.79575 
L 673.43225 352.855204 
L 671.8915 355.738745 
L 670.35075 360.227556 
L 668.81 368.001225 
L 667.26925 371.10772 
L 665.7285 372.371127 
L 664.18775 374.793895 
L 662.647 374.897941 
L 661.10625 374.006124 
L 659.5655 372.87649 
L 658.02475 374.838486 
L 656.484 376.518074 
L 654.94325 379.698887 
L 653.4025 381.60143 
L 651.86175 384.693061 
L 650.321 389.835871 
L 648.78025 394.621954 
L 647.2395 398.531084 
L 645.69875 400.344444 
L 644.158 403.227985 
L 642.61725 408.177568 
L 641.0765 415.089148 
L 639.53575 422.060182 
L 637.995 430.250032 
L 636.45425 433.861889 
L 634.9135 437.889928 
L 633.37275 438.573654 
L 631.832 436.730567 
L 630.29125 434.307798 
L 628.7505 432.048529 
L 627.20975 431.439121 
L 625.669 436.269795 
L 624.12825 444.459645 
L 622.5875 450.538862 
L 621.04675 454.462856 
L 619.506 458.951666 
L 617.96525 463.425614 
L 616.4245 466.78479 
L 614.88375 469.118377 
L 613.343 469.356195 
L 611.80225 469.192695 
L 610.2615 467.423925 
L 608.72075 463.351296 
L 607.18 458.461167 
L 605.63925 453.065676 
L 604.0985 447.358049 
L 602.55775 438.603382 
L 601.017 428.912307 
L 599.47625 417.006553 
L 597.9355 403.540121 
L 596.39475 386.58074 
L 594.854 370.825311 
L 593.31325 357.091334 
L 591.7725 345.943625 
L 590.23175 335.464778 
L 588.691 329.162607 
L 587.15025 328.672108 
L 585.6095 329.370697 
L 584.06875 328.701835 
L 582.528 328.137018 
L 580.98725 327.185746 
L 579.4465 328.359972 
L 577.90575 329.905787 
L 576.365 330.648968 
L 574.82425 330.678695 
L 573.2835 330.78274 
L 571.74275 332.001557 
L 570.202 333.190646 
L 568.66125 336.416049 
L 567.1205 337.991592 
L 565.57975 340.785951 
L 564.039 343.669492 
L 562.49825 347.296213 
L 560.9575 352.037706 
L 559.41675 355.159064 
L 557.876 361.550417 
L 556.33525 365.80141 
L 554.7945 365.414956 
L 553.25375 365.608183 
L 551.713 367.525589 
L 550.17225 369.472722 
L 548.6315 372.38599 
L 547.09075 375.195213 
L 545.55 379.728615 
L 544.00925 382.612155 
L 542.4685 383.087791 
L 540.92775 384.143107 
L 539.387 384.663334 
L 537.84625 385.18356 
L 536.3055 385.138969 
L 534.76475 385.213287 
L 533.224 384.559289 
L 531.68325 383.399927 
L 530.1425 381.646021 
L 528.60175 378.480071 
L 527.061 373.41158 
L 525.52025 368.714678 
L 523.9795 367.19859 
L 522.43875 367.213453 
L 520.898 366.945908 
L 519.35725 367.451271 
L 517.8165 371.925218 
L 516.27575 377.082892 
L 514.735 382.924291 
L 513.19425 388.810282 
L 511.6535 396.138042 
L 510.11275 402.58885 
L 508.572 408.177568 
L 507.03125 412.38397 
L 505.4905 416.679554 
L 503.94975 423.873542 
L 502.409 436.254931 
L 500.86825 439.792471 
L 499.3275 440.684287 
L 497.78675 438.841199 
L 496.246 438.098019 
L 494.70525 434.44157 
L 493.1645 430.963485 
L 491.62375 426.638174 
L 490.083 424.839677 
L 488.54225 423.754633 
L 487.0015 423.234407 
L 485.46075 426.697628 
L 483.92 433.415981 
L 482.37925 438.900654 
L 480.8385 446.198687 
L 479.29775 453.229176 
L 477.757 461.389299 
L 476.21625 464.302567 
L 474.6755 467.617152 
L 473.13475 468.672469 
L 471.594 466.606427 
L 470.05325 461.879798 
L 468.5125 455.59249 
L 466.97175 450.137545 
L 465.431 443.017874 
L 463.89025 436.180613 
L 462.3495 430.101396 
L 460.80875 421.450773 
L 459.268 409.797702 
L 457.72725 398.88781 
L 456.1865 386.001059 
L 454.64575 375.120895 
L 453.105 358.51824 
L 451.56425 344.2789 
L 450.0235 335.55396 
L 448.48275 335.494505 
L 446.942 338.214546 
L 445.40125 343.684356 
L 443.8605 353.301113 
L 442.31975 364.627185 
L 440.779 376.99371 
L 439.23825 387.844147 
L 437.6975 391.604641 
L 436.15675 395.558361 
L 434.616 401.19167 
L 433.07525 407.642478 
L 431.5345 409.767974 
L 429.99375 414.033831 
L 428.453 414.464876 
L 426.91225 413.602786 
L 425.3715 407.597887 
L 423.83075 400.864671 
L 422.29 388.304919 
L 420.74925 377.231528 
L 419.2085 361.505826 
L 417.66775 348.678529 
L 416.127 339.418499 
L 414.58625 332.358283 
L 413.0455 328.538335 
L 411.50475 328.315381 
L 409.964 329.980105 
L 408.42325 330.113878 
L 406.8825 330.396287 
L 405.34175 335.360733 
L 403.801 332.105602 
L 402.26025 330.857059 
L 400.7195 336.326868 
L 399.17875 337.887547 
L 397.638 336.668731 
L 396.09725 338.809091 
L 394.5565 337.174094 
L 393.01575 333.487918 
L 391.475 328.003245 
L 389.93425 327.141156 
L 388.3935 326.204748 
L 386.85275 332.150193 
L 385.312 341.335905 
L 383.77125 345.958488 
L 382.2305 352.647114 
L 380.68975 359.945147 
L 379.149 367.183726 
L 377.60825 375.968121 
L 376.0675 381.616293 
L 374.52675 389.835871 
L 372.986 397.312268 
L 371.44525 404.03062 
L 369.9045 407.300615 
L 368.36375 411.878607 
L 366.823 414.375694 
L 365.28225 415.59451 
L 363.7415 415.356693 
L 362.20075 414.910784 
L 360.66 412.948787 
L 359.11925 410.184156 
L 357.5785 408.876158 
L 356.03775 406.081799 
L 354.497 403.614439 
L 352.95625 400.968716 
L 351.4155 401.652442 
L 349.87475 397.98113 
L 348.334 396.227224 
L 346.79325 396.583951 
L 345.2525 398.263539 
L 343.71175 399.616127 
L 342.171 403.198258 
L 340.63025 409.366657 
L 339.0895 414.583785 
L 337.54875 420.811638 
L 336.008 423.561406 
L 334.46725 430.056805 
L 332.9265 434.382116 
L 331.38575 438.960108 
L 329.845 441.130196 
L 328.30425 447.135095 
L 326.7635 450.271317 
L 325.22275 450.702362 
L 323.682 449.840272 
L 322.14125 449.260591 
L 320.6005 447.40264 
L 319.05975 445.871688 
L 317.519 445.529825 
L 315.97825 447.283731 
L 314.4375 450.211863 
L 312.89675 453.021085 
L 311.356 454.373674 
L 309.81525 455.681672 
L 308.2745 457.717987 
L 306.73375 460.006983 
L 305.193 463.054023 
L 303.65225 466.2497 
L 302.1115 473.131552 
L 300.57075 477.664954 
L 299.03 483.476626 
L 297.48925 487.40062 
L 295.9485 490.44766 
L 294.40775 490.98275 
L 292.867 490.165252 
L 291.32625 488.931572 
L 289.7855 485.616986 
L 288.24475 478.824316 
L 286.704 470.352057 
L 285.16325 455.666808 
L 283.6225 435.229342 
L 282.08175 412.443425 
L 280.541 391.054687 
L 279.00025 366.485136 
L 277.4595 345.215308 
L 275.91875 330.396287 
L 274.378 316.796082 
L 272.83725 308.903504 
L 271.2965 306.198326 
L 269.75575 306.465871 
L 268.215 311.593817 
L 266.67425 319.367486 
L 265.1335 331.094876 
L 263.59275 338.957727 
L 262.052 347.207032 
L 260.51125 353.613248 
L 258.9705 359.157376 
L 257.42975 363.794823 
L 255.889 366.559454 
L 254.34825 367.793134 
L 252.8075 369.130859 
L 251.26675 370.557766 
L 249.726 368.209315 
L 248.18525 365.117684 
L 246.6445 361.268009 
L 245.10375 358.503377 
L 243.563 351.680979 
L 242.02225 346.077397 
L 240.4815 342.064222 
L 238.94075 338.110501 
L 237.4 335.628278 
L 235.85925 334.721598 
L 234.3185 338.496955 
L 232.77775 344.159991 
L 231.237 352.305251 
L 229.69625 357.210243 
L 228.1555 359.573557 
L 226.61475 361.624735 
L 225.074 365.920319 
L 223.53325 366.708091 
L 221.9925 370.126721 
L 220.45175 371.583355 
L 218.911 370.825311 
L 217.37025 368.26877 
L 215.8295 365.637911 
L 214.28875 358.265559 
L 212.748 355.040155 
L 211.20725 353.018704 
L 209.6665 352.126887 
L 208.12575 352.513341 
L 206.585 350.521617 
L 205.04425 350.506754 
L 203.5035 351.680979 
L 201.96275 352.944386 
L 200.422 353.851066 
L 198.88125 362.338189 
L 197.3405 368.060679 
L 195.79975 375.477622 
L 194.259 385.198424 
L 192.71825 393.180183 
L 191.1775 399.422901 
L 189.63675 408.370795 
L 188.096 413.335241 
L 186.55525 418.507778 
L 185.0145 423.828951 
L 183.47375 426.78681 
L 181.933 427.202991 
L 180.39225 430.502713 
L 178.8515 432.241756 
L 177.31075 431.349939 
L 175.77 432.420119 
L 174.22925 432.62821 
L 172.6885 429.328488 
L 171.14775 425.820675 
L 169.607 423.457361 
L 168.06625 417.942961 
L 166.5255 412.324516 
L 164.98475 405.056209 
L 163.444 403.138803 
L 161.90325 404.060347 
L 160.3625 407.910023 
L 158.82175 407.181706 
L 157.281 410.853018 
L 155.74025 411.165154 
L 154.1995 411.84888 
L 152.65875 408.742385 
L 151.118 410.496291 
L 149.57725 410.526019 
L 148.0365 416.218782 
L 146.49575 422.416908 
L 144.955 428.689352 
L 143.41425 434.545616 
L 141.8735 444.415054 
L 140.33275 448.487684 
L 138.792 449.438955 
L 137.25125 449.141683 
L 135.7105 450.464544 
L 134.16975 449.111955 
L 132.629 450.330771 
L 131.08825 453.868311 
L 129.5475 459.412438 
L 128.00675 464.689021 
L 126.466 470.36692 
L 124.92525 476.163729 
L 123.3845 479.730996 
L 121.84375 481.143039 
L 120.303 481.737584 
L 118.76225 481.960538 
L 117.2215 481.648402 
L 115.68075 481.499766 
L 114.14 480.994403 
L 112.59925 477.709545 
L 111.0585 474.097687 
L 109.51775 468.137379 
L 107.977 459.352984 
L 106.43625 446.808095 
L 104.8955 431.795847 
L 103.35475 414.777012 
L 101.814 395.855634 
L 100.27325 376.815347 
L 98.7325 356.273835 
L 97.19175 337.218684 
L 95.651 324.599478 
L 94.11025 315.012448 
L 92.5695 306.792871 
L 91.02875 300.044791 
L 89.488 297.205841 
L 87.94725 292.003577 
L 86.4065 288.406583 
L 84.86575 286.013541 
L 83.325 284.259635 
z
" clip-path="url(#p19457d6f03)" style="fill: #d3d3d3; fill-opacity: 0.6"/>
   </g>
   <g id="matplotlib.axis_3">
    <g id="xtick_8">
     <g id="line2d_12">
      <g>
       <use xlink:href="#m21dfa3c42b" x="83.325" y="518.8" style="stroke: #000000; stroke-width: 0.8"/>
      </g>
     </g>
     <g id="text_7">
      <!-- 0 -->
      <g transform="translate(78.553125 537.197656)scale(0.15 -0.15)">
       <defs>
        <path id="DejaVuSans-30" d="M 2034 4250 
Q 1547 4250 1301 3770 
Q 1056 3291 1056 2328 
Q 1056 1369 1301 889 
Q 1547 409 2034 409 
Q 2525 409 2770 889 
Q 3016 1369 3016 2328 
Q 3016 3291 2770 3770 
Q 2525 4250 2034 4250 
z
M 2034 4750 
Q 2819 4750 3233 4129 
Q 3647 3509 3647 2328 
Q 3647 1150 3233 529 
Q 2819 -91 2034 -91 
Q 1250 -91 836 529 
Q 422 1150 422 2328 
Q 422 3509 836 4129 
Q 1250 4750 2034 4750 
z
" transform="scale(0.015625)"/>
       </defs>
       <use xlink:href="#DejaVuSans-30"/>
      </g>
     </g>
    </g>
    <g id="xtick_9">
     <g id="line2d_13">
      <g>
       <use xlink:href="#m21dfa3c42b" x="160.3625" y="518.8" style="stroke: #000000; stroke-width: 0.8"/>
      </g>
     </g>
     <g id="text_8">
      <!-- 50 -->
      <g transform="translate(150.81875 537.197656)scale(0.15 -0.15)">
       <defs>
        <path id="DejaVuSans-35" d="M 691 4666 
L 3169 4666 
L 3169 4134 
L 1269 4134 
L 1269 2991 
Q 1406 3038 1543 3061 
Q 1681 3084 1819 3084 
Q 2600 3084 3056 2656 
Q 3513 2228 3513 1497 
Q 3513 744 3044 326 
Q 2575 -91 1722 -91 
Q 1428 -91 1123 -41 
Q 819 9 494 109 
L 494 744 
Q 775 591 1075 516 
Q 1375 441 1709 441 
Q 2250 441 2565 725 
Q 2881 1009 2881 1497 
Q 2881 1984 2565 2268 
Q 2250 2553 1709 2553 
Q 1456 2553 1204 2497 
Q 953 2441 691 2322 
L 691 4666 
z
" transform="scale(0.015625)"/>
       </defs>
       <use xlink:href="#DejaVuSans-35"/>
       <use xlink:href="#DejaVuSans-30" x="63.623047"/>
      </g>
     </g>
    </g>
    <g id="xtick_10">
     <g id="line2d_14">
      <g>
       <use xlink:href="#m21dfa3c42b" x="237.4" y="518.8" style="stroke: #000000; stroke-width: 0.8"/>
      </g>
     </g>
     <g id="text_9">
      <!-- 100 -->
      <g transform="translate(223.084375 537.197656)scale(0.15 -0.15)">
       <defs>
        <path id="DejaVuSans-31" d="M 794 531 
L 1825 531 
L 1825 4091 
L 703 3866 
L 703 4441 
L 1819 4666 
L 2450 4666 
L 2450 531 
L 3481 531 
L 3481 0 
L 794 0 
L 794 531 
z
" transform="scale(0.015625)"/>
       </defs>
       <use xlink:href="#DejaVuSans-31"/>
       <use xlink:href="#DejaVuSans-30" x="63.623047"/>
       <use xlink:href="#DejaVuSans-30" x="127.246094"/>
      </g>
     </g>
    </g>
    <g id="xtick_11">
     <g id="line2d_15">
      <g>
       <use xlink:href="#m21dfa3c42b" x="314.4375" y="518.8" style="stroke: #000000; stroke-width: 0.8"/>
      </g>
     </g>
     <g id="text_10">
      <!-- 150 -->
      <g transform="translate(300.121875 537.197656)scale(0.15 -0.15)">
       <use xlink:href="#DejaVuSans-31"/>
       <use xlink:href="#DejaVuSans-35" x="63.623047"/>
       <use xlink:href="#DejaVuSans-30" x="127.246094"/>
      </g>
     </g>
    </g>
    <g id="xtick_12">
     <g id="line2d_16">
      <g>
       <use xlink:href="#m21dfa3c42b" x="391.475" y="518.8" style="stroke: #000000; stroke-width: 0.8"/>
      </g>
     </g>
     <g id="text_11">
      <!-- 200 -->
      <g transform="translate(377.159375 537.197656)scale(0.15 -0.15)">
       <defs>
        <path id="DejaVuSans-32" d="M 1228 531 
L 3431 531 
L 3431 0 
L 469 0 
L 469 531 
Q 828 903 1448 1529 
Q 2069 2156 2228 2338 
Q 2531 2678 2651 2914 
Q 2772 3150 2772 3378 
Q 2772 3750 2511 3984 
Q 2250 4219 1831 4219 
Q 1534 4219 1204 4116 
Q 875 4013 500 3803 
L 500 4441 
Q 881 4594 1212 4672 
Q 1544 4750 1819 4750 
Q 2544 4750 2975 4387 
Q 3406 4025 3406 3419 
Q 3406 3131 3298 2873 
Q 3191 2616 2906 2266 
Q 2828 2175 2409 1742 
Q 1991 1309 1228 531 
z
" transform="scale(0.015625)"/>
       </defs>
       <use xlink:href="#DejaVuSans-32"/>
       <use xlink:href="#DejaVuSans-30" x="63.623047"/>
       <use xlink:href="#DejaVuSans-30" x="127.246094"/>
      </g>
     </g>
    </g>
    <g id="xtick_13">
     <g id="line2d_17">
      <g>
       <use xlink:href="#m21dfa3c42b" x="468.5125" y="518.8" style="stroke: #000000; stroke-width: 0.8"/>
      </g>
     </g>
     <g id="text_12">
      <!-- 250 -->
      <g transform="translate(454.196875 537.197656)scale(0.15 -0.15)">
       <use xlink:href="#DejaVuSans-32"/>
       <use xlink:href="#DejaVuSans-35" x="63.623047"/>
       <use xlink:href="#DejaVuSans-30" x="127.246094"/>
      </g>
     </g>
    </g>
    <g id="xtick_14">
     <g id="line2d_18">
      <g>
       <use xlink:href="#m21dfa3c42b" x="545.55" y="518.8" style="stroke: #000000; stroke-width: 0.8"/>
      </g>
     </g>
     <g id="text_13">
      <!-- 300 -->
      <g transform="translate(531.234375 537.197656)scale(0.15 -0.15)">
       <defs>
        <path id="DejaVuSans-33" d="M 2597 2516 
Q 3050 2419 3304 2112 
Q 3559 1806 3559 1356 
Q 3559 666 3084 287 
Q 2609 -91 1734 -91 
Q 1441 -91 1130 -33 
Q 819 25 488 141 
L 488 750 
Q 750 597 1062 519 
Q 1375 441 1716 441 
Q 2309 441 2620 675 
Q 2931 909 2931 1356 
Q 2931 1769 2642 2001 
Q 2353 2234 1838 2234 
L 1294 2234 
L 1294 2753 
L 1863 2753 
Q 2328 2753 2575 2939 
Q 2822 3125 2822 3475 
Q 2822 3834 2567 4026 
Q 2313 4219 1838 4219 
Q 1578 4219 1281 4162 
Q 984 4106 628 3988 
L 628 4550 
Q 988 4650 1302 4700 
Q 1616 4750 1894 4750 
Q 2613 4750 3031 4423 
Q 3450 4097 3450 3541 
Q 3450 3153 3228 2886 
Q 3006 2619 2597 2516 
z
" transform="scale(0.015625)"/>
       </defs>
       <use xlink:href="#DejaVuSans-33"/>
       <use xlink:href="#DejaVuSans-30" x="63.623047"/>
       <use xlink:href="#DejaVuSans-30" x="127.246094"/>
      </g>
     </g>
    </g>
    <g id="text_14">
     <!-- Time (ka) -->
     <g transform="translate(279.043359 555.714844)scale(0.15 -0.15)">
      <defs>
       <path id="DejaVuSans-54" d="M -19 4666 
L 3928 4666 
L 3928 4134 
L 2272 4134 
L 2272 0 
L 1638 0 
L 1638 4134 
L -19 4134 
L -19 4666 
z
" transform="scale(0.015625)"/>
       <path id="DejaVuSans-28" d="M 1984 4856 
Q 1566 4138 1362 3434 
Q 1159 2731 1159 2009 
Q 1159 1288 1364 580 
Q 1569 -128 1984 -844 
L 1484 -844 
Q 1016 -109 783 600 
Q 550 1309 550 2009 
Q 550 2706 781 3412 
Q 1013 4119 1484 4856 
L 1984 4856 
z
" transform="scale(0.015625)"/>
       <path id="DejaVuSans-6b" d="M 581 4863 
L 1159 4863 
L 1159 1991 
L 2875 3500 
L 3609 3500 
L 1753 1863 
L 3688 0 
L 2938 0 
L 1159 1709 
L 1159 0 
L 581 0 
L 581 4863 
z
" transform="scale(0.015625)"/>
       <path id="DejaVuSans-29" d="M 513 4856 
L 1013 4856 
Q 1481 4119 1714 3412 
Q 1947 2706 1947 2009 
Q 1947 1309 1714 600 
Q 1481 -109 1013 -844 
L 513 -844 
Q 928 -128 1133 580 
Q 1338 1288 1338 2009 
Q 1338 2731 1133 3434 
Q 928 4138 513 4856 
z
" transform="scale(0.015625)"/>
      </defs>
      <use xlink:href="#DejaVuSans-54"/>
      <use xlink:href="#DejaVuSans-69" x="57.958984"/>
      <use xlink:href="#DejaVuSans-6d" x="85.742188"/>
      <use xlink:href="#DejaVuSans-65" x="183.154297"/>
      <use xlink:href="#DejaVuSans-20" x="244.677734"/>
      <use xlink:href="#DejaVuSans-28" x="276.464844"/>
      <use xlink:href="#DejaVuSans-6b" x="315.478516"/>
      <use xlink:href="#DejaVuSans-61" x="371.638672"/>
      <use xlink:href="#DejaVuSans-29" x="432.917969"/>
     </g>
    </g>
   </g>
   <g id="matplotlib.axis_4">
    <g id="ytick_5">
     <g id="line2d_19">
      <g>
       <use xlink:href="#mddff6cd8a8" x="83.325" y="504.657273" style="stroke: #000000; stroke-width: 0.8"/>
      </g>
     </g>
     <g id="text_15">
      <!-- 150 -->
      <g transform="translate(35.124219 510.356101)scale(0.15 -0.15)">
       <defs>
        <path id="DejaVuSans-2212" d="M 678 2272 
L 4684 2272 
L 4684 1741 
L 678 1741 
L 678 2272 
z
" transform="scale(0.015625)"/>
       </defs>
       <use xlink:href="#DejaVuSans-2212"/>
       <use xlink:href="#DejaVuSans-31" x="83.789062"/>
       <use xlink:href="#DejaVuSans-35" x="147.412109"/>
       <use xlink:href="#DejaVuSans-30" x="211.035156"/>
      </g>
     </g>
    </g>
    <g id="ytick_6">
     <g id="line2d_20">
      <g>
       <use xlink:href="#mddff6cd8a8" x="83.325" y="467.498243" style="stroke: #000000; stroke-width: 0.8"/>
      </g>
     </g>
     <g id="text_16">
      <!-- 125 -->
      <g transform="translate(35.124219 473.197071)scale(0.15 -0.15)">
       <use xlink:href="#DejaVuSans-2212"/>
       <use xlink:href="#DejaVuSans-31" x="83.789062"/>
       <use xlink:href="#DejaVuSans-32" x="147.412109"/>
       <use xlink:href="#DejaVuSans-35" x="211.035156"/>
      </g>
     </g>
    </g>
    <g id="ytick_7">
     <g id="line2d_21">
      <g>
       <use xlink:href="#mddff6cd8a8" x="83.325" y="430.339213" style="stroke: #000000; stroke-width: 0.8"/>
      </g>
     </g>
     <g id="text_17">
      <!-- 100 -->
      <g transform="translate(35.124219 436.038042)scale(0.15 -0.15)">
       <use xlink:href="#DejaVuSans-2212"/>
       <use xlink:href="#DejaVuSans-31" x="83.789062"/>
       <use xlink:href="#DejaVuSans-30" x="147.412109"/>
       <use xlink:href="#DejaVuSans-30" x="211.035156"/>
      </g>
     </g>
    </g>
    <g id="ytick_8">
     <g id="line2d_22">
      <g>
       <use xlink:href="#mddff6cd8a8" x="83.325" y="393.180183" style="stroke: #000000; stroke-width: 0.8"/>
      </g>
     </g>
     <g id="text_18">
      <!-- 75 -->
      <g transform="translate(44.667969 398.879012)scale(0.15 -0.15)">
       <defs>
        <path id="DejaVuSans-37" d="M 525 4666 
L 3525 4666 
L 3525 4397 
L 1831 0 
L 1172 0 
L 2766 4134 
L 525 4134 
L 525 4666 
z
" transform="scale(0.015625)"/>
       </defs>
       <use xlink:href="#DejaVuSans-2212"/>
       <use xlink:href="#DejaVuSans-37" x="83.789062"/>
       <use xlink:href="#DejaVuSans-35" x="147.412109"/>
      </g>
     </g>
    </g>
    <g id="ytick_9">
     <g id="line2d_23">
      <g>
       <use xlink:href="#mddff6cd8a8" x="83.325" y="356.021154" style="stroke: #000000; stroke-width: 0.8"/>
      </g>
     </g>
     <g id="text_19">
      <!-- 50 -->
      <g transform="translate(44.667969 361.719982)scale(0.15 -0.15)">
       <use xlink:href="#DejaVuSans-2212"/>
       <use xlink:href="#DejaVuSans-35" x="83.789062"/>
       <use xlink:href="#DejaVuSans-30" x="147.412109"/>
      </g>
     </g>
    </g>
    <g id="ytick_10">
     <g id="line2d_24">
      <g>
       <use xlink:href="#mddff6cd8a8" x="83.325" y="318.862124" style="stroke: #000000; stroke-width: 0.8"/>
      </g>
     </g>
     <g id="text_20">
      <!-- 25 -->
      <g transform="translate(44.667969 324.560952)scale(0.15 -0.15)">
       <use xlink:href="#DejaVuSans-2212"/>
       <use xlink:href="#DejaVuSans-32" x="83.789062"/>
       <use xlink:href="#DejaVuSans-35" x="147.412109"/>
      </g>
     </g>
    </g>
    <g id="ytick_11">
     <g id="line2d_25">
      <g>
       <use xlink:href="#mddff6cd8a8" x="83.325" y="281.703094" style="stroke: #000000; stroke-width: 0.8"/>
      </g>
     </g>
     <g id="text_21">
      <!-- 0 -->
      <g transform="translate(66.78125 287.401922)scale(0.15 -0.15)">
       <use xlink:href="#DejaVuSans-30"/>
      </g>
     </g>
    </g>
    <g id="ytick_12">
     <g id="line2d_26">
      <g>
       <use xlink:href="#mddff6cd8a8" x="83.325" y="244.544064" style="stroke: #000000; stroke-width: 0.8"/>
      </g>
     </g>
     <g id="text_22">
      <!-- 25 -->
      <g transform="translate(57.2375 250.242892)scale(0.15 -0.15)">
       <use xlink:href="#DejaVuSans-32"/>
       <use xlink:href="#DejaVuSans-35" x="63.623047"/>
      </g>
     </g>
    </g>
    <g id="text_23">
     <!-- Sea level (m) -->
     <g transform="translate(28.004688 416.233203)rotate(-90)scale(0.15 -0.15)">
      <defs>
       <path id="DejaVuSans-6c" d="M 603 4863 
L 1178 4863 
L 1178 0 
L 603 0 
L 603 4863 
z
" transform="scale(0.015625)"/>
       <path id="DejaVuSans-76" d="M 191 3500 
L 800 3500 
L 1894 563 
L 2988 3500 
L 3597 3500 
L 2284 0 
L 1503 0 
L 191 3500 
z
" transform="scale(0.015625)"/>
      </defs>
      <use xlink:href="#DejaVuSans-53"/>
      <use xlink:href="#DejaVuSans-65" x="63.476562"/>
      <use xlink:href="#DejaVuSans-61" x="125"/>
      <use xlink:href="#DejaVuSans-20" x="186.279297"/>
      <use xlink:href="#DejaVuSans-6c" x="218.066406"/>
      <use xlink:href="#DejaVuSans-65" x="245.849609"/>
      <use xlink:href="#DejaVuSans-76" x="307.373047"/>
      <use xlink:href="#DejaVuSans-65" x="366.552734"/>
      <use xlink:href="#DejaVuSans-6c" x="428.076172"/>
      <use xlink:href="#DejaVuSans-20" x="455.859375"/>
      <use xlink:href="#DejaVuSans-28" x="487.646484"/>
      <use xlink:href="#DejaVuSans-6d" x="526.660156"/>
      <use xlink:href="#DejaVuSans-29" x="624.072266"/>
     </g>
    </g>
   </g>
   <g id="line2d_27">
    <path d="M 83.325 269.083887 
L 84.86575 270.362158 
L 86.4065 275.742785 
L 87.94725 275.237423 
L 89.488 277.050783 
L 91.02875 281.703094 
L 92.5695 287.663402 
L 94.11025 290.784761 
L 95.651 295.214117 
L 97.19175 305.232191 
L 98.7325 318.252716 
L 100.27325 334.989143 
L 103.35475 380.248841 
L 109.51775 441.18965 
L 111.0585 449.676773 
L 112.59925 455.131718 
L 114.14 456.439716 
L 115.68075 460.081301 
L 117.2215 468.717059 
L 118.76225 473.027507 
L 120.303 474.930049 
L 121.84375 470.307466 
L 123.3845 463.633704 
L 124.92525 457.509896 
L 126.466 452.91704 
L 128.00675 446.49596 
L 129.5475 438.930381 
L 131.08825 435.541478 
L 132.629 431.275621 
L 134.16975 426.593583 
L 135.7105 426.430083 
L 137.25125 428.600171 
L 138.792 429.432533 
L 140.33275 423.308725 
L 141.8735 420.083321 
L 143.41425 415.92151 
L 144.955 409.381521 
L 146.49575 400.255263 
L 148.0365 394.309818 
L 149.57725 391.56005 
L 151.118 394.93409 
L 152.65875 392.422139 
L 154.1995 394.339545 
L 155.74025 391.247914 
L 157.281 395.721861 
L 158.82175 391.322232 
L 161.90325 375.507349 
L 163.444 382.597292 
L 164.98475 384.039062 
L 166.5255 385.822696 
L 168.06625 389.107554 
L 169.607 397.683858 
L 171.14775 404.684619 
L 172.6885 409.099112 
L 174.22925 404.981891 
L 177.31075 410.362519 
L 178.8515 407.03307 
L 180.39225 407.672205 
L 181.933 405.784526 
L 183.47375 404.654892 
L 185.0145 404.283302 
L 186.55525 399.675582 
L 188.096 387.32392 
L 189.63675 382.939155 
L 191.1775 378.896252 
L 192.71825 358.14665 
L 194.259 351.131025 
L 195.79975 346.865169 
L 197.3405 335.479642 
L 198.88125 330.842195 
L 200.422 328.64238 
L 201.96275 322.860435 
L 203.5035 324.510296 
L 205.04425 330.678695 
L 206.585 327.557337 
L 208.12575 328.315381 
L 209.6665 325.75884 
L 211.20725 319.70935 
L 212.748 327.274928 
L 214.28875 326.279066 
L 215.8295 339.329317 
L 217.37025 345.750398 
L 218.911 350.967525 
L 220.45175 346.270624 
L 221.9925 346.553033 
L 223.53325 341.60345 
L 225.074 343.639765 
L 226.61475 344.368082 
L 228.1555 341.930449 
L 231.237 322.934753 
L 232.77775 314.685449 
L 234.3185 313.199087 
L 235.85925 307.357688 
L 237.4 310.672273 
L 238.94075 308.041414 
L 240.4815 318.906714 
L 242.02225 325.506158 
L 243.563 328.835607 
L 245.10375 332.774464 
L 246.6445 341.648041 
L 248.18525 348.604211 
L 249.726 347.81644 
L 251.26675 350.001391 
L 252.8075 350.610799 
L 254.34825 351.680979 
L 255.889 345.88417 
L 257.42975 339.567135 
L 258.9705 332.001557 
L 260.51125 320.601166 
L 262.052 315.146221 
L 263.59275 302.645923 
L 265.1335 292.939984 
L 266.67425 287.648539 
L 268.215 277.719646 
L 269.75575 277.050783 
L 271.2965 278.329054 
L 272.83725 279.91946 
L 274.378 283.457 
L 275.91875 291.587396 
L 277.4595 300.609608 
L 279.00025 321.983482 
L 280.541 335.405324 
L 282.08175 360.405919 
L 283.6225 391.277641 
L 285.16325 404.967028 
L 286.704 433.520026 
L 288.24475 451.713087 
L 289.7855 460.452891 
L 291.32625 465.655155 
L 292.867 465.937564 
L 294.40775 465.432201 
L 295.9485 464.10934 
L 297.48925 461.463617 
L 299.03 458.401713 
L 300.57075 450.330771 
L 302.1115 446.362187 
L 303.65225 440.372151 
L 305.193 433.90648 
L 306.73375 430.844576 
L 308.2745 431.39453 
L 309.81525 429.62576 
L 311.356 429.120397 
L 312.89675 425.790948 
L 314.4375 416.649827 
L 315.97825 410.897609 
L 317.519 409.381521 
L 319.05975 408.370795 
L 320.6005 410.882745 
L 323.682 419.206368 
L 325.22275 419.444186 
L 326.7635 413.855468 
L 329.845 410.9422 
L 331.38575 408.47484 
L 332.9265 398.739174 
L 334.46725 396.271815 
L 337.54875 388.215737 
L 339.0895 378.747616 
L 340.63025 373.396716 
L 342.171 373.144035 
L 343.71175 368.149861 
L 345.2525 363.958322 
L 346.79325 367.436408 
L 348.334 377.499073 
L 349.87475 375.566803 
L 351.4155 374.065578 
L 352.95625 372.995398 
L 354.497 376.354575 
L 356.03775 374.764168 
L 357.5785 379.847524 
L 359.11925 383.593154 
L 360.66 382.954018 
L 362.20075 383.57829 
L 363.7415 383.652608 
L 365.28225 384.053926 
L 366.823 386.209149 
L 368.36375 387.977919 
L 369.9045 382.047338 
L 371.44525 377.023437 
L 372.986 369.368677 
L 374.52675 364.552867 
L 376.0675 357.462924 
L 377.60825 348.455575 
L 379.149 337.144366 
L 380.68975 330.500332 
L 382.2305 329.905787 
L 383.77125 320.556575 
L 385.312 313.957132 
L 386.85275 301.739243 
L 388.3935 296.700478 
L 389.93425 293.177802 
L 391.475 298.409794 
L 393.01575 310.746592 
L 394.5565 313.659859 
L 396.09725 321.15112 
L 397.638 316.974445 
L 399.17875 303.091831 
L 400.7195 296.328888 
L 402.26025 302.660787 
L 403.801 296.759933 
L 405.34175 297.458522 
L 406.8825 298.751657 
L 409.964 292.672439 
L 411.50475 291.780623 
L 413.0455 292.18194 
L 414.58625 295.34789 
L 416.127 301.174425 
L 417.66775 316.647445 
L 419.2085 325.194022 
L 420.74925 336.416049 
L 423.83075 373.485898 
L 425.3715 381.333885 
L 426.91225 391.218187 
L 428.453 388.944054 
L 429.99375 392.214049 
L 433.07525 381.110931 
L 434.616 378.985434 
L 436.15675 378.405753 
L 437.6975 369.561904 
L 439.23825 358.176377 
L 442.31975 328.657244 
L 445.40125 313.481496 
L 446.942 304.043103 
L 448.48275 295.734343 
L 450.0235 303.730967 
L 451.56425 313.050451 
L 453.105 320.809257 
L 454.64575 333.933826 
L 456.1865 348.440711 
L 457.72725 361.550417 
L 459.268 368.149861 
L 460.80875 362.665188 
L 462.3495 390.356097 
L 463.89025 401.607851 
L 465.431 410.585473 
L 466.97175 412.948787 
L 468.5125 418.121324 
L 470.05325 421.881818 
L 471.594 422.164227 
L 473.13475 423.873542 
L 474.6755 418.403733 
L 476.21625 410.867882 
L 479.29775 420.722456 
L 480.8385 420.990001 
L 482.37925 415.312102 
L 483.92 402.187532 
L 485.46075 398.085175 
L 487.0015 397.163631 
L 488.54225 396.896086 
L 490.083 408.608613 
L 491.62375 407.360069 
L 493.1645 403.718484 
L 494.70525 404.72921 
L 496.246 420.053594 
L 497.78675 426.177402 
L 499.3275 427.678627 
L 500.86825 415.401283 
L 502.409 400.938989 
L 503.94975 394.844908 
L 505.4905 392.25864 
L 507.03125 382.121656 
L 508.572 373.634534 
L 510.11275 366.054092 
L 513.19425 356.214381 
L 514.735 350.16489 
L 516.27575 340.994042 
L 517.8165 338.095638 
L 519.35725 336.237686 
L 520.898 333.814917 
L 522.43875 334.052735 
L 525.52025 337.961865 
L 527.061 345.155853 
L 528.60175 358.770922 
L 530.1425 365.96491 
L 531.68325 368.699815 
L 533.224 365.756819 
L 536.3055 360.8221 
L 537.84625 359.58842 
L 539.387 354.460474 
L 540.92775 353.568658 
L 542.4685 352.453887 
L 544.00925 349.079847 
L 545.55 345.438262 
L 547.09075 340.548134 
L 548.6315 338.199683 
L 550.17225 330.842195 
L 551.713 334.245962 
L 553.25375 340.295452 
L 554.7945 334.885097 
L 556.33525 327.111428 
L 557.876 327.884336 
L 559.41675 323.172571 
L 560.9575 317.524399 
L 562.49825 314.73004 
L 564.039 314.224677 
L 565.57975 309.081867 
L 567.1205 300.119109 
L 568.66125 299.717791 
L 570.202 296.343752 
L 571.74275 297.235568 
L 574.82425 298.513839 
L 576.365 294.247982 
L 577 293.316854 
L 577 293.316854 
" clip-path="url(#p19457d6f03)" style="fill: none; stroke: #000000; stroke-opacity: 0.6; stroke-linecap: square"/>
   </g>
   <g id="patch_12">
    <path d="M 83.325 518.8 
L 83.325 214.2 
" style="fill: none; stroke: #000000; stroke-width: 0.8; stroke-linejoin: miter; stroke-linecap: square"/>
   </g>
   <g id="patch_13">
    <path d="M 545.55 518.8 
L 545.55 214.2 
" style="fill: none; stroke: #000000; stroke-width: 0.8; stroke-linejoin: miter; stroke-linecap: square"/>
   </g>
   <g id="patch_14">
    <path d="M 83.325 518.8 
L 545.55 518.8 
" style="fill: none; stroke: #000000; stroke-width: 0.8; stroke-linejoin: miter; stroke-linecap: square"/>
   </g>
   <g id="patch_15">
    <path d="M 83.325 214.2 
L 545.55 214.2 
" style="fill: none; stroke: #000000; stroke-width: 0.8; stroke-linejoin: miter; stroke-linecap: square"/>
   </g>
   <g id="text_24">
    <!-- Data: Spratt and Lisiecki, 2016 (Climate of the Past) -->
    <g transform="translate(83.325 208.2)scale(0.08 -0.08)">
     <defs>
      <path id="DejaVuSans-3a" d="M 750 794 
L 1409 794 
L 1409 0 
L 750 0 
L 750 794 
z
M 750 3309 
L 1409 3309 
L 1409 2516 
L 750 2516 
L 750 3309 
z
" transform="scale(0.015625)"/>
      <path id="DejaVuSans-70" d="M 1159 525 
L 1159 -1331 
L 581 -1331 
L 581 3500 
L 1159 3500 
L 1159 2969 
Q 1341 3281 1617 3432 
Q 1894 3584 2278 3584 
Q 2916 3584 3314 3078 
Q 3713 2572 3713 1747 
Q 3713 922 3314 415 
Q 2916 -91 2278 -91 
Q 1894 -91 1617 61 
Q 1341 213 1159 525 
z
M 3116 1747 
Q 3116 2381 2855 2742 
Q 2594 3103 2138 3103 
Q 1681 3103 1420 2742 
Q 1159 2381 1159 1747 
Q 1159 1113 1420 752 
Q 1681 391 2138 391 
Q 2594 391 2855 752 
Q 3116 1113 3116 1747 
z
" transform="scale(0.015625)"/>
      <path id="DejaVuSans-2c" d="M 750 794 
L 1409 794 
L 1409 256 
L 897 -744 
L 494 -744 
L 750 256 
L 750 794 
z
" transform="scale(0.015625)"/>
      <path id="DejaVuSans-36" d="M 2113 2584 
Q 1688 2584 1439 2293 
Q 1191 2003 1191 1497 
Q 1191 994 1439 701 
Q 1688 409 2113 409 
Q 2538 409 2786 701 
Q 3034 994 3034 1497 
Q 3034 2003 2786 2293 
Q 2538 2584 2113 2584 
z
M 3366 4563 
L 3366 3988 
Q 3128 4100 2886 4159 
Q 2644 4219 2406 4219 
Q 1781 4219 1451 3797 
Q 1122 3375 1075 2522 
Q 1259 2794 1537 2939 
Q 1816 3084 2150 3084 
Q 2853 3084 3261 2657 
Q 3669 2231 3669 1497 
Q 3669 778 3244 343 
Q 2819 -91 2113 -91 
Q 1303 -91 875 529 
Q 447 1150 447 2328 
Q 447 3434 972 4092 
Q 1497 4750 2381 4750 
Q 2619 4750 2861 4703 
Q 3103 4656 3366 4563 
z
" transform="scale(0.015625)"/>
      <path id="DejaVuSans-43" d="M 4122 4306 
L 4122 3641 
Q 3803 3938 3442 4084 
Q 3081 4231 2675 4231 
Q 1875 4231 1450 3742 
Q 1025 3253 1025 2328 
Q 1025 1406 1450 917 
Q 1875 428 2675 428 
Q 3081 428 3442 575 
Q 3803 722 4122 1019 
L 4122 359 
Q 3791 134 3420 21 
Q 3050 -91 2638 -91 
Q 1578 -91 968 557 
Q 359 1206 359 2328 
Q 359 3453 968 4101 
Q 1578 4750 2638 4750 
Q 3056 4750 3426 4639 
Q 3797 4528 4122 4306 
z
" transform="scale(0.015625)"/>
      <path id="DejaVuSans-66" d="M 2375 4863 
L 2375 4384 
L 1825 4384 
Q 1516 4384 1395 4259 
Q 1275 4134 1275 3809 
L 1275 3500 
L 2222 3500 
L 2222 3053 
L 1275 3053 
L 1275 0 
L 697 0 
L 697 3053 
L 147 3053 
L 147 3500 
L 697 3500 
L 697 3744 
Q 697 4328 969 4595 
Q 1241 4863 1831 4863 
L 2375 4863 
z
" transform="scale(0.015625)"/>
      <path id="DejaVuSans-50" d="M 1259 4147 
L 1259 2394 
L 2053 2394 
Q 2494 2394 2734 2622 
Q 2975 2850 2975 3272 
Q 2975 3691 2734 3919 
Q 2494 4147 2053 4147 
L 1259 4147 
z
M 628 4666 
L 2053 4666 
Q 2838 4666 3239 4311 
Q 3641 3956 3641 3272 
Q 3641 2581 3239 2228 
Q 2838 1875 2053 1875 
L 1259 1875 
L 1259 0 
L 628 0 
L 628 4666 
z
" transform="scale(0.015625)"/>
     </defs>
     <use xlink:href="#DejaVuSans-44"/>
     <use xlink:href="#DejaVuSans-61" x="77.001953"/>
     <use xlink:href="#DejaVuSans-74" x="138.28125"/>
     <use xlink:href="#DejaVuSans-61" x="177.490234"/>
     <use xlink:href="#DejaVuSans-3a" x="238.769531"/>
     <use xlink:href="#DejaVuSans-20" x="272.460938"/>
     <use xlink:href="#DejaVuSans-53" x="304.248047"/>
     <use xlink:href="#DejaVuSans-70" x="367.724609"/>
     <use xlink:href="#DejaVuSans-72" x="431.201172"/>
     <use xlink:href="#DejaVuSans-61" x="472.314453"/>
     <use xlink:href="#DejaVuSans-74" x="533.59375"/>
     <use xlink:href="#DejaVuSans-74" x="572.802734"/>
     <use xlink:href="#DejaVuSans-20" x="612.011719"/>
     <use xlink:href="#DejaVuSans-61" x="643.798828"/>
     <use xlink:href="#DejaVuSans-6e" x="705.078125"/>
     <use xlink:href="#DejaVuSans-64" x="768.457031"/>
     <use xlink:href="#DejaVuSans-20" x="831.933594"/>
     <use xlink:href="#DejaVuSans-4c" x="863.720703"/>
     <use xlink:href="#DejaVuSans-69" x="919.433594"/>
     <use xlink:href="#DejaVuSans-73" x="947.216797"/>
     <use xlink:href="#DejaVuSans-69" x="999.316406"/>
     <use xlink:href="#DejaVuSans-65" x="1027.099609"/>
     <use xlink:href="#DejaVuSans-63" x="1088.623047"/>
     <use xlink:href="#DejaVuSans-6b" x="1143.603516"/>
     <use xlink:href="#DejaVuSans-69" x="1201.513672"/>
     <use xlink:href="#DejaVuSans-2c" x="1229.296875"/>
     <use xlink:href="#DejaVuSans-20" x="1261.083984"/>
     <use xlink:href="#DejaVuSans-32" x="1292.871094"/>
     <use xlink:href="#DejaVuSans-30" x="1356.494141"/>
     <use xlink:href="#DejaVuSans-31" x="1420.117188"/>
     <use xlink:href="#DejaVuSans-36" x="1483.740234"/>
     <use xlink:href="#DejaVuSans-20" x="1547.363281"/>
     <use xlink:href="#DejaVuSans-28" x="1579.150391"/>
     <use xlink:href="#DejaVuSans-43" x="1618.164062"/>
     <use xlink:href="#DejaVuSans-6c" x="1687.988281"/>
     <use xlink:href="#DejaVuSans-69" x="1715.771484"/>
     <use xlink:href="#DejaVuSans-6d" x="1743.554688"/>
     <use xlink:href="#DejaVuSans-61" x="1840.966797"/>
     <use xlink:href="#DejaVuSans-74" x="1902.246094"/>
     <use xlink:href="#DejaVuSans-65" x="1941.455078"/>
     <use xlink:href="#DejaVuSans-20" x="2002.978516"/>
     <use xlink:href="#DejaVuSans-6f" x="2034.765625"/>
     <use xlink:href="#DejaVuSans-66" x="2095.947266"/>
     <use xlink:href="#DejaVuSans-20" x="2131.152344"/>
     <use xlink:href="#DejaVuSans-74" x="2162.939453"/>
     <use xlink:href="#DejaVuSans-68" x="2202.148438"/>
     <use xlink:href="#DejaVuSans-65" x="2265.527344"/>
     <use xlink:href="#DejaVuSans-20" x="2327.050781"/>
     <use xlink:href="#DejaVuSans-50" x="2358.837891"/>
     <use xlink:href="#DejaVuSans-61" x="2414.640625"/>
     <use xlink:href="#DejaVuSans-73" x="2475.919922"/>
     <use xlink:href="#DejaVuSans-74" x="2528.019531"/>
     <use xlink:href="#DejaVuSans-29" x="2567.228516"/>
    </g>
   </g>
  </g>
 </g>
 <defs>
  <clipPath id="p68bed9b7e0">
   <rect x="83.325" y="29.2" width="462.225" height="152.3"/>
  </clipPath>
  <clipPath id="p19457d6f03">
   <rect x="83.325" y="214.2" width="462.225" height="304.6"/>
  </clipPath>
 </defs>
</svg>
