<?xml version="1.0" encoding="utf-8" standalone="no"?>
<!DOCTYPE svg PUBLIC "-//W3C//DTD SVG 1.1//EN"
  "http://www.w3.org/Graphics/SVG/1.1/DTD/svg11.dtd">
<svg xmlns:xlink="http://www.w3.org/1999/xlink" width="576pt" height="576pt" viewBox="0 0 576 576" xmlns="http://www.w3.org/2000/svg" version="1.1">
 <metadata>
  <rdf:RDF xmlns:dc="http://purl.org/dc/elements/1.1/" xmlns:cc="http://creativecommons.org/ns#" xmlns:rdf="http://www.w3.org/1999/02/22-rdf-syntax-ns#">
   <cc:Work>
    <dc:type rdf:resource="http://purl.org/dc/dcmitype/StillImage"/>
    <dc:date>2022-06-08T12:18:54.153829</dc:date>
    <dc:format>image/svg+xml</dc:format>
    <dc:creator>
     <cc:Agent>
      <dc:title>Matplotlib v3.5.1, https://matplotlib.org/</dc:title>
     </cc:Agent>
    </dc:creator>
   </cc:Work>
  </rdf:RDF>
 </metadata>
 <defs>
  <style type="text/css">*{stroke-linejoin: round; stroke-linecap: butt}</style>
 </defs>
 <g id="figure_1">
  <g id="patch_1">
   <path d="M 0 576 
L 576 576 
L 576 0 
L 0 0 
L 0 576 
z
" style="fill: none"/>
  </g>
  <g id="axes_1">
   <g id="patch_2">
    <path d="M 83.325 181.5 
L 559.8 181.5 
L 559.8 29.2 
L 83.325 29.2 
z
" style="fill: #ffffff"/>
   </g>
   <g id="PolyCollection_1">
    <path d="M 157.903816 181.499493 
L 157.903816 181.5 
L 166.178392 181.5 
L 174.452968 181.5 
L 182.727544 181.5 
L 191.002121 181.5 
L 199.276697 181.5 
L 207.551273 181.5 
L 215.825849 181.5 
L 224.100425 181.5 
L 232.375001 181.5 
L 240.649577 181.5 
L 248.924153 181.5 
L 257.198729 181.5 
L 265.473306 181.5 
L 273.747882 181.5 
L 282.022458 181.5 
L 290.297034 181.5 
L 298.57161 181.5 
L 306.846186 181.5 
L 315.120762 181.5 
L 323.395338 181.5 
L 331.669915 181.5 
L 339.944491 181.5 
L 348.219067 181.5 
L 356.493643 181.5 
L 364.768219 181.5 
L 373.042795 181.5 
L 381.317371 181.5 
L 389.591947 181.5 
L 397.866523 181.5 
L 406.1411 181.5 
L 414.415676 181.5 
L 422.690252 181.5 
L 430.964828 181.5 
L 439.239404 181.5 
L 447.51398 181.5 
L 455.788556 181.5 
L 464.063132 181.5 
L 472.337708 181.5 
L 480.612285 181.5 
L 488.886861 181.5 
L 497.161437 181.5 
L 505.436013 181.5 
L 513.710589 181.5 
L 521.985165 181.5 
L 530.259741 181.5 
L 538.534317 181.5 
L 546.808894 181.5 
L 555.08347 181.5 
L 563.358046 181.5 
L 571.632622 181.5 
L 579.907198 181.5 
L 588.181774 181.5 
L 596.45635 181.5 
L 604.730926 181.5 
L 613.005502 181.5 
L 621.280079 181.5 
L 629.554655 181.5 
L 637.829231 181.5 
L 646.103807 181.5 
L 654.378383 181.5 
L 662.652959 181.5 
L 670.927535 181.5 
L 679.202111 181.5 
L 687.476687 181.5 
L 695.751264 181.5 
L 704.02584 181.5 
L 712.300416 181.5 
L 720.574992 181.5 
L 728.849568 181.5 
L 737.124144 181.5 
L 745.39872 181.5 
L 753.673296 181.5 
L 761.947873 181.5 
L 770.222449 181.5 
L 778.497025 181.5 
L 786.771601 181.5 
L 795.046177 181.5 
L 803.320753 181.5 
L 811.595329 181.5 
L 819.869905 181.5 
L 828.144481 181.5 
L 836.419058 181.5 
L 844.693634 181.5 
L 852.96821 181.5 
L 861.242786 181.5 
L 869.517362 181.5 
L 877.791938 181.5 
L 886.066514 181.5 
L 894.34109 181.5 
L 902.615666 181.5 
L 910.890243 181.5 
L 919.164819 181.5 
L 927.439395 181.5 
L 935.713971 181.5 
L 943.988547 181.5 
L 952.263123 181.5 
L 960.537699 181.5 
L 968.812275 181.5 
L 977.086852 181.5 
L 985.361428 181.5 
L 993.636004 181.5 
L 1001.91058 181.5 
L 1010.185156 181.5 
L 1018.459732 181.5 
L 1026.734308 181.5 
L 1035.008884 181.5 
L 1043.28346 181.5 
L 1051.558037 181.5 
L 1059.832613 181.5 
L 1068.107189 181.5 
L 1076.381765 181.5 
L 1084.656341 181.5 
L 1092.930917 181.5 
L 1101.205493 181.5 
L 1109.480069 181.5 
L 1117.754645 181.5 
L 1126.029222 181.5 
L 1134.303798 181.5 
L 1142.578374 181.5 
L 1150.85295 181.5 
L 1159.127526 181.5 
L 1167.402102 181.5 
L 1175.676678 181.5 
L 1183.951254 181.5 
L 1192.225831 181.5 
L 1200.500407 181.5 
L 1208.774983 181.5 
L 1217.049559 181.5 
L 1225.324135 181.5 
L 1233.598711 181.5 
L 1241.873287 181.5 
L 1250.147863 181.5 
L 1258.422439 181.5 
L 1266.697016 181.5 
L 1274.971592 181.5 
L 1283.246168 181.5 
L 1291.520744 181.5 
L 1299.79532 181.5 
L 1308.069896 181.5 
L 1316.344472 181.5 
L 1324.619048 181.5 
L 1332.893624 181.5 
L 1341.168201 181.5 
L 1349.442777 181.5 
L 1357.717353 181.5 
L 1365.991929 181.5 
L 1374.266505 181.5 
L 1382.541081 181.5 
L 1390.815657 181.5 
L 1399.090233 181.5 
L 1407.36481 181.5 
L 1415.639386 181.5 
L 1423.913962 181.5 
L 1432.188538 181.5 
L 1440.463114 181.5 
L 1448.73769 181.5 
L 1457.012266 181.5 
L 1465.286842 181.5 
L 1473.561418 181.5 
L 1481.835995 181.5 
L 1490.110571 181.5 
L 1498.385147 181.5 
L 1506.659723 181.5 
L 1514.934299 181.5 
L 1523.208875 181.5 
L 1531.483451 181.5 
L 1539.758027 181.5 
L 1548.032603 181.5 
L 1556.30718 181.5 
L 1564.581756 181.5 
L 1572.856332 181.5 
L 1581.130908 181.5 
L 1589.405484 181.5 
L 1597.68006 181.5 
L 1605.954636 181.5 
L 1614.229212 181.5 
L 1622.503789 181.5 
L 1630.778365 181.5 
L 1639.052941 181.5 
L 1647.327517 181.5 
L 1655.602093 181.5 
L 1663.876669 181.5 
L 1672.151245 181.5 
L 1680.425821 181.5 
L 1688.700397 181.5 
L 1696.974974 181.5 
L 1705.24955 181.5 
L 1713.524126 181.5 
L 1721.798702 181.5 
L 1730.073278 181.5 
L 1738.347854 181.5 
L 1746.62243 181.5 
L 1754.897006 181.5 
L 1763.171582 181.5 
L 1771.446159 181.5 
L 1779.720735 181.5 
L 1787.995311 181.5 
L 1796.269887 181.5 
L 1804.544463 181.5 
L 1804.544463 181.499656 
L 1804.544463 181.499656 
L 1796.269887 181.498833 
L 1787.995311 181.496719 
L 1779.720735 181.492335 
L 1771.446159 181.485043 
L 1763.171582 181.47536 
L 1754.897006 181.465111 
L 1746.62243 181.456322 
L 1738.347854 181.449804 
L 1730.073278 181.445048 
L 1721.798702 181.441408 
L 1713.524126 181.438929 
L 1705.24955 181.437869 
L 1696.974974 181.437803 
L 1688.700397 181.437531 
L 1680.425821 181.4359 
L 1672.151245 181.43267 
L 1663.876669 181.428624 
L 1655.602093 181.424844 
L 1647.327517 181.421442 
L 1639.052941 181.416133 
L 1630.778365 181.403865 
L 1622.503789 181.37914 
L 1614.229212 181.340684 
L 1605.954636 181.294772 
L 1597.68006 181.252835 
L 1589.405484 181.22382 
L 1581.130908 181.207924 
L 1572.856332 181.197797 
L 1564.581756 181.185266 
L 1556.30718 181.166628 
L 1548.032603 181.143492 
L 1539.758027 181.121147 
L 1531.483451 181.105648 
L 1523.208875 181.099289 
L 1514.934299 181.097156 
L 1506.659723 181.089586 
L 1498.385147 181.07063 
L 1490.110571 181.045218 
L 1481.835995 181.027346 
L 1473.561418 181.029986 
L 1465.286842 181.055462 
L 1457.012266 181.094312 
L 1448.73769 181.13305 
L 1440.463114 181.164085 
L 1432.188538 181.189392 
L 1423.913962 181.215059 
L 1415.639386 181.242298 
L 1407.36481 181.263617 
L 1399.090233 181.267712 
L 1390.815657 181.248814 
L 1382.541081 181.212359 
L 1374.266505 181.172092 
L 1365.991929 181.141533 
L 1357.717353 181.127297 
L 1349.442777 181.128347 
L 1341.168201 181.139276 
L 1332.893624 181.154446 
L 1324.619048 181.171384 
L 1316.344472 181.191715 
L 1308.069896 181.218517 
L 1299.79532 181.252513 
L 1291.520744 181.290778 
L 1283.246168 181.327963 
L 1274.971592 181.357768 
L 1266.697016 181.374591 
L 1258.422439 181.376135 
L 1250.147863 181.365335 
L 1241.873287 181.349524 
L 1233.598711 181.337434 
L 1225.324135 181.33578 
L 1217.049559 181.346471 
L 1208.774983 181.365659 
L 1200.500407 181.386161 
L 1192.225831 181.402585 
L 1183.951254 181.415062 
L 1175.676678 181.427756 
L 1167.402102 181.443724 
L 1159.127526 181.461737 
L 1150.85295 181.477901 
L 1142.578374 181.489303 
L 1134.303798 181.495687 
L 1126.029222 181.498556 
L 1117.754645 181.499599 
L 1109.480069 181.499908 
L 1101.205493 181.499982 
L 1092.930917 181.499997 
L 1084.656341 181.5 
L 1076.381765 181.5 
L 1068.107189 181.5 
L 1059.832613 181.5 
L 1051.558037 181.5 
L 1043.28346 181.5 
L 1035.008884 181.5 
L 1026.734308 181.5 
L 1018.459732 181.5 
L 1010.185156 181.5 
L 1001.91058 181.5 
L 993.636004 181.5 
L 985.361428 181.5 
L 977.086852 181.5 
L 968.812275 181.5 
L 960.537699 181.5 
L 952.263123 181.5 
L 943.988547 181.5 
L 935.713971 181.5 
L 927.439395 181.5 
L 919.164819 181.5 
L 910.890243 181.5 
L 902.615666 181.5 
L 894.34109 181.5 
L 886.066514 181.499999 
L 877.791938 181.499991 
L 869.517362 181.499952 
L 861.242786 181.49979 
L 852.96821 181.499237 
L 844.693634 181.497714 
L 836.419058 181.494332 
L 828.144481 181.488343 
L 819.869905 181.479959 
L 811.595329 181.470703 
L 803.320753 181.462221 
L 795.046177 181.454112 
L 786.771601 181.443169 
L 778.497025 181.425495 
L 770.222449 181.399389 
L 761.947873 181.365649 
L 753.673296 181.324621 
L 745.39872 181.272195 
L 737.124144 181.197389 
L 728.849568 181.084104 
L 720.574992 180.918168 
L 712.300416 180.695246 
L 704.02584 180.421294 
L 695.751264 180.103012 
L 687.476687 179.73553 
L 679.202111 179.296492 
L 670.927535 178.751185 
L 662.652959 178.069021 
L 654.378383 177.24453 
L 646.103807 176.305894 
L 637.829231 175.294739 
L 629.554655 174.221449 
L 621.280079 173.027066 
L 613.005502 171.588886 
L 604.730926 169.776767 
L 596.45635 167.521572 
L 588.181774 164.841387 
L 579.907198 161.805658 
L 571.632622 158.471932 
L 563.358046 154.857447 
L 555.08347 150.981394 
L 546.808894 146.942548 
L 538.534317 142.93892 
L 530.259741 139.164754 
L 521.985165 135.636656 
L 513.710589 132.10367 
L 505.436013 128.168648 
L 497.161437 123.576623 
L 488.886861 118.451158 
L 480.612285 113.276369 
L 472.337708 108.646054 
L 464.063132 105.001106 
L 455.788556 102.546304 
L 447.51398 101.343856 
L 439.239404 101.439467 
L 430.964828 102.893839 
L 422.690252 105.700384 
L 414.415676 109.659889 
L 406.1411 114.32486 
L 397.866523 119.110772 
L 389.591947 123.551989 
L 381.317371 127.518584 
L 373.042795 131.20988 
L 364.768219 134.953026 
L 356.493643 139.012877 
L 348.219067 143.543282 
L 339.944491 148.607212 
L 331.669915 154.144649 
L 323.395338 159.904249 
L 315.120762 165.456146 
L 306.846186 170.333353 
L 298.57161 174.213345 
L 290.297034 177.014467 
L 282.022458 178.865221 
L 273.747882 180 
L 265.473306 180.657925 
L 257.198729 181.025967 
L 248.924153 181.226746 
L 240.649577 181.332208 
L 232.375001 181.383955 
L 224.100425 181.408539 
L 215.825849 181.423956 
L 207.551273 181.439962 
L 199.276697 181.458105 
L 191.002121 181.475082 
L 182.727544 181.487574 
L 174.452968 181.494842 
L 166.178392 181.498224 
L 157.903816 181.499493 
z
" clip-path="url(#p00b64df932)" style="fill: #2ca02c; fill-opacity: 0.3; stroke: #2ca02c"/>
   </g>
   <g id="PolyCollection_2">
    <path d="M 47.649719 181.49725 
L 47.649719 181.5 
L 55.550314 181.5 
L 63.450909 181.5 
L 71.351505 181.5 
L 79.2521 181.5 
L 87.152695 181.5 
L 95.053291 181.5 
L 102.953886 181.5 
L 110.854482 181.5 
L 118.755077 181.5 
L 126.655672 181.5 
L 134.556268 181.5 
L 142.456863 181.5 
L 150.357458 181.5 
L 158.258054 181.5 
L 166.158649 181.5 
L 174.059244 181.5 
L 181.95984 181.5 
L 189.860435 181.5 
L 197.761031 181.5 
L 205.661626 181.5 
L 213.562221 181.5 
L 221.462817 181.5 
L 229.363412 181.5 
L 237.264007 181.5 
L 245.164603 181.5 
L 253.065198 181.5 
L 260.965794 181.5 
L 268.866389 181.5 
L 276.766984 181.5 
L 284.66758 181.5 
L 292.568175 181.5 
L 300.46877 181.5 
L 308.369366 181.5 
L 316.269961 181.5 
L 324.170556 181.5 
L 332.071152 181.5 
L 339.971747 181.5 
L 347.872343 181.5 
L 355.772938 181.5 
L 363.673533 181.5 
L 371.574129 181.5 
L 379.474724 181.5 
L 387.375319 181.5 
L 395.275915 181.5 
L 403.17651 181.5 
L 411.077106 181.5 
L 418.977701 181.5 
L 426.878296 181.5 
L 434.778892 181.5 
L 442.679487 181.5 
L 450.580082 181.5 
L 458.480678 181.5 
L 466.381273 181.5 
L 474.281869 181.5 
L 482.182464 181.5 
L 490.083059 181.5 
L 497.983655 181.5 
L 505.88425 181.5 
L 513.784845 181.5 
L 521.685441 181.5 
L 529.586036 181.5 
L 537.486631 181.5 
L 545.387227 181.5 
L 553.287822 181.5 
L 561.188418 181.5 
L 569.089013 181.5 
L 576.989608 181.5 
L 584.890204 181.5 
L 592.790799 181.5 
L 600.691394 181.5 
L 608.59199 181.5 
L 616.492585 181.5 
L 624.393181 181.5 
L 632.293776 181.5 
L 640.194371 181.5 
L 648.094967 181.5 
L 655.995562 181.5 
L 663.896157 181.5 
L 671.796753 181.5 
L 679.697348 181.5 
L 687.597943 181.5 
L 695.498539 181.5 
L 703.399134 181.5 
L 711.29973 181.5 
L 719.200325 181.5 
L 727.10092 181.5 
L 735.001516 181.5 
L 742.902111 181.5 
L 750.802706 181.5 
L 758.703302 181.5 
L 766.603897 181.5 
L 774.504493 181.5 
L 782.405088 181.5 
L 790.305683 181.5 
L 798.206279 181.5 
L 806.106874 181.5 
L 814.007469 181.5 
L 821.908065 181.5 
L 829.80866 181.5 
L 837.709255 181.5 
L 845.609851 181.5 
L 853.510446 181.5 
L 861.411042 181.5 
L 869.311637 181.5 
L 877.212232 181.5 
L 885.112828 181.5 
L 893.013423 181.5 
L 900.914018 181.5 
L 908.814614 181.5 
L 916.715209 181.5 
L 924.615805 181.5 
L 932.5164 181.5 
L 940.416995 181.5 
L 948.317591 181.5 
L 956.218186 181.5 
L 964.118781 181.5 
L 972.019377 181.5 
L 979.919972 181.5 
L 987.820568 181.5 
L 995.721163 181.5 
L 1003.621758 181.5 
L 1011.522354 181.5 
L 1019.422949 181.5 
L 1027.323544 181.5 
L 1035.22414 181.5 
L 1043.124735 181.5 
L 1051.02533 181.5 
L 1058.925926 181.5 
L 1066.826521 181.5 
L 1074.727117 181.5 
L 1082.627712 181.5 
L 1090.528307 181.5 
L 1098.428903 181.5 
L 1106.329498 181.5 
L 1114.230093 181.5 
L 1122.130689 181.5 
L 1130.031284 181.5 
L 1137.93188 181.5 
L 1145.832475 181.5 
L 1153.73307 181.5 
L 1161.633666 181.5 
L 1169.534261 181.5 
L 1177.434856 181.5 
L 1185.335452 181.5 
L 1193.236047 181.5 
L 1201.136642 181.5 
L 1209.037238 181.5 
L 1216.937833 181.5 
L 1224.838429 181.5 
L 1232.739024 181.5 
L 1240.639619 181.5 
L 1248.540215 181.5 
L 1256.44081 181.5 
L 1264.341405 181.5 
L 1272.242001 181.5 
L 1280.142596 181.5 
L 1288.043192 181.5 
L 1295.943787 181.5 
L 1303.844382 181.5 
L 1311.744978 181.5 
L 1319.645573 181.5 
L 1327.546168 181.5 
L 1335.446764 181.5 
L 1343.347359 181.5 
L 1351.247955 181.5 
L 1359.14855 181.5 
L 1367.049145 181.5 
L 1374.949741 181.5 
L 1382.850336 181.5 
L 1390.750931 181.5 
L 1398.651527 181.5 
L 1406.552122 181.5 
L 1414.452717 181.5 
L 1422.353313 181.5 
L 1430.253908 181.5 
L 1438.154504 181.5 
L 1446.055099 181.5 
L 1453.955694 181.5 
L 1461.85629 181.5 
L 1469.756885 181.5 
L 1477.65748 181.5 
L 1485.558076 181.5 
L 1493.458671 181.5 
L 1501.359267 181.5 
L 1509.259862 181.5 
L 1517.160457 181.5 
L 1525.061053 181.5 
L 1532.961648 181.5 
L 1540.862243 181.5 
L 1548.762839 181.5 
L 1556.663434 181.5 
L 1564.564029 181.5 
L 1572.464625 181.5 
L 1580.36522 181.5 
L 1588.265816 181.5 
L 1596.166411 181.5 
L 1604.067006 181.5 
L 1611.967602 181.5 
L 1619.868197 181.5 
L 1619.868197 181.499885 
L 1619.868197 181.499885 
L 1611.967602 181.499386 
L 1604.067006 181.497667 
L 1596.166411 181.493627 
L 1588.265816 181.487276 
L 1580.36522 181.480894 
L 1572.464625 181.477386 
L 1564.564029 181.477158 
L 1556.663434 181.477057 
L 1548.762839 181.471421 
L 1540.862243 181.454988 
L 1532.961648 181.426561 
L 1525.061053 181.388523 
L 1517.160457 181.343935 
L 1509.259862 181.2979 
L 1501.359267 181.260209 
L 1493.458671 181.244351 
L 1485.558076 181.260919 
L 1477.65748 181.304623 
L 1469.756885 181.352061 
L 1461.85629 181.383268 
L 1453.955694 181.39881 
L 1446.055099 181.407527 
L 1438.154504 181.407491 
L 1430.253908 181.387501 
L 1422.353313 181.344745 
L 1414.452717 181.297006 
L 1406.552122 181.27012 
L 1398.651527 181.270376 
L 1390.750931 181.278107 
L 1382.850336 181.27124 
L 1374.949741 181.25016 
L 1367.049145 181.237101 
L 1359.14855 181.248875 
L 1351.247955 181.276353 
L 1343.347359 181.299325 
L 1335.446764 181.312333 
L 1327.546168 181.324828 
L 1319.645573 181.34424 
L 1311.744978 181.369734 
L 1303.844382 181.396869 
L 1295.943787 181.41959 
L 1288.043192 181.431577 
L 1280.142596 181.432438 
L 1272.242001 181.429823 
L 1264.341405 181.430945 
L 1256.44081 181.436348 
L 1248.540215 181.443111 
L 1240.639619 181.447777 
L 1232.739024 181.447944 
L 1224.838429 181.445213 
L 1216.937833 181.444058 
L 1209.037238 181.44692 
L 1201.136642 181.451209 
L 1193.236047 181.45039 
L 1185.335452 181.438209 
L 1177.434856 181.41228 
L 1169.534261 181.369605 
L 1161.633666 181.288813 
L 1153.73307 181.121276 
L 1145.832475 180.834696 
L 1137.93188 180.491201 
L 1130.031284 180.25455 
L 1122.130689 180.270042 
L 1114.230093 180.527135 
L 1106.329498 180.86983 
L 1098.428903 181.144033 
L 1090.528307 181.301011 
L 1082.627712 181.371358 
L 1074.727117 181.397431 
L 1066.826521 181.406216 
L 1058.925926 181.413382 
L 1051.02533 181.42604 
L 1043.124735 181.440825 
L 1035.22414 181.448395 
L 1027.323544 181.443709 
L 1019.422949 181.430228 
L 1011.522354 181.41296 
L 1003.621758 181.391489 
L 995.721163 181.362745 
L 987.820568 181.325566 
L 979.919972 181.279591 
L 972.019377 181.225822 
L 964.118781 181.173282 
L 956.218186 181.14056 
L 948.317591 181.142211 
L 940.416995 181.175258 
L 932.5164 181.224542 
L 924.615805 181.274979 
L 916.715209 181.316104 
L 908.814614 181.34311 
L 900.914018 181.353772 
L 893.013423 181.340649 
L 885.112828 181.287213 
L 877.212232 181.171381 
L 869.311637 180.977215 
L 861.411042 180.715197 
L 853.510446 180.443462 
L 845.609851 180.258487 
L 837.709255 180.220607 
L 829.80866 180.277296 
L 821.908065 180.305342 
L 814.007469 180.241866 
L 806.106874 180.142934 
L 798.206279 180.107656 
L 790.305683 180.164828 
L 782.405088 180.245516 
L 774.504493 180.264527 
L 766.603897 180.215521 
L 758.703302 180.155702 
L 750.802706 180.104742 
L 742.902111 180.023658 
L 735.001516 179.88089 
L 727.10092 179.692044 
L 719.200325 179.552144 
L 711.29973 179.606993 
L 703.399134 179.888435 
L 695.498539 180.24918 
L 687.597943 180.525862 
L 679.697348 180.665918 
L 671.796753 180.680934 
L 663.896157 180.574851 
L 655.995562 180.338158 
L 648.094967 179.969659 
L 640.194371 179.49333 
L 632.293776 178.960369 
L 624.393181 178.435072 
L 616.492585 177.973367 
L 608.59199 177.561272 
L 600.691394 177.061241 
L 592.790799 176.341489 
L 584.890204 175.473263 
L 576.989608 174.621104 
L 569.089013 173.703399 
L 561.188418 172.314237 
L 553.287822 169.969146 
L 545.387227 166.267325 
L 537.486631 160.888294 
L 529.586036 153.659574 
L 521.685441 144.502989 
L 513.784845 132.811414 
L 505.88425 116.883166 
L 497.983655 95.274158 
L 490.083059 69.989218 
L 482.182464 47.675451 
L 474.281869 36.452381 
L 466.381273 41.265501 
L 458.480678 60.955742 
L 450.580082 88.349831 
L 442.679487 114.375739 
L 434.778892 133.417114 
L 426.878296 145.002192 
L 418.977701 151.687104 
L 411.077106 156.178831 
L 403.17651 159.679194 
L 395.275915 162.011219 
L 387.375319 162.665829 
L 379.474724 161.286521 
L 371.574129 157.388801 
L 363.673533 150.493088 
L 355.772938 141.321112 
L 347.872343 132.825074 
L 339.971747 129.064866 
L 332.071152 132.172936 
L 324.170556 140.605573 
L 316.269961 150.762342 
L 308.369366 159.678256 
L 300.46877 165.913749 
L 292.568175 169.275859 
L 284.66758 170.679302 
L 276.766984 171.622315 
L 268.866389 173.055896 
L 260.965794 174.812269 
L 253.065198 176.27623 
L 245.164603 177.25674 
L 237.264007 177.983153 
L 229.363412 178.657769 
L 221.462817 179.29906 
L 213.562221 179.872248 
L 205.661626 180.388067 
L 197.761031 180.844332 
L 189.860435 181.177688 
L 181.95984 181.324308 
L 174.059244 181.253235 
L 166.158649 180.930262 
L 158.258054 180.335184 
L 150.357458 179.541823 
L 142.456863 178.65976 
L 134.556268 177.608847 
L 126.655672 176.272541 
L 118.755077 175.152304 
L 110.854482 175.240335 
L 102.953886 176.747329 
L 95.053291 178.709241 
L 87.152695 180.163762 
L 79.2521 180.939921 
L 71.351505 181.291088 
L 63.450909 181.434931 
L 55.550314 181.484375 
L 47.649719 181.49725 
z
" clip-path="url(#p00b64df932)" style="fill: #ff7f0e; fill-opacity: 0.3; stroke: #ff7f0e"/>
   </g>
   <g id="PolyCollection_3">
    <path d="M 36.433956 181.498176 
L 36.433956 181.5 
L 41.378941 181.5 
L 46.323925 181.5 
L 51.26891 181.5 
L 56.213895 181.5 
L 61.15888 181.5 
L 66.103864 181.5 
L 71.048849 181.5 
L 75.993834 181.5 
L 80.938819 181.5 
L 85.883803 181.5 
L 90.828788 181.5 
L 95.773773 181.5 
L 100.718758 181.5 
L 105.663742 181.5 
L 110.608727 181.5 
L 115.553712 181.5 
L 120.498697 181.5 
L 125.443682 181.5 
L 130.388666 181.5 
L 135.333651 181.5 
L 140.278636 181.5 
L 145.223621 181.5 
L 150.168605 181.5 
L 155.11359 181.5 
L 160.058575 181.5 
L 165.00356 181.5 
L 169.948544 181.5 
L 174.893529 181.5 
L 179.838514 181.5 
L 184.783499 181.5 
L 189.728483 181.5 
L 194.673468 181.5 
L 199.618453 181.5 
L 204.563438 181.5 
L 209.508422 181.5 
L 214.453407 181.5 
L 219.398392 181.5 
L 224.343377 181.5 
L 229.288361 181.5 
L 234.233346 181.5 
L 239.178331 181.5 
L 244.123316 181.5 
L 249.068301 181.5 
L 254.013285 181.5 
L 258.95827 181.5 
L 263.903255 181.5 
L 268.84824 181.5 
L 273.793224 181.5 
L 278.738209 181.5 
L 283.683194 181.5 
L 288.628179 181.5 
L 293.573163 181.5 
L 298.518148 181.5 
L 303.463133 181.5 
L 308.408118 181.5 
L 313.353102 181.5 
L 318.298087 181.5 
L 323.243072 181.5 
L 328.188057 181.5 
L 333.133041 181.5 
L 338.078026 181.5 
L 343.023011 181.5 
L 347.967996 181.5 
L 352.912981 181.5 
L 357.857965 181.5 
L 362.80295 181.5 
L 367.747935 181.5 
L 372.69292 181.5 
L 377.637904 181.5 
L 382.582889 181.5 
L 387.527874 181.5 
L 392.472859 181.5 
L 397.417843 181.5 
L 402.362828 181.5 
L 407.307813 181.5 
L 412.252798 181.5 
L 417.197782 181.5 
L 422.142767 181.5 
L 427.087752 181.5 
L 432.032737 181.5 
L 436.977721 181.5 
L 441.922706 181.5 
L 446.867691 181.5 
L 451.812676 181.5 
L 456.75766 181.5 
L 461.702645 181.5 
L 466.64763 181.5 
L 471.592615 181.5 
L 476.5376 181.5 
L 481.482584 181.5 
L 486.427569 181.5 
L 491.372554 181.5 
L 496.317539 181.5 
L 501.262523 181.5 
L 506.207508 181.5 
L 511.152493 181.5 
L 516.097478 181.5 
L 521.042462 181.5 
L 525.987447 181.5 
L 530.932432 181.5 
L 535.877417 181.5 
L 540.822401 181.5 
L 545.767386 181.5 
L 550.712371 181.5 
L 555.657356 181.5 
L 560.60234 181.5 
L 565.547325 181.5 
L 570.49231 181.5 
L 575.437295 181.5 
L 580.382279 181.5 
L 585.327264 181.5 
L 590.272249 181.5 
L 595.217234 181.5 
L 600.162219 181.5 
L 605.107203 181.5 
L 610.052188 181.5 
L 614.997173 181.5 
L 619.942158 181.5 
L 624.887142 181.5 
L 629.832127 181.5 
L 634.777112 181.5 
L 639.722097 181.5 
L 644.667081 181.5 
L 649.612066 181.5 
L 654.557051 181.5 
L 659.502036 181.5 
L 664.44702 181.5 
L 669.392005 181.5 
L 674.33699 181.5 
L 679.281975 181.5 
L 684.226959 181.5 
L 689.171944 181.5 
L 694.116929 181.5 
L 699.061914 181.5 
L 704.006899 181.5 
L 708.951883 181.5 
L 713.896868 181.5 
L 718.841853 181.5 
L 723.786838 181.5 
L 728.731822 181.5 
L 733.676807 181.5 
L 738.621792 181.5 
L 743.566777 181.5 
L 748.511761 181.5 
L 753.456746 181.5 
L 758.401731 181.5 
L 763.346716 181.5 
L 768.2917 181.5 
L 773.236685 181.5 
L 778.18167 181.5 
L 783.126655 181.5 
L 788.071639 181.5 
L 793.016624 181.5 
L 797.961609 181.5 
L 802.906594 181.5 
L 807.851578 181.5 
L 812.796563 181.5 
L 817.741548 181.5 
L 822.686533 181.5 
L 827.631518 181.5 
L 832.576502 181.5 
L 837.521487 181.5 
L 842.466472 181.5 
L 847.411457 181.5 
L 852.356441 181.5 
L 857.301426 181.5 
L 862.246411 181.5 
L 867.191396 181.5 
L 872.13638 181.5 
L 877.081365 181.5 
L 882.02635 181.5 
L 886.971335 181.5 
L 891.916319 181.5 
L 896.861304 181.5 
L 901.806289 181.5 
L 906.751274 181.5 
L 911.696258 181.5 
L 916.641243 181.5 
L 921.586228 181.5 
L 926.531213 181.5 
L 931.476197 181.5 
L 936.421182 181.5 
L 941.366167 181.5 
L 946.311152 181.5 
L 951.256137 181.5 
L 956.201121 181.5 
L 961.146106 181.5 
L 966.091091 181.5 
L 971.036076 181.5 
L 975.98106 181.5 
L 980.926045 181.5 
L 985.87103 181.5 
L 990.816015 181.5 
L 995.760999 181.5 
L 1000.705984 181.5 
L 1005.650969 181.5 
L 1010.595954 181.5 
L 1015.540938 181.5 
L 1020.485923 181.5 
L 1020.485923 181.499731 
L 1020.485923 181.499731 
L 1015.540938 181.499272 
L 1010.595954 181.49822 
L 1005.650969 181.496048 
L 1000.705984 181.491998 
L 995.760999 181.485151 
L 990.816015 181.474588 
L 985.87103 181.459637 
L 980.926045 181.440124 
L 975.98106 181.416591 
L 971.036076 181.390389 
L 966.091091 181.36352 
L 961.146106 181.338127 
L 956.201121 181.315671 
L 951.256137 181.296234 
L 946.311152 181.278523 
L 941.366167 181.260803 
L 936.421182 181.242312 
L 931.476197 181.224147 
L 926.531213 181.208853 
L 921.586228 181.198814 
L 916.641243 181.19446 
L 911.696258 181.193435 
L 906.751274 181.191236 
L 901.806289 181.182862 
L 896.861304 181.164427 
L 891.916319 181.133798 
L 886.971335 181.089954 
L 882.02635 181.031501 
L 877.081365 180.955334 
L 872.13638 180.856494 
L 867.191396 180.729812 
L 862.246411 180.572887 
L 857.301426 180.388816 
L 852.356441 180.186533 
L 847.411457 179.977725 
L 842.466472 179.7716 
L 837.521487 179.570955 
L 832.576502 179.372654 
L 827.631518 179.172589 
L 822.686533 178.97161 
L 817.741548 178.77804 
L 812.796563 178.605093 
L 807.851578 178.465444 
L 802.906594 178.366831 
L 797.961609 178.310916 
L 793.016624 178.294585 
L 788.071639 178.311341 
L 783.126655 178.35137 
L 778.18167 178.401092 
L 773.236685 178.444199 
L 768.2917 178.465431 
L 763.346716 178.455961 
L 758.401731 178.417163 
L 753.456746 178.359517 
L 748.511761 178.296164 
L 743.566777 178.234358 
L 738.621792 178.170005 
L 733.676807 178.088707 
L 728.731822 177.972465 
L 723.786838 177.80793 
L 718.841853 177.592308 
L 713.896868 177.335884 
L 708.951883 177.062109 
L 704.006899 176.805449 
L 699.061914 176.605505 
L 694.116929 176.496683 
L 689.171944 176.496278 
L 684.226959 176.596789 
L 679.281975 176.767002 
L 674.33699 176.961535 
L 669.392005 177.134081 
L 664.44702 177.248731 
L 659.502036 177.286089 
L 654.557051 177.243789 
L 649.612066 177.132838 
L 644.667081 176.971548 
L 639.722097 176.778658 
L 634.777112 176.567004 
L 629.832127 176.339297 
L 624.887142 176.087722 
L 619.942158 175.798171 
L 614.997173 175.457667 
L 610.052188 175.061151 
L 605.107203 174.613334 
L 600.162219 174.123728 
L 595.217234 173.596822 
L 590.272249 173.022198 
L 585.327264 172.369463 
L 580.382279 171.59048 
L 575.437295 170.62831 
L 570.49231 169.429878 
L 565.547325 167.957833 
L 560.60234 166.196663 
L 555.657356 164.149925 
L 550.712371 161.829851 
L 545.767386 159.245156 
L 540.822401 156.393661 
L 535.877417 153.262029 
L 530.932432 149.829317 
L 525.987447 146.069445 
L 521.042462 141.951583 
L 516.097478 137.443083 
L 511.152493 132.521139 
L 506.207508 127.194356 
L 501.262523 121.526549 
L 496.317539 115.649332 
L 491.372554 109.753584 
L 486.427569 104.062433 
L 481.482584 98.801125 
L 476.5376 94.180809 
L 471.592615 90.401143 
L 466.64763 87.660569 
L 461.702645 86.156648 
L 456.75766 86.066083 
L 451.812676 87.507005 
L 446.867691 90.494924 
L 441.922706 94.90633 
L 436.977721 100.463733 
L 432.032737 106.754246 
L 427.087752 113.287143 
L 422.142767 119.582298 
L 417.197782 125.26584 
L 412.252798 130.140775 
L 407.307813 134.20572 
L 402.362828 137.614133 
L 397.417843 140.591471 
L 392.472859 143.345677 
L 387.527874 146.006356 
L 382.582889 148.609521 
L 377.637904 151.119957 
L 372.69292 153.468805 
L 367.747935 155.586991 
L 362.80295 157.427657 
L 357.857965 158.978994 
L 352.912981 160.267679 
L 347.967996 161.349422 
L 343.023011 162.285931 
L 338.078026 163.116441 
L 333.133041 163.838287 
L 328.188057 164.407786 
L 323.243072 164.762176 
L 318.298087 164.853006 
L 313.353102 164.677063 
L 308.408118 164.292597 
L 303.463133 163.813579 
L 298.518148 163.38146 
L 293.573163 163.12216 
L 288.628179 163.103852 
L 283.683194 163.314015 
L 278.738209 163.668127 
L 273.793224 164.048659 
L 268.84824 164.358237 
L 263.903255 164.563236 
L 258.95827 164.708214 
L 254.013285 164.895966 
L 249.068301 165.244819 
L 244.123316 165.844501 
L 239.178331 166.729173 
L 234.233346 167.874341 
L 229.288361 169.212305 
L 224.343377 170.655287 
L 219.398392 172.116123 
L 214.453407 173.520037 
L 209.508422 174.806114 
L 204.563438 175.92339 
L 199.618453 176.830666 
L 194.673468 177.505998 
L 189.728483 177.961363 
L 184.783499 178.248971 
L 179.838514 178.448186 
L 174.893529 178.636189 
L 169.948544 178.859349 
L 165.00356 179.122707 
L 160.058575 179.401271 
L 155.11359 179.661833 
L 150.168605 179.88038 
L 145.223621 180.048161 
L 140.278636 180.168825 
L 135.333651 180.251741 
L 130.388666 180.304444 
L 125.443682 180.326359 
L 120.498697 180.307694 
L 115.553712 180.237079 
L 110.608727 180.115939 
L 105.663742 179.970395 
L 100.718758 179.850152 
L 95.773773 179.811266 
L 90.828788 179.891068 
L 85.883803 180.089993 
L 80.938819 180.371273 
L 75.993834 180.678009 
L 71.048849 180.956768 
L 66.103864 181.174708 
L 61.15888 181.32368 
L 56.213895 181.413545 
L 51.26891 181.461667 
L 46.323925 181.484634 
L 41.378941 181.494432 
L 36.433956 181.498176 
z
" clip-path="url(#p00b64df932)" style="fill: #1f77b4; fill-opacity: 0.3; stroke: #1f77b4"/>
   </g>
   <g id="matplotlib.axis_1">
    <g id="xtick_1">
     <g id="line2d_1">
      <defs>
       <path id="m0a9d7ec7b9" d="M 0 0 
L 0 3.5 
" style="stroke: #000000; stroke-width: 0.8"/>
      </defs>
      <g>
       <use xlink:href="#m0a9d7ec7b9" x="83.325" y="181.5" style="stroke: #000000; stroke-width: 0.8"/>
      </g>
     </g>
    </g>
    <g id="xtick_2">
     <g id="line2d_2">
      <g>
       <use xlink:href="#m0a9d7ec7b9" x="146.855" y="181.5" style="stroke: #000000; stroke-width: 0.8"/>
      </g>
     </g>
    </g>
    <g id="xtick_3">
     <g id="line2d_3">
      <g>
       <use xlink:href="#m0a9d7ec7b9" x="210.385" y="181.5" style="stroke: #000000; stroke-width: 0.8"/>
      </g>
     </g>
    </g>
    <g id="xtick_4">
     <g id="line2d_4">
      <g>
       <use xlink:href="#m0a9d7ec7b9" x="273.915" y="181.5" style="stroke: #000000; stroke-width: 0.8"/>
      </g>
     </g>
    </g>
    <g id="xtick_5">
     <g id="line2d_5">
      <g>
       <use xlink:href="#m0a9d7ec7b9" x="337.445" y="181.5" style="stroke: #000000; stroke-width: 0.8"/>
      </g>
     </g>
    </g>
    <g id="xtick_6">
     <g id="line2d_6">
      <g>
       <use xlink:href="#m0a9d7ec7b9" x="400.975" y="181.5" style="stroke: #000000; stroke-width: 0.8"/>
      </g>
     </g>
    </g>
    <g id="xtick_7">
     <g id="line2d_7">
      <g>
       <use xlink:href="#m0a9d7ec7b9" x="464.505" y="181.5" style="stroke: #000000; stroke-width: 0.8"/>
      </g>
     </g>
    </g>
    <g id="xtick_8">
     <g id="line2d_8">
      <g>
       <use xlink:href="#m0a9d7ec7b9" x="528.035" y="181.5" style="stroke: #000000; stroke-width: 0.8"/>
      </g>
     </g>
    </g>
   </g>
   <g id="matplotlib.axis_2">
    <g id="ytick_1">
     <g id="line2d_9">
      <defs>
       <path id="m9402c4c751" d="M 0 0 
L -3.5 0 
" style="stroke: #000000; stroke-width: 0.8"/>
      </defs>
      <g>
       <use xlink:href="#m9402c4c751" x="83.325" y="181.5" style="stroke: #000000; stroke-width: 0.8"/>
      </g>
     </g>
    </g>
    <g id="ytick_2">
     <g id="line2d_10">
      <g>
       <use xlink:href="#m9402c4c751" x="83.325" y="133.841719" style="stroke: #000000; stroke-width: 0.8"/>
      </g>
     </g>
    </g>
    <g id="ytick_3">
     <g id="line2d_11">
      <g>
       <use xlink:href="#m9402c4c751" x="83.325" y="86.183437" style="stroke: #000000; stroke-width: 0.8"/>
      </g>
     </g>
    </g>
    <g id="ytick_4">
     <g id="line2d_12">
      <g>
       <use xlink:href="#m9402c4c751" x="83.325" y="38.525156" style="stroke: #000000; stroke-width: 0.8"/>
      </g>
     </g>
    </g>
    <g id="text_1">
     <!-- Density -->
     <g transform="translate(69.205469 133.862891)rotate(-90)scale(0.15 -0.15)">
      <defs>
       <path id="DejaVuSans-44" d="M 1259 4147 
L 1259 519 
L 2022 519 
Q 2988 519 3436 956 
Q 3884 1394 3884 2338 
Q 3884 3275 3436 3711 
Q 2988 4147 2022 4147 
L 1259 4147 
z
M 628 4666 
L 1925 4666 
Q 3281 4666 3915 4102 
Q 4550 3538 4550 2338 
Q 4550 1131 3912 565 
Q 3275 0 1925 0 
L 628 0 
L 628 4666 
z
" transform="scale(0.015625)"/>
       <path id="DejaVuSans-65" d="M 3597 1894 
L 3597 1613 
L 953 1613 
Q 991 1019 1311 708 
Q 1631 397 2203 397 
Q 2534 397 2845 478 
Q 3156 559 3463 722 
L 3463 178 
Q 3153 47 2828 -22 
Q 2503 -91 2169 -91 
Q 1331 -91 842 396 
Q 353 884 353 1716 
Q 353 2575 817 3079 
Q 1281 3584 2069 3584 
Q 2775 3584 3186 3129 
Q 3597 2675 3597 1894 
z
M 3022 2063 
Q 3016 2534 2758 2815 
Q 2500 3097 2075 3097 
Q 1594 3097 1305 2825 
Q 1016 2553 972 2059 
L 3022 2063 
z
" transform="scale(0.015625)"/>
       <path id="DejaVuSans-6e" d="M 3513 2113 
L 3513 0 
L 2938 0 
L 2938 2094 
Q 2938 2591 2744 2837 
Q 2550 3084 2163 3084 
Q 1697 3084 1428 2787 
Q 1159 2491 1159 1978 
L 1159 0 
L 581 0 
L 581 3500 
L 1159 3500 
L 1159 2956 
Q 1366 3272 1645 3428 
Q 1925 3584 2291 3584 
Q 2894 3584 3203 3211 
Q 3513 2838 3513 2113 
z
" transform="scale(0.015625)"/>
       <path id="DejaVuSans-73" d="M 2834 3397 
L 2834 2853 
Q 2591 2978 2328 3040 
Q 2066 3103 1784 3103 
Q 1356 3103 1142 2972 
Q 928 2841 928 2578 
Q 928 2378 1081 2264 
Q 1234 2150 1697 2047 
L 1894 2003 
Q 2506 1872 2764 1633 
Q 3022 1394 3022 966 
Q 3022 478 2636 193 
Q 2250 -91 1575 -91 
Q 1294 -91 989 -36 
Q 684 19 347 128 
L 347 722 
Q 666 556 975 473 
Q 1284 391 1588 391 
Q 1994 391 2212 530 
Q 2431 669 2431 922 
Q 2431 1156 2273 1281 
Q 2116 1406 1581 1522 
L 1381 1569 
Q 847 1681 609 1914 
Q 372 2147 372 2553 
Q 372 3047 722 3315 
Q 1072 3584 1716 3584 
Q 2034 3584 2315 3537 
Q 2597 3491 2834 3397 
z
" transform="scale(0.015625)"/>
       <path id="DejaVuSans-69" d="M 603 3500 
L 1178 3500 
L 1178 0 
L 603 0 
L 603 3500 
z
M 603 4863 
L 1178 4863 
L 1178 4134 
L 603 4134 
L 603 4863 
z
" transform="scale(0.015625)"/>
       <path id="DejaVuSans-74" d="M 1172 4494 
L 1172 3500 
L 2356 3500 
L 2356 3053 
L 1172 3053 
L 1172 1153 
Q 1172 725 1289 603 
Q 1406 481 1766 481 
L 2356 481 
L 2356 0 
L 1766 0 
Q 1100 0 847 248 
Q 594 497 594 1153 
L 594 3053 
L 172 3053 
L 172 3500 
L 594 3500 
L 594 4494 
L 1172 4494 
z
" transform="scale(0.015625)"/>
       <path id="DejaVuSans-79" d="M 2059 -325 
Q 1816 -950 1584 -1140 
Q 1353 -1331 966 -1331 
L 506 -1331 
L 506 -850 
L 844 -850 
Q 1081 -850 1212 -737 
Q 1344 -625 1503 -206 
L 1606 56 
L 191 3500 
L 800 3500 
L 1894 763 
L 2988 3500 
L 3597 3500 
L 2059 -325 
z
" transform="scale(0.015625)"/>
      </defs>
      <use xlink:href="#DejaVuSans-44"/>
      <use xlink:href="#DejaVuSans-65" x="77.001953"/>
      <use xlink:href="#DejaVuSans-6e" x="138.525391"/>
      <use xlink:href="#DejaVuSans-73" x="201.904297"/>
      <use xlink:href="#DejaVuSans-69" x="254.003906"/>
      <use xlink:href="#DejaVuSans-74" x="281.787109"/>
      <use xlink:href="#DejaVuSans-79" x="320.996094"/>
     </g>
    </g>
   </g>
   <g id="patch_3">
    <path d="M 83.325 181.5 
L 83.325 29.2 
" style="fill: none; stroke: #000000; stroke-width: 0.8; stroke-linejoin: miter; stroke-linecap: square"/>
   </g>
   <g id="patch_4">
    <path d="M 559.8 181.5 
L 559.8 29.2 
" style="fill: none; stroke: #000000; stroke-width: 0.8; stroke-linejoin: miter; stroke-linecap: square"/>
   </g>
   <g id="patch_5">
    <path d="M 83.325 181.5 
L 559.8 181.5 
" style="fill: none; stroke: #000000; stroke-width: 0.8; stroke-linejoin: miter; stroke-linecap: square"/>
   </g>
   <g id="patch_6">
    <path d="M 83.325 29.2 
L 559.8 29.2 
" style="fill: none; stroke: #000000; stroke-width: 0.8; stroke-linejoin: miter; stroke-linecap: square"/>
   </g>
   <g id="text_2">
    <!-- Radiometric ages - WALIS -->
    <g transform="translate(83.325 23.2)scale(0.08 -0.08)">
     <defs>
      <path id="DejaVuSans-52" d="M 2841 2188 
Q 3044 2119 3236 1894 
Q 3428 1669 3622 1275 
L 4263 0 
L 3584 0 
L 2988 1197 
Q 2756 1666 2539 1819 
Q 2322 1972 1947 1972 
L 1259 1972 
L 1259 0 
L 628 0 
L 628 4666 
L 2053 4666 
Q 2853 4666 3247 4331 
Q 3641 3997 3641 3322 
Q 3641 2881 3436 2590 
Q 3231 2300 2841 2188 
z
M 1259 4147 
L 1259 2491 
L 2053 2491 
Q 2509 2491 2742 2702 
Q 2975 2913 2975 3322 
Q 2975 3731 2742 3939 
Q 2509 4147 2053 4147 
L 1259 4147 
z
" transform="scale(0.015625)"/>
      <path id="DejaVuSans-61" d="M 2194 1759 
Q 1497 1759 1228 1600 
Q 959 1441 959 1056 
Q 959 750 1161 570 
Q 1363 391 1709 391 
Q 2188 391 2477 730 
Q 2766 1069 2766 1631 
L 2766 1759 
L 2194 1759 
z
M 3341 1997 
L 3341 0 
L 2766 0 
L 2766 531 
Q 2569 213 2275 61 
Q 1981 -91 1556 -91 
Q 1019 -91 701 211 
Q 384 513 384 1019 
Q 384 1609 779 1909 
Q 1175 2209 1959 2209 
L 2766 2209 
L 2766 2266 
Q 2766 2663 2505 2880 
Q 2244 3097 1772 3097 
Q 1472 3097 1187 3025 
Q 903 2953 641 2809 
L 641 3341 
Q 956 3463 1253 3523 
Q 1550 3584 1831 3584 
Q 2591 3584 2966 3190 
Q 3341 2797 3341 1997 
z
" transform="scale(0.015625)"/>
      <path id="DejaVuSans-64" d="M 2906 2969 
L 2906 4863 
L 3481 4863 
L 3481 0 
L 2906 0 
L 2906 525 
Q 2725 213 2448 61 
Q 2172 -91 1784 -91 
Q 1150 -91 751 415 
Q 353 922 353 1747 
Q 353 2572 751 3078 
Q 1150 3584 1784 3584 
Q 2172 3584 2448 3432 
Q 2725 3281 2906 2969 
z
M 947 1747 
Q 947 1113 1208 752 
Q 1469 391 1925 391 
Q 2381 391 2643 752 
Q 2906 1113 2906 1747 
Q 2906 2381 2643 2742 
Q 2381 3103 1925 3103 
Q 1469 3103 1208 2742 
Q 947 2381 947 1747 
z
" transform="scale(0.015625)"/>
      <path id="DejaVuSans-6f" d="M 1959 3097 
Q 1497 3097 1228 2736 
Q 959 2375 959 1747 
Q 959 1119 1226 758 
Q 1494 397 1959 397 
Q 2419 397 2687 759 
Q 2956 1122 2956 1747 
Q 2956 2369 2687 2733 
Q 2419 3097 1959 3097 
z
M 1959 3584 
Q 2709 3584 3137 3096 
Q 3566 2609 3566 1747 
Q 3566 888 3137 398 
Q 2709 -91 1959 -91 
Q 1206 -91 779 398 
Q 353 888 353 1747 
Q 353 2609 779 3096 
Q 1206 3584 1959 3584 
z
" transform="scale(0.015625)"/>
      <path id="DejaVuSans-6d" d="M 3328 2828 
Q 3544 3216 3844 3400 
Q 4144 3584 4550 3584 
Q 5097 3584 5394 3201 
Q 5691 2819 5691 2113 
L 5691 0 
L 5113 0 
L 5113 2094 
Q 5113 2597 4934 2840 
Q 4756 3084 4391 3084 
Q 3944 3084 3684 2787 
Q 3425 2491 3425 1978 
L 3425 0 
L 2847 0 
L 2847 2094 
Q 2847 2600 2669 2842 
Q 2491 3084 2119 3084 
Q 1678 3084 1418 2786 
Q 1159 2488 1159 1978 
L 1159 0 
L 581 0 
L 581 3500 
L 1159 3500 
L 1159 2956 
Q 1356 3278 1631 3431 
Q 1906 3584 2284 3584 
Q 2666 3584 2933 3390 
Q 3200 3197 3328 2828 
z
" transform="scale(0.015625)"/>
      <path id="DejaVuSans-72" d="M 2631 2963 
Q 2534 3019 2420 3045 
Q 2306 3072 2169 3072 
Q 1681 3072 1420 2755 
Q 1159 2438 1159 1844 
L 1159 0 
L 581 0 
L 581 3500 
L 1159 3500 
L 1159 2956 
Q 1341 3275 1631 3429 
Q 1922 3584 2338 3584 
Q 2397 3584 2469 3576 
Q 2541 3569 2628 3553 
L 2631 2963 
z
" transform="scale(0.015625)"/>
      <path id="DejaVuSans-63" d="M 3122 3366 
L 3122 2828 
Q 2878 2963 2633 3030 
Q 2388 3097 2138 3097 
Q 1578 3097 1268 2742 
Q 959 2388 959 1747 
Q 959 1106 1268 751 
Q 1578 397 2138 397 
Q 2388 397 2633 464 
Q 2878 531 3122 666 
L 3122 134 
Q 2881 22 2623 -34 
Q 2366 -91 2075 -91 
Q 1284 -91 818 406 
Q 353 903 353 1747 
Q 353 2603 823 3093 
Q 1294 3584 2113 3584 
Q 2378 3584 2631 3529 
Q 2884 3475 3122 3366 
z
" transform="scale(0.015625)"/>
      <path id="DejaVuSans-20" transform="scale(0.015625)"/>
      <path id="DejaVuSans-67" d="M 2906 1791 
Q 2906 2416 2648 2759 
Q 2391 3103 1925 3103 
Q 1463 3103 1205 2759 
Q 947 2416 947 1791 
Q 947 1169 1205 825 
Q 1463 481 1925 481 
Q 2391 481 2648 825 
Q 2906 1169 2906 1791 
z
M 3481 434 
Q 3481 -459 3084 -895 
Q 2688 -1331 1869 -1331 
Q 1566 -1331 1297 -1286 
Q 1028 -1241 775 -1147 
L 775 -588 
Q 1028 -725 1275 -790 
Q 1522 -856 1778 -856 
Q 2344 -856 2625 -561 
Q 2906 -266 2906 331 
L 2906 616 
Q 2728 306 2450 153 
Q 2172 0 1784 0 
Q 1141 0 747 490 
Q 353 981 353 1791 
Q 353 2603 747 3093 
Q 1141 3584 1784 3584 
Q 2172 3584 2450 3431 
Q 2728 3278 2906 2969 
L 2906 3500 
L 3481 3500 
L 3481 434 
z
" transform="scale(0.015625)"/>
      <path id="DejaVuSans-2d" d="M 313 2009 
L 1997 2009 
L 1997 1497 
L 313 1497 
L 313 2009 
z
" transform="scale(0.015625)"/>
      <path id="DejaVuSans-57" d="M 213 4666 
L 850 4666 
L 1831 722 
L 2809 4666 
L 3519 4666 
L 4500 722 
L 5478 4666 
L 6119 4666 
L 4947 0 
L 4153 0 
L 3169 4050 
L 2175 0 
L 1381 0 
L 213 4666 
z
" transform="scale(0.015625)"/>
      <path id="DejaVuSans-41" d="M 2188 4044 
L 1331 1722 
L 3047 1722 
L 2188 4044 
z
M 1831 4666 
L 2547 4666 
L 4325 0 
L 3669 0 
L 3244 1197 
L 1141 1197 
L 716 0 
L 50 0 
L 1831 4666 
z
" transform="scale(0.015625)"/>
      <path id="DejaVuSans-4c" d="M 628 4666 
L 1259 4666 
L 1259 531 
L 3531 531 
L 3531 0 
L 628 0 
L 628 4666 
z
" transform="scale(0.015625)"/>
      <path id="DejaVuSans-49" d="M 628 4666 
L 1259 4666 
L 1259 0 
L 628 0 
L 628 4666 
z
" transform="scale(0.015625)"/>
      <path id="DejaVuSans-53" d="M 3425 4513 
L 3425 3897 
Q 3066 4069 2747 4153 
Q 2428 4238 2131 4238 
Q 1616 4238 1336 4038 
Q 1056 3838 1056 3469 
Q 1056 3159 1242 3001 
Q 1428 2844 1947 2747 
L 2328 2669 
Q 3034 2534 3370 2195 
Q 3706 1856 3706 1288 
Q 3706 609 3251 259 
Q 2797 -91 1919 -91 
Q 1588 -91 1214 -16 
Q 841 59 441 206 
L 441 856 
Q 825 641 1194 531 
Q 1563 422 1919 422 
Q 2459 422 2753 634 
Q 3047 847 3047 1241 
Q 3047 1584 2836 1778 
Q 2625 1972 2144 2069 
L 1759 2144 
Q 1053 2284 737 2584 
Q 422 2884 422 3419 
Q 422 4038 858 4394 
Q 1294 4750 2059 4750 
Q 2388 4750 2728 4690 
Q 3069 4631 3425 4513 
z
" transform="scale(0.015625)"/>
     </defs>
     <use xlink:href="#DejaVuSans-52"/>
     <use xlink:href="#DejaVuSans-61" x="67.232422"/>
     <use xlink:href="#DejaVuSans-64" x="128.511719"/>
     <use xlink:href="#DejaVuSans-69" x="191.988281"/>
     <use xlink:href="#DejaVuSans-6f" x="219.771484"/>
     <use xlink:href="#DejaVuSans-6d" x="280.953125"/>
     <use xlink:href="#DejaVuSans-65" x="378.365234"/>
     <use xlink:href="#DejaVuSans-74" x="439.888672"/>
     <use xlink:href="#DejaVuSans-72" x="479.097656"/>
     <use xlink:href="#DejaVuSans-69" x="520.210938"/>
     <use xlink:href="#DejaVuSans-63" x="547.994141"/>
     <use xlink:href="#DejaVuSans-20" x="602.974609"/>
     <use xlink:href="#DejaVuSans-61" x="634.761719"/>
     <use xlink:href="#DejaVuSans-67" x="696.041016"/>
     <use xlink:href="#DejaVuSans-65" x="759.517578"/>
     <use xlink:href="#DejaVuSans-73" x="821.041016"/>
     <use xlink:href="#DejaVuSans-20" x="873.140625"/>
     <use xlink:href="#DejaVuSans-2d" x="904.927734"/>
     <use xlink:href="#DejaVuSans-20" x="941.011719"/>
     <use xlink:href="#DejaVuSans-57" x="972.798828"/>
     <use xlink:href="#DejaVuSans-41" x="1066.175781"/>
     <use xlink:href="#DejaVuSans-4c" x="1134.583984"/>
     <use xlink:href="#DejaVuSans-49" x="1190.296875"/>
     <use xlink:href="#DejaVuSans-53" x="1219.789062"/>
    </g>
   </g>
   <g id="legend_1">
    <g id="patch_7">
     <path d="M 393.909375 129.26875 
L 549.3 129.26875 
Q 552.3 129.26875 552.3 126.26875 
L 552.3 39.7 
Q 552.3 36.7 549.3 36.7 
L 393.909375 36.7 
Q 390.909375 36.7 390.909375 39.7 
L 390.909375 126.26875 
Q 390.909375 129.26875 393.909375 129.26875 
z
" style="fill: #ffffff; opacity: 0.8; stroke: #cccccc; stroke-linejoin: miter"/>
    </g>
    <g id="text_3">
     <!-- Method -->
     <g transform="translate(443.475 54.097656)scale(0.15 -0.15)">
      <defs>
       <path id="DejaVuSans-4d" d="M 628 4666 
L 1569 4666 
L 2759 1491 
L 3956 4666 
L 4897 4666 
L 4897 0 
L 4281 0 
L 4281 4097 
L 3078 897 
L 2444 897 
L 1241 4097 
L 1241 0 
L 628 0 
L 628 4666 
z
" transform="scale(0.015625)"/>
       <path id="DejaVuSans-68" d="M 3513 2113 
L 3513 0 
L 2938 0 
L 2938 2094 
Q 2938 2591 2744 2837 
Q 2550 3084 2163 3084 
Q 1697 3084 1428 2787 
Q 1159 2491 1159 1978 
L 1159 0 
L 581 0 
L 581 4863 
L 1159 4863 
L 1159 2956 
Q 1366 3272 1645 3428 
Q 1925 3584 2291 3584 
Q 2894 3584 3203 3211 
Q 3513 2838 3513 2113 
z
" transform="scale(0.015625)"/>
      </defs>
      <use xlink:href="#DejaVuSans-4d"/>
      <use xlink:href="#DejaVuSans-65" x="86.279297"/>
      <use xlink:href="#DejaVuSans-74" x="147.802734"/>
      <use xlink:href="#DejaVuSans-68" x="187.011719"/>
      <use xlink:href="#DejaVuSans-6f" x="250.390625"/>
      <use xlink:href="#DejaVuSans-64" x="311.572266"/>
     </g>
    </g>
    <g id="patch_8">
     <path d="M 396.909375 76.114844 
L 426.909375 76.114844 
L 426.909375 65.614844 
L 396.909375 65.614844 
z
" style="fill: #1f77b4; fill-opacity: 0.3; stroke: #1f77b4; stroke-linejoin: miter"/>
    </g>
    <g id="text_4">
     <!-- Luminescence -->
     <g transform="translate(438.909375 76.114844)scale(0.15 -0.15)">
      <defs>
       <path id="DejaVuSans-75" d="M 544 1381 
L 544 3500 
L 1119 3500 
L 1119 1403 
Q 1119 906 1312 657 
Q 1506 409 1894 409 
Q 2359 409 2629 706 
Q 2900 1003 2900 1516 
L 2900 3500 
L 3475 3500 
L 3475 0 
L 2900 0 
L 2900 538 
Q 2691 219 2414 64 
Q 2138 -91 1772 -91 
Q 1169 -91 856 284 
Q 544 659 544 1381 
z
M 1991 3584 
L 1991 3584 
z
" transform="scale(0.015625)"/>
      </defs>
      <use xlink:href="#DejaVuSans-4c"/>
      <use xlink:href="#DejaVuSans-75" x="53.962891"/>
      <use xlink:href="#DejaVuSans-6d" x="117.341797"/>
      <use xlink:href="#DejaVuSans-69" x="214.753906"/>
      <use xlink:href="#DejaVuSans-6e" x="242.537109"/>
      <use xlink:href="#DejaVuSans-65" x="305.916016"/>
      <use xlink:href="#DejaVuSans-73" x="367.439453"/>
      <use xlink:href="#DejaVuSans-63" x="419.539062"/>
      <use xlink:href="#DejaVuSans-65" x="474.519531"/>
      <use xlink:href="#DejaVuSans-6e" x="536.042969"/>
      <use xlink:href="#DejaVuSans-63" x="599.421875"/>
      <use xlink:href="#DejaVuSans-65" x="654.402344"/>
     </g>
    </g>
    <g id="patch_9">
     <path d="M 396.909375 98.132031 
L 426.909375 98.132031 
L 426.909375 87.632031 
L 396.909375 87.632031 
z
" style="fill: #ff7f0e; fill-opacity: 0.3; stroke: #ff7f0e; stroke-linejoin: miter"/>
    </g>
    <g id="text_5">
     <!-- U-Series -->
     <g transform="translate(438.909375 98.132031)scale(0.15 -0.15)">
      <defs>
       <path id="DejaVuSans-55" d="M 556 4666 
L 1191 4666 
L 1191 1831 
Q 1191 1081 1462 751 
Q 1734 422 2344 422 
Q 2950 422 3222 751 
Q 3494 1081 3494 1831 
L 3494 4666 
L 4128 4666 
L 4128 1753 
Q 4128 841 3676 375 
Q 3225 -91 2344 -91 
Q 1459 -91 1007 375 
Q 556 841 556 1753 
L 556 4666 
z
" transform="scale(0.015625)"/>
      </defs>
      <use xlink:href="#DejaVuSans-55"/>
      <use xlink:href="#DejaVuSans-2d" x="73.193359"/>
      <use xlink:href="#DejaVuSans-53" x="109.277344"/>
      <use xlink:href="#DejaVuSans-65" x="172.753906"/>
      <use xlink:href="#DejaVuSans-72" x="234.277344"/>
      <use xlink:href="#DejaVuSans-69" x="275.390625"/>
      <use xlink:href="#DejaVuSans-65" x="303.173828"/>
      <use xlink:href="#DejaVuSans-73" x="364.697266"/>
     </g>
    </g>
    <g id="patch_10">
     <path d="M 396.909375 120.149219 
L 426.909375 120.149219 
L 426.909375 109.649219 
L 396.909375 109.649219 
z
" style="fill: #2ca02c; fill-opacity: 0.3; stroke: #2ca02c; stroke-linejoin: miter"/>
    </g>
    <g id="text_6">
     <!-- ESR -->
     <g transform="translate(438.909375 120.149219)scale(0.15 -0.15)">
      <defs>
       <path id="DejaVuSans-45" d="M 628 4666 
L 3578 4666 
L 3578 4134 
L 1259 4134 
L 1259 2753 
L 3481 2753 
L 3481 2222 
L 1259 2222 
L 1259 531 
L 3634 531 
L 3634 0 
L 628 0 
L 628 4666 
z
" transform="scale(0.015625)"/>
      </defs>
      <use xlink:href="#DejaVuSans-45"/>
      <use xlink:href="#DejaVuSans-53" x="63.183594"/>
      <use xlink:href="#DejaVuSans-52" x="126.660156"/>
     </g>
    </g>
   </g>
  </g>
  <g id="axes_2">
   <g id="patch_11">
    <path d="M 83.325 518.8 
L 559.8 518.8 
L 559.8 214.2 
L 83.325 214.2 
z
" style="fill: #ffffff"/>
   </g>
   <g id="PolyCollection_4">
    <path d="M 83.325 284.259635 
L 83.325 255.052637 
L 86.5015 257.341634 
L 89.678 261.503445 
L 92.8545 263.74785 
L 96.031 269.202796 
L 99.2075 274.092924 
L 102.384 280.78155 
L 105.5605 282.282775 
L 108.737 286.102723 
L 111.9135 289.461899 
L 115.09 296.403206 
L 118.2665 307.848187 
L 121.443 324.213024 
L 124.6195 341.008905 
L 127.796 360.688328 
L 130.9725 373.366989 
L 134.149 386.699649 
L 137.3255 397.193359 
L 140.502 406.765525 
L 143.6785 414.895921 
L 146.855 423.858679 
L 150.0315 429.78926 
L 153.208 439.361426 
L 156.3845 450.107817 
L 159.561 457.227487 
L 162.7375 454.641219 
L 165.914 450.464544 
L 169.0905 445.024462 
L 172.267 438.14261 
L 175.4435 431.751257 
L 178.62 426.757083 
L 181.7965 420.172503 
L 184.973 415.312102 
L 188.1495 412.354243 
L 191.326 411.239472 
L 194.5025 409.113976 
L 197.679 408.47484 
L 200.8555 409.143703 
L 204.032 406.810116 
L 207.2085 402.306441 
L 210.385 394.889499 
L 213.5615 389.642644 
L 216.738 386.967194 
L 219.9145 383.875562 
L 223.091 382.30002 
L 226.2675 381.646021 
L 229.444 382.062202 
L 232.6205 381.735202 
L 235.797 379.223252 
L 238.9735 373.322398 
L 242.15 368.729542 
L 245.3265 367.94177 
L 248.503 366.782409 
L 251.6795 364.909594 
L 254.856 369.130859 
L 258.0325 372.296809 
L 261.209 375.403304 
L 264.3855 378.643571 
L 267.562 379.966432 
L 270.7385 378.59898 
L 273.915 379.802933 
L 277.0915 376.369438 
L 280.268 378.331435 
L 283.4445 380.546113 
L 286.621 384.678197 
L 289.7975 386.878012 
L 292.974 383.801244 
L 296.1505 377.781481 
L 299.327 371.568492 
L 302.5035 357.730469 
L 305.68 345.126126 
L 308.8565 334.350007 
L 312.033 325.119704 
L 315.2095 316.350173 
L 318.386 313.273406 
L 321.5625 309.096731 
L 324.739 305.6781 
L 327.9155 306.228053 
L 331.092 306.436144 
L 334.2685 308.576504 
L 337.445 310.508774 
L 340.6215 307.313097 
L 343.798 305.291646 
L 346.9745 303.270195 
L 350.151 303.225604 
L 353.3275 304.920056 
L 356.504 308.576504 
L 359.6805 312.753179 
L 362.857 319.932304 
L 366.0335 324.213024 
L 369.21 324.644069 
L 372.3865 322.132118 
L 375.563 320.764666 
L 378.7395 323.098253 
L 381.916 321.15112 
L 385.0925 313.689587 
L 388.269 305.811872 
L 391.4455 298.082794 
L 394.622 296.299161 
L 397.7985 295.585707 
L 400.975 295.511389 
L 404.1515 295.55598 
L 407.328 297.844976 
L 410.5045 302.735105 
L 413.681 315.027312 
L 416.8575 321.834846 
L 420.034 326.650656 
L 423.2105 331.347558 
L 426.387 335.568824 
L 429.5635 337.010594 
L 432.74 334.662143 
L 435.9165 332.269102 
L 439.093 325.357522 
L 442.2695 316.587991 
L 445.446 307.327961 
L 448.6225 297.354477 
L 451.799 288.466037 
L 454.9755 282.119275 
L 458.152 273.974016 
L 461.3285 263.926214 
L 464.505 260.953491 
L 467.6815 259.63063 
L 470.858 260.433265 
L 474.0345 264.372122 
L 477.211 269.871659 
L 480.3875 276.025194 
L 483.564 283.754272 
L 486.7405 293.980437 
L 489.917 305.365964 
L 493.0935 322.0578 
L 496.27 341.454814 
L 499.4465 368.239043 
L 502.623 393.343683 
L 505.7995 410.347655 
L 508.976 428.823125 
L 512.1525 440.699151 
L 515.329 444.712326 
L 518.5055 444.816371 
L 521.682 443.344874 
L 524.8585 439.569516 
L 528.035 435.452296 
L 531.2115 431.097258 
L 534.388 425.196404 
L 537.5645 420.03873 
L 540.741 415.38642 
L 543.9175 411.432699 
L 547.094 407.285751 
L 550.2705 405.294027 
L 553.447 400.716035 
L 556.6235 394.963817 
L 559.8 388.453555 
L 562.9765 382.924291 
L 566.153 379.892114 
L 569.3295 378.301708 
L 572.506 378.628707 
L 575.6825 380.233977 
L 578.859 382.656746 
L 582.0355 384.410652 
L 585.212 385.733514 
L 588.3885 385.51056 
L 591.565 382.954018 
L 594.7415 379.416479 
L 597.918 373.604807 
L 601.0945 368.387679 
L 604.271 361.253145 
L 607.4475 355.263109 
L 610.624 353.672703 
L 613.8005 350.714844 
L 616.977 346.597624 
L 620.1535 344.382945 
L 623.33 343.297902 
L 626.5065 344.546445 
L 629.683 346.344942 
L 632.8595 349.287937 
L 636.036 350.625662 
L 639.2125 349.570346 
L 642.389 349.763573 
L 645.5655 351.160752 
L 648.742 353.33084 
L 651.9185 354.93611 
L 655.095 357.299424 
L 658.2715 357.685878 
L 661.448 358.637149 
L 664.6245 359.633011 
L 667.801 359.974874 
L 670.9775 359.737057 
L 674.154 358.800649 
L 677.3305 356.036017 
L 680.507 350.209481 
L 683.6835 344.353218 
L 686.86 334.498643 
L 690.0365 327.631655 
L 693.213 322.741526 
L 696.3895 315.651583 
L 699.566 308.948094 
L 702.7425 298.93002 
L 705.919 289.313263 
L 709.0955 283.263773 
L 712.272 283.263773 
L 715.4485 283.977226 
L 718.625 284.69068 
L 721.8015 287.276948 
L 724.978 290.918533 
L 728.1545 291.542805 
L 731.331 286.979676 
L 734.5075 278.997916 
L 737.684 274.286151 
L 740.8605 271.387747 
L 744.037 268.697433 
L 747.2135 269.351432 
L 750.39 267.835344 
L 753.5665 266.512482 
L 756.743 264.44644 
L 759.9195 265.739574 
L 763.096 267.582662 
L 766.2725 273.929425 
L 769.449 280.603186 
L 772.6255 287.20263 
L 775.802 298.885429 
L 778.9785 312.470771 
L 782.155 324.658932 
L 785.3315 336.921412 
L 788.508 349.986527 
L 791.6845 358.934422 
L 794.861 364.582594 
L 798.0375 367.079681 
L 801.214 366.068955 
L 804.3905 365.147411 
L 807.567 361.743644 
L 810.7435 354.207793 
L 813.92 345.616625 
L 817.0965 332.313692 
L 820.273 319.590441 
L 823.4495 309.825048 
L 826.626 299.940746 
L 829.8025 291.067169 
L 832.979 286.756722 
L 836.1555 288.674128 
L 839.332 292.01844 
L 842.5085 296.120797 
L 845.685 303.760694 
L 848.8615 310.508774 
L 852.038 318.906714 
L 855.2145 314.893539 
L 858.391 324.540023 
L 861.5675 328.895062 
L 864.744 332.01642 
L 867.9205 348.098848 
L 871.097 376.191075 
L 874.2735 382.106793 
L 877.45 386.922603 
L 880.6265 388.126555 
L 883.803 384.574152 
L 886.9795 380.635295 
L 890.156 378.316572 
L 893.3325 374.229078 
L 896.509 368.655224 
L 899.6855 375.670849 
L 902.862 389.612917 
L 906.0385 390.504733 
L 909.215 384.752515 
L 912.3915 377.930118 
L 915.568 375.700576 
L 918.7445 377.90039 
L 921.921 378.613844 
L 925.0975 376.696438 
L 928.274 381.170385 
L 931.4505 385.302469 
L 934.627 388.260328 
L 937.8035 392.243776 
L 940.98 395.647543 
L 944.1565 389.761553 
L 947.333 382.820246 
L 950.5095 371.196901 
L 953.686 358.547968 
L 956.8625 349.748709 
L 960.039 340.919724 
L 963.2155 334.127053 
L 966.392 327.36411 
L 969.5685 323.573889 
L 972.745 320.140394 
L 975.9215 317.539262 
L 979.098 312.515361 
L 982.2745 311.311409 
L 985.451 312.188362 
L 988.6275 315.413766 
L 991.804 317.227126 
L 994.9805 323.12798 
L 998.157 329.385561 
L 1001.3335 338.690182 
L 1004.51 347.073259 
L 1007.6865 349.674391 
L 1010.863 346.894896 
L 1014.0395 343.401947 
L 1017.216 339.581999 
L 1020.3925 335.76205 
L 1023.569 328.597789 
L 1026.7455 325.089977 
L 1029.922 320.541712 
L 1033.0985 317.093354 
L 1036.275 314.848948 
L 1039.4515 310.196638 
L 1042.628 305.737554 
L 1045.8045 302.006788 
L 1048.981 301.813561 
L 1052.1575 299.435383 
L 1055.334 297.904431 
L 1058.5105 295.333026 
L 1061.687 291.899532 
L 1064.8635 288.688991 
L 1068.04 284.913634 
L 1071.2165 282.401684 
L 1074.393 277.526419 
L 1077.5695 273.810516 
L 1080.746 269.693295 
L 1083.9225 268.028571 
L 1087.099 265.30853 
L 1090.2755 265.992256 
L 1093.452 267.850207 
L 1096.6285 268.415025 
L 1099.805 266.928663 
L 1102.9815 263.851896 
L 1106.158 260.760264 
L 1109.3345 260.760264 
L 1112.511 258.590177 
L 1115.6875 261.711536 
L 1118.864 263.628942 
L 1122.0405 263.227624 
L 1125.217 261.280491 
L 1128.3935 261.993944 
L 1131.57 264.832894 
L 1134.7465 270.317567 
L 1137.923 285.38927 
L 1141.0995 299.79211 
L 1144.276 314.893539 
L 1147.4525 325.75884 
L 1150.629 337.070048 
L 1153.8055 356.37788 
L 1156.982 385.911877 
L 1160.1585 395.320544 
L 1163.335 401.622715 
L 1166.5115 404.803528 
L 1169.688 406.839843 
L 1172.8645 411.417835 
L 1176.041 412.666379 
L 1179.2175 412.725833 
L 1182.394 412.473152 
L 1185.5705 411.061109 
L 1188.747 410.823291 
L 1191.9235 409.143703 
L 1195.1 402.945577 
L 1198.2765 397.906812 
L 1201.453 395.662407 
L 1204.6295 393.135593 
L 1207.806 393.016684 
L 1210.9825 396.494769 
L 1214.159 404.535983 
L 1217.3355 408.10325 
L 1220.512 404.476529 
L 1223.6885 396.836632 
L 1226.865 386.491558 
L 1230.0415 374.674987 
L 1233.218 367.763407 
L 1236.3945 365.533865 
L 1239.571 357.225106 
L 1242.7475 345.928761 
L 1245.924 338.972591 
L 1249.1005 334.632416 
L 1252.277 329.920651 
L 1255.4535 326.873611 
L 1258.63 326.82902 
L 1261.8065 330.515195 
L 1264.983 333.978417 
L 1268.1595 337.263275 
L 1271.336 338.883409 
L 1274.5125 340.399497 
L 1277.689 338.853682 
L 1280.8655 328.404563 
L 1284.042 311.93568 
L 1287.2185 299.152974 
L 1290.395 295.630298 
L 1293.5715 289.952398 
L 1296.748 287.232357 
L 1299.9245 288.525492 
L 1303.101 293.04403 
L 1306.2775 291.43876 
L 1309.454 293.25212 
L 1312.6305 294.976299 
L 1315.807 297.413932 
L 1318.9835 298.082794 
L 1322.16 295.674889 
L 1325.3365 289.803762 
L 1328.513 278.1061 
L 1331.6895 268.563661 
L 1334.866 264.372122 
L 1338.0425 258.56045 
L 1341.219 254.517547 
L 1344.3955 246.030425 
L 1347.572 240.08498 
L 1350.7485 233.426082 
L 1353.925 230.914132 
L 1357.1015 228.253545 
L 1360.278 228.045455 
L 1363.4545 230.096633 
L 1366.631 232.653174 
L 1369.8075 231.954584 
L 1372.984 235.952896 
L 1376.1605 241.214615 
L 1379.337 245.852062 
L 1382.5135 250.177373 
L 1385.69 256.984907 
L 1388.8665 265.724711 
L 1392.043 276.01033 
L 1395.2195 280.855868 
L 1398.396 285.790587 
L 1401.5725 293.103484 
L 1404.749 301.159562 
L 1407.9255 311.014137 
L 1411.102 317.464944 
L 1414.2785 321.760528 
L 1417.455 322.265891 
L 1420.6315 336.163368 
L 1423.808 352.63225 
L 1426.9845 362.843551 
L 1430.161 375.581667 
L 1433.3375 388.096828 
L 1436.514 398.88781 
L 1439.6905 414.271649 
L 1442.867 422.015591 
L 1446.0435 425.523403 
L 1449.22 426.965173 
L 1449.22 503.735729 
L 1449.22 503.735729 
L 1446.0435 504.954545 
L 1442.867 502.516913 
L 1439.6905 494.505426 
L 1436.514 483.119899 
L 1433.3375 471.912736 
L 1430.161 456.172171 
L 1426.9845 435.586068 
L 1423.808 422.17909 
L 1420.6315 414.836466 
L 1417.455 407.419524 
L 1414.2785 400.716035 
L 1411.102 390.757415 
L 1407.9255 380.590704 
L 1404.749 366.321637 
L 1401.5725 354.118611 
L 1398.396 349.109574 
L 1395.2195 344.457263 
L 1392.043 339.180681 
L 1388.8665 332.165056 
L 1385.69 322.949617 
L 1382.5135 317.747353 
L 1379.337 310.8655 
L 1376.1605 306.837462 
L 1372.984 302.898604 
L 1369.8075 301.828424 
L 1366.631 300.282609 
L 1363.4545 299.896155 
L 1360.278 301.709515 
L 1357.1015 305.484873 
L 1353.925 310.464183 
L 1350.7485 314.804358 
L 1347.572 316.409628 
L 1344.3955 318.490533 
L 1341.219 319.976895 
L 1338.0425 321.567301 
L 1334.866 326.115566 
L 1331.6895 331.436739 
L 1328.513 338.318592 
L 1325.3365 340.771088 
L 1322.16 342.792539 
L 1318.9835 341.187269 
L 1315.807 341.335905 
L 1312.6305 342.822266 
L 1309.454 347.459713 
L 1306.2775 350.001391 
L 1303.101 352.79575 
L 1299.9245 352.855204 
L 1296.748 355.738745 
L 1293.5715 360.227556 
L 1290.395 368.001225 
L 1287.2185 371.10772 
L 1284.042 372.371127 
L 1280.8655 374.793895 
L 1277.689 374.897941 
L 1274.5125 374.006124 
L 1271.336 372.87649 
L 1268.1595 374.838486 
L 1264.983 376.518074 
L 1261.8065 379.698887 
L 1258.63 381.60143 
L 1255.4535 384.693061 
L 1252.277 389.835871 
L 1249.1005 394.621954 
L 1245.924 398.531084 
L 1242.7475 400.344444 
L 1239.571 403.227985 
L 1236.3945 408.177568 
L 1233.218 415.089148 
L 1230.0415 422.060182 
L 1226.865 430.250032 
L 1223.6885 433.861889 
L 1220.512 437.889928 
L 1217.3355 438.573654 
L 1214.159 436.730567 
L 1210.9825 434.307798 
L 1207.806 432.048529 
L 1204.6295 431.439121 
L 1201.453 436.269795 
L 1198.2765 444.459645 
L 1195.1 450.538862 
L 1191.9235 454.462856 
L 1188.747 458.951666 
L 1185.5705 463.425614 
L 1182.394 466.78479 
L 1179.2175 469.118377 
L 1176.041 469.356195 
L 1172.8645 469.192695 
L 1169.688 467.423925 
L 1166.5115 463.351296 
L 1163.335 458.461167 
L 1160.1585 453.065676 
L 1156.982 447.358049 
L 1153.8055 438.603382 
L 1150.629 428.912307 
L 1147.4525 417.006553 
L 1144.276 403.540121 
L 1141.0995 386.58074 
L 1137.923 370.825311 
L 1134.7465 357.091334 
L 1131.57 345.943625 
L 1128.3935 335.464778 
L 1125.217 329.162607 
L 1122.0405 328.672108 
L 1118.864 329.370697 
L 1115.6875 328.701835 
L 1112.511 328.137018 
L 1109.3345 327.185746 
L 1106.158 328.359972 
L 1102.9815 329.905787 
L 1099.805 330.648968 
L 1096.6285 330.678695 
L 1093.452 330.78274 
L 1090.2755 332.001557 
L 1087.099 333.190646 
L 1083.9225 336.416049 
L 1080.746 337.991592 
L 1077.5695 340.785951 
L 1074.393 343.669492 
L 1071.2165 347.296213 
L 1068.04 352.037706 
L 1064.8635 355.159064 
L 1061.687 361.550417 
L 1058.5105 365.80141 
L 1055.334 365.414956 
L 1052.1575 365.608183 
L 1048.981 367.525589 
L 1045.8045 369.472722 
L 1042.628 372.38599 
L 1039.4515 375.195213 
L 1036.275 379.728615 
L 1033.0985 382.612155 
L 1029.922 383.087791 
L 1026.7455 384.143107 
L 1023.569 384.663334 
L 1020.3925 385.18356 
L 1017.216 385.138969 
L 1014.0395 385.213287 
L 1010.863 384.559289 
L 1007.6865 383.399927 
L 1004.51 381.646021 
L 1001.3335 378.480071 
L 998.157 373.41158 
L 994.9805 368.714678 
L 991.804 367.19859 
L 988.6275 367.213453 
L 985.451 366.945908 
L 982.2745 367.451271 
L 979.098 371.925218 
L 975.9215 377.082892 
L 972.745 382.924291 
L 969.5685 388.810282 
L 966.392 396.138042 
L 963.2155 402.58885 
L 960.039 408.177568 
L 956.8625 412.38397 
L 953.686 416.679554 
L 950.5095 423.873542 
L 947.333 436.254931 
L 944.1565 439.792471 
L 940.98 440.684287 
L 937.8035 438.841199 
L 934.627 438.098019 
L 931.4505 434.44157 
L 928.274 430.963485 
L 925.0975 426.638174 
L 921.921 424.839677 
L 918.7445 423.754633 
L 915.568 423.234407 
L 912.3915 426.697628 
L 909.215 433.415981 
L 906.0385 438.900654 
L 902.862 446.198687 
L 899.6855 453.229176 
L 896.509 461.389299 
L 893.3325 464.302567 
L 890.156 467.617152 
L 886.9795 468.672469 
L 883.803 466.606427 
L 880.6265 461.879798 
L 877.45 455.59249 
L 874.2735 450.137545 
L 871.097 443.017874 
L 867.9205 436.180613 
L 864.744 430.101396 
L 861.5675 421.450773 
L 858.391 409.797702 
L 855.2145 398.88781 
L 852.038 386.001059 
L 848.8615 375.120895 
L 845.685 358.51824 
L 842.5085 344.2789 
L 839.332 335.55396 
L 836.1555 335.494505 
L 832.979 338.214546 
L 829.8025 343.684356 
L 826.626 353.301113 
L 823.4495 364.627185 
L 820.273 376.99371 
L 817.0965 387.844147 
L 813.92 391.604641 
L 810.7435 395.558361 
L 807.567 401.19167 
L 804.3905 407.642478 
L 801.214 409.767974 
L 798.0375 414.033831 
L 794.861 414.464876 
L 791.6845 413.602786 
L 788.508 407.597887 
L 785.3315 400.864671 
L 782.155 388.304919 
L 778.9785 377.231528 
L 775.802 361.505826 
L 772.6255 348.678529 
L 769.449 339.418499 
L 766.2725 332.358283 
L 763.096 328.538335 
L 759.9195 328.315381 
L 756.743 329.980105 
L 753.5665 330.113878 
L 750.39 330.396287 
L 747.2135 335.360733 
L 744.037 332.105602 
L 740.8605 330.857059 
L 737.684 336.326868 
L 734.5075 337.887547 
L 731.331 336.668731 
L 728.1545 338.809091 
L 724.978 337.174094 
L 721.8015 333.487918 
L 718.625 328.003245 
L 715.4485 327.141156 
L 712.272 326.204748 
L 709.0955 332.150193 
L 705.919 341.335905 
L 702.7425 345.958488 
L 699.566 352.647114 
L 696.3895 359.945147 
L 693.213 367.183726 
L 690.0365 375.968121 
L 686.86 381.616293 
L 683.6835 389.835871 
L 680.507 397.312268 
L 677.3305 404.03062 
L 674.154 407.300615 
L 670.9775 411.878607 
L 667.801 414.375694 
L 664.6245 415.59451 
L 661.448 415.356693 
L 658.2715 414.910784 
L 655.095 412.948787 
L 651.9185 410.184156 
L 648.742 408.876158 
L 645.5655 406.081799 
L 642.389 403.614439 
L 639.2125 400.968716 
L 636.036 401.652442 
L 632.8595 397.98113 
L 629.683 396.227224 
L 626.5065 396.583951 
L 623.33 398.263539 
L 620.1535 399.616127 
L 616.977 403.198258 
L 613.8005 409.366657 
L 610.624 414.583785 
L 607.4475 420.811638 
L 604.271 423.561406 
L 601.0945 430.056805 
L 597.918 434.382116 
L 594.7415 438.960108 
L 591.565 441.130196 
L 588.3885 447.135095 
L 585.212 450.271317 
L 582.0355 450.702362 
L 578.859 449.840272 
L 575.6825 449.260591 
L 572.506 447.40264 
L 569.3295 445.871688 
L 566.153 445.529825 
L 562.9765 447.283731 
L 559.8 450.211863 
L 556.6235 453.021085 
L 553.447 454.373674 
L 550.2705 455.681672 
L 547.094 457.717987 
L 543.9175 460.006983 
L 540.741 463.054023 
L 537.5645 466.2497 
L 534.388 473.131552 
L 531.2115 477.664954 
L 528.035 483.476626 
L 524.8585 487.40062 
L 521.682 490.44766 
L 518.5055 490.98275 
L 515.329 490.165252 
L 512.1525 488.931572 
L 508.976 485.616986 
L 505.7995 478.824316 
L 502.623 470.352057 
L 499.4465 455.666808 
L 496.27 435.229342 
L 493.0935 412.443425 
L 489.917 391.054687 
L 486.7405 366.485136 
L 483.564 345.215308 
L 480.3875 330.396287 
L 477.211 316.796082 
L 474.0345 308.903504 
L 470.858 306.198326 
L 467.6815 306.465871 
L 464.505 311.593817 
L 461.3285 319.367486 
L 458.152 331.094876 
L 454.9755 338.957727 
L 451.799 347.207032 
L 448.6225 353.613248 
L 445.446 359.157376 
L 442.2695 363.794823 
L 439.093 366.559454 
L 435.9165 367.793134 
L 432.74 369.130859 
L 429.5635 370.557766 
L 426.387 368.209315 
L 423.2105 365.117684 
L 420.034 361.268009 
L 416.8575 358.503377 
L 413.681 351.680979 
L 410.5045 346.077397 
L 407.328 342.064222 
L 404.1515 338.110501 
L 400.975 335.628278 
L 397.7985 334.721598 
L 394.622 338.496955 
L 391.4455 344.159991 
L 388.269 352.305251 
L 385.0925 357.210243 
L 381.916 359.573557 
L 378.7395 361.624735 
L 375.563 365.920319 
L 372.3865 366.708091 
L 369.21 370.126721 
L 366.0335 371.583355 
L 362.857 370.825311 
L 359.6805 368.26877 
L 356.504 365.637911 
L 353.3275 358.265559 
L 350.151 355.040155 
L 346.9745 353.018704 
L 343.798 352.126887 
L 340.6215 352.513341 
L 337.445 350.521617 
L 334.2685 350.506754 
L 331.092 351.680979 
L 327.9155 352.944386 
L 324.739 353.851066 
L 321.5625 362.338189 
L 318.386 368.060679 
L 315.2095 375.477622 
L 312.033 385.198424 
L 308.8565 393.180183 
L 305.68 399.422901 
L 302.5035 408.370795 
L 299.327 413.335241 
L 296.1505 418.507778 
L 292.974 423.828951 
L 289.7975 426.78681 
L 286.621 427.202991 
L 283.4445 430.502713 
L 280.268 432.241756 
L 277.0915 431.349939 
L 273.915 432.420119 
L 270.7385 432.62821 
L 267.562 429.328488 
L 264.3855 425.820675 
L 261.209 423.457361 
L 258.0325 417.942961 
L 254.856 412.324516 
L 251.6795 405.056209 
L 248.503 403.138803 
L 245.3265 404.060347 
L 242.15 407.910023 
L 238.9735 407.181706 
L 235.797 410.853018 
L 232.6205 411.165154 
L 229.444 411.84888 
L 226.2675 408.742385 
L 223.091 410.496291 
L 219.9145 410.526019 
L 216.738 416.218782 
L 213.5615 422.416908 
L 210.385 428.689352 
L 207.2085 434.545616 
L 204.032 444.415054 
L 200.8555 448.487684 
L 197.679 449.438955 
L 194.5025 449.141683 
L 191.326 450.464544 
L 188.1495 449.111955 
L 184.973 450.330771 
L 181.7965 453.868311 
L 178.62 459.412438 
L 175.4435 464.689021 
L 172.267 470.36692 
L 169.0905 476.163729 
L 165.914 479.730996 
L 162.7375 481.143039 
L 159.561 481.737584 
L 156.3845 481.960538 
L 153.208 481.648402 
L 150.0315 481.499766 
L 146.855 480.994403 
L 143.6785 477.709545 
L 140.502 474.097687 
L 137.3255 468.137379 
L 134.149 459.352984 
L 130.9725 446.808095 
L 127.796 431.795847 
L 124.6195 414.777012 
L 121.443 395.855634 
L 118.2665 376.815347 
L 115.09 356.273835 
L 111.9135 337.218684 
L 108.737 324.599478 
L 105.5605 315.012448 
L 102.384 306.792871 
L 99.2075 300.044791 
L 96.031 297.205841 
L 92.8545 292.003577 
L 89.678 288.406583 
L 86.5015 286.013541 
L 83.325 284.259635 
z
" clip-path="url(#p13a08d5757)" style="fill: #d3d3d3; fill-opacity: 0.6"/>
   </g>
   <g id="matplotlib.axis_3">
    <g id="xtick_9">
     <g id="line2d_13">
      <g>
       <use xlink:href="#m0a9d7ec7b9" x="83.325" y="518.8" style="stroke: #000000; stroke-width: 0.8"/>
      </g>
     </g>
     <g id="text_7">
      <!-- 0 -->
      <g transform="translate(78.553125 537.197656)scale(0.15 -0.15)">
       <defs>
        <path id="DejaVuSans-30" d="M 2034 4250 
Q 1547 4250 1301 3770 
Q 1056 3291 1056 2328 
Q 1056 1369 1301 889 
Q 1547 409 2034 409 
Q 2525 409 2770 889 
Q 3016 1369 3016 2328 
Q 3016 3291 2770 3770 
Q 2525 4250 2034 4250 
z
M 2034 4750 
Q 2819 4750 3233 4129 
Q 3647 3509 3647 2328 
Q 3647 1150 3233 529 
Q 2819 -91 2034 -91 
Q 1250 -91 836 529 
Q 422 1150 422 2328 
Q 422 3509 836 4129 
Q 1250 4750 2034 4750 
z
" transform="scale(0.015625)"/>
       </defs>
       <use xlink:href="#DejaVuSans-30"/>
      </g>
     </g>
    </g>
    <g id="xtick_10">
     <g id="line2d_14">
      <g>
       <use xlink:href="#m0a9d7ec7b9" x="146.855" y="518.8" style="stroke: #000000; stroke-width: 0.8"/>
      </g>
     </g>
     <g id="text_8">
      <!-- 20 -->
      <g transform="translate(137.31125 537.197656)scale(0.15 -0.15)">
       <defs>
        <path id="DejaVuSans-32" d="M 1228 531 
L 3431 531 
L 3431 0 
L 469 0 
L 469 531 
Q 828 903 1448 1529 
Q 2069 2156 2228 2338 
Q 2531 2678 2651 2914 
Q 2772 3150 2772 3378 
Q 2772 3750 2511 3984 
Q 2250 4219 1831 4219 
Q 1534 4219 1204 4116 
Q 875 4013 500 3803 
L 500 4441 
Q 881 4594 1212 4672 
Q 1544 4750 1819 4750 
Q 2544 4750 2975 4387 
Q 3406 4025 3406 3419 
Q 3406 3131 3298 2873 
Q 3191 2616 2906 2266 
Q 2828 2175 2409 1742 
Q 1991 1309 1228 531 
z
" transform="scale(0.015625)"/>
       </defs>
       <use xlink:href="#DejaVuSans-32"/>
       <use xlink:href="#DejaVuSans-30" x="63.623047"/>
      </g>
     </g>
    </g>
    <g id="xtick_11">
     <g id="line2d_15">
      <g>
       <use xlink:href="#m0a9d7ec7b9" x="210.385" y="518.8" style="stroke: #000000; stroke-width: 0.8"/>
      </g>
     </g>
     <g id="text_9">
      <!-- 40 -->
      <g transform="translate(200.84125 537.197656)scale(0.15 -0.15)">
       <defs>
        <path id="DejaVuSans-34" d="M 2419 4116 
L 825 1625 
L 2419 1625 
L 2419 4116 
z
M 2253 4666 
L 3047 4666 
L 3047 1625 
L 3713 1625 
L 3713 1100 
L 3047 1100 
L 3047 0 
L 2419 0 
L 2419 1100 
L 313 1100 
L 313 1709 
L 2253 4666 
z
" transform="scale(0.015625)"/>
       </defs>
       <use xlink:href="#DejaVuSans-34"/>
       <use xlink:href="#DejaVuSans-30" x="63.623047"/>
      </g>
     </g>
    </g>
    <g id="xtick_12">
     <g id="line2d_16">
      <g>
       <use xlink:href="#m0a9d7ec7b9" x="273.915" y="518.8" style="stroke: #000000; stroke-width: 0.8"/>
      </g>
     </g>
     <g id="text_10">
      <!-- 60 -->
      <g transform="translate(264.37125 537.197656)scale(0.15 -0.15)">
       <defs>
        <path id="DejaVuSans-36" d="M 2113 2584 
Q 1688 2584 1439 2293 
Q 1191 2003 1191 1497 
Q 1191 994 1439 701 
Q 1688 409 2113 409 
Q 2538 409 2786 701 
Q 3034 994 3034 1497 
Q 3034 2003 2786 2293 
Q 2538 2584 2113 2584 
z
M 3366 4563 
L 3366 3988 
Q 3128 4100 2886 4159 
Q 2644 4219 2406 4219 
Q 1781 4219 1451 3797 
Q 1122 3375 1075 2522 
Q 1259 2794 1537 2939 
Q 1816 3084 2150 3084 
Q 2853 3084 3261 2657 
Q 3669 2231 3669 1497 
Q 3669 778 3244 343 
Q 2819 -91 2113 -91 
Q 1303 -91 875 529 
Q 447 1150 447 2328 
Q 447 3434 972 4092 
Q 1497 4750 2381 4750 
Q 2619 4750 2861 4703 
Q 3103 4656 3366 4563 
z
" transform="scale(0.015625)"/>
       </defs>
       <use xlink:href="#DejaVuSans-36"/>
       <use xlink:href="#DejaVuSans-30" x="63.623047"/>
      </g>
     </g>
    </g>
    <g id="xtick_13">
     <g id="line2d_17">
      <g>
       <use xlink:href="#m0a9d7ec7b9" x="337.445" y="518.8" style="stroke: #000000; stroke-width: 0.8"/>
      </g>
     </g>
     <g id="text_11">
      <!-- 80 -->
      <g transform="translate(327.90125 537.197656)scale(0.15 -0.15)">
       <defs>
        <path id="DejaVuSans-38" d="M 2034 2216 
Q 1584 2216 1326 1975 
Q 1069 1734 1069 1313 
Q 1069 891 1326 650 
Q 1584 409 2034 409 
Q 2484 409 2743 651 
Q 3003 894 3003 1313 
Q 3003 1734 2745 1975 
Q 2488 2216 2034 2216 
z
M 1403 2484 
Q 997 2584 770 2862 
Q 544 3141 544 3541 
Q 544 4100 942 4425 
Q 1341 4750 2034 4750 
Q 2731 4750 3128 4425 
Q 3525 4100 3525 3541 
Q 3525 3141 3298 2862 
Q 3072 2584 2669 2484 
Q 3125 2378 3379 2068 
Q 3634 1759 3634 1313 
Q 3634 634 3220 271 
Q 2806 -91 2034 -91 
Q 1263 -91 848 271 
Q 434 634 434 1313 
Q 434 1759 690 2068 
Q 947 2378 1403 2484 
z
M 1172 3481 
Q 1172 3119 1398 2916 
Q 1625 2713 2034 2713 
Q 2441 2713 2670 2916 
Q 2900 3119 2900 3481 
Q 2900 3844 2670 4047 
Q 2441 4250 2034 4250 
Q 1625 4250 1398 4047 
Q 1172 3844 1172 3481 
z
" transform="scale(0.015625)"/>
       </defs>
       <use xlink:href="#DejaVuSans-38"/>
       <use xlink:href="#DejaVuSans-30" x="63.623047"/>
      </g>
     </g>
    </g>
    <g id="xtick_14">
     <g id="line2d_18">
      <g>
       <use xlink:href="#m0a9d7ec7b9" x="400.975" y="518.8" style="stroke: #000000; stroke-width: 0.8"/>
      </g>
     </g>
     <g id="text_12">
      <!-- 100 -->
      <g transform="translate(386.659375 537.197656)scale(0.15 -0.15)">
       <defs>
        <path id="DejaVuSans-31" d="M 794 531 
L 1825 531 
L 1825 4091 
L 703 3866 
L 703 4441 
L 1819 4666 
L 2450 4666 
L 2450 531 
L 3481 531 
L 3481 0 
L 794 0 
L 794 531 
z
" transform="scale(0.015625)"/>
       </defs>
       <use xlink:href="#DejaVuSans-31"/>
       <use xlink:href="#DejaVuSans-30" x="63.623047"/>
       <use xlink:href="#DejaVuSans-30" x="127.246094"/>
      </g>
     </g>
    </g>
    <g id="xtick_15">
     <g id="line2d_19">
      <g>
       <use xlink:href="#m0a9d7ec7b9" x="464.505" y="518.8" style="stroke: #000000; stroke-width: 0.8"/>
      </g>
     </g>
     <g id="text_13">
      <!-- 120 -->
      <g transform="translate(450.189375 537.197656)scale(0.15 -0.15)">
       <use xlink:href="#DejaVuSans-31"/>
       <use xlink:href="#DejaVuSans-32" x="63.623047"/>
       <use xlink:href="#DejaVuSans-30" x="127.246094"/>
      </g>
     </g>
    </g>
    <g id="xtick_16">
     <g id="line2d_20">
      <g>
       <use xlink:href="#m0a9d7ec7b9" x="528.035" y="518.8" style="stroke: #000000; stroke-width: 0.8"/>
      </g>
     </g>
     <g id="text_14">
      <!-- 140 -->
      <g transform="translate(513.719375 537.197656)scale(0.15 -0.15)">
       <use xlink:href="#DejaVuSans-31"/>
       <use xlink:href="#DejaVuSans-34" x="63.623047"/>
       <use xlink:href="#DejaVuSans-30" x="127.246094"/>
      </g>
     </g>
    </g>
    <g id="text_15">
     <!-- Time (ka) -->
     <g transform="translate(286.168359 555.714844)scale(0.15 -0.15)">
      <defs>
       <path id="DejaVuSans-54" d="M -19 4666 
L 3928 4666 
L 3928 4134 
L 2272 4134 
L 2272 0 
L 1638 0 
L 1638 4134 
L -19 4134 
L -19 4666 
z
" transform="scale(0.015625)"/>
       <path id="DejaVuSans-28" d="M 1984 4856 
Q 1566 4138 1362 3434 
Q 1159 2731 1159 2009 
Q 1159 1288 1364 580 
Q 1569 -128 1984 -844 
L 1484 -844 
Q 1016 -109 783 600 
Q 550 1309 550 2009 
Q 550 2706 781 3412 
Q 1013 4119 1484 4856 
L 1984 4856 
z
" transform="scale(0.015625)"/>
       <path id="DejaVuSans-6b" d="M 581 4863 
L 1159 4863 
L 1159 1991 
L 2875 3500 
L 3609 3500 
L 1753 1863 
L 3688 0 
L 2938 0 
L 1159 1709 
L 1159 0 
L 581 0 
L 581 4863 
z
" transform="scale(0.015625)"/>
       <path id="DejaVuSans-29" d="M 513 4856 
L 1013 4856 
Q 1481 4119 1714 3412 
Q 1947 2706 1947 2009 
Q 1947 1309 1714 600 
Q 1481 -109 1013 -844 
L 513 -844 
Q 928 -128 1133 580 
Q 1338 1288 1338 2009 
Q 1338 2731 1133 3434 
Q 928 4138 513 4856 
z
" transform="scale(0.015625)"/>
      </defs>
      <use xlink:href="#DejaVuSans-54"/>
      <use xlink:href="#DejaVuSans-69" x="57.958984"/>
      <use xlink:href="#DejaVuSans-6d" x="85.742188"/>
      <use xlink:href="#DejaVuSans-65" x="183.154297"/>
      <use xlink:href="#DejaVuSans-20" x="244.677734"/>
      <use xlink:href="#DejaVuSans-28" x="276.464844"/>
      <use xlink:href="#DejaVuSans-6b" x="315.478516"/>
      <use xlink:href="#DejaVuSans-61" x="371.638672"/>
      <use xlink:href="#DejaVuSans-29" x="432.917969"/>
     </g>
    </g>
   </g>
   <g id="matplotlib.axis_4">
    <g id="ytick_5">
     <g id="line2d_21">
      <g>
       <use xlink:href="#m9402c4c751" x="83.325" y="504.657273" style="stroke: #000000; stroke-width: 0.8"/>
      </g>
     </g>
     <g id="text_16">
      <!-- 150 -->
      <g transform="translate(35.124219 510.356101)scale(0.15 -0.15)">
       <defs>
        <path id="DejaVuSans-2212" d="M 678 2272 
L 4684 2272 
L 4684 1741 
L 678 1741 
L 678 2272 
z
" transform="scale(0.015625)"/>
        <path id="DejaVuSans-35" d="M 691 4666 
L 3169 4666 
L 3169 4134 
L 1269 4134 
L 1269 2991 
Q 1406 3038 1543 3061 
Q 1681 3084 1819 3084 
Q 2600 3084 3056 2656 
Q 3513 2228 3513 1497 
Q 3513 744 3044 326 
Q 2575 -91 1722 -91 
Q 1428 -91 1123 -41 
Q 819 9 494 109 
L 494 744 
Q 775 591 1075 516 
Q 1375 441 1709 441 
Q 2250 441 2565 725 
Q 2881 1009 2881 1497 
Q 2881 1984 2565 2268 
Q 2250 2553 1709 2553 
Q 1456 2553 1204 2497 
Q 953 2441 691 2322 
L 691 4666 
z
" transform="scale(0.015625)"/>
       </defs>
       <use xlink:href="#DejaVuSans-2212"/>
       <use xlink:href="#DejaVuSans-31" x="83.789062"/>
       <use xlink:href="#DejaVuSans-35" x="147.412109"/>
       <use xlink:href="#DejaVuSans-30" x="211.035156"/>
      </g>
     </g>
    </g>
    <g id="ytick_6">
     <g id="line2d_22">
      <g>
       <use xlink:href="#m9402c4c751" x="83.325" y="467.498243" style="stroke: #000000; stroke-width: 0.8"/>
      </g>
     </g>
     <g id="text_17">
      <!-- 125 -->
      <g transform="translate(35.124219 473.197071)scale(0.15 -0.15)">
       <use xlink:href="#DejaVuSans-2212"/>
       <use xlink:href="#DejaVuSans-31" x="83.789062"/>
       <use xlink:href="#DejaVuSans-32" x="147.412109"/>
       <use xlink:href="#DejaVuSans-35" x="211.035156"/>
      </g>
     </g>
    </g>
    <g id="ytick_7">
     <g id="line2d_23">
      <g>
       <use xlink:href="#m9402c4c751" x="83.325" y="430.339213" style="stroke: #000000; stroke-width: 0.8"/>
      </g>
     </g>
     <g id="text_18">
      <!-- 100 -->
      <g transform="translate(35.124219 436.038042)scale(0.15 -0.15)">
       <use xlink:href="#DejaVuSans-2212"/>
       <use xlink:href="#DejaVuSans-31" x="83.789062"/>
       <use xlink:href="#DejaVuSans-30" x="147.412109"/>
       <use xlink:href="#DejaVuSans-30" x="211.035156"/>
      </g>
     </g>
    </g>
    <g id="ytick_8">
     <g id="line2d_24">
      <g>
       <use xlink:href="#m9402c4c751" x="83.325" y="393.180183" style="stroke: #000000; stroke-width: 0.8"/>
      </g>
     </g>
     <g id="text_19">
      <!-- 75 -->
      <g transform="translate(44.667969 398.879012)scale(0.15 -0.15)">
       <defs>
        <path id="DejaVuSans-37" d="M 525 4666 
L 3525 4666 
L 3525 4397 
L 1831 0 
L 1172 0 
L 2766 4134 
L 525 4134 
L 525 4666 
z
" transform="scale(0.015625)"/>
       </defs>
       <use xlink:href="#DejaVuSans-2212"/>
       <use xlink:href="#DejaVuSans-37" x="83.789062"/>
       <use xlink:href="#DejaVuSans-35" x="147.412109"/>
      </g>
     </g>
    </g>
    <g id="ytick_9">
     <g id="line2d_25">
      <g>
       <use xlink:href="#m9402c4c751" x="83.325" y="356.021154" style="stroke: #000000; stroke-width: 0.8"/>
      </g>
     </g>
     <g id="text_20">
      <!-- 50 -->
      <g transform="translate(44.667969 361.719982)scale(0.15 -0.15)">
       <use xlink:href="#DejaVuSans-2212"/>
       <use xlink:href="#DejaVuSans-35" x="83.789062"/>
       <use xlink:href="#DejaVuSans-30" x="147.412109"/>
      </g>
     </g>
    </g>
    <g id="ytick_10">
     <g id="line2d_26">
      <g>
       <use xlink:href="#m9402c4c751" x="83.325" y="318.862124" style="stroke: #000000; stroke-width: 0.8"/>
      </g>
     </g>
     <g id="text_21">
      <!-- 25 -->
      <g transform="translate(44.667969 324.560952)scale(0.15 -0.15)">
       <use xlink:href="#DejaVuSans-2212"/>
       <use xlink:href="#DejaVuSans-32" x="83.789062"/>
       <use xlink:href="#DejaVuSans-35" x="147.412109"/>
      </g>
     </g>
    </g>
    <g id="ytick_11">
     <g id="line2d_27">
      <g>
       <use xlink:href="#m9402c4c751" x="83.325" y="281.703094" style="stroke: #000000; stroke-width: 0.8"/>
      </g>
     </g>
     <g id="text_22">
      <!-- 0 -->
      <g transform="translate(66.78125 287.401922)scale(0.15 -0.15)">
       <use xlink:href="#DejaVuSans-30"/>
      </g>
     </g>
    </g>
    <g id="ytick_12">
     <g id="line2d_28">
      <g>
       <use xlink:href="#m9402c4c751" x="83.325" y="244.544064" style="stroke: #000000; stroke-width: 0.8"/>
      </g>
     </g>
     <g id="text_23">
      <!-- 25 -->
      <g transform="translate(57.2375 250.242892)scale(0.15 -0.15)">
       <use xlink:href="#DejaVuSans-32"/>
       <use xlink:href="#DejaVuSans-35" x="63.623047"/>
      </g>
     </g>
    </g>
    <g id="text_24">
     <!-- Sea level (m) -->
     <g transform="translate(28.004688 416.233203)rotate(-90)scale(0.15 -0.15)">
      <defs>
       <path id="DejaVuSans-6c" d="M 603 4863 
L 1178 4863 
L 1178 0 
L 603 0 
L 603 4863 
z
" transform="scale(0.015625)"/>
       <path id="DejaVuSans-76" d="M 191 3500 
L 800 3500 
L 1894 563 
L 2988 3500 
L 3597 3500 
L 2284 0 
L 1503 0 
L 191 3500 
z
" transform="scale(0.015625)"/>
      </defs>
      <use xlink:href="#DejaVuSans-53"/>
      <use xlink:href="#DejaVuSans-65" x="63.476562"/>
      <use xlink:href="#DejaVuSans-61" x="125"/>
      <use xlink:href="#DejaVuSans-20" x="186.279297"/>
      <use xlink:href="#DejaVuSans-6c" x="218.066406"/>
      <use xlink:href="#DejaVuSans-65" x="245.849609"/>
      <use xlink:href="#DejaVuSans-76" x="307.373047"/>
      <use xlink:href="#DejaVuSans-65" x="366.552734"/>
      <use xlink:href="#DejaVuSans-6c" x="428.076172"/>
      <use xlink:href="#DejaVuSans-20" x="455.859375"/>
      <use xlink:href="#DejaVuSans-28" x="487.646484"/>
      <use xlink:href="#DejaVuSans-6d" x="526.660156"/>
      <use xlink:href="#DejaVuSans-29" x="624.072266"/>
     </g>
    </g>
   </g>
   <g id="line2d_29">
    <path d="M 83.325 269.083887 
L 86.5015 270.362158 
L 89.678 275.742785 
L 92.8545 275.237423 
L 96.031 277.050783 
L 99.2075 281.703094 
L 102.384 287.663402 
L 105.5605 290.784761 
L 108.737 295.214117 
L 111.9135 305.232191 
L 115.09 318.252716 
L 118.2665 334.989143 
L 124.6195 380.248841 
L 127.796 395.617816 
L 130.9725 410.377383 
L 134.149 427.455673 
L 137.3255 441.18965 
L 140.502 449.676773 
L 143.6785 455.131718 
L 146.855 456.439716 
L 150.0315 460.081301 
L 153.208 468.717059 
L 156.3845 473.027507 
L 159.561 474.930049 
L 162.7375 470.307466 
L 165.914 463.633704 
L 169.0905 457.509896 
L 172.267 452.91704 
L 175.4435 446.49596 
L 178.62 438.930381 
L 181.7965 435.541478 
L 184.973 431.275621 
L 188.1495 426.593583 
L 191.326 426.430083 
L 194.5025 428.600171 
L 197.679 429.432533 
L 200.8555 423.308725 
L 204.032 420.083321 
L 207.2085 415.92151 
L 210.385 409.381521 
L 213.5615 400.255263 
L 216.738 394.309818 
L 219.9145 391.56005 
L 223.091 394.93409 
L 226.2675 392.422139 
L 229.444 394.339545 
L 232.6205 391.247914 
L 235.797 395.721861 
L 238.9735 391.322232 
L 242.15 383.221563 
L 245.3265 375.507349 
L 248.503 382.597292 
L 251.6795 384.039062 
L 254.856 385.822696 
L 258.0325 389.107554 
L 261.209 397.683858 
L 264.3855 404.684619 
L 267.562 409.099112 
L 270.7385 404.981891 
L 277.0915 410.362519 
L 280.268 407.03307 
L 283.4445 407.672205 
L 286.621 405.784526 
L 289.7975 404.654892 
L 292.974 404.283302 
L 296.1505 399.675582 
L 299.327 387.32392 
L 302.5035 382.939155 
L 305.68 378.896252 
L 308.8565 358.14665 
L 312.033 351.131025 
L 315.2095 346.865169 
L 318.386 335.479642 
L 321.5625 330.842195 
L 324.739 328.64238 
L 327.9155 322.860435 
L 331.092 324.510296 
L 334.2685 330.678695 
L 337.445 327.557337 
L 340.6215 328.315381 
L 343.798 325.75884 
L 346.9745 319.70935 
L 350.151 327.274928 
L 353.3275 326.279066 
L 356.504 339.329317 
L 359.6805 345.750398 
L 362.857 350.967525 
L 366.0335 346.270624 
L 369.21 346.553033 
L 372.3865 341.60345 
L 375.563 343.639765 
L 378.7395 344.368082 
L 381.916 341.930449 
L 388.269 322.934753 
L 391.4455 314.685449 
L 394.622 313.199087 
L 397.7985 307.357688 
L 400.975 310.672273 
L 404.1515 308.041414 
L 407.328 318.906714 
L 410.5045 325.506158 
L 413.681 328.835607 
L 416.8575 332.774464 
L 420.034 341.648041 
L 423.2105 348.604211 
L 426.387 347.81644 
L 429.5635 350.001391 
L 432.74 350.610799 
L 435.9165 351.680979 
L 439.093 345.88417 
L 442.2695 339.567135 
L 445.446 332.001557 
L 448.6225 320.601166 
L 451.799 315.146221 
L 454.9755 302.645923 
L 458.152 292.939984 
L 461.3285 287.648539 
L 464.505 277.719646 
L 467.6815 277.050783 
L 470.858 278.329054 
L 474.0345 279.91946 
L 477.211 283.457 
L 480.3875 291.587396 
L 483.564 300.609608 
L 486.7405 321.983482 
L 489.917 335.405324 
L 493.0935 360.405919 
L 496.27 391.277641 
L 499.4465 404.967028 
L 502.623 433.520026 
L 505.7995 451.713087 
L 508.976 460.452891 
L 512.1525 465.655155 
L 515.329 465.937564 
L 518.5055 465.432201 
L 521.682 464.10934 
L 524.8585 461.463617 
L 528.035 458.401713 
L 531.2115 450.330771 
L 534.388 446.362187 
L 537.5645 440.372151 
L 540.741 433.90648 
L 543.9175 430.844576 
L 547.094 431.39453 
L 550.2705 429.62576 
L 553.447 429.120397 
L 556.6235 425.790948 
L 559.8 416.649827 
L 562.9765 410.897609 
L 566.153 409.381521 
L 569.3295 408.370795 
L 572.506 410.882745 
L 577 416.770729 
L 577 416.770729 
" clip-path="url(#p13a08d5757)" style="fill: none; stroke: #000000; stroke-opacity: 0.6; stroke-linecap: square"/>
   </g>
   <g id="patch_12">
    <path d="M 83.325 518.8 
L 83.325 214.2 
" style="fill: none; stroke: #000000; stroke-width: 0.8; stroke-linejoin: miter; stroke-linecap: square"/>
   </g>
   <g id="patch_13">
    <path d="M 559.8 518.8 
L 559.8 214.2 
" style="fill: none; stroke: #000000; stroke-width: 0.8; stroke-linejoin: miter; stroke-linecap: square"/>
   </g>
   <g id="patch_14">
    <path d="M 83.325 518.8 
L 559.8 518.8 
" style="fill: none; stroke: #000000; stroke-width: 0.8; stroke-linejoin: miter; stroke-linecap: square"/>
   </g>
   <g id="patch_15">
    <path d="M 83.325 214.2 
L 559.8 214.2 
" style="fill: none; stroke: #000000; stroke-width: 0.8; stroke-linejoin: miter; stroke-linecap: square"/>
   </g>
   <g id="text_25">
    <!-- Data: Spratt and Lisiecki, 2016 (Climate of the Past) -->
    <g transform="translate(83.325 208.2)scale(0.08 -0.08)">
     <defs>
      <path id="DejaVuSans-3a" d="M 750 794 
L 1409 794 
L 1409 0 
L 750 0 
L 750 794 
z
M 750 3309 
L 1409 3309 
L 1409 2516 
L 750 2516 
L 750 3309 
z
" transform="scale(0.015625)"/>
      <path id="DejaVuSans-70" d="M 1159 525 
L 1159 -1331 
L 581 -1331 
L 581 3500 
L 1159 3500 
L 1159 2969 
Q 1341 3281 1617 3432 
Q 1894 3584 2278 3584 
Q 2916 3584 3314 3078 
Q 3713 2572 3713 1747 
Q 3713 922 3314 415 
Q 2916 -91 2278 -91 
Q 1894 -91 1617 61 
Q 1341 213 1159 525 
z
M 3116 1747 
Q 3116 2381 2855 2742 
Q 2594 3103 2138 3103 
Q 1681 3103 1420 2742 
Q 1159 2381 1159 1747 
Q 1159 1113 1420 752 
Q 1681 391 2138 391 
Q 2594 391 2855 752 
Q 3116 1113 3116 1747 
z
" transform="scale(0.015625)"/>
      <path id="DejaVuSans-2c" d="M 750 794 
L 1409 794 
L 1409 256 
L 897 -744 
L 494 -744 
L 750 256 
L 750 794 
z
" transform="scale(0.015625)"/>
      <path id="DejaVuSans-43" d="M 4122 4306 
L 4122 3641 
Q 3803 3938 3442 4084 
Q 3081 4231 2675 4231 
Q 1875 4231 1450 3742 
Q 1025 3253 1025 2328 
Q 1025 1406 1450 917 
Q 1875 428 2675 428 
Q 3081 428 3442 575 
Q 3803 722 4122 1019 
L 4122 359 
Q 3791 134 3420 21 
Q 3050 -91 2638 -91 
Q 1578 -91 968 557 
Q 359 1206 359 2328 
Q 359 3453 968 4101 
Q 1578 4750 2638 4750 
Q 3056 4750 3426 4639 
Q 3797 4528 4122 4306 
z
" transform="scale(0.015625)"/>
      <path id="DejaVuSans-66" d="M 2375 4863 
L 2375 4384 
L 1825 4384 
Q 1516 4384 1395 4259 
Q 1275 4134 1275 3809 
L 1275 3500 
L 2222 3500 
L 2222 3053 
L 1275 3053 
L 1275 0 
L 697 0 
L 697 3053 
L 147 3053 
L 147 3500 
L 697 3500 
L 697 3744 
Q 697 4328 969 4595 
Q 1241 4863 1831 4863 
L 2375 4863 
z
" transform="scale(0.015625)"/>
      <path id="DejaVuSans-50" d="M 1259 4147 
L 1259 2394 
L 2053 2394 
Q 2494 2394 2734 2622 
Q 2975 2850 2975 3272 
Q 2975 3691 2734 3919 
Q 2494 4147 2053 4147 
L 1259 4147 
z
M 628 4666 
L 2053 4666 
Q 2838 4666 3239 4311 
Q 3641 3956 3641 3272 
Q 3641 2581 3239 2228 
Q 2838 1875 2053 1875 
L 1259 1875 
L 1259 0 
L 628 0 
L 628 4666 
z
" transform="scale(0.015625)"/>
     </defs>
     <use xlink:href="#DejaVuSans-44"/>
     <use xlink:href="#DejaVuSans-61" x="77.001953"/>
     <use xlink:href="#DejaVuSans-74" x="138.28125"/>
     <use xlink:href="#DejaVuSans-61" x="177.490234"/>
     <use xlink:href="#DejaVuSans-3a" x="238.769531"/>
     <use xlink:href="#DejaVuSans-20" x="272.460938"/>
     <use xlink:href="#DejaVuSans-53" x="304.248047"/>
     <use xlink:href="#DejaVuSans-70" x="367.724609"/>
     <use xlink:href="#DejaVuSans-72" x="431.201172"/>
     <use xlink:href="#DejaVuSans-61" x="472.314453"/>
     <use xlink:href="#DejaVuSans-74" x="533.59375"/>
     <use xlink:href="#DejaVuSans-74" x="572.802734"/>
     <use xlink:href="#DejaVuSans-20" x="612.011719"/>
     <use xlink:href="#DejaVuSans-61" x="643.798828"/>
     <use xlink:href="#DejaVuSans-6e" x="705.078125"/>
     <use xlink:href="#DejaVuSans-64" x="768.457031"/>
     <use xlink:href="#DejaVuSans-20" x="831.933594"/>
     <use xlink:href="#DejaVuSans-4c" x="863.720703"/>
     <use xlink:href="#DejaVuSans-69" x="919.433594"/>
     <use xlink:href="#DejaVuSans-73" x="947.216797"/>
     <use xlink:href="#DejaVuSans-69" x="999.316406"/>
     <use xlink:href="#DejaVuSans-65" x="1027.099609"/>
     <use xlink:href="#DejaVuSans-63" x="1088.623047"/>
     <use xlink:href="#DejaVuSans-6b" x="1143.603516"/>
     <use xlink:href="#DejaVuSans-69" x="1201.513672"/>
     <use xlink:href="#DejaVuSans-2c" x="1229.296875"/>
     <use xlink:href="#DejaVuSans-20" x="1261.083984"/>
     <use xlink:href="#DejaVuSans-32" x="1292.871094"/>
     <use xlink:href="#DejaVuSans-30" x="1356.494141"/>
     <use xlink:href="#DejaVuSans-31" x="1420.117188"/>
     <use xlink:href="#DejaVuSans-36" x="1483.740234"/>
     <use xlink:href="#DejaVuSans-20" x="1547.363281"/>
     <use xlink:href="#DejaVuSans-28" x="1579.150391"/>
     <use xlink:href="#DejaVuSans-43" x="1618.164062"/>
     <use xlink:href="#DejaVuSans-6c" x="1687.988281"/>
     <use xlink:href="#DejaVuSans-69" x="1715.771484"/>
     <use xlink:href="#DejaVuSans-6d" x="1743.554688"/>
     <use xlink:href="#DejaVuSans-61" x="1840.966797"/>
     <use xlink:href="#DejaVuSans-74" x="1902.246094"/>
     <use xlink:href="#DejaVuSans-65" x="1941.455078"/>
     <use xlink:href="#DejaVuSans-20" x="2002.978516"/>
     <use xlink:href="#DejaVuSans-6f" x="2034.765625"/>
     <use xlink:href="#DejaVuSans-66" x="2095.947266"/>
     <use xlink:href="#DejaVuSans-20" x="2131.152344"/>
     <use xlink:href="#DejaVuSans-74" x="2162.939453"/>
     <use xlink:href="#DejaVuSans-68" x="2202.148438"/>
     <use xlink:href="#DejaVuSans-65" x="2265.527344"/>
     <use xlink:href="#DejaVuSans-20" x="2327.050781"/>
     <use xlink:href="#DejaVuSans-50" x="2358.837891"/>
     <use xlink:href="#DejaVuSans-61" x="2414.640625"/>
     <use xlink:href="#DejaVuSans-73" x="2475.919922"/>
     <use xlink:href="#DejaVuSans-74" x="2528.019531"/>
     <use xlink:href="#DejaVuSans-29" x="2567.228516"/>
    </g>
   </g>
  </g>
 </g>
 <defs>
  <clipPath id="p00b64df932">
   <rect x="83.325" y="29.2" width="476.475" height="152.3"/>
  </clipPath>
  <clipPath id="p13a08d5757">
   <rect x="83.325" y="214.2" width="476.475" height="304.6"/>
  </clipPath>
 </defs>
</svg>
