<?xml version="1.0" encoding="utf-8" standalone="no"?>
<!DOCTYPE svg PUBLIC "-//W3C//DTD SVG 1.1//EN"
  "http://www.w3.org/Graphics/SVG/1.1/DTD/svg11.dtd">
<svg xmlns:xlink="http://www.w3.org/1999/xlink" width="1080pt" height="432pt" viewBox="0 0 1080 432" xmlns="http://www.w3.org/2000/svg" version="1.1">
 <metadata>
  <rdf:RDF xmlns:dc="http://purl.org/dc/elements/1.1/" xmlns:cc="http://creativecommons.org/ns#" xmlns:rdf="http://www.w3.org/1999/02/22-rdf-syntax-ns#">
   <cc:Work>
    <dc:type rdf:resource="http://purl.org/dc/dcmitype/StillImage"/>
    <dc:date>2022-06-08T12:10:09.452001</dc:date>
    <dc:format>image/svg+xml</dc:format>
    <dc:creator>
     <cc:Agent>
      <dc:title>Matplotlib v3.5.1, https://matplotlib.org/</dc:title>
     </cc:Agent>
    </dc:creator>
   </cc:Work>
  </rdf:RDF>
 </metadata>
 <defs>
  <style type="text/css">*{stroke-linejoin: round; stroke-linecap: butt}</style>
 </defs>
 <g id="figure_1">
  <g id="patch_1">
   <path d="M 0 432 
L 1080 432 
L 1080 0 
L 0 0 
L 0 432 
z
" style="fill: none"/>
  </g>
  <g id="axes_1">
   <g id="patch_2">
    <path d="M 135 378 
L 515.454545 378 
L 515.454545 51.84 
L 135 51.84 
z
" style="fill: #ffffff"/>
   </g>
   <g id="PolyCollection_1">
    <defs>
     <path id="mee646a942b" d="M 98.362522 -54.479531 
L 98.362522 -54 
L 100.358655 -54 
L 102.354788 -54 
L 104.350922 -54 
L 106.347055 -54 
L 108.343188 -54 
L 110.339321 -54 
L 112.335454 -54 
L 114.331587 -54 
L 116.327721 -54 
L 118.323854 -54 
L 120.319987 -54 
L 122.31612 -54 
L 124.312253 -54 
L 126.308386 -54 
L 128.304519 -54 
L 130.300653 -54 
L 132.296786 -54 
L 134.292919 -54 
L 136.289052 -54 
L 138.285185 -54 
L 140.281318 -54 
L 142.277452 -54 
L 144.273585 -54 
L 146.269718 -54 
L 148.265851 -54 
L 150.261984 -54 
L 152.258117 -54 
L 154.254251 -54 
L 156.250384 -54 
L 158.246517 -54 
L 160.24265 -54 
L 162.238783 -54 
L 164.234916 -54 
L 166.231049 -54 
L 168.227183 -54 
L 170.223316 -54 
L 172.219449 -54 
L 174.215582 -54 
L 176.211715 -54 
L 178.207848 -54 
L 180.203982 -54 
L 182.200115 -54 
L 184.196248 -54 
L 186.192381 -54 
L 188.188514 -54 
L 190.184647 -54 
L 192.180781 -54 
L 194.176914 -54 
L 196.173047 -54 
L 198.16918 -54 
L 200.165313 -54 
L 202.161446 -54 
L 204.157579 -54 
L 206.153713 -54 
L 208.149846 -54 
L 210.145979 -54 
L 212.142112 -54 
L 214.138245 -54 
L 216.134378 -54 
L 218.130512 -54 
L 220.126645 -54 
L 222.122778 -54 
L 224.118911 -54 
L 226.115044 -54 
L 228.111177 -54 
L 230.107311 -54 
L 232.103444 -54 
L 234.099577 -54 
L 236.09571 -54 
L 238.091843 -54 
L 240.087976 -54 
L 242.084109 -54 
L 244.080243 -54 
L 246.076376 -54 
L 248.072509 -54 
L 250.068642 -54 
L 252.064775 -54 
L 254.060908 -54 
L 256.057042 -54 
L 258.053175 -54 
L 260.049308 -54 
L 262.045441 -54 
L 264.041574 -54 
L 266.037707 -54 
L 268.033841 -54 
L 270.029974 -54 
L 272.026107 -54 
L 274.02224 -54 
L 276.018373 -54 
L 278.014506 -54 
L 280.010639 -54 
L 282.006773 -54 
L 284.002906 -54 
L 285.999039 -54 
L 287.995172 -54 
L 289.991305 -54 
L 291.987438 -54 
L 293.983572 -54 
L 295.979705 -54 
L 297.975838 -54 
L 299.971971 -54 
L 301.968104 -54 
L 303.964237 -54 
L 305.960371 -54 
L 307.956504 -54 
L 309.952637 -54 
L 311.94877 -54 
L 313.944903 -54 
L 315.941036 -54 
L 317.937169 -54 
L 319.933303 -54 
L 321.929436 -54 
L 323.925569 -54 
L 325.921702 -54 
L 327.917835 -54 
L 329.913968 -54 
L 331.910102 -54 
L 333.906235 -54 
L 335.902368 -54 
L 337.898501 -54 
L 339.894634 -54 
L 341.890767 -54 
L 343.886901 -54 
L 345.883034 -54 
L 347.879167 -54 
L 349.8753 -54 
L 351.871433 -54 
L 353.867566 -54 
L 355.863699 -54 
L 357.859833 -54 
L 359.855966 -54 
L 361.852099 -54 
L 363.848232 -54 
L 365.844365 -54 
L 367.840498 -54 
L 369.836632 -54 
L 371.832765 -54 
L 373.828898 -54 
L 375.825031 -54 
L 377.821164 -54 
L 379.817297 -54 
L 381.813431 -54 
L 383.809564 -54 
L 385.805697 -54 
L 387.80183 -54 
L 389.797963 -54 
L 391.794096 -54 
L 393.790229 -54 
L 395.786363 -54 
L 397.782496 -54 
L 399.778629 -54 
L 401.774762 -54 
L 403.770895 -54 
L 405.767028 -54 
L 407.763162 -54 
L 409.759295 -54 
L 411.755428 -54 
L 413.751561 -54 
L 415.747694 -54 
L 417.743827 -54 
L 419.739961 -54 
L 421.736094 -54 
L 423.732227 -54 
L 425.72836 -54 
L 427.724493 -54 
L 429.720626 -54 
L 431.716759 -54 
L 433.712893 -54 
L 435.709026 -54 
L 437.705159 -54 
L 439.701292 -54 
L 441.697425 -54 
L 443.693558 -54 
L 445.689692 -54 
L 447.685825 -54 
L 449.681958 -54 
L 451.678091 -54 
L 453.674224 -54 
L 455.670357 -54 
L 457.666491 -54 
L 459.662624 -54 
L 461.658757 -54 
L 463.65489 -54 
L 465.651023 -54 
L 467.647156 -54 
L 469.643289 -54 
L 471.639423 -54 
L 473.635556 -54 
L 475.631689 -54 
L 477.627822 -54 
L 479.623955 -54 
L 481.620088 -54 
L 483.616222 -54 
L 485.612355 -54 
L 487.608488 -54 
L 489.604621 -54 
L 491.600754 -54 
L 493.596887 -54 
L 495.593021 -54 
L 495.593021 -54.018069 
L 495.593021 -54.018069 
L 493.596887 -54.029545 
L 491.600754 -54.047123 
L 489.604621 -54.073331 
L 487.608488 -54.111375 
L 485.612355 -54.165142 
L 483.616222 -54.239146 
L 481.620088 -54.338362 
L 479.623955 -54.467966 
L 477.627822 -54.632984 
L 475.631689 -54.837861 
L 473.635556 -55.086026 
L 471.639423 -55.379479 
L 469.643289 -55.718486 
L 467.647156 -56.101413 
L 465.651023 -56.524746 
L 463.65489 -56.983271 
L 461.658757 -57.470407 
L 459.662624 -57.97861 
L 457.666491 -58.499819 
L 455.670357 -59.025847 
L 453.674224 -59.548736 
L 451.678091 -60.061029 
L 449.681958 -60.556016 
L 447.685825 -61.027972 
L 445.689692 -61.472416 
L 443.693558 -61.886388 
L 441.697425 -62.268705 
L 439.701292 -62.620128 
L 437.705159 -62.943347 
L 435.709026 -63.242714 
L 433.712893 -63.523706 
L 431.716759 -63.792156 
L 429.720626 -64.053365 
L 427.724493 -64.311275 
L 425.72836 -64.567878 
L 423.732227 -64.82302 
L 421.736094 -65.07467 
L 419.739961 -65.319627 
L 417.743827 -65.554534 
L 415.747694 -65.776976 
L 413.751561 -65.986461 
L 411.755428 -66.185109 
L 409.759295 -66.377977 
L 407.763162 -66.57309 
L 405.767028 -66.781341 
L 403.770895 -67.016476 
L 401.774762 -67.295334 
L 399.778629 -67.638383 
L 397.782496 -68.070394 
L 395.786363 -68.620892 
L 393.790229 -69.323868 
L 391.794096 -70.216198 
L 389.797963 -71.334359 
L 387.80183 -72.709328 
L 385.805697 -74.360026 
L 383.809564 -76.286134 
L 381.813431 -78.461576 
L 379.817297 -80.830183 
L 377.821164 -83.304966 
L 375.825031 -85.771981 
L 373.828898 -88.099043 
L 371.832765 -90.148545 
L 369.836632 -91.792764 
L 367.840498 -92.929338 
L 365.844365 -93.494344 
L 363.848232 -93.47073 
L 361.852099 -92.890605 
L 359.855966 -91.831034 
L 357.859833 -90.404116 
L 355.863699 -88.743174 
L 353.867566 -86.987401 
L 351.871433 -85.267426 
L 349.8753 -83.693838 
L 347.879167 -82.349932 
L 345.883034 -81.289083 
L 343.886901 -80.536291 
L 341.890767 -80.092847 
L 339.894634 -79.942754 
L 337.898501 -80.059563 
L 335.902368 -80.412508 
L 333.906235 -80.971219 
L 331.910102 -81.708704 
L 329.913968 -82.602675 
L 327.917835 -83.635512 
L 325.921702 -84.793327 
L 323.925569 -86.064619 
L 321.929436 -87.438951 
L 319.933303 -88.906045 
L 317.937169 -90.455576 
L 315.941036 -92.077863 
L 313.944903 -93.765561 
L 311.94877 -95.516266 
L 309.952637 -97.335791 
L 307.956504 -99.241609 
L 305.960371 -101.265731 
L 303.964237 -103.456137 
L 301.968104 -105.875817 
L 299.971971 -108.598677 
L 297.975838 -111.701919 
L 295.979705 -115.255177 
L 293.983572 -119.307369 
L 291.987438 -123.873028 
L 289.991305 -128.920418 
L 287.995172 -134.363974 
L 285.999039 -140.063317 
L 284.002906 -145.830312 
L 282.006773 -151.444329 
L 280.010639 -156.674368 
L 278.014506 -161.305217 
L 276.018373 -165.163771 
L 274.02224 -168.141256 
L 272.026107 -170.207611 
L 270.029974 -171.41558 
L 268.033841 -171.893907 
L 266.037707 -171.831004 
L 264.041574 -171.452154 
L 262.045441 -170.994252 
L 260.049308 -170.682188 
L 258.053175 -170.71014 
L 256.057042 -171.229652 
L 254.060908 -172.344692 
L 252.064775 -174.11243 
L 250.068642 -176.547558 
L 248.072509 -179.627833 
L 246.076376 -183.29902 
L 244.080243 -187.478471 
L 242.084109 -192.057744 
L 240.087976 -196.90556 
L 238.091843 -201.872785 
L 236.09571 -206.800773 
L 234.099577 -211.533446 
L 232.103444 -215.932235 
L 230.107311 -219.89175 
L 228.111177 -223.353358 
L 226.115044 -226.313883 
L 224.118911 -228.827536 
L 222.122778 -231.000663 
L 220.126645 -232.980602 
L 218.130512 -234.941264 
L 216.134378 -237.068653 
L 214.138245 -239.549065 
L 212.142112 -242.561385 
L 210.145979 -246.273005 
L 208.149846 -250.837118 
L 206.153713 -256.388093 
L 204.157579 -263.031743 
L 202.161446 -270.828801 
L 200.165313 -279.772436 
L 198.16918 -289.763563 
L 196.173047 -300.590228 
L 194.176914 -311.91844 
L 192.180781 -323.301027 
L 190.184647 -334.208211 
L 188.188514 -344.079061 
L 186.192381 -352.387848 
L 184.196248 -358.714893 
L 182.200115 -362.808958 
L 180.203982 -364.628571 
L 178.207848 -364.352991 
L 176.211715 -362.359173 
L 174.215582 -359.167853 
L 172.219449 -355.368029 
L 170.223316 -351.533145 
L 168.227183 -348.143342 
L 166.231049 -345.52592 
L 164.234916 -343.821566 
L 162.238783 -342.978178 
L 160.24265 -342.768839 
L 158.246517 -342.827024 
L 156.250384 -342.690898 
L 154.254251 -341.849711 
L 152.258117 -339.787742 
L 150.261984 -336.024006 
L 148.265851 -330.147864 
L 146.269718 -321.851207 
L 144.273585 -310.956986 
L 142.277452 -297.442164 
L 140.281318 -281.451625 
L 138.285185 -263.299 
L 136.289052 -243.451275 
L 134.292919 -222.496425 
L 132.296786 -201.096415 
L 130.300653 -179.93103 
L 128.304519 -159.640039 
L 126.308386 -140.771729 
L 124.312253 -123.744609 
L 122.31612 -108.82657 
L 120.319987 -96.132544 
L 118.323854 -85.638618 
L 116.327721 -77.208271 
L 114.331587 -70.625226 
L 112.335454 -65.627447 
L 110.339321 -61.937825 
L 108.343188 -59.288601 
L 106.347055 -57.43823 
L 104.350922 -56.180853 
L 102.354788 -55.349476 
L 100.358655 -54.814531 
L 98.362522 -54.479531 
z
" style="stroke: #1f77b4"/>
    </defs>
    <g clip-path="url(#p66e12b9587)">
     <use xlink:href="#mee646a942b" x="0" y="432" style="fill: #1f77b4; fill-opacity: 0.25; stroke: #1f77b4"/>
    </g>
   </g>
   <g id="matplotlib.axis_1">
    <g id="xtick_1">
     <g id="line2d_1">
      <defs>
       <path id="m548505a1e0" d="M 0 0 
L 0 3.5 
" style="stroke: #000000; stroke-width: 0.8"/>
      </defs>
      <g>
       <use xlink:href="#m548505a1e0" x="135" y="378" style="stroke: #000000; stroke-width: 0.8"/>
      </g>
     </g>
     <g id="text_1">
      <!-- 0 -->
      <g transform="translate(131.81875 392.598437)scale(0.1 -0.1)">
       <defs>
        <path id="DejaVuSans-30" d="M 2034 4250 
Q 1547 4250 1301 3770 
Q 1056 3291 1056 2328 
Q 1056 1369 1301 889 
Q 1547 409 2034 409 
Q 2525 409 2770 889 
Q 3016 1369 3016 2328 
Q 3016 3291 2770 3770 
Q 2525 4250 2034 4250 
z
M 2034 4750 
Q 2819 4750 3233 4129 
Q 3647 3509 3647 2328 
Q 3647 1150 3233 529 
Q 2819 -91 2034 -91 
Q 1250 -91 836 529 
Q 422 1150 422 2328 
Q 422 3509 836 4129 
Q 1250 4750 2034 4750 
z
" transform="scale(0.015625)"/>
       </defs>
       <use xlink:href="#DejaVuSans-30"/>
      </g>
     </g>
    </g>
    <g id="xtick_2">
     <g id="line2d_2">
      <g>
       <use xlink:href="#m548505a1e0" x="181.279363" y="378" style="stroke: #000000; stroke-width: 0.8"/>
      </g>
     </g>
     <g id="text_2">
      <!-- 1 -->
      <g transform="translate(178.098113 392.598437)scale(0.1 -0.1)">
       <defs>
        <path id="DejaVuSans-31" d="M 794 531 
L 1825 531 
L 1825 4091 
L 703 3866 
L 703 4441 
L 1819 4666 
L 2450 4666 
L 2450 531 
L 3481 531 
L 3481 0 
L 794 0 
L 794 531 
z
" transform="scale(0.015625)"/>
       </defs>
       <use xlink:href="#DejaVuSans-31"/>
      </g>
     </g>
    </g>
    <g id="xtick_3">
     <g id="line2d_3">
      <g>
       <use xlink:href="#m548505a1e0" x="227.558726" y="378" style="stroke: #000000; stroke-width: 0.8"/>
      </g>
     </g>
     <g id="text_3">
      <!-- 2 -->
      <g transform="translate(224.377476 392.598437)scale(0.1 -0.1)">
       <defs>
        <path id="DejaVuSans-32" d="M 1228 531 
L 3431 531 
L 3431 0 
L 469 0 
L 469 531 
Q 828 903 1448 1529 
Q 2069 2156 2228 2338 
Q 2531 2678 2651 2914 
Q 2772 3150 2772 3378 
Q 2772 3750 2511 3984 
Q 2250 4219 1831 4219 
Q 1534 4219 1204 4116 
Q 875 4013 500 3803 
L 500 4441 
Q 881 4594 1212 4672 
Q 1544 4750 1819 4750 
Q 2544 4750 2975 4387 
Q 3406 4025 3406 3419 
Q 3406 3131 3298 2873 
Q 3191 2616 2906 2266 
Q 2828 2175 2409 1742 
Q 1991 1309 1228 531 
z
" transform="scale(0.015625)"/>
       </defs>
       <use xlink:href="#DejaVuSans-32"/>
      </g>
     </g>
    </g>
    <g id="xtick_4">
     <g id="line2d_4">
      <g>
       <use xlink:href="#m548505a1e0" x="273.83809" y="378" style="stroke: #000000; stroke-width: 0.8"/>
      </g>
     </g>
     <g id="text_4">
      <!-- 3 -->
      <g transform="translate(270.65684 392.598437)scale(0.1 -0.1)">
       <defs>
        <path id="DejaVuSans-33" d="M 2597 2516 
Q 3050 2419 3304 2112 
Q 3559 1806 3559 1356 
Q 3559 666 3084 287 
Q 2609 -91 1734 -91 
Q 1441 -91 1130 -33 
Q 819 25 488 141 
L 488 750 
Q 750 597 1062 519 
Q 1375 441 1716 441 
Q 2309 441 2620 675 
Q 2931 909 2931 1356 
Q 2931 1769 2642 2001 
Q 2353 2234 1838 2234 
L 1294 2234 
L 1294 2753 
L 1863 2753 
Q 2328 2753 2575 2939 
Q 2822 3125 2822 3475 
Q 2822 3834 2567 4026 
Q 2313 4219 1838 4219 
Q 1578 4219 1281 4162 
Q 984 4106 628 3988 
L 628 4550 
Q 988 4650 1302 4700 
Q 1616 4750 1894 4750 
Q 2613 4750 3031 4423 
Q 3450 4097 3450 3541 
Q 3450 3153 3228 2886 
Q 3006 2619 2597 2516 
z
" transform="scale(0.015625)"/>
       </defs>
       <use xlink:href="#DejaVuSans-33"/>
      </g>
     </g>
    </g>
    <g id="xtick_5">
     <g id="line2d_5">
      <g>
       <use xlink:href="#m548505a1e0" x="320.117453" y="378" style="stroke: #000000; stroke-width: 0.8"/>
      </g>
     </g>
     <g id="text_5">
      <!-- 4 -->
      <g transform="translate(316.936203 392.598437)scale(0.1 -0.1)">
       <defs>
        <path id="DejaVuSans-34" d="M 2419 4116 
L 825 1625 
L 2419 1625 
L 2419 4116 
z
M 2253 4666 
L 3047 4666 
L 3047 1625 
L 3713 1625 
L 3713 1100 
L 3047 1100 
L 3047 0 
L 2419 0 
L 2419 1100 
L 313 1100 
L 313 1709 
L 2253 4666 
z
" transform="scale(0.015625)"/>
       </defs>
       <use xlink:href="#DejaVuSans-34"/>
      </g>
     </g>
    </g>
    <g id="xtick_6">
     <g id="line2d_6">
      <g>
       <use xlink:href="#m548505a1e0" x="366.396816" y="378" style="stroke: #000000; stroke-width: 0.8"/>
      </g>
     </g>
     <g id="text_6">
      <!-- 5 -->
      <g transform="translate(363.215566 392.598437)scale(0.1 -0.1)">
       <defs>
        <path id="DejaVuSans-35" d="M 691 4666 
L 3169 4666 
L 3169 4134 
L 1269 4134 
L 1269 2991 
Q 1406 3038 1543 3061 
Q 1681 3084 1819 3084 
Q 2600 3084 3056 2656 
Q 3513 2228 3513 1497 
Q 3513 744 3044 326 
Q 2575 -91 1722 -91 
Q 1428 -91 1123 -41 
Q 819 9 494 109 
L 494 744 
Q 775 591 1075 516 
Q 1375 441 1709 441 
Q 2250 441 2565 725 
Q 2881 1009 2881 1497 
Q 2881 1984 2565 2268 
Q 2250 2553 1709 2553 
Q 1456 2553 1204 2497 
Q 953 2441 691 2322 
L 691 4666 
z
" transform="scale(0.015625)"/>
       </defs>
       <use xlink:href="#DejaVuSans-35"/>
      </g>
     </g>
    </g>
    <g id="xtick_7">
     <g id="line2d_7">
      <g>
       <use xlink:href="#m548505a1e0" x="412.676179" y="378" style="stroke: #000000; stroke-width: 0.8"/>
      </g>
     </g>
     <g id="text_7">
      <!-- 6 -->
      <g transform="translate(409.494929 392.598437)scale(0.1 -0.1)">
       <defs>
        <path id="DejaVuSans-36" d="M 2113 2584 
Q 1688 2584 1439 2293 
Q 1191 2003 1191 1497 
Q 1191 994 1439 701 
Q 1688 409 2113 409 
Q 2538 409 2786 701 
Q 3034 994 3034 1497 
Q 3034 2003 2786 2293 
Q 2538 2584 2113 2584 
z
M 3366 4563 
L 3366 3988 
Q 3128 4100 2886 4159 
Q 2644 4219 2406 4219 
Q 1781 4219 1451 3797 
Q 1122 3375 1075 2522 
Q 1259 2794 1537 2939 
Q 1816 3084 2150 3084 
Q 2853 3084 3261 2657 
Q 3669 2231 3669 1497 
Q 3669 778 3244 343 
Q 2819 -91 2113 -91 
Q 1303 -91 875 529 
Q 447 1150 447 2328 
Q 447 3434 972 4092 
Q 1497 4750 2381 4750 
Q 2619 4750 2861 4703 
Q 3103 4656 3366 4563 
z
" transform="scale(0.015625)"/>
       </defs>
       <use xlink:href="#DejaVuSans-36"/>
      </g>
     </g>
    </g>
    <g id="xtick_8">
     <g id="line2d_8">
      <g>
       <use xlink:href="#m548505a1e0" x="458.955543" y="378" style="stroke: #000000; stroke-width: 0.8"/>
      </g>
     </g>
     <g id="text_8">
      <!-- 7 -->
      <g transform="translate(455.774293 392.598437)scale(0.1 -0.1)">
       <defs>
        <path id="DejaVuSans-37" d="M 525 4666 
L 3525 4666 
L 3525 4397 
L 1831 0 
L 1172 0 
L 2766 4134 
L 525 4134 
L 525 4666 
z
" transform="scale(0.015625)"/>
       </defs>
       <use xlink:href="#DejaVuSans-37"/>
      </g>
     </g>
    </g>
    <g id="xtick_9">
     <g id="line2d_9">
      <g>
       <use xlink:href="#m548505a1e0" x="505.234906" y="378" style="stroke: #000000; stroke-width: 0.8"/>
      </g>
     </g>
     <g id="text_9">
      <!-- 8 -->
      <g transform="translate(502.053656 392.598437)scale(0.1 -0.1)">
       <defs>
        <path id="DejaVuSans-38" d="M 2034 2216 
Q 1584 2216 1326 1975 
Q 1069 1734 1069 1313 
Q 1069 891 1326 650 
Q 1584 409 2034 409 
Q 2484 409 2743 651 
Q 3003 894 3003 1313 
Q 3003 1734 2745 1975 
Q 2488 2216 2034 2216 
z
M 1403 2484 
Q 997 2584 770 2862 
Q 544 3141 544 3541 
Q 544 4100 942 4425 
Q 1341 4750 2034 4750 
Q 2731 4750 3128 4425 
Q 3525 4100 3525 3541 
Q 3525 3141 3298 2862 
Q 3072 2584 2669 2484 
Q 3125 2378 3379 2068 
Q 3634 1759 3634 1313 
Q 3634 634 3220 271 
Q 2806 -91 2034 -91 
Q 1263 -91 848 271 
Q 434 634 434 1313 
Q 434 1759 690 2068 
Q 947 2378 1403 2484 
z
M 1172 3481 
Q 1172 3119 1398 2916 
Q 1625 2713 2034 2713 
Q 2441 2713 2670 2916 
Q 2900 3119 2900 3481 
Q 2900 3844 2670 4047 
Q 2441 4250 2034 4250 
Q 1625 4250 1398 4047 
Q 1172 3844 1172 3481 
z
" transform="scale(0.015625)"/>
       </defs>
       <use xlink:href="#DejaVuSans-38"/>
      </g>
     </g>
    </g>
    <g id="text_10">
     <!-- Elevation error (m) -->
     <g transform="translate(277.949148 406.276563)scale(0.1 -0.1)">
      <defs>
       <path id="DejaVuSans-45" d="M 628 4666 
L 3578 4666 
L 3578 4134 
L 1259 4134 
L 1259 2753 
L 3481 2753 
L 3481 2222 
L 1259 2222 
L 1259 531 
L 3634 531 
L 3634 0 
L 628 0 
L 628 4666 
z
" transform="scale(0.015625)"/>
       <path id="DejaVuSans-6c" d="M 603 4863 
L 1178 4863 
L 1178 0 
L 603 0 
L 603 4863 
z
" transform="scale(0.015625)"/>
       <path id="DejaVuSans-65" d="M 3597 1894 
L 3597 1613 
L 953 1613 
Q 991 1019 1311 708 
Q 1631 397 2203 397 
Q 2534 397 2845 478 
Q 3156 559 3463 722 
L 3463 178 
Q 3153 47 2828 -22 
Q 2503 -91 2169 -91 
Q 1331 -91 842 396 
Q 353 884 353 1716 
Q 353 2575 817 3079 
Q 1281 3584 2069 3584 
Q 2775 3584 3186 3129 
Q 3597 2675 3597 1894 
z
M 3022 2063 
Q 3016 2534 2758 2815 
Q 2500 3097 2075 3097 
Q 1594 3097 1305 2825 
Q 1016 2553 972 2059 
L 3022 2063 
z
" transform="scale(0.015625)"/>
       <path id="DejaVuSans-76" d="M 191 3500 
L 800 3500 
L 1894 563 
L 2988 3500 
L 3597 3500 
L 2284 0 
L 1503 0 
L 191 3500 
z
" transform="scale(0.015625)"/>
       <path id="DejaVuSans-61" d="M 2194 1759 
Q 1497 1759 1228 1600 
Q 959 1441 959 1056 
Q 959 750 1161 570 
Q 1363 391 1709 391 
Q 2188 391 2477 730 
Q 2766 1069 2766 1631 
L 2766 1759 
L 2194 1759 
z
M 3341 1997 
L 3341 0 
L 2766 0 
L 2766 531 
Q 2569 213 2275 61 
Q 1981 -91 1556 -91 
Q 1019 -91 701 211 
Q 384 513 384 1019 
Q 384 1609 779 1909 
Q 1175 2209 1959 2209 
L 2766 2209 
L 2766 2266 
Q 2766 2663 2505 2880 
Q 2244 3097 1772 3097 
Q 1472 3097 1187 3025 
Q 903 2953 641 2809 
L 641 3341 
Q 956 3463 1253 3523 
Q 1550 3584 1831 3584 
Q 2591 3584 2966 3190 
Q 3341 2797 3341 1997 
z
" transform="scale(0.015625)"/>
       <path id="DejaVuSans-74" d="M 1172 4494 
L 1172 3500 
L 2356 3500 
L 2356 3053 
L 1172 3053 
L 1172 1153 
Q 1172 725 1289 603 
Q 1406 481 1766 481 
L 2356 481 
L 2356 0 
L 1766 0 
Q 1100 0 847 248 
Q 594 497 594 1153 
L 594 3053 
L 172 3053 
L 172 3500 
L 594 3500 
L 594 4494 
L 1172 4494 
z
" transform="scale(0.015625)"/>
       <path id="DejaVuSans-69" d="M 603 3500 
L 1178 3500 
L 1178 0 
L 603 0 
L 603 3500 
z
M 603 4863 
L 1178 4863 
L 1178 4134 
L 603 4134 
L 603 4863 
z
" transform="scale(0.015625)"/>
       <path id="DejaVuSans-6f" d="M 1959 3097 
Q 1497 3097 1228 2736 
Q 959 2375 959 1747 
Q 959 1119 1226 758 
Q 1494 397 1959 397 
Q 2419 397 2687 759 
Q 2956 1122 2956 1747 
Q 2956 2369 2687 2733 
Q 2419 3097 1959 3097 
z
M 1959 3584 
Q 2709 3584 3137 3096 
Q 3566 2609 3566 1747 
Q 3566 888 3137 398 
Q 2709 -91 1959 -91 
Q 1206 -91 779 398 
Q 353 888 353 1747 
Q 353 2609 779 3096 
Q 1206 3584 1959 3584 
z
" transform="scale(0.015625)"/>
       <path id="DejaVuSans-6e" d="M 3513 2113 
L 3513 0 
L 2938 0 
L 2938 2094 
Q 2938 2591 2744 2837 
Q 2550 3084 2163 3084 
Q 1697 3084 1428 2787 
Q 1159 2491 1159 1978 
L 1159 0 
L 581 0 
L 581 3500 
L 1159 3500 
L 1159 2956 
Q 1366 3272 1645 3428 
Q 1925 3584 2291 3584 
Q 2894 3584 3203 3211 
Q 3513 2838 3513 2113 
z
" transform="scale(0.015625)"/>
       <path id="DejaVuSans-20" transform="scale(0.015625)"/>
       <path id="DejaVuSans-72" d="M 2631 2963 
Q 2534 3019 2420 3045 
Q 2306 3072 2169 3072 
Q 1681 3072 1420 2755 
Q 1159 2438 1159 1844 
L 1159 0 
L 581 0 
L 581 3500 
L 1159 3500 
L 1159 2956 
Q 1341 3275 1631 3429 
Q 1922 3584 2338 3584 
Q 2397 3584 2469 3576 
Q 2541 3569 2628 3553 
L 2631 2963 
z
" transform="scale(0.015625)"/>
       <path id="DejaVuSans-28" d="M 1984 4856 
Q 1566 4138 1362 3434 
Q 1159 2731 1159 2009 
Q 1159 1288 1364 580 
Q 1569 -128 1984 -844 
L 1484 -844 
Q 1016 -109 783 600 
Q 550 1309 550 2009 
Q 550 2706 781 3412 
Q 1013 4119 1484 4856 
L 1984 4856 
z
" transform="scale(0.015625)"/>
       <path id="DejaVuSans-6d" d="M 3328 2828 
Q 3544 3216 3844 3400 
Q 4144 3584 4550 3584 
Q 5097 3584 5394 3201 
Q 5691 2819 5691 2113 
L 5691 0 
L 5113 0 
L 5113 2094 
Q 5113 2597 4934 2840 
Q 4756 3084 4391 3084 
Q 3944 3084 3684 2787 
Q 3425 2491 3425 1978 
L 3425 0 
L 2847 0 
L 2847 2094 
Q 2847 2600 2669 2842 
Q 2491 3084 2119 3084 
Q 1678 3084 1418 2786 
Q 1159 2488 1159 1978 
L 1159 0 
L 581 0 
L 581 3500 
L 1159 3500 
L 1159 2956 
Q 1356 3278 1631 3431 
Q 1906 3584 2284 3584 
Q 2666 3584 2933 3390 
Q 3200 3197 3328 2828 
z
" transform="scale(0.015625)"/>
       <path id="DejaVuSans-29" d="M 513 4856 
L 1013 4856 
Q 1481 4119 1714 3412 
Q 1947 2706 1947 2009 
Q 1947 1309 1714 600 
Q 1481 -109 1013 -844 
L 513 -844 
Q 928 -128 1133 580 
Q 1338 1288 1338 2009 
Q 1338 2731 1133 3434 
Q 928 4138 513 4856 
z
" transform="scale(0.015625)"/>
      </defs>
      <use xlink:href="#DejaVuSans-45"/>
      <use xlink:href="#DejaVuSans-6c" x="63.183594"/>
      <use xlink:href="#DejaVuSans-65" x="90.966797"/>
      <use xlink:href="#DejaVuSans-76" x="152.490234"/>
      <use xlink:href="#DejaVuSans-61" x="211.669922"/>
      <use xlink:href="#DejaVuSans-74" x="272.949219"/>
      <use xlink:href="#DejaVuSans-69" x="312.158203"/>
      <use xlink:href="#DejaVuSans-6f" x="339.941406"/>
      <use xlink:href="#DejaVuSans-6e" x="401.123047"/>
      <use xlink:href="#DejaVuSans-20" x="464.501953"/>
      <use xlink:href="#DejaVuSans-65" x="496.289062"/>
      <use xlink:href="#DejaVuSans-72" x="557.8125"/>
      <use xlink:href="#DejaVuSans-72" x="597.175781"/>
      <use xlink:href="#DejaVuSans-6f" x="636.039062"/>
      <use xlink:href="#DejaVuSans-72" x="697.220703"/>
      <use xlink:href="#DejaVuSans-20" x="738.333984"/>
      <use xlink:href="#DejaVuSans-28" x="770.121094"/>
      <use xlink:href="#DejaVuSans-6d" x="809.134766"/>
      <use xlink:href="#DejaVuSans-29" x="906.546875"/>
     </g>
    </g>
   </g>
   <g id="matplotlib.axis_2">
    <g id="ytick_1">
     <g id="line2d_10">
      <defs>
       <path id="m2066af5309" d="M 0 0 
L -3.5 0 
" style="stroke: #000000; stroke-width: 0.8"/>
      </defs>
      <g>
       <use xlink:href="#m2066af5309" x="135" y="378" style="stroke: #000000; stroke-width: 0.8"/>
      </g>
     </g>
     <g id="text_11">
      <!-- 0.00 -->
      <g transform="translate(105.734375 381.799219)scale(0.1 -0.1)">
       <defs>
        <path id="DejaVuSans-2e" d="M 684 794 
L 1344 794 
L 1344 0 
L 684 0 
L 684 794 
z
" transform="scale(0.015625)"/>
       </defs>
       <use xlink:href="#DejaVuSans-30"/>
       <use xlink:href="#DejaVuSans-2e" x="63.623047"/>
       <use xlink:href="#DejaVuSans-30" x="95.410156"/>
       <use xlink:href="#DejaVuSans-30" x="159.033203"/>
      </g>
     </g>
    </g>
    <g id="ytick_2">
     <g id="line2d_11">
      <g>
       <use xlink:href="#m2066af5309" x="135" y="338.003263" style="stroke: #000000; stroke-width: 0.8"/>
      </g>
     </g>
     <g id="text_12">
      <!-- 0.05 -->
      <g transform="translate(105.734375 341.802482)scale(0.1 -0.1)">
       <use xlink:href="#DejaVuSans-30"/>
       <use xlink:href="#DejaVuSans-2e" x="63.623047"/>
       <use xlink:href="#DejaVuSans-30" x="95.410156"/>
       <use xlink:href="#DejaVuSans-35" x="159.033203"/>
      </g>
     </g>
    </g>
    <g id="ytick_3">
     <g id="line2d_12">
      <g>
       <use xlink:href="#m2066af5309" x="135" y="298.006526" style="stroke: #000000; stroke-width: 0.8"/>
      </g>
     </g>
     <g id="text_13">
      <!-- 0.10 -->
      <g transform="translate(105.734375 301.805745)scale(0.1 -0.1)">
       <use xlink:href="#DejaVuSans-30"/>
       <use xlink:href="#DejaVuSans-2e" x="63.623047"/>
       <use xlink:href="#DejaVuSans-31" x="95.410156"/>
       <use xlink:href="#DejaVuSans-30" x="159.033203"/>
      </g>
     </g>
    </g>
    <g id="ytick_4">
     <g id="line2d_13">
      <g>
       <use xlink:href="#m2066af5309" x="135" y="258.009789" style="stroke: #000000; stroke-width: 0.8"/>
      </g>
     </g>
     <g id="text_14">
      <!-- 0.15 -->
      <g transform="translate(105.734375 261.809008)scale(0.1 -0.1)">
       <use xlink:href="#DejaVuSans-30"/>
       <use xlink:href="#DejaVuSans-2e" x="63.623047"/>
       <use xlink:href="#DejaVuSans-31" x="95.410156"/>
       <use xlink:href="#DejaVuSans-35" x="159.033203"/>
      </g>
     </g>
    </g>
    <g id="ytick_5">
     <g id="line2d_14">
      <g>
       <use xlink:href="#m2066af5309" x="135" y="218.013052" style="stroke: #000000; stroke-width: 0.8"/>
      </g>
     </g>
     <g id="text_15">
      <!-- 0.20 -->
      <g transform="translate(105.734375 221.812271)scale(0.1 -0.1)">
       <use xlink:href="#DejaVuSans-30"/>
       <use xlink:href="#DejaVuSans-2e" x="63.623047"/>
       <use xlink:href="#DejaVuSans-32" x="95.410156"/>
       <use xlink:href="#DejaVuSans-30" x="159.033203"/>
      </g>
     </g>
    </g>
    <g id="ytick_6">
     <g id="line2d_15">
      <g>
       <use xlink:href="#m2066af5309" x="135" y="178.016315" style="stroke: #000000; stroke-width: 0.8"/>
      </g>
     </g>
     <g id="text_16">
      <!-- 0.25 -->
      <g transform="translate(105.734375 181.815534)scale(0.1 -0.1)">
       <use xlink:href="#DejaVuSans-30"/>
       <use xlink:href="#DejaVuSans-2e" x="63.623047"/>
       <use xlink:href="#DejaVuSans-32" x="95.410156"/>
       <use xlink:href="#DejaVuSans-35" x="159.033203"/>
      </g>
     </g>
    </g>
    <g id="ytick_7">
     <g id="line2d_16">
      <g>
       <use xlink:href="#m2066af5309" x="135" y="138.019578" style="stroke: #000000; stroke-width: 0.8"/>
      </g>
     </g>
     <g id="text_17">
      <!-- 0.30 -->
      <g transform="translate(105.734375 141.818797)scale(0.1 -0.1)">
       <use xlink:href="#DejaVuSans-30"/>
       <use xlink:href="#DejaVuSans-2e" x="63.623047"/>
       <use xlink:href="#DejaVuSans-33" x="95.410156"/>
       <use xlink:href="#DejaVuSans-30" x="159.033203"/>
      </g>
     </g>
    </g>
    <g id="ytick_8">
     <g id="line2d_17">
      <g>
       <use xlink:href="#m2066af5309" x="135" y="98.022841" style="stroke: #000000; stroke-width: 0.8"/>
      </g>
     </g>
     <g id="text_18">
      <!-- 0.35 -->
      <g transform="translate(105.734375 101.82206)scale(0.1 -0.1)">
       <use xlink:href="#DejaVuSans-30"/>
       <use xlink:href="#DejaVuSans-2e" x="63.623047"/>
       <use xlink:href="#DejaVuSans-33" x="95.410156"/>
       <use xlink:href="#DejaVuSans-35" x="159.033203"/>
      </g>
     </g>
    </g>
    <g id="ytick_9">
     <g id="line2d_18">
      <g>
       <use xlink:href="#m2066af5309" x="135" y="58.026104" style="stroke: #000000; stroke-width: 0.8"/>
      </g>
     </g>
     <g id="text_19">
      <!-- 0.40 -->
      <g transform="translate(105.734375 61.825323)scale(0.1 -0.1)">
       <use xlink:href="#DejaVuSans-30"/>
       <use xlink:href="#DejaVuSans-2e" x="63.623047"/>
       <use xlink:href="#DejaVuSans-34" x="95.410156"/>
       <use xlink:href="#DejaVuSans-30" x="159.033203"/>
      </g>
     </g>
    </g>
    <g id="text_20">
     <!-- Density -->
     <g transform="translate(99.654687 233.928594)rotate(-90)scale(0.1 -0.1)">
      <defs>
       <path id="DejaVuSans-44" d="M 1259 4147 
L 1259 519 
L 2022 519 
Q 2988 519 3436 956 
Q 3884 1394 3884 2338 
Q 3884 3275 3436 3711 
Q 2988 4147 2022 4147 
L 1259 4147 
z
M 628 4666 
L 1925 4666 
Q 3281 4666 3915 4102 
Q 4550 3538 4550 2338 
Q 4550 1131 3912 565 
Q 3275 0 1925 0 
L 628 0 
L 628 4666 
z
" transform="scale(0.015625)"/>
       <path id="DejaVuSans-73" d="M 2834 3397 
L 2834 2853 
Q 2591 2978 2328 3040 
Q 2066 3103 1784 3103 
Q 1356 3103 1142 2972 
Q 928 2841 928 2578 
Q 928 2378 1081 2264 
Q 1234 2150 1697 2047 
L 1894 2003 
Q 2506 1872 2764 1633 
Q 3022 1394 3022 966 
Q 3022 478 2636 193 
Q 2250 -91 1575 -91 
Q 1294 -91 989 -36 
Q 684 19 347 128 
L 347 722 
Q 666 556 975 473 
Q 1284 391 1588 391 
Q 1994 391 2212 530 
Q 2431 669 2431 922 
Q 2431 1156 2273 1281 
Q 2116 1406 1581 1522 
L 1381 1569 
Q 847 1681 609 1914 
Q 372 2147 372 2553 
Q 372 3047 722 3315 
Q 1072 3584 1716 3584 
Q 2034 3584 2315 3537 
Q 2597 3491 2834 3397 
z
" transform="scale(0.015625)"/>
       <path id="DejaVuSans-79" d="M 2059 -325 
Q 1816 -950 1584 -1140 
Q 1353 -1331 966 -1331 
L 506 -1331 
L 506 -850 
L 844 -850 
Q 1081 -850 1212 -737 
Q 1344 -625 1503 -206 
L 1606 56 
L 191 3500 
L 800 3500 
L 1894 763 
L 2988 3500 
L 3597 3500 
L 2059 -325 
z
" transform="scale(0.015625)"/>
      </defs>
      <use xlink:href="#DejaVuSans-44"/>
      <use xlink:href="#DejaVuSans-65" x="77.001953"/>
      <use xlink:href="#DejaVuSans-6e" x="138.525391"/>
      <use xlink:href="#DejaVuSans-73" x="201.904297"/>
      <use xlink:href="#DejaVuSans-69" x="254.003906"/>
      <use xlink:href="#DejaVuSans-74" x="281.787109"/>
      <use xlink:href="#DejaVuSans-79" x="320.996094"/>
     </g>
    </g>
   </g>
   <g id="patch_3">
    <path d="M 135 378 
L 135 51.84 
" style="fill: none; stroke: #000000; stroke-width: 0.8; stroke-linejoin: miter; stroke-linecap: square"/>
   </g>
   <g id="patch_4">
    <path d="M 515.454545 378 
L 515.454545 51.84 
" style="fill: none; stroke: #000000; stroke-width: 0.8; stroke-linejoin: miter; stroke-linecap: square"/>
   </g>
   <g id="patch_5">
    <path d="M 135 378 
L 515.454545 378 
" style="fill: none; stroke: #000000; stroke-width: 0.8; stroke-linejoin: miter; stroke-linecap: square"/>
   </g>
   <g id="patch_6">
    <path d="M 135 51.84 
L 515.454545 51.84 
" style="fill: none; stroke: #000000; stroke-width: 0.8; stroke-linejoin: miter; stroke-linecap: square"/>
   </g>
   <g id="text_21">
    <!-- Excluding outliers, avg= 1.67m -->
    <g transform="translate(230.793835 45.84)scale(0.12 -0.12)">
     <defs>
      <path id="DejaVuSans-78" d="M 3513 3500 
L 2247 1797 
L 3578 0 
L 2900 0 
L 1881 1375 
L 863 0 
L 184 0 
L 1544 1831 
L 300 3500 
L 978 3500 
L 1906 2253 
L 2834 3500 
L 3513 3500 
z
" transform="scale(0.015625)"/>
      <path id="DejaVuSans-63" d="M 3122 3366 
L 3122 2828 
Q 2878 2963 2633 3030 
Q 2388 3097 2138 3097 
Q 1578 3097 1268 2742 
Q 959 2388 959 1747 
Q 959 1106 1268 751 
Q 1578 397 2138 397 
Q 2388 397 2633 464 
Q 2878 531 3122 666 
L 3122 134 
Q 2881 22 2623 -34 
Q 2366 -91 2075 -91 
Q 1284 -91 818 406 
Q 353 903 353 1747 
Q 353 2603 823 3093 
Q 1294 3584 2113 3584 
Q 2378 3584 2631 3529 
Q 2884 3475 3122 3366 
z
" transform="scale(0.015625)"/>
      <path id="DejaVuSans-75" d="M 544 1381 
L 544 3500 
L 1119 3500 
L 1119 1403 
Q 1119 906 1312 657 
Q 1506 409 1894 409 
Q 2359 409 2629 706 
Q 2900 1003 2900 1516 
L 2900 3500 
L 3475 3500 
L 3475 0 
L 2900 0 
L 2900 538 
Q 2691 219 2414 64 
Q 2138 -91 1772 -91 
Q 1169 -91 856 284 
Q 544 659 544 1381 
z
M 1991 3584 
L 1991 3584 
z
" transform="scale(0.015625)"/>
      <path id="DejaVuSans-64" d="M 2906 2969 
L 2906 4863 
L 3481 4863 
L 3481 0 
L 2906 0 
L 2906 525 
Q 2725 213 2448 61 
Q 2172 -91 1784 -91 
Q 1150 -91 751 415 
Q 353 922 353 1747 
Q 353 2572 751 3078 
Q 1150 3584 1784 3584 
Q 2172 3584 2448 3432 
Q 2725 3281 2906 2969 
z
M 947 1747 
Q 947 1113 1208 752 
Q 1469 391 1925 391 
Q 2381 391 2643 752 
Q 2906 1113 2906 1747 
Q 2906 2381 2643 2742 
Q 2381 3103 1925 3103 
Q 1469 3103 1208 2742 
Q 947 2381 947 1747 
z
" transform="scale(0.015625)"/>
      <path id="DejaVuSans-67" d="M 2906 1791 
Q 2906 2416 2648 2759 
Q 2391 3103 1925 3103 
Q 1463 3103 1205 2759 
Q 947 2416 947 1791 
Q 947 1169 1205 825 
Q 1463 481 1925 481 
Q 2391 481 2648 825 
Q 2906 1169 2906 1791 
z
M 3481 434 
Q 3481 -459 3084 -895 
Q 2688 -1331 1869 -1331 
Q 1566 -1331 1297 -1286 
Q 1028 -1241 775 -1147 
L 775 -588 
Q 1028 -725 1275 -790 
Q 1522 -856 1778 -856 
Q 2344 -856 2625 -561 
Q 2906 -266 2906 331 
L 2906 616 
Q 2728 306 2450 153 
Q 2172 0 1784 0 
Q 1141 0 747 490 
Q 353 981 353 1791 
Q 353 2603 747 3093 
Q 1141 3584 1784 3584 
Q 2172 3584 2450 3431 
Q 2728 3278 2906 2969 
L 2906 3500 
L 3481 3500 
L 3481 434 
z
" transform="scale(0.015625)"/>
      <path id="DejaVuSans-2c" d="M 750 794 
L 1409 794 
L 1409 256 
L 897 -744 
L 494 -744 
L 750 256 
L 750 794 
z
" transform="scale(0.015625)"/>
      <path id="DejaVuSans-3d" d="M 678 2906 
L 4684 2906 
L 4684 2381 
L 678 2381 
L 678 2906 
z
M 678 1631 
L 4684 1631 
L 4684 1100 
L 678 1100 
L 678 1631 
z
" transform="scale(0.015625)"/>
     </defs>
     <use xlink:href="#DejaVuSans-45"/>
     <use xlink:href="#DejaVuSans-78" x="63.183594"/>
     <use xlink:href="#DejaVuSans-63" x="120.613281"/>
     <use xlink:href="#DejaVuSans-6c" x="175.59375"/>
     <use xlink:href="#DejaVuSans-75" x="203.376953"/>
     <use xlink:href="#DejaVuSans-64" x="266.755859"/>
     <use xlink:href="#DejaVuSans-69" x="330.232422"/>
     <use xlink:href="#DejaVuSans-6e" x="358.015625"/>
     <use xlink:href="#DejaVuSans-67" x="421.394531"/>
     <use xlink:href="#DejaVuSans-20" x="484.871094"/>
     <use xlink:href="#DejaVuSans-6f" x="516.658203"/>
     <use xlink:href="#DejaVuSans-75" x="577.839844"/>
     <use xlink:href="#DejaVuSans-74" x="641.21875"/>
     <use xlink:href="#DejaVuSans-6c" x="680.427734"/>
     <use xlink:href="#DejaVuSans-69" x="708.210938"/>
     <use xlink:href="#DejaVuSans-65" x="735.994141"/>
     <use xlink:href="#DejaVuSans-72" x="797.517578"/>
     <use xlink:href="#DejaVuSans-73" x="838.630859"/>
     <use xlink:href="#DejaVuSans-2c" x="890.730469"/>
     <use xlink:href="#DejaVuSans-20" x="922.517578"/>
     <use xlink:href="#DejaVuSans-61" x="954.304688"/>
     <use xlink:href="#DejaVuSans-76" x="1015.583984"/>
     <use xlink:href="#DejaVuSans-67" x="1074.763672"/>
     <use xlink:href="#DejaVuSans-3d" x="1138.240234"/>
     <use xlink:href="#DejaVuSans-20" x="1222.029297"/>
     <use xlink:href="#DejaVuSans-31" x="1253.816406"/>
     <use xlink:href="#DejaVuSans-2e" x="1317.439453"/>
     <use xlink:href="#DejaVuSans-36" x="1349.226562"/>
     <use xlink:href="#DejaVuSans-37" x="1412.849609"/>
     <use xlink:href="#DejaVuSans-6d" x="1476.472656"/>
    </g>
   </g>
  </g>
  <g id="axes_2">
   <g id="patch_7">
    <path d="M 591.545455 378 
L 972 378 
L 972 51.84 
L 591.545455 51.84 
z
" style="fill: #ffffff"/>
   </g>
   <g id="PolyCollection_2">
    <defs>
     <path id="m122e2cddd3" d="M 580.712435 -54.773665 
L 580.712435 -54 
L 582.585073 -54 
L 584.45771 -54 
L 586.330347 -54 
L 588.202985 -54 
L 590.075622 -54 
L 591.948259 -54 
L 593.820897 -54 
L 595.693534 -54 
L 597.566171 -54 
L 599.438808 -54 
L 601.311446 -54 
L 603.184083 -54 
L 605.05672 -54 
L 606.929358 -54 
L 608.801995 -54 
L 610.674632 -54 
L 612.54727 -54 
L 614.419907 -54 
L 616.292544 -54 
L 618.165182 -54 
L 620.037819 -54 
L 621.910456 -54 
L 623.783093 -54 
L 625.655731 -54 
L 627.528368 -54 
L 629.401005 -54 
L 631.273643 -54 
L 633.14628 -54 
L 635.018917 -54 
L 636.891555 -54 
L 638.764192 -54 
L 640.636829 -54 
L 642.509466 -54 
L 644.382104 -54 
L 646.254741 -54 
L 648.127378 -54 
L 650.000016 -54 
L 651.872653 -54 
L 653.74529 -54 
L 655.617928 -54 
L 657.490565 -54 
L 659.363202 -54 
L 661.235839 -54 
L 663.108477 -54 
L 664.981114 -54 
L 666.853751 -54 
L 668.726389 -54 
L 670.599026 -54 
L 672.471663 -54 
L 674.344301 -54 
L 676.216938 -54 
L 678.089575 -54 
L 679.962213 -54 
L 681.83485 -54 
L 683.707487 -54 
L 685.580124 -54 
L 687.452762 -54 
L 689.325399 -54 
L 691.198036 -54 
L 693.070674 -54 
L 694.943311 -54 
L 696.815948 -54 
L 698.688586 -54 
L 700.561223 -54 
L 702.43386 -54 
L 704.306497 -54 
L 706.179135 -54 
L 708.051772 -54 
L 709.924409 -54 
L 711.797047 -54 
L 713.669684 -54 
L 715.542321 -54 
L 717.414959 -54 
L 719.287596 -54 
L 721.160233 -54 
L 723.032871 -54 
L 724.905508 -54 
L 726.778145 -54 
L 728.650782 -54 
L 730.52342 -54 
L 732.396057 -54 
L 734.268694 -54 
L 736.141332 -54 
L 738.013969 -54 
L 739.886606 -54 
L 741.759244 -54 
L 743.631881 -54 
L 745.504518 -54 
L 747.377155 -54 
L 749.249793 -54 
L 751.12243 -54 
L 752.995067 -54 
L 754.867705 -54 
L 756.740342 -54 
L 758.612979 -54 
L 760.485617 -54 
L 762.358254 -54 
L 764.230891 -54 
L 766.103528 -54 
L 767.976166 -54 
L 769.848803 -54 
L 771.72144 -54 
L 773.594078 -54 
L 775.466715 -54 
L 777.339352 -54 
L 779.21199 -54 
L 781.084627 -54 
L 782.957264 -54 
L 784.829902 -54 
L 786.702539 -54 
L 788.575176 -54 
L 790.447813 -54 
L 792.320451 -54 
L 794.193088 -54 
L 796.065725 -54 
L 797.938363 -54 
L 799.811 -54 
L 801.683637 -54 
L 803.556275 -54 
L 805.428912 -54 
L 807.301549 -54 
L 809.174186 -54 
L 811.046824 -54 
L 812.919461 -54 
L 814.792098 -54 
L 816.664736 -54 
L 818.537373 -54 
L 820.41001 -54 
L 822.282648 -54 
L 824.155285 -54 
L 826.027922 -54 
L 827.900559 -54 
L 829.773197 -54 
L 831.645834 -54 
L 833.518471 -54 
L 835.391109 -54 
L 837.263746 -54 
L 839.136383 -54 
L 841.009021 -54 
L 842.881658 -54 
L 844.754295 -54 
L 846.626933 -54 
L 848.49957 -54 
L 850.372207 -54 
L 852.244844 -54 
L 854.117482 -54 
L 855.990119 -54 
L 857.862756 -54 
L 859.735394 -54 
L 861.608031 -54 
L 863.480668 -54 
L 865.353306 -54 
L 867.225943 -54 
L 869.09858 -54 
L 870.971217 -54 
L 872.843855 -54 
L 874.716492 -54 
L 876.589129 -54 
L 878.461767 -54 
L 880.334404 -54 
L 882.207041 -54 
L 884.079679 -54 
L 885.952316 -54 
L 887.824953 -54 
L 889.697591 -54 
L 891.570228 -54 
L 893.442865 -54 
L 895.315502 -54 
L 897.18814 -54 
L 899.060777 -54 
L 900.933414 -54 
L 902.806052 -54 
L 904.678689 -54 
L 906.551326 -54 
L 908.423964 -54 
L 910.296601 -54 
L 912.169238 -54 
L 914.041875 -54 
L 915.914513 -54 
L 917.78715 -54 
L 919.659787 -54 
L 921.532425 -54 
L 923.405062 -54 
L 925.277699 -54 
L 927.150337 -54 
L 929.022974 -54 
L 930.895611 -54 
L 932.768248 -54 
L 934.640886 -54 
L 936.513523 -54 
L 938.38616 -54 
L 940.258798 -54 
L 942.131435 -54 
L 944.004072 -54 
L 945.87671 -54 
L 947.749347 -54 
L 949.621984 -54 
L 951.494622 -54 
L 953.367259 -54 
L 953.367259 -54.001158 
L 953.367259 -54.001158 
L 951.494622 -54.004798 
L 949.621984 -54.01519 
L 947.749347 -54.036747 
L 945.87671 -54.067934 
L 944.004072 -54.095976 
L 942.131435 -54.103619 
L 940.258798 -54.085492 
L 938.38616 -54.053923 
L 936.513523 -54.026135 
L 934.640886 -54.010492 
L 932.768248 -54.006689 
L 930.895611 -54.013721 
L 929.022974 -54.033105 
L 927.150337 -54.063374 
L 925.277699 -54.092945 
L 923.405062 -54.104186 
L 921.532425 -54.089248 
L 919.659787 -54.058424 
L 917.78715 -54.029227 
L 915.914513 -54.011173 
L 914.041875 -54.003264 
L 912.169238 -54.000729 
L 910.296601 -54.000124 
L 908.423964 -54.000016 
L 906.551326 -54.000002 
L 904.678689 -54.000006 
L 902.806052 -54.000053 
L 900.933414 -54.000347 
L 899.060777 -54.00175 
L 897.18814 -54.00675 
L 895.315502 -54.019948 
L 893.442865 -54.045335 
L 891.570228 -54.080001 
L 889.697591 -54.112147 
L 887.824953 -54.130913 
L 885.952316 -54.136814 
L 884.079679 -54.135379 
L 882.207041 -54.124578 
L 880.334404 -54.099254 
L 878.461767 -54.064268 
L 876.589129 -54.032653 
L 874.716492 -54.012814 
L 872.843855 -54.003859 
L 870.971217 -54.00089 
L 869.09858 -54.000158 
L 867.225943 -54.000034 
L 865.353306 -54.000104 
L 863.480668 -54.000615 
L 861.608031 -54.002831 
L 859.735394 -54.009963 
L 857.862756 -54.026795 
L 855.990119 -54.055071 
L 854.117482 -54.086504 
L 852.244844 -54.103884 
L 850.372207 -54.095649 
L 848.49957 -54.068816 
L 846.626933 -54.043478 
L 844.754295 -54.036685 
L 842.881658 -54.052711 
L 841.009021 -54.081595 
L 839.136383 -54.10412 
L 837.263746 -54.106463 
L 835.391109 -54.09455 
L 833.518471 -54.087921 
L 831.645834 -54.096237 
L 829.773197 -54.107278 
L 827.900559 -54.101926 
L 826.027922 -54.076383 
L 824.155285 -54.044111 
L 822.282648 -54.019509 
L 820.41001 -54.006598 
L 818.537373 -54.001705 
L 816.664736 -54.000337 
L 814.792098 -54.000051 
L 812.919461 -54.00001 
L 811.046824 -54.00004 
L 809.174186 -54.000277 
L 807.301549 -54.001503 
L 805.428912 -54.006301 
L 803.556275 -54.020587 
L 801.683637 -54.052923 
L 799.811 -54.10874 
L 797.938363 -54.182932 
L 796.065725 -54.260688 
L 794.193088 -54.327485 
L 792.320451 -54.375191 
L 790.447813 -54.398227 
L 788.575176 -54.38919 
L 786.702539 -54.341762 
L 784.829902 -54.260075 
L 782.957264 -54.165051 
L 781.084627 -54.084606 
L 779.21199 -54.034293 
L 777.339352 -54.011106 
L 775.466715 -54.004223 
L 773.594078 -54.006738 
L 771.72144 -54.01876 
L 769.848803 -54.042744 
L 767.976166 -54.074679 
L 766.103528 -54.099725 
L 764.230891 -54.101775 
L 762.358254 -54.07942 
L 760.485617 -54.047662 
L 758.612979 -54.023363 
L 756.740342 -54.01447 
L 754.867705 -54.022415 
L 752.995067 -54.046301 
L 751.12243 -54.079838 
L 749.249793 -54.109428 
L 747.377155 -54.124214 
L 745.504518 -54.127315 
L 743.631881 -54.128936 
L 741.759244 -54.131828 
L 739.886606 -54.136464 
L 738.013969 -54.157284 
L 736.141332 -54.215005 
L 734.268694 -54.308772 
L 732.396057 -54.413072 
L 730.52342 -54.508136 
L 728.650782 -54.592569 
L 726.778145 -54.658886 
L 724.905508 -54.685169 
L 723.032871 -54.663528 
L 721.160233 -54.615738 
L 719.287596 -54.576465 
L 717.414959 -54.569689 
L 715.542321 -54.590092 
L 713.669684 -54.604227 
L 711.797047 -54.583219 
L 709.924409 -54.530935 
L 708.051772 -54.474217 
L 706.179135 -54.436349 
L 704.306497 -54.422371 
L 702.43386 -54.421623 
L 700.561223 -54.424435 
L 698.688586 -54.434309 
L 696.815948 -54.456462 
L 694.943311 -54.483028 
L 693.070674 -54.50163 
L 691.198036 -54.511493 
L 689.325399 -54.52651 
L 687.452762 -54.567167 
L 685.580124 -54.642209 
L 683.707487 -54.736522 
L 681.83485 -54.829641 
L 679.962213 -54.922685 
L 678.089575 -55.03731 
L 676.216938 -55.187984 
L 674.344301 -55.346366 
L 672.471663 -55.439127 
L 670.599026 -55.411641 
L 668.726389 -55.291533 
L 666.853751 -55.170207 
L 664.981114 -55.141159 
L 663.108477 -55.256546 
L 661.235839 -55.491035 
L 659.363202 -55.734878 
L 657.490565 -55.873746 
L 655.617928 -55.898121 
L 653.74529 -55.907459 
L 651.872653 -56.001703 
L 650.000016 -56.197097 
L 648.127378 -56.44824 
L 646.254741 -56.71045 
L 644.382104 -56.962172 
L 642.509466 -57.196773 
L 640.636829 -57.413028 
L 638.764192 -57.600918 
L 636.891555 -57.72853 
L 635.018917 -57.761424 
L 633.14628 -57.728784 
L 631.273643 -57.774546 
L 629.401005 -58.110787 
L 627.528368 -58.921382 
L 625.655731 -60.311307 
L 623.783093 -62.237867 
L 621.910456 -64.393662 
L 620.037819 -66.27345 
L 618.165182 -67.526296 
L 616.292544 -68.286457 
L 614.419907 -69.262499 
L 612.54727 -71.651052 
L 610.674632 -76.862306 
L 608.801995 -86.206309 
L 606.929358 -101.16739 
L 605.05672 -124.300754 
L 603.184083 -159.206108 
L 601.311446 -208.175666 
L 599.438808 -268.242755 
L 597.566171 -327.447021 
L 595.693534 -364.628571 
L 593.820897 -358.483114 
L 591.948259 -304.495668 
L 590.075622 -223.136462 
L 588.202985 -146.157063 
L 586.330347 -94.017523 
L 584.45771 -67.720975 
L 582.585073 -57.689076 
L 580.712435 -54.773665 
z
" style="stroke: #1f77b4"/>
    </defs>
    <g clip-path="url(#p3063cadc0d)">
     <use xlink:href="#m122e2cddd3" x="0" y="432" style="fill: #1f77b4; fill-opacity: 0.25; stroke: #1f77b4"/>
    </g>
   </g>
   <g id="matplotlib.axis_3">
    <g id="xtick_10">
     <g id="line2d_19">
      <g>
       <use xlink:href="#m548505a1e0" x="591.545455" y="378" style="stroke: #000000; stroke-width: 0.8"/>
      </g>
     </g>
     <g id="text_22">
      <!-- 0 -->
      <g transform="translate(588.364205 392.598437)scale(0.1 -0.1)">
       <use xlink:href="#DejaVuSans-30"/>
      </g>
     </g>
    </g>
    <g id="xtick_11">
     <g id="line2d_20">
      <g>
       <use xlink:href="#m548505a1e0" x="649.0846" y="378" style="stroke: #000000; stroke-width: 0.8"/>
      </g>
     </g>
     <g id="text_23">
      <!-- 20 -->
      <g transform="translate(642.7221 392.598437)scale(0.1 -0.1)">
       <use xlink:href="#DejaVuSans-32"/>
       <use xlink:href="#DejaVuSans-30" x="63.623047"/>
      </g>
     </g>
    </g>
    <g id="xtick_12">
     <g id="line2d_21">
      <g>
       <use xlink:href="#m548505a1e0" x="706.623745" y="378" style="stroke: #000000; stroke-width: 0.8"/>
      </g>
     </g>
     <g id="text_24">
      <!-- 40 -->
      <g transform="translate(700.261245 392.598437)scale(0.1 -0.1)">
       <use xlink:href="#DejaVuSans-34"/>
       <use xlink:href="#DejaVuSans-30" x="63.623047"/>
      </g>
     </g>
    </g>
    <g id="xtick_13">
     <g id="line2d_22">
      <g>
       <use xlink:href="#m548505a1e0" x="764.16289" y="378" style="stroke: #000000; stroke-width: 0.8"/>
      </g>
     </g>
     <g id="text_25">
      <!-- 60 -->
      <g transform="translate(757.80039 392.598437)scale(0.1 -0.1)">
       <use xlink:href="#DejaVuSans-36"/>
       <use xlink:href="#DejaVuSans-30" x="63.623047"/>
      </g>
     </g>
    </g>
    <g id="xtick_14">
     <g id="line2d_23">
      <g>
       <use xlink:href="#m548505a1e0" x="821.702035" y="378" style="stroke: #000000; stroke-width: 0.8"/>
      </g>
     </g>
     <g id="text_26">
      <!-- 80 -->
      <g transform="translate(815.339535 392.598437)scale(0.1 -0.1)">
       <use xlink:href="#DejaVuSans-38"/>
       <use xlink:href="#DejaVuSans-30" x="63.623047"/>
      </g>
     </g>
    </g>
    <g id="xtick_15">
     <g id="line2d_24">
      <g>
       <use xlink:href="#m548505a1e0" x="879.24118" y="378" style="stroke: #000000; stroke-width: 0.8"/>
      </g>
     </g>
     <g id="text_27">
      <!-- 100 -->
      <g transform="translate(869.69743 392.598437)scale(0.1 -0.1)">
       <use xlink:href="#DejaVuSans-31"/>
       <use xlink:href="#DejaVuSans-30" x="63.623047"/>
       <use xlink:href="#DejaVuSans-30" x="127.246094"/>
      </g>
     </g>
    </g>
    <g id="xtick_16">
     <g id="line2d_25">
      <g>
       <use xlink:href="#m548505a1e0" x="936.780325" y="378" style="stroke: #000000; stroke-width: 0.8"/>
      </g>
     </g>
     <g id="text_28">
      <!-- 120 -->
      <g transform="translate(927.236575 392.598437)scale(0.1 -0.1)">
       <use xlink:href="#DejaVuSans-31"/>
       <use xlink:href="#DejaVuSans-32" x="63.623047"/>
       <use xlink:href="#DejaVuSans-30" x="127.246094"/>
      </g>
     </g>
    </g>
    <g id="text_29">
     <!-- Elevation error (m) -->
     <g transform="translate(734.494602 406.276563)scale(0.1 -0.1)">
      <use xlink:href="#DejaVuSans-45"/>
      <use xlink:href="#DejaVuSans-6c" x="63.183594"/>
      <use xlink:href="#DejaVuSans-65" x="90.966797"/>
      <use xlink:href="#DejaVuSans-76" x="152.490234"/>
      <use xlink:href="#DejaVuSans-61" x="211.669922"/>
      <use xlink:href="#DejaVuSans-74" x="272.949219"/>
      <use xlink:href="#DejaVuSans-69" x="312.158203"/>
      <use xlink:href="#DejaVuSans-6f" x="339.941406"/>
      <use xlink:href="#DejaVuSans-6e" x="401.123047"/>
      <use xlink:href="#DejaVuSans-20" x="464.501953"/>
      <use xlink:href="#DejaVuSans-65" x="496.289062"/>
      <use xlink:href="#DejaVuSans-72" x="557.8125"/>
      <use xlink:href="#DejaVuSans-72" x="597.175781"/>
      <use xlink:href="#DejaVuSans-6f" x="636.039062"/>
      <use xlink:href="#DejaVuSans-72" x="697.220703"/>
      <use xlink:href="#DejaVuSans-20" x="738.333984"/>
      <use xlink:href="#DejaVuSans-28" x="770.121094"/>
      <use xlink:href="#DejaVuSans-6d" x="809.134766"/>
      <use xlink:href="#DejaVuSans-29" x="906.546875"/>
     </g>
    </g>
   </g>
   <g id="matplotlib.axis_4">
    <g id="ytick_10">
     <g id="line2d_26">
      <g>
       <use xlink:href="#m2066af5309" x="591.545455" y="378" style="stroke: #000000; stroke-width: 0.8"/>
      </g>
     </g>
     <g id="text_30">
      <!-- 0.000 -->
      <g transform="translate(555.91733 381.799219)scale(0.1 -0.1)">
       <use xlink:href="#DejaVuSans-30"/>
       <use xlink:href="#DejaVuSans-2e" x="63.623047"/>
       <use xlink:href="#DejaVuSans-30" x="95.410156"/>
       <use xlink:href="#DejaVuSans-30" x="159.033203"/>
       <use xlink:href="#DejaVuSans-30" x="222.65625"/>
      </g>
     </g>
    </g>
    <g id="ytick_11">
     <g id="line2d_27">
      <g>
       <use xlink:href="#m2066af5309" x="591.545455" y="340.661061" style="stroke: #000000; stroke-width: 0.8"/>
      </g>
     </g>
     <g id="text_31">
      <!-- 0.025 -->
      <g transform="translate(555.91733 344.46028)scale(0.1 -0.1)">
       <use xlink:href="#DejaVuSans-30"/>
       <use xlink:href="#DejaVuSans-2e" x="63.623047"/>
       <use xlink:href="#DejaVuSans-30" x="95.410156"/>
       <use xlink:href="#DejaVuSans-32" x="159.033203"/>
       <use xlink:href="#DejaVuSans-35" x="222.65625"/>
      </g>
     </g>
    </g>
    <g id="ytick_12">
     <g id="line2d_28">
      <g>
       <use xlink:href="#m2066af5309" x="591.545455" y="303.322122" style="stroke: #000000; stroke-width: 0.8"/>
      </g>
     </g>
     <g id="text_32">
      <!-- 0.050 -->
      <g transform="translate(555.91733 307.121341)scale(0.1 -0.1)">
       <use xlink:href="#DejaVuSans-30"/>
       <use xlink:href="#DejaVuSans-2e" x="63.623047"/>
       <use xlink:href="#DejaVuSans-30" x="95.410156"/>
       <use xlink:href="#DejaVuSans-35" x="159.033203"/>
       <use xlink:href="#DejaVuSans-30" x="222.65625"/>
      </g>
     </g>
    </g>
    <g id="ytick_13">
     <g id="line2d_29">
      <g>
       <use xlink:href="#m2066af5309" x="591.545455" y="265.983183" style="stroke: #000000; stroke-width: 0.8"/>
      </g>
     </g>
     <g id="text_33">
      <!-- 0.075 -->
      <g transform="translate(555.91733 269.782401)scale(0.1 -0.1)">
       <use xlink:href="#DejaVuSans-30"/>
       <use xlink:href="#DejaVuSans-2e" x="63.623047"/>
       <use xlink:href="#DejaVuSans-30" x="95.410156"/>
       <use xlink:href="#DejaVuSans-37" x="159.033203"/>
       <use xlink:href="#DejaVuSans-35" x="222.65625"/>
      </g>
     </g>
    </g>
    <g id="ytick_14">
     <g id="line2d_30">
      <g>
       <use xlink:href="#m2066af5309" x="591.545455" y="228.644244" style="stroke: #000000; stroke-width: 0.8"/>
      </g>
     </g>
     <g id="text_34">
      <!-- 0.100 -->
      <g transform="translate(555.91733 232.443462)scale(0.1 -0.1)">
       <use xlink:href="#DejaVuSans-30"/>
       <use xlink:href="#DejaVuSans-2e" x="63.623047"/>
       <use xlink:href="#DejaVuSans-31" x="95.410156"/>
       <use xlink:href="#DejaVuSans-30" x="159.033203"/>
       <use xlink:href="#DejaVuSans-30" x="222.65625"/>
      </g>
     </g>
    </g>
    <g id="ytick_15">
     <g id="line2d_31">
      <g>
       <use xlink:href="#m2066af5309" x="591.545455" y="191.305304" style="stroke: #000000; stroke-width: 0.8"/>
      </g>
     </g>
     <g id="text_35">
      <!-- 0.125 -->
      <g transform="translate(555.91733 195.104523)scale(0.1 -0.1)">
       <use xlink:href="#DejaVuSans-30"/>
       <use xlink:href="#DejaVuSans-2e" x="63.623047"/>
       <use xlink:href="#DejaVuSans-31" x="95.410156"/>
       <use xlink:href="#DejaVuSans-32" x="159.033203"/>
       <use xlink:href="#DejaVuSans-35" x="222.65625"/>
      </g>
     </g>
    </g>
    <g id="ytick_16">
     <g id="line2d_32">
      <g>
       <use xlink:href="#m2066af5309" x="591.545455" y="153.966365" style="stroke: #000000; stroke-width: 0.8"/>
      </g>
     </g>
     <g id="text_36">
      <!-- 0.150 -->
      <g transform="translate(555.91733 157.765584)scale(0.1 -0.1)">
       <use xlink:href="#DejaVuSans-30"/>
       <use xlink:href="#DejaVuSans-2e" x="63.623047"/>
       <use xlink:href="#DejaVuSans-31" x="95.410156"/>
       <use xlink:href="#DejaVuSans-35" x="159.033203"/>
       <use xlink:href="#DejaVuSans-30" x="222.65625"/>
      </g>
     </g>
    </g>
    <g id="ytick_17">
     <g id="line2d_33">
      <g>
       <use xlink:href="#m2066af5309" x="591.545455" y="116.627426" style="stroke: #000000; stroke-width: 0.8"/>
      </g>
     </g>
     <g id="text_37">
      <!-- 0.175 -->
      <g transform="translate(555.91733 120.426645)scale(0.1 -0.1)">
       <use xlink:href="#DejaVuSans-30"/>
       <use xlink:href="#DejaVuSans-2e" x="63.623047"/>
       <use xlink:href="#DejaVuSans-31" x="95.410156"/>
       <use xlink:href="#DejaVuSans-37" x="159.033203"/>
       <use xlink:href="#DejaVuSans-35" x="222.65625"/>
      </g>
     </g>
    </g>
    <g id="ytick_18">
     <g id="line2d_34">
      <g>
       <use xlink:href="#m2066af5309" x="591.545455" y="79.288487" style="stroke: #000000; stroke-width: 0.8"/>
      </g>
     </g>
     <g id="text_38">
      <!-- 0.200 -->
      <g transform="translate(555.91733 83.087706)scale(0.1 -0.1)">
       <use xlink:href="#DejaVuSans-30"/>
       <use xlink:href="#DejaVuSans-2e" x="63.623047"/>
       <use xlink:href="#DejaVuSans-32" x="95.410156"/>
       <use xlink:href="#DejaVuSans-30" x="159.033203"/>
       <use xlink:href="#DejaVuSans-30" x="222.65625"/>
      </g>
     </g>
    </g>
    <g id="text_39">
     <!-- Density -->
     <g transform="translate(549.837642 233.928594)rotate(-90)scale(0.1 -0.1)">
      <use xlink:href="#DejaVuSans-44"/>
      <use xlink:href="#DejaVuSans-65" x="77.001953"/>
      <use xlink:href="#DejaVuSans-6e" x="138.525391"/>
      <use xlink:href="#DejaVuSans-73" x="201.904297"/>
      <use xlink:href="#DejaVuSans-69" x="254.003906"/>
      <use xlink:href="#DejaVuSans-74" x="281.787109"/>
      <use xlink:href="#DejaVuSans-79" x="320.996094"/>
     </g>
    </g>
   </g>
   <g id="patch_8">
    <path d="M 591.545455 378 
L 591.545455 51.84 
" style="fill: none; stroke: #000000; stroke-width: 0.8; stroke-linejoin: miter; stroke-linecap: square"/>
   </g>
   <g id="patch_9">
    <path d="M 972 378 
L 972 51.84 
" style="fill: none; stroke: #000000; stroke-width: 0.8; stroke-linejoin: miter; stroke-linecap: square"/>
   </g>
   <g id="patch_10">
    <path d="M 591.545455 378 
L 972 378 
" style="fill: none; stroke: #000000; stroke-width: 0.8; stroke-linejoin: miter; stroke-linecap: square"/>
   </g>
   <g id="patch_11">
    <path d="M 591.545455 51.84 
L 972 51.84 
" style="fill: none; stroke: #000000; stroke-width: 0.8; stroke-linejoin: miter; stroke-linecap: square"/>
   </g>
   <g id="text_40">
    <!-- Including outliers, avg= 3.02m -->
    <g transform="translate(689.00429 45.84)scale(0.12 -0.12)">
     <defs>
      <path id="DejaVuSans-49" d="M 628 4666 
L 1259 4666 
L 1259 0 
L 628 0 
L 628 4666 
z
" transform="scale(0.015625)"/>
     </defs>
     <use xlink:href="#DejaVuSans-49"/>
     <use xlink:href="#DejaVuSans-6e" x="29.492188"/>
     <use xlink:href="#DejaVuSans-63" x="92.871094"/>
     <use xlink:href="#DejaVuSans-6c" x="147.851562"/>
     <use xlink:href="#DejaVuSans-75" x="175.634766"/>
     <use xlink:href="#DejaVuSans-64" x="239.013672"/>
     <use xlink:href="#DejaVuSans-69" x="302.490234"/>
     <use xlink:href="#DejaVuSans-6e" x="330.273438"/>
     <use xlink:href="#DejaVuSans-67" x="393.652344"/>
     <use xlink:href="#DejaVuSans-20" x="457.128906"/>
     <use xlink:href="#DejaVuSans-6f" x="488.916016"/>
     <use xlink:href="#DejaVuSans-75" x="550.097656"/>
     <use xlink:href="#DejaVuSans-74" x="613.476562"/>
     <use xlink:href="#DejaVuSans-6c" x="652.685547"/>
     <use xlink:href="#DejaVuSans-69" x="680.46875"/>
     <use xlink:href="#DejaVuSans-65" x="708.251953"/>
     <use xlink:href="#DejaVuSans-72" x="769.775391"/>
     <use xlink:href="#DejaVuSans-73" x="810.888672"/>
     <use xlink:href="#DejaVuSans-2c" x="862.988281"/>
     <use xlink:href="#DejaVuSans-20" x="894.775391"/>
     <use xlink:href="#DejaVuSans-61" x="926.5625"/>
     <use xlink:href="#DejaVuSans-76" x="987.841797"/>
     <use xlink:href="#DejaVuSans-67" x="1047.021484"/>
     <use xlink:href="#DejaVuSans-3d" x="1110.498047"/>
     <use xlink:href="#DejaVuSans-20" x="1194.287109"/>
     <use xlink:href="#DejaVuSans-33" x="1226.074219"/>
     <use xlink:href="#DejaVuSans-2e" x="1289.697266"/>
     <use xlink:href="#DejaVuSans-30" x="1321.484375"/>
     <use xlink:href="#DejaVuSans-32" x="1385.107422"/>
     <use xlink:href="#DejaVuSans-6d" x="1448.730469"/>
    </g>
   </g>
  </g>
  <g id="text_41">
   <!-- Elevation measurement errors (m) -->
   <g transform="translate(436.378125 17.758125)scale(0.12 -0.12)">
    <use xlink:href="#DejaVuSans-45"/>
    <use xlink:href="#DejaVuSans-6c" x="63.183594"/>
    <use xlink:href="#DejaVuSans-65" x="90.966797"/>
    <use xlink:href="#DejaVuSans-76" x="152.490234"/>
    <use xlink:href="#DejaVuSans-61" x="211.669922"/>
    <use xlink:href="#DejaVuSans-74" x="272.949219"/>
    <use xlink:href="#DejaVuSans-69" x="312.158203"/>
    <use xlink:href="#DejaVuSans-6f" x="339.941406"/>
    <use xlink:href="#DejaVuSans-6e" x="401.123047"/>
    <use xlink:href="#DejaVuSans-20" x="464.501953"/>
    <use xlink:href="#DejaVuSans-6d" x="496.289062"/>
    <use xlink:href="#DejaVuSans-65" x="593.701172"/>
    <use xlink:href="#DejaVuSans-61" x="655.224609"/>
    <use xlink:href="#DejaVuSans-73" x="716.503906"/>
    <use xlink:href="#DejaVuSans-75" x="768.603516"/>
    <use xlink:href="#DejaVuSans-72" x="831.982422"/>
    <use xlink:href="#DejaVuSans-65" x="870.845703"/>
    <use xlink:href="#DejaVuSans-6d" x="932.369141"/>
    <use xlink:href="#DejaVuSans-65" x="1029.78125"/>
    <use xlink:href="#DejaVuSans-6e" x="1091.304688"/>
    <use xlink:href="#DejaVuSans-74" x="1154.683594"/>
    <use xlink:href="#DejaVuSans-20" x="1193.892578"/>
    <use xlink:href="#DejaVuSans-65" x="1225.679688"/>
    <use xlink:href="#DejaVuSans-72" x="1287.203125"/>
    <use xlink:href="#DejaVuSans-72" x="1326.566406"/>
    <use xlink:href="#DejaVuSans-6f" x="1365.429688"/>
    <use xlink:href="#DejaVuSans-72" x="1426.611328"/>
    <use xlink:href="#DejaVuSans-73" x="1467.724609"/>
    <use xlink:href="#DejaVuSans-20" x="1519.824219"/>
    <use xlink:href="#DejaVuSans-28" x="1551.611328"/>
    <use xlink:href="#DejaVuSans-6d" x="1590.625"/>
    <use xlink:href="#DejaVuSans-29" x="1688.037109"/>
   </g>
  </g>
 </g>
 <defs>
  <clipPath id="p66e12b9587">
   <rect x="135" y="51.84" width="380.454545" height="326.16"/>
  </clipPath>
  <clipPath id="p3063cadc0d">
   <rect x="591.545455" y="51.84" width="380.454545" height="326.16"/>
  </clipPath>
 </defs>
</svg>
