<?xml version="1.0" encoding="utf-8" standalone="no"?>
<!DOCTYPE svg PUBLIC "-//W3C//DTD SVG 1.1//EN"
  "http://www.w3.org/Graphics/SVG/1.1/DTD/svg11.dtd">
<svg xmlns:xlink="http://www.w3.org/1999/xlink" width="1080pt" height="432pt" viewBox="0 0 1080 432" xmlns="http://www.w3.org/2000/svg" version="1.1">
 <metadata>
  <rdf:RDF xmlns:dc="http://purl.org/dc/elements/1.1/" xmlns:cc="http://creativecommons.org/ns#" xmlns:rdf="http://www.w3.org/1999/02/22-rdf-syntax-ns#">
   <cc:Work>
    <dc:type rdf:resource="http://purl.org/dc/dcmitype/StillImage"/>
    <dc:date>2022-11-22T17:15:23.135928</dc:date>
    <dc:format>image/svg+xml</dc:format>
    <dc:creator>
     <cc:Agent>
      <dc:title>Matplotlib v3.5.1, https://matplotlib.org/</dc:title>
     </cc:Agent>
    </dc:creator>
   </cc:Work>
  </rdf:RDF>
 </metadata>
 <defs>
  <style type="text/css">*{stroke-linejoin: round; stroke-linecap: butt}</style>
 </defs>
 <g id="figure_1">
  <g id="patch_1">
   <path d="M 0 432 
L 1080 432 
L 1080 0 
L 0 0 
L 0 432 
z
" style="fill: none"/>
  </g>
  <g id="axes_1">
   <g id="patch_2">
    <path d="M 135 378 
L 515.454545 378 
L 515.454545 51.84 
L 135 51.84 
z
" style="fill: #ffffff"/>
   </g>
   <g id="PolyCollection_1">
    <defs>
     <path id="mb6dc0731c0" d="M 98.383419 -54.478097 
L 98.383419 -54 
L 100.379452 -54 
L 102.375485 -54 
L 104.371519 -54 
L 106.367552 -54 
L 108.363585 -54 
L 110.359618 -54 
L 112.355651 -54 
L 114.351684 -54 
L 116.347717 -54 
L 118.343751 -54 
L 120.339784 -54 
L 122.335817 -54 
L 124.33185 -54 
L 126.327883 -54 
L 128.323916 -54 
L 130.319949 -54 
L 132.315983 -54 
L 134.312016 -54 
L 136.308049 -54 
L 138.304082 -54 
L 140.300115 -54 
L 142.296148 -54 
L 144.292182 -54 
L 146.288215 -54 
L 148.284248 -54 
L 150.280281 -54 
L 152.276314 -54 
L 154.272347 -54 
L 156.26838 -54 
L 158.264414 -54 
L 160.260447 -54 
L 162.25648 -54 
L 164.252513 -54 
L 166.248546 -54 
L 168.244579 -54 
L 170.240612 -54 
L 172.236646 -54 
L 174.232679 -54 
L 176.228712 -54 
L 178.224745 -54 
L 180.220778 -54 
L 182.216811 -54 
L 184.212844 -54 
L 186.208878 -54 
L 188.204911 -54 
L 190.200944 -54 
L 192.196977 -54 
L 194.19301 -54 
L 196.189043 -54 
L 198.185077 -54 
L 200.18111 -54 
L 202.177143 -54 
L 204.173176 -54 
L 206.169209 -54 
L 208.165242 -54 
L 210.161275 -54 
L 212.157309 -54 
L 214.153342 -54 
L 216.149375 -54 
L 218.145408 -54 
L 220.141441 -54 
L 222.137474 -54 
L 224.133507 -54 
L 226.129541 -54 
L 228.125574 -54 
L 230.121607 -54 
L 232.11764 -54 
L 234.113673 -54 
L 236.109706 -54 
L 238.10574 -54 
L 240.101773 -54 
L 242.097806 -54 
L 244.093839 -54 
L 246.089872 -54 
L 248.085905 -54 
L 250.081938 -54 
L 252.077972 -54 
L 254.074005 -54 
L 256.070038 -54 
L 258.066071 -54 
L 260.062104 -54 
L 262.058137 -54 
L 264.05417 -54 
L 266.050204 -54 
L 268.046237 -54 
L 270.04227 -54 
L 272.038303 -54 
L 274.034336 -54 
L 276.030369 -54 
L 278.026402 -54 
L 280.022436 -54 
L 282.018469 -54 
L 284.014502 -54 
L 286.010535 -54 
L 288.006568 -54 
L 290.002601 -54 
L 291.998635 -54 
L 293.994668 -54 
L 295.990701 -54 
L 297.986734 -54 
L 299.982767 -54 
L 301.9788 -54 
L 303.974833 -54 
L 305.970867 -54 
L 307.9669 -54 
L 309.962933 -54 
L 311.958966 -54 
L 313.954999 -54 
L 315.951032 -54 
L 317.947065 -54 
L 319.943099 -54 
L 321.939132 -54 
L 323.935165 -54 
L 325.931198 -54 
L 327.927231 -54 
L 329.923264 -54 
L 331.919297 -54 
L 333.915331 -54 
L 335.911364 -54 
L 337.907397 -54 
L 339.90343 -54 
L 341.899463 -54 
L 343.895496 -54 
L 345.89153 -54 
L 347.887563 -54 
L 349.883596 -54 
L 351.879629 -54 
L 353.875662 -54 
L 355.871695 -54 
L 357.867728 -54 
L 359.863762 -54 
L 361.859795 -54 
L 363.855828 -54 
L 365.851861 -54 
L 367.847894 -54 
L 369.843927 -54 
L 371.83996 -54 
L 373.835994 -54 
L 375.832027 -54 
L 377.82806 -54 
L 379.824093 -54 
L 381.820126 -54 
L 383.816159 -54 
L 385.812192 -54 
L 387.808226 -54 
L 389.804259 -54 
L 391.800292 -54 
L 393.796325 -54 
L 395.792358 -54 
L 397.788391 -54 
L 399.784425 -54 
L 401.780458 -54 
L 403.776491 -54 
L 405.772524 -54 
L 407.768557 -54 
L 409.76459 -54 
L 411.760623 -54 
L 413.756657 -54 
L 415.75269 -54 
L 417.748723 -54 
L 419.744756 -54 
L 421.740789 -54 
L 423.736822 -54 
L 425.732855 -54 
L 427.728889 -54 
L 429.724922 -54 
L 431.720955 -54 
L 433.716988 -54 
L 435.713021 -54 
L 437.709054 -54 
L 439.705087 -54 
L 441.701121 -54 
L 443.697154 -54 
L 445.693187 -54 
L 447.68922 -54 
L 449.685253 -54 
L 451.681286 -54 
L 453.67732 -54 
L 455.673353 -54 
L 457.669386 -54 
L 459.665419 -54 
L 461.661452 -54 
L 463.657485 -54 
L 465.653518 -54 
L 467.649552 -54 
L 469.645585 -54 
L 471.641618 -54 
L 473.637651 -54 
L 475.633684 -54 
L 477.629717 -54 
L 479.62575 -54 
L 481.621784 -54 
L 483.617817 -54 
L 485.61385 -54 
L 487.609883 -54 
L 489.605916 -54 
L 491.601949 -54 
L 493.597982 -54 
L 495.594016 -54 
L 495.594016 -54.018025 
L 495.594016 -54.018025 
L 493.597982 -54.029478 
L 491.601949 -54.047026 
L 489.605916 -54.073194 
L 487.609883 -54.111184 
L 485.61385 -54.16488 
L 483.617817 -54.238791 
L 481.621784 -54.337885 
L 479.62575 -54.467332 
L 477.629717 -54.632145 
L 475.633684 -54.836761 
L 473.637651 -55.08459 
L 471.641618 -55.377619 
L 469.645585 -55.716097 
L 467.649552 -56.098376 
L 465.653518 -56.52093 
L 463.657485 -56.978539 
L 461.661452 -57.46462 
L 459.665419 -57.97164 
L 457.669386 -58.491547 
L 455.673353 -59.016177 
L 453.67732 -59.537593 
L 451.681286 -60.048364 
L 449.685253 -60.541802 
L 447.68922 -61.012207 
L 445.693187 -61.455116 
L 443.697154 -61.867588 
L 441.701121 -62.248457 
L 439.705087 -62.598497 
L 437.709054 -62.920412 
L 435.713021 -63.218565 
L 433.716988 -63.498439 
L 431.720955 -63.765869 
L 429.724922 -64.026152 
L 427.728889 -64.283218 
L 425.732855 -64.53904 
L 423.736822 -64.793442 
L 421.740789 -65.04437 
L 419.744756 -65.288606 
L 417.748723 -65.522777 
L 415.75269 -65.744465 
L 413.756657 -65.953179 
L 411.760623 -66.151044 
L 409.76459 -66.34312 
L 407.768557 -66.537429 
L 405.772524 -66.744848 
L 403.776491 -66.97909 
L 401.780458 -67.256948 
L 399.784425 -67.598831 
L 397.788391 -68.029444 
L 395.792358 -68.578251 
L 393.796325 -69.279191 
L 391.800292 -70.169108 
L 389.804259 -71.284465 
L 387.808226 -72.656251 
L 385.812192 -74.303413 
L 383.816159 -76.225672 
L 381.820126 -78.396998 
L 379.824093 -80.761267 
L 377.82806 -83.231534 
L 375.832027 -85.693908 
L 373.835994 -88.016267 
L 371.83996 -90.061091 
L 369.843927 -91.700782 
L 367.847894 -92.833136 
L 365.851861 -93.39442 
L 363.855828 -93.367782 
L 361.859795 -92.785525 
L 359.863762 -91.724856 
L 357.867728 -90.297954 
L 355.871695 -88.638125 
L 353.875662 -86.884449 
L 351.879629 -85.167356 
L 349.883596 -83.597165 
L 347.887563 -82.256867 
L 345.89153 -81.199533 
L 343.895496 -80.449889 
L 341.899463 -80.009006 
L 339.90343 -79.860738 
L 337.907397 -79.978557 
L 335.911364 -80.33168 
L 333.915331 -80.889769 
L 331.919297 -81.625902 
L 329.923264 -82.517876 
L 327.927231 -83.548163 
L 325.931198 -84.702963 
L 323.935165 -85.970855 
L 321.939132 -87.341472 
L 319.943099 -88.804596 
L 317.947065 -90.349953 
L 315.951032 -91.967911 
L 313.954999 -93.651173 
L 311.958966 -95.397394 
L 309.962933 -97.21247 
L 307.9669 -99.113991 
L 305.970867 -101.134143 
L 303.974833 -103.321153 
L 301.9788 -105.738342 
L 299.982767 -108.460021 
L 297.986734 -111.563855 
L 295.990701 -115.119939 
L 293.994668 -119.177587 
L 291.998635 -123.751571 
L 290.002601 -128.810139 
L 288.006568 -134.267374 
L 286.010535 -139.982164 
L 284.014502 -145.765267 
L 282.018469 -151.394636 
L 280.022436 -156.637681 
L 278.026402 -161.277608 
L 276.030369 -165.13994 
L 274.034336 -168.114926 
L 272.038303 -170.172072 
L 270.04227 -171.364298 
L 268.046237 -171.821111 
L 266.050204 -171.732179 
L 264.05417 -171.324372 
L 262.058137 -170.836319 
L 260.062104 -170.494611 
L 258.066071 -170.494952 
L 256.070038 -170.99015 
L 254.074005 -172.08513 
L 252.077972 -173.837715 
L 250.081938 -176.262975 
L 248.085905 -179.338785 
L 246.089872 -183.010772 
L 244.093839 -187.195883 
L 242.097806 -191.784965 
L 240.101773 -196.6457 
L 238.10574 -201.627582 
L 236.109706 -206.570307 
L 234.113673 -211.315967 
L 232.11764 -215.724145 
L 230.121607 -219.687792 
L 228.125574 -223.147006 
L 226.129541 -226.097905 
L 224.133507 -228.594653 
L 222.137474 -230.744231 
L 220.141441 -232.69521 
L 218.145408 -234.623202 
L 216.149375 -236.716195 
L 214.153342 -239.162589 
L 212.157309 -242.143353 
L 210.161275 -245.827869 
L 208.165242 -250.3712 
L 206.169209 -255.909451 
L 204.173176 -262.550028 
L 202.177143 -270.355036 
L 200.18111 -279.318641 
L 198.185077 -289.342165 
L 196.189043 -300.21319 
L 194.19301 -311.596143 
L 192.196977 -323.041003 
L 190.200944 -334.013884 
L 188.204911 -343.948726 
L 186.208878 -352.31411 
L 184.212844 -358.684734 
L 182.216811 -362.804514 
L 180.220778 -364.628571 
L 178.224745 -364.334683 
L 176.228712 -362.30047 
L 174.232679 -359.04939 
L 172.236646 -355.174837 
L 170.240612 -351.255734 
L 168.244579 -347.778107 
L 166.248546 -345.074901 
L 164.252513 -343.2917 
L 162.25648 -342.380243 
L 160.260447 -342.116302 
L 158.264414 -342.134942 
L 156.26838 -341.974997 
L 154.272347 -341.125649 
L 152.276314 -339.070533 
L 150.280281 -335.32755 
L 148.284248 -329.484529 
L 146.288215 -321.231439 
L 144.292182 -310.388955 
L 142.296148 -296.931501 
L 140.300115 -281.001292 
L 138.304082 -262.909341 
L 136.308049 -243.120273 
L 134.312016 -222.220122 
L 132.315983 -200.869464 
L 130.319949 -179.747282 
L 128.323916 -159.493106 
L 126.327883 -140.65544 
L 124.33185 -123.653341 
L 122.335817 -108.755434 
L 120.339784 -96.077439 
L 118.343751 -85.596201 
L 116.347717 -77.175862 
L 114.351684 -70.600691 
L 112.355651 -65.609087 
L 110.359618 -61.92428 
L 108.363585 -59.278772 
L 106.367552 -57.431234 
L 104.371519 -56.175976 
L 102.375485 -55.346152 
L 100.379452 -54.812321 
L 98.383419 -54.478097 
z
" style="stroke: #1f77b4"/>
    </defs>
    <g clip-path="url(#pf0d3a618e8)">
     <use xlink:href="#mb6dc0731c0" x="0" y="432" style="fill: #1f77b4; fill-opacity: 0.25; stroke: #1f77b4"/>
    </g>
   </g>
   <g id="matplotlib.axis_1">
    <g id="xtick_1">
     <g id="line2d_1">
      <defs>
       <path id="me3e1d9bb34" d="M 0 0 
L 0 3.5 
" style="stroke: #000000; stroke-width: 0.8"/>
      </defs>
      <g>
       <use xlink:href="#me3e1d9bb34" x="135" y="378" style="stroke: #000000; stroke-width: 0.8"/>
      </g>
     </g>
     <g id="text_1">
      <!-- 0 -->
      <g transform="translate(131.81875 392.598437)scale(0.1 -0.1)">
       <defs>
        <path id="DejaVuSans-30" d="M 2034 4250 
Q 1547 4250 1301 3770 
Q 1056 3291 1056 2328 
Q 1056 1369 1301 889 
Q 1547 409 2034 409 
Q 2525 409 2770 889 
Q 3016 1369 3016 2328 
Q 3016 3291 2770 3770 
Q 2525 4250 2034 4250 
z
M 2034 4750 
Q 2819 4750 3233 4129 
Q 3647 3509 3647 2328 
Q 3647 1150 3233 529 
Q 2819 -91 2034 -91 
Q 1250 -91 836 529 
Q 422 1150 422 2328 
Q 422 3509 836 4129 
Q 1250 4750 2034 4750 
z
" transform="scale(0.015625)"/>
       </defs>
       <use xlink:href="#DejaVuSans-30"/>
      </g>
     </g>
    </g>
    <g id="xtick_2">
     <g id="line2d_2">
      <g>
       <use xlink:href="#me3e1d9bb34" x="181.282491" y="378" style="stroke: #000000; stroke-width: 0.8"/>
      </g>
     </g>
     <g id="text_2">
      <!-- 1 -->
      <g transform="translate(178.101241 392.598437)scale(0.1 -0.1)">
       <defs>
        <path id="DejaVuSans-31" d="M 794 531 
L 1825 531 
L 1825 4091 
L 703 3866 
L 703 4441 
L 1819 4666 
L 2450 4666 
L 2450 531 
L 3481 531 
L 3481 0 
L 794 0 
L 794 531 
z
" transform="scale(0.015625)"/>
       </defs>
       <use xlink:href="#DejaVuSans-31"/>
      </g>
     </g>
    </g>
    <g id="xtick_3">
     <g id="line2d_3">
      <g>
       <use xlink:href="#me3e1d9bb34" x="227.564981" y="378" style="stroke: #000000; stroke-width: 0.8"/>
      </g>
     </g>
     <g id="text_3">
      <!-- 2 -->
      <g transform="translate(224.383731 392.598437)scale(0.1 -0.1)">
       <defs>
        <path id="DejaVuSans-32" d="M 1228 531 
L 3431 531 
L 3431 0 
L 469 0 
L 469 531 
Q 828 903 1448 1529 
Q 2069 2156 2228 2338 
Q 2531 2678 2651 2914 
Q 2772 3150 2772 3378 
Q 2772 3750 2511 3984 
Q 2250 4219 1831 4219 
Q 1534 4219 1204 4116 
Q 875 4013 500 3803 
L 500 4441 
Q 881 4594 1212 4672 
Q 1544 4750 1819 4750 
Q 2544 4750 2975 4387 
Q 3406 4025 3406 3419 
Q 3406 3131 3298 2873 
Q 3191 2616 2906 2266 
Q 2828 2175 2409 1742 
Q 1991 1309 1228 531 
z
" transform="scale(0.015625)"/>
       </defs>
       <use xlink:href="#DejaVuSans-32"/>
      </g>
     </g>
    </g>
    <g id="xtick_4">
     <g id="line2d_4">
      <g>
       <use xlink:href="#me3e1d9bb34" x="273.847472" y="378" style="stroke: #000000; stroke-width: 0.8"/>
      </g>
     </g>
     <g id="text_4">
      <!-- 3 -->
      <g transform="translate(270.666222 392.598437)scale(0.1 -0.1)">
       <defs>
        <path id="DejaVuSans-33" d="M 2597 2516 
Q 3050 2419 3304 2112 
Q 3559 1806 3559 1356 
Q 3559 666 3084 287 
Q 2609 -91 1734 -91 
Q 1441 -91 1130 -33 
Q 819 25 488 141 
L 488 750 
Q 750 597 1062 519 
Q 1375 441 1716 441 
Q 2309 441 2620 675 
Q 2931 909 2931 1356 
Q 2931 1769 2642 2001 
Q 2353 2234 1838 2234 
L 1294 2234 
L 1294 2753 
L 1863 2753 
Q 2328 2753 2575 2939 
Q 2822 3125 2822 3475 
Q 2822 3834 2567 4026 
Q 2313 4219 1838 4219 
Q 1578 4219 1281 4162 
Q 984 4106 628 3988 
L 628 4550 
Q 988 4650 1302 4700 
Q 1616 4750 1894 4750 
Q 2613 4750 3031 4423 
Q 3450 4097 3450 3541 
Q 3450 3153 3228 2886 
Q 3006 2619 2597 2516 
z
" transform="scale(0.015625)"/>
       </defs>
       <use xlink:href="#DejaVuSans-33"/>
      </g>
     </g>
    </g>
    <g id="xtick_5">
     <g id="line2d_5">
      <g>
       <use xlink:href="#me3e1d9bb34" x="320.129963" y="378" style="stroke: #000000; stroke-width: 0.8"/>
      </g>
     </g>
     <g id="text_5">
      <!-- 4 -->
      <g transform="translate(316.948713 392.598437)scale(0.1 -0.1)">
       <defs>
        <path id="DejaVuSans-34" d="M 2419 4116 
L 825 1625 
L 2419 1625 
L 2419 4116 
z
M 2253 4666 
L 3047 4666 
L 3047 1625 
L 3713 1625 
L 3713 1100 
L 3047 1100 
L 3047 0 
L 2419 0 
L 2419 1100 
L 313 1100 
L 313 1709 
L 2253 4666 
z
" transform="scale(0.015625)"/>
       </defs>
       <use xlink:href="#DejaVuSans-34"/>
      </g>
     </g>
    </g>
    <g id="xtick_6">
     <g id="line2d_6">
      <g>
       <use xlink:href="#me3e1d9bb34" x="366.412453" y="378" style="stroke: #000000; stroke-width: 0.8"/>
      </g>
     </g>
     <g id="text_6">
      <!-- 5 -->
      <g transform="translate(363.231203 392.598437)scale(0.1 -0.1)">
       <defs>
        <path id="DejaVuSans-35" d="M 691 4666 
L 3169 4666 
L 3169 4134 
L 1269 4134 
L 1269 2991 
Q 1406 3038 1543 3061 
Q 1681 3084 1819 3084 
Q 2600 3084 3056 2656 
Q 3513 2228 3513 1497 
Q 3513 744 3044 326 
Q 2575 -91 1722 -91 
Q 1428 -91 1123 -41 
Q 819 9 494 109 
L 494 744 
Q 775 591 1075 516 
Q 1375 441 1709 441 
Q 2250 441 2565 725 
Q 2881 1009 2881 1497 
Q 2881 1984 2565 2268 
Q 2250 2553 1709 2553 
Q 1456 2553 1204 2497 
Q 953 2441 691 2322 
L 691 4666 
z
" transform="scale(0.015625)"/>
       </defs>
       <use xlink:href="#DejaVuSans-35"/>
      </g>
     </g>
    </g>
    <g id="xtick_7">
     <g id="line2d_7">
      <g>
       <use xlink:href="#me3e1d9bb34" x="412.694944" y="378" style="stroke: #000000; stroke-width: 0.8"/>
      </g>
     </g>
     <g id="text_7">
      <!-- 6 -->
      <g transform="translate(409.513694 392.598437)scale(0.1 -0.1)">
       <defs>
        <path id="DejaVuSans-36" d="M 2113 2584 
Q 1688 2584 1439 2293 
Q 1191 2003 1191 1497 
Q 1191 994 1439 701 
Q 1688 409 2113 409 
Q 2538 409 2786 701 
Q 3034 994 3034 1497 
Q 3034 2003 2786 2293 
Q 2538 2584 2113 2584 
z
M 3366 4563 
L 3366 3988 
Q 3128 4100 2886 4159 
Q 2644 4219 2406 4219 
Q 1781 4219 1451 3797 
Q 1122 3375 1075 2522 
Q 1259 2794 1537 2939 
Q 1816 3084 2150 3084 
Q 2853 3084 3261 2657 
Q 3669 2231 3669 1497 
Q 3669 778 3244 343 
Q 2819 -91 2113 -91 
Q 1303 -91 875 529 
Q 447 1150 447 2328 
Q 447 3434 972 4092 
Q 1497 4750 2381 4750 
Q 2619 4750 2861 4703 
Q 3103 4656 3366 4563 
z
" transform="scale(0.015625)"/>
       </defs>
       <use xlink:href="#DejaVuSans-36"/>
      </g>
     </g>
    </g>
    <g id="xtick_8">
     <g id="line2d_8">
      <g>
       <use xlink:href="#me3e1d9bb34" x="458.977435" y="378" style="stroke: #000000; stroke-width: 0.8"/>
      </g>
     </g>
     <g id="text_8">
      <!-- 7 -->
      <g transform="translate(455.796185 392.598437)scale(0.1 -0.1)">
       <defs>
        <path id="DejaVuSans-37" d="M 525 4666 
L 3525 4666 
L 3525 4397 
L 1831 0 
L 1172 0 
L 2766 4134 
L 525 4134 
L 525 4666 
z
" transform="scale(0.015625)"/>
       </defs>
       <use xlink:href="#DejaVuSans-37"/>
      </g>
     </g>
    </g>
    <g id="xtick_9">
     <g id="line2d_9">
      <g>
       <use xlink:href="#me3e1d9bb34" x="505.259925" y="378" style="stroke: #000000; stroke-width: 0.8"/>
      </g>
     </g>
     <g id="text_9">
      <!-- 8 -->
      <g transform="translate(502.078675 392.598437)scale(0.1 -0.1)">
       <defs>
        <path id="DejaVuSans-38" d="M 2034 2216 
Q 1584 2216 1326 1975 
Q 1069 1734 1069 1313 
Q 1069 891 1326 650 
Q 1584 409 2034 409 
Q 2484 409 2743 651 
Q 3003 894 3003 1313 
Q 3003 1734 2745 1975 
Q 2488 2216 2034 2216 
z
M 1403 2484 
Q 997 2584 770 2862 
Q 544 3141 544 3541 
Q 544 4100 942 4425 
Q 1341 4750 2034 4750 
Q 2731 4750 3128 4425 
Q 3525 4100 3525 3541 
Q 3525 3141 3298 2862 
Q 3072 2584 2669 2484 
Q 3125 2378 3379 2068 
Q 3634 1759 3634 1313 
Q 3634 634 3220 271 
Q 2806 -91 2034 -91 
Q 1263 -91 848 271 
Q 434 634 434 1313 
Q 434 1759 690 2068 
Q 947 2378 1403 2484 
z
M 1172 3481 
Q 1172 3119 1398 2916 
Q 1625 2713 2034 2713 
Q 2441 2713 2670 2916 
Q 2900 3119 2900 3481 
Q 2900 3844 2670 4047 
Q 2441 4250 2034 4250 
Q 1625 4250 1398 4047 
Q 1172 3844 1172 3481 
z
" transform="scale(0.015625)"/>
       </defs>
       <use xlink:href="#DejaVuSans-38"/>
      </g>
     </g>
    </g>
    <g id="text_10">
     <!-- Elevation error (m) -->
     <g transform="translate(277.949148 406.276563)scale(0.1 -0.1)">
      <defs>
       <path id="DejaVuSans-45" d="M 628 4666 
L 3578 4666 
L 3578 4134 
L 1259 4134 
L 1259 2753 
L 3481 2753 
L 3481 2222 
L 1259 2222 
L 1259 531 
L 3634 531 
L 3634 0 
L 628 0 
L 628 4666 
z
" transform="scale(0.015625)"/>
       <path id="DejaVuSans-6c" d="M 603 4863 
L 1178 4863 
L 1178 0 
L 603 0 
L 603 4863 
z
" transform="scale(0.015625)"/>
       <path id="DejaVuSans-65" d="M 3597 1894 
L 3597 1613 
L 953 1613 
Q 991 1019 1311 708 
Q 1631 397 2203 397 
Q 2534 397 2845 478 
Q 3156 559 3463 722 
L 3463 178 
Q 3153 47 2828 -22 
Q 2503 -91 2169 -91 
Q 1331 -91 842 396 
Q 353 884 353 1716 
Q 353 2575 817 3079 
Q 1281 3584 2069 3584 
Q 2775 3584 3186 3129 
Q 3597 2675 3597 1894 
z
M 3022 2063 
Q 3016 2534 2758 2815 
Q 2500 3097 2075 3097 
Q 1594 3097 1305 2825 
Q 1016 2553 972 2059 
L 3022 2063 
z
" transform="scale(0.015625)"/>
       <path id="DejaVuSans-76" d="M 191 3500 
L 800 3500 
L 1894 563 
L 2988 3500 
L 3597 3500 
L 2284 0 
L 1503 0 
L 191 3500 
z
" transform="scale(0.015625)"/>
       <path id="DejaVuSans-61" d="M 2194 1759 
Q 1497 1759 1228 1600 
Q 959 1441 959 1056 
Q 959 750 1161 570 
Q 1363 391 1709 391 
Q 2188 391 2477 730 
Q 2766 1069 2766 1631 
L 2766 1759 
L 2194 1759 
z
M 3341 1997 
L 3341 0 
L 2766 0 
L 2766 531 
Q 2569 213 2275 61 
Q 1981 -91 1556 -91 
Q 1019 -91 701 211 
Q 384 513 384 1019 
Q 384 1609 779 1909 
Q 1175 2209 1959 2209 
L 2766 2209 
L 2766 2266 
Q 2766 2663 2505 2880 
Q 2244 3097 1772 3097 
Q 1472 3097 1187 3025 
Q 903 2953 641 2809 
L 641 3341 
Q 956 3463 1253 3523 
Q 1550 3584 1831 3584 
Q 2591 3584 2966 3190 
Q 3341 2797 3341 1997 
z
" transform="scale(0.015625)"/>
       <path id="DejaVuSans-74" d="M 1172 4494 
L 1172 3500 
L 2356 3500 
L 2356 3053 
L 1172 3053 
L 1172 1153 
Q 1172 725 1289 603 
Q 1406 481 1766 481 
L 2356 481 
L 2356 0 
L 1766 0 
Q 1100 0 847 248 
Q 594 497 594 1153 
L 594 3053 
L 172 3053 
L 172 3500 
L 594 3500 
L 594 4494 
L 1172 4494 
z
" transform="scale(0.015625)"/>
       <path id="DejaVuSans-69" d="M 603 3500 
L 1178 3500 
L 1178 0 
L 603 0 
L 603 3500 
z
M 603 4863 
L 1178 4863 
L 1178 4134 
L 603 4134 
L 603 4863 
z
" transform="scale(0.015625)"/>
       <path id="DejaVuSans-6f" d="M 1959 3097 
Q 1497 3097 1228 2736 
Q 959 2375 959 1747 
Q 959 1119 1226 758 
Q 1494 397 1959 397 
Q 2419 397 2687 759 
Q 2956 1122 2956 1747 
Q 2956 2369 2687 2733 
Q 2419 3097 1959 3097 
z
M 1959 3584 
Q 2709 3584 3137 3096 
Q 3566 2609 3566 1747 
Q 3566 888 3137 398 
Q 2709 -91 1959 -91 
Q 1206 -91 779 398 
Q 353 888 353 1747 
Q 353 2609 779 3096 
Q 1206 3584 1959 3584 
z
" transform="scale(0.015625)"/>
       <path id="DejaVuSans-6e" d="M 3513 2113 
L 3513 0 
L 2938 0 
L 2938 2094 
Q 2938 2591 2744 2837 
Q 2550 3084 2163 3084 
Q 1697 3084 1428 2787 
Q 1159 2491 1159 1978 
L 1159 0 
L 581 0 
L 581 3500 
L 1159 3500 
L 1159 2956 
Q 1366 3272 1645 3428 
Q 1925 3584 2291 3584 
Q 2894 3584 3203 3211 
Q 3513 2838 3513 2113 
z
" transform="scale(0.015625)"/>
       <path id="DejaVuSans-20" transform="scale(0.015625)"/>
       <path id="DejaVuSans-72" d="M 2631 2963 
Q 2534 3019 2420 3045 
Q 2306 3072 2169 3072 
Q 1681 3072 1420 2755 
Q 1159 2438 1159 1844 
L 1159 0 
L 581 0 
L 581 3500 
L 1159 3500 
L 1159 2956 
Q 1341 3275 1631 3429 
Q 1922 3584 2338 3584 
Q 2397 3584 2469 3576 
Q 2541 3569 2628 3553 
L 2631 2963 
z
" transform="scale(0.015625)"/>
       <path id="DejaVuSans-28" d="M 1984 4856 
Q 1566 4138 1362 3434 
Q 1159 2731 1159 2009 
Q 1159 1288 1364 580 
Q 1569 -128 1984 -844 
L 1484 -844 
Q 1016 -109 783 600 
Q 550 1309 550 2009 
Q 550 2706 781 3412 
Q 1013 4119 1484 4856 
L 1984 4856 
z
" transform="scale(0.015625)"/>
       <path id="DejaVuSans-6d" d="M 3328 2828 
Q 3544 3216 3844 3400 
Q 4144 3584 4550 3584 
Q 5097 3584 5394 3201 
Q 5691 2819 5691 2113 
L 5691 0 
L 5113 0 
L 5113 2094 
Q 5113 2597 4934 2840 
Q 4756 3084 4391 3084 
Q 3944 3084 3684 2787 
Q 3425 2491 3425 1978 
L 3425 0 
L 2847 0 
L 2847 2094 
Q 2847 2600 2669 2842 
Q 2491 3084 2119 3084 
Q 1678 3084 1418 2786 
Q 1159 2488 1159 1978 
L 1159 0 
L 581 0 
L 581 3500 
L 1159 3500 
L 1159 2956 
Q 1356 3278 1631 3431 
Q 1906 3584 2284 3584 
Q 2666 3584 2933 3390 
Q 3200 3197 3328 2828 
z
" transform="scale(0.015625)"/>
       <path id="DejaVuSans-29" d="M 513 4856 
L 1013 4856 
Q 1481 4119 1714 3412 
Q 1947 2706 1947 2009 
Q 1947 1309 1714 600 
Q 1481 -109 1013 -844 
L 513 -844 
Q 928 -128 1133 580 
Q 1338 1288 1338 2009 
Q 1338 2731 1133 3434 
Q 928 4138 513 4856 
z
" transform="scale(0.015625)"/>
      </defs>
      <use xlink:href="#DejaVuSans-45"/>
      <use xlink:href="#DejaVuSans-6c" x="63.183594"/>
      <use xlink:href="#DejaVuSans-65" x="90.966797"/>
      <use xlink:href="#DejaVuSans-76" x="152.490234"/>
      <use xlink:href="#DejaVuSans-61" x="211.669922"/>
      <use xlink:href="#DejaVuSans-74" x="272.949219"/>
      <use xlink:href="#DejaVuSans-69" x="312.158203"/>
      <use xlink:href="#DejaVuSans-6f" x="339.941406"/>
      <use xlink:href="#DejaVuSans-6e" x="401.123047"/>
      <use xlink:href="#DejaVuSans-20" x="464.501953"/>
      <use xlink:href="#DejaVuSans-65" x="496.289062"/>
      <use xlink:href="#DejaVuSans-72" x="557.8125"/>
      <use xlink:href="#DejaVuSans-72" x="597.175781"/>
      <use xlink:href="#DejaVuSans-6f" x="636.039062"/>
      <use xlink:href="#DejaVuSans-72" x="697.220703"/>
      <use xlink:href="#DejaVuSans-20" x="738.333984"/>
      <use xlink:href="#DejaVuSans-28" x="770.121094"/>
      <use xlink:href="#DejaVuSans-6d" x="809.134766"/>
      <use xlink:href="#DejaVuSans-29" x="906.546875"/>
     </g>
    </g>
   </g>
   <g id="matplotlib.axis_2">
    <g id="ytick_1">
     <g id="line2d_10">
      <defs>
       <path id="m998923966a" d="M 0 0 
L -3.5 0 
" style="stroke: #000000; stroke-width: 0.8"/>
      </defs>
      <g>
       <use xlink:href="#m998923966a" x="135" y="378" style="stroke: #000000; stroke-width: 0.8"/>
      </g>
     </g>
     <g id="text_11">
      <!-- 0.00 -->
      <g transform="translate(105.734375 381.799219)scale(0.1 -0.1)">
       <defs>
        <path id="DejaVuSans-2e" d="M 684 794 
L 1344 794 
L 1344 0 
L 684 0 
L 684 794 
z
" transform="scale(0.015625)"/>
       </defs>
       <use xlink:href="#DejaVuSans-30"/>
       <use xlink:href="#DejaVuSans-2e" x="63.623047"/>
       <use xlink:href="#DejaVuSans-30" x="95.410156"/>
       <use xlink:href="#DejaVuSans-30" x="159.033203"/>
      </g>
     </g>
    </g>
    <g id="ytick_2">
     <g id="line2d_11">
      <g>
       <use xlink:href="#m998923966a" x="135" y="338.072304" style="stroke: #000000; stroke-width: 0.8"/>
      </g>
     </g>
     <g id="text_12">
      <!-- 0.05 -->
      <g transform="translate(105.734375 341.871523)scale(0.1 -0.1)">
       <use xlink:href="#DejaVuSans-30"/>
       <use xlink:href="#DejaVuSans-2e" x="63.623047"/>
       <use xlink:href="#DejaVuSans-30" x="95.410156"/>
       <use xlink:href="#DejaVuSans-35" x="159.033203"/>
      </g>
     </g>
    </g>
    <g id="ytick_3">
     <g id="line2d_12">
      <g>
       <use xlink:href="#m998923966a" x="135" y="298.144608" style="stroke: #000000; stroke-width: 0.8"/>
      </g>
     </g>
     <g id="text_13">
      <!-- 0.10 -->
      <g transform="translate(105.734375 301.943827)scale(0.1 -0.1)">
       <use xlink:href="#DejaVuSans-30"/>
       <use xlink:href="#DejaVuSans-2e" x="63.623047"/>
       <use xlink:href="#DejaVuSans-31" x="95.410156"/>
       <use xlink:href="#DejaVuSans-30" x="159.033203"/>
      </g>
     </g>
    </g>
    <g id="ytick_4">
     <g id="line2d_13">
      <g>
       <use xlink:href="#m998923966a" x="135" y="258.216912" style="stroke: #000000; stroke-width: 0.8"/>
      </g>
     </g>
     <g id="text_14">
      <!-- 0.15 -->
      <g transform="translate(105.734375 262.01613)scale(0.1 -0.1)">
       <use xlink:href="#DejaVuSans-30"/>
       <use xlink:href="#DejaVuSans-2e" x="63.623047"/>
       <use xlink:href="#DejaVuSans-31" x="95.410156"/>
       <use xlink:href="#DejaVuSans-35" x="159.033203"/>
      </g>
     </g>
    </g>
    <g id="ytick_5">
     <g id="line2d_14">
      <g>
       <use xlink:href="#m998923966a" x="135" y="218.289216" style="stroke: #000000; stroke-width: 0.8"/>
      </g>
     </g>
     <g id="text_15">
      <!-- 0.20 -->
      <g transform="translate(105.734375 222.088434)scale(0.1 -0.1)">
       <use xlink:href="#DejaVuSans-30"/>
       <use xlink:href="#DejaVuSans-2e" x="63.623047"/>
       <use xlink:href="#DejaVuSans-32" x="95.410156"/>
       <use xlink:href="#DejaVuSans-30" x="159.033203"/>
      </g>
     </g>
    </g>
    <g id="ytick_6">
     <g id="line2d_15">
      <g>
       <use xlink:href="#m998923966a" x="135" y="178.36152" style="stroke: #000000; stroke-width: 0.8"/>
      </g>
     </g>
     <g id="text_16">
      <!-- 0.25 -->
      <g transform="translate(105.734375 182.160738)scale(0.1 -0.1)">
       <use xlink:href="#DejaVuSans-30"/>
       <use xlink:href="#DejaVuSans-2e" x="63.623047"/>
       <use xlink:href="#DejaVuSans-32" x="95.410156"/>
       <use xlink:href="#DejaVuSans-35" x="159.033203"/>
      </g>
     </g>
    </g>
    <g id="ytick_7">
     <g id="line2d_16">
      <g>
       <use xlink:href="#m998923966a" x="135" y="138.433823" style="stroke: #000000; stroke-width: 0.8"/>
      </g>
     </g>
     <g id="text_17">
      <!-- 0.30 -->
      <g transform="translate(105.734375 142.233042)scale(0.1 -0.1)">
       <use xlink:href="#DejaVuSans-30"/>
       <use xlink:href="#DejaVuSans-2e" x="63.623047"/>
       <use xlink:href="#DejaVuSans-33" x="95.410156"/>
       <use xlink:href="#DejaVuSans-30" x="159.033203"/>
      </g>
     </g>
    </g>
    <g id="ytick_8">
     <g id="line2d_17">
      <g>
       <use xlink:href="#m998923966a" x="135" y="98.506127" style="stroke: #000000; stroke-width: 0.8"/>
      </g>
     </g>
     <g id="text_18">
      <!-- 0.35 -->
      <g transform="translate(105.734375 102.305346)scale(0.1 -0.1)">
       <use xlink:href="#DejaVuSans-30"/>
       <use xlink:href="#DejaVuSans-2e" x="63.623047"/>
       <use xlink:href="#DejaVuSans-33" x="95.410156"/>
       <use xlink:href="#DejaVuSans-35" x="159.033203"/>
      </g>
     </g>
    </g>
    <g id="ytick_9">
     <g id="line2d_18">
      <g>
       <use xlink:href="#m998923966a" x="135" y="58.578431" style="stroke: #000000; stroke-width: 0.8"/>
      </g>
     </g>
     <g id="text_19">
      <!-- 0.40 -->
      <g transform="translate(105.734375 62.37765)scale(0.1 -0.1)">
       <use xlink:href="#DejaVuSans-30"/>
       <use xlink:href="#DejaVuSans-2e" x="63.623047"/>
       <use xlink:href="#DejaVuSans-34" x="95.410156"/>
       <use xlink:href="#DejaVuSans-30" x="159.033203"/>
      </g>
     </g>
    </g>
    <g id="text_20">
     <!-- Density -->
     <g transform="translate(99.654687 233.928594)rotate(-90)scale(0.1 -0.1)">
      <defs>
       <path id="DejaVuSans-44" d="M 1259 4147 
L 1259 519 
L 2022 519 
Q 2988 519 3436 956 
Q 3884 1394 3884 2338 
Q 3884 3275 3436 3711 
Q 2988 4147 2022 4147 
L 1259 4147 
z
M 628 4666 
L 1925 4666 
Q 3281 4666 3915 4102 
Q 4550 3538 4550 2338 
Q 4550 1131 3912 565 
Q 3275 0 1925 0 
L 628 0 
L 628 4666 
z
" transform="scale(0.015625)"/>
       <path id="DejaVuSans-73" d="M 2834 3397 
L 2834 2853 
Q 2591 2978 2328 3040 
Q 2066 3103 1784 3103 
Q 1356 3103 1142 2972 
Q 928 2841 928 2578 
Q 928 2378 1081 2264 
Q 1234 2150 1697 2047 
L 1894 2003 
Q 2506 1872 2764 1633 
Q 3022 1394 3022 966 
Q 3022 478 2636 193 
Q 2250 -91 1575 -91 
Q 1294 -91 989 -36 
Q 684 19 347 128 
L 347 722 
Q 666 556 975 473 
Q 1284 391 1588 391 
Q 1994 391 2212 530 
Q 2431 669 2431 922 
Q 2431 1156 2273 1281 
Q 2116 1406 1581 1522 
L 1381 1569 
Q 847 1681 609 1914 
Q 372 2147 372 2553 
Q 372 3047 722 3315 
Q 1072 3584 1716 3584 
Q 2034 3584 2315 3537 
Q 2597 3491 2834 3397 
z
" transform="scale(0.015625)"/>
       <path id="DejaVuSans-79" d="M 2059 -325 
Q 1816 -950 1584 -1140 
Q 1353 -1331 966 -1331 
L 506 -1331 
L 506 -850 
L 844 -850 
Q 1081 -850 1212 -737 
Q 1344 -625 1503 -206 
L 1606 56 
L 191 3500 
L 800 3500 
L 1894 763 
L 2988 3500 
L 3597 3500 
L 2059 -325 
z
" transform="scale(0.015625)"/>
      </defs>
      <use xlink:href="#DejaVuSans-44"/>
      <use xlink:href="#DejaVuSans-65" x="77.001953"/>
      <use xlink:href="#DejaVuSans-6e" x="138.525391"/>
      <use xlink:href="#DejaVuSans-73" x="201.904297"/>
      <use xlink:href="#DejaVuSans-69" x="254.003906"/>
      <use xlink:href="#DejaVuSans-74" x="281.787109"/>
      <use xlink:href="#DejaVuSans-79" x="320.996094"/>
     </g>
    </g>
   </g>
   <g id="patch_3">
    <path d="M 135 378 
L 135 51.84 
" style="fill: none; stroke: #000000; stroke-width: 0.8; stroke-linejoin: miter; stroke-linecap: square"/>
   </g>
   <g id="patch_4">
    <path d="M 515.454545 378 
L 515.454545 51.84 
" style="fill: none; stroke: #000000; stroke-width: 0.8; stroke-linejoin: miter; stroke-linecap: square"/>
   </g>
   <g id="patch_5">
    <path d="M 135 378 
L 515.454545 378 
" style="fill: none; stroke: #000000; stroke-width: 0.8; stroke-linejoin: miter; stroke-linecap: square"/>
   </g>
   <g id="patch_6">
    <path d="M 135 51.84 
L 515.454545 51.84 
" style="fill: none; stroke: #000000; stroke-width: 0.8; stroke-linejoin: miter; stroke-linecap: square"/>
   </g>
   <g id="text_21">
    <!-- Excluding outliers, avg= 1.67m -->
    <g transform="translate(230.793835 45.84)scale(0.12 -0.12)">
     <defs>
      <path id="DejaVuSans-78" d="M 3513 3500 
L 2247 1797 
L 3578 0 
L 2900 0 
L 1881 1375 
L 863 0 
L 184 0 
L 1544 1831 
L 300 3500 
L 978 3500 
L 1906 2253 
L 2834 3500 
L 3513 3500 
z
" transform="scale(0.015625)"/>
      <path id="DejaVuSans-63" d="M 3122 3366 
L 3122 2828 
Q 2878 2963 2633 3030 
Q 2388 3097 2138 3097 
Q 1578 3097 1268 2742 
Q 959 2388 959 1747 
Q 959 1106 1268 751 
Q 1578 397 2138 397 
Q 2388 397 2633 464 
Q 2878 531 3122 666 
L 3122 134 
Q 2881 22 2623 -34 
Q 2366 -91 2075 -91 
Q 1284 -91 818 406 
Q 353 903 353 1747 
Q 353 2603 823 3093 
Q 1294 3584 2113 3584 
Q 2378 3584 2631 3529 
Q 2884 3475 3122 3366 
z
" transform="scale(0.015625)"/>
      <path id="DejaVuSans-75" d="M 544 1381 
L 544 3500 
L 1119 3500 
L 1119 1403 
Q 1119 906 1312 657 
Q 1506 409 1894 409 
Q 2359 409 2629 706 
Q 2900 1003 2900 1516 
L 2900 3500 
L 3475 3500 
L 3475 0 
L 2900 0 
L 2900 538 
Q 2691 219 2414 64 
Q 2138 -91 1772 -91 
Q 1169 -91 856 284 
Q 544 659 544 1381 
z
M 1991 3584 
L 1991 3584 
z
" transform="scale(0.015625)"/>
      <path id="DejaVuSans-64" d="M 2906 2969 
L 2906 4863 
L 3481 4863 
L 3481 0 
L 2906 0 
L 2906 525 
Q 2725 213 2448 61 
Q 2172 -91 1784 -91 
Q 1150 -91 751 415 
Q 353 922 353 1747 
Q 353 2572 751 3078 
Q 1150 3584 1784 3584 
Q 2172 3584 2448 3432 
Q 2725 3281 2906 2969 
z
M 947 1747 
Q 947 1113 1208 752 
Q 1469 391 1925 391 
Q 2381 391 2643 752 
Q 2906 1113 2906 1747 
Q 2906 2381 2643 2742 
Q 2381 3103 1925 3103 
Q 1469 3103 1208 2742 
Q 947 2381 947 1747 
z
" transform="scale(0.015625)"/>
      <path id="DejaVuSans-67" d="M 2906 1791 
Q 2906 2416 2648 2759 
Q 2391 3103 1925 3103 
Q 1463 3103 1205 2759 
Q 947 2416 947 1791 
Q 947 1169 1205 825 
Q 1463 481 1925 481 
Q 2391 481 2648 825 
Q 2906 1169 2906 1791 
z
M 3481 434 
Q 3481 -459 3084 -895 
Q 2688 -1331 1869 -1331 
Q 1566 -1331 1297 -1286 
Q 1028 -1241 775 -1147 
L 775 -588 
Q 1028 -725 1275 -790 
Q 1522 -856 1778 -856 
Q 2344 -856 2625 -561 
Q 2906 -266 2906 331 
L 2906 616 
Q 2728 306 2450 153 
Q 2172 0 1784 0 
Q 1141 0 747 490 
Q 353 981 353 1791 
Q 353 2603 747 3093 
Q 1141 3584 1784 3584 
Q 2172 3584 2450 3431 
Q 2728 3278 2906 2969 
L 2906 3500 
L 3481 3500 
L 3481 434 
z
" transform="scale(0.015625)"/>
      <path id="DejaVuSans-2c" d="M 750 794 
L 1409 794 
L 1409 256 
L 897 -744 
L 494 -744 
L 750 256 
L 750 794 
z
" transform="scale(0.015625)"/>
      <path id="DejaVuSans-3d" d="M 678 2906 
L 4684 2906 
L 4684 2381 
L 678 2381 
L 678 2906 
z
M 678 1631 
L 4684 1631 
L 4684 1100 
L 678 1100 
L 678 1631 
z
" transform="scale(0.015625)"/>
     </defs>
     <use xlink:href="#DejaVuSans-45"/>
     <use xlink:href="#DejaVuSans-78" x="63.183594"/>
     <use xlink:href="#DejaVuSans-63" x="120.613281"/>
     <use xlink:href="#DejaVuSans-6c" x="175.59375"/>
     <use xlink:href="#DejaVuSans-75" x="203.376953"/>
     <use xlink:href="#DejaVuSans-64" x="266.755859"/>
     <use xlink:href="#DejaVuSans-69" x="330.232422"/>
     <use xlink:href="#DejaVuSans-6e" x="358.015625"/>
     <use xlink:href="#DejaVuSans-67" x="421.394531"/>
     <use xlink:href="#DejaVuSans-20" x="484.871094"/>
     <use xlink:href="#DejaVuSans-6f" x="516.658203"/>
     <use xlink:href="#DejaVuSans-75" x="577.839844"/>
     <use xlink:href="#DejaVuSans-74" x="641.21875"/>
     <use xlink:href="#DejaVuSans-6c" x="680.427734"/>
     <use xlink:href="#DejaVuSans-69" x="708.210938"/>
     <use xlink:href="#DejaVuSans-65" x="735.994141"/>
     <use xlink:href="#DejaVuSans-72" x="797.517578"/>
     <use xlink:href="#DejaVuSans-73" x="838.630859"/>
     <use xlink:href="#DejaVuSans-2c" x="890.730469"/>
     <use xlink:href="#DejaVuSans-20" x="922.517578"/>
     <use xlink:href="#DejaVuSans-61" x="954.304688"/>
     <use xlink:href="#DejaVuSans-76" x="1015.583984"/>
     <use xlink:href="#DejaVuSans-67" x="1074.763672"/>
     <use xlink:href="#DejaVuSans-3d" x="1138.240234"/>
     <use xlink:href="#DejaVuSans-20" x="1222.029297"/>
     <use xlink:href="#DejaVuSans-31" x="1253.816406"/>
     <use xlink:href="#DejaVuSans-2e" x="1317.439453"/>
     <use xlink:href="#DejaVuSans-36" x="1349.226562"/>
     <use xlink:href="#DejaVuSans-37" x="1412.849609"/>
     <use xlink:href="#DejaVuSans-6d" x="1476.472656"/>
    </g>
   </g>
  </g>
  <g id="axes_2">
   <g id="patch_7">
    <path d="M 591.545455 378 
L 972 378 
L 972 51.84 
L 591.545455 51.84 
z
" style="fill: #ffffff"/>
   </g>
   <g id="PolyCollection_2">
    <defs>
     <path id="mcd33fcf7c8" d="M 580.720162 -54.772749 
L 580.720162 -54 
L 582.592762 -54 
L 584.465363 -54 
L 586.337963 -54 
L 588.210563 -54 
L 590.083164 -54 
L 591.955764 -54 
L 593.828364 -54 
L 595.700965 -54 
L 597.573565 -54 
L 599.446165 -54 
L 601.318766 -54 
L 603.191366 -54 
L 605.063966 -54 
L 606.936566 -54 
L 608.809167 -54 
L 610.681767 -54 
L 612.554367 -54 
L 614.426968 -54 
L 616.299568 -54 
L 618.172168 -54 
L 620.044769 -54 
L 621.917369 -54 
L 623.789969 -54 
L 625.66257 -54 
L 627.53517 -54 
L 629.40777 -54 
L 631.280371 -54 
L 633.152971 -54 
L 635.025571 -54 
L 636.898172 -54 
L 638.770772 -54 
L 640.643372 -54 
L 642.515973 -54 
L 644.388573 -54 
L 646.261173 -54 
L 648.133774 -54 
L 650.006374 -54 
L 651.878974 -54 
L 653.751575 -54 
L 655.624175 -54 
L 657.496775 -54 
L 659.369376 -54 
L 661.241976 -54 
L 663.114576 -54 
L 664.987177 -54 
L 666.859777 -54 
L 668.732377 -54 
L 670.604978 -54 
L 672.477578 -54 
L 674.350178 -54 
L 676.222779 -54 
L 678.095379 -54 
L 679.967979 -54 
L 681.84058 -54 
L 683.71318 -54 
L 685.58578 -54 
L 687.458381 -54 
L 689.330981 -54 
L 691.203581 -54 
L 693.076181 -54 
L 694.948782 -54 
L 696.821382 -54 
L 698.693982 -54 
L 700.566583 -54 
L 702.439183 -54 
L 704.311783 -54 
L 706.184384 -54 
L 708.056984 -54 
L 709.929584 -54 
L 711.802185 -54 
L 713.674785 -54 
L 715.547385 -54 
L 717.419986 -54 
L 719.292586 -54 
L 721.165186 -54 
L 723.037787 -54 
L 724.910387 -54 
L 726.782987 -54 
L 728.655588 -54 
L 730.528188 -54 
L 732.400788 -54 
L 734.273389 -54 
L 736.145989 -54 
L 738.018589 -54 
L 739.89119 -54 
L 741.76379 -54 
L 743.63639 -54 
L 745.508991 -54 
L 747.381591 -54 
L 749.254191 -54 
L 751.126792 -54 
L 752.999392 -54 
L 754.871992 -54 
L 756.744593 -54 
L 758.617193 -54 
L 760.489793 -54 
L 762.362394 -54 
L 764.234994 -54 
L 766.107594 -54 
L 767.980195 -54 
L 769.852795 -54 
L 771.725395 -54 
L 773.597995 -54 
L 775.470596 -54 
L 777.343196 -54 
L 779.215796 -54 
L 781.088397 -54 
L 782.960997 -54 
L 784.833597 -54 
L 786.706198 -54 
L 788.578798 -54 
L 790.451398 -54 
L 792.323999 -54 
L 794.196599 -54 
L 796.069199 -54 
L 797.9418 -54 
L 799.8144 -54 
L 801.687 -54 
L 803.559601 -54 
L 805.432201 -54 
L 807.304801 -54 
L 809.177402 -54 
L 811.050002 -54 
L 812.922602 -54 
L 814.795203 -54 
L 816.667803 -54 
L 818.540403 -54 
L 820.413004 -54 
L 822.285604 -54 
L 824.158204 -54 
L 826.030805 -54 
L 827.903405 -54 
L 829.776005 -54 
L 831.648606 -54 
L 833.521206 -54 
L 835.393806 -54 
L 837.266407 -54 
L 839.139007 -54 
L 841.011607 -54 
L 842.884208 -54 
L 844.756808 -54 
L 846.629408 -54 
L 848.502009 -54 
L 850.374609 -54 
L 852.247209 -54 
L 854.119809 -54 
L 855.99241 -54 
L 857.86501 -54 
L 859.73761 -54 
L 861.610211 -54 
L 863.482811 -54 
L 865.355411 -54 
L 867.228012 -54 
L 869.100612 -54 
L 870.973212 -54 
L 872.845813 -54 
L 874.718413 -54 
L 876.591013 -54 
L 878.463614 -54 
L 880.336214 -54 
L 882.208814 -54 
L 884.081415 -54 
L 885.954015 -54 
L 887.826615 -54 
L 889.699216 -54 
L 891.571816 -54 
L 893.444416 -54 
L 895.317017 -54 
L 897.189617 -54 
L 899.062217 -54 
L 900.934818 -54 
L 902.807418 -54 
L 904.680018 -54 
L 906.552619 -54 
L 908.425219 -54 
L 910.297819 -54 
L 912.17042 -54 
L 914.04302 -54 
L 915.91562 -54 
L 917.788221 -54 
L 919.660821 -54 
L 921.533421 -54 
L 923.406022 -54 
L 925.278622 -54 
L 927.151222 -54 
L 929.023823 -54 
L 930.896423 -54 
L 932.769023 -54 
L 934.641624 -54 
L 936.514224 -54 
L 938.386824 -54 
L 940.259424 -54 
L 942.132025 -54 
L 944.004625 -54 
L 945.877225 -54 
L 947.749826 -54 
L 949.622426 -54 
L 951.495026 -54 
L 953.367627 -54 
L 953.367627 -54.001157 
L 953.367627 -54.001157 
L 951.495026 -54.004799 
L 949.622426 -54.015198 
L 947.749826 -54.036773 
L 945.877225 -54.067968 
L 944.004625 -54.095966 
L 942.132025 -54.103507 
L 940.259424 -54.085285 
L 938.386824 -54.0537 
L 936.514224 -54.025973 
L 934.641624 -54.010407 
L 932.769023 -54.006656 
L 930.896423 -54.013713 
L 929.023823 -54.033116 
L 927.151222 -54.063395 
L 925.278622 -54.092935 
L 923.406022 -54.104091 
L 921.533421 -54.089062 
L 919.660821 -54.058212 
L 917.788221 -54.029065 
L 915.91562 -54.011086 
L 914.04302 -54.00323 
L 912.17042 -54.000719 
L 910.297819 -54.000122 
L 908.425219 -54.000016 
L 906.552619 -54.000002 
L 904.680018 -54.000006 
L 902.807418 -54.000052 
L 900.934818 -54.000346 
L 899.062217 -54.001746 
L 897.189617 -54.006742 
L 895.317017 -54.019937 
L 893.444416 -54.045326 
L 891.571816 -54.079984 
L 889.699216 -54.112085 
L 887.826615 -54.130775 
L 885.954015 -54.136622 
L 884.081415 -54.135178 
L 882.208814 -54.124379 
L 880.336214 -54.099044 
L 878.463614 -54.064066 
L 876.591013 -54.032501 
L 874.718413 -54.01273 
L 872.845813 -54.003825 
L 870.973212 -54.000879 
L 869.100612 -54.000156 
L 867.228012 -54.000034 
L 865.355411 -54.000103 
L 863.482811 -54.000612 
L 861.610211 -54.002822 
L 859.73761 -54.009944 
L 857.86501 -54.026766 
L 855.99241 -54.055039 
L 854.119809 -54.086462 
L 852.247209 -54.103806 
L 850.374609 -54.095514 
L 848.502009 -54.068648 
L 846.629408 -54.043323 
L 844.756808 -54.036571 
L 842.884208 -54.052634 
L 841.011607 -54.081535 
L 839.139007 -54.104039 
L 837.266407 -54.106327 
L 835.393806 -54.094365 
L 833.521206 -54.087738 
L 831.648606 -54.096096 
L 829.776005 -54.107167 
L 827.903405 -54.101803 
L 826.030805 -54.076239 
L 824.158204 -54.043979 
L 822.285604 -54.019422 
L 820.413004 -54.006555 
L 818.540403 -54.001691 
L 816.667803 -54.000333 
L 814.795203 -54.00005 
L 812.922602 -54.00001 
L 811.050002 -54.00004 
L 809.177402 -54.000275 
L 807.304801 -54.001493 
L 805.432201 -54.006273 
L 803.559601 -54.020523 
L 801.687 -54.052808 
L 799.8144 -54.108566 
L 797.9418 -54.182691 
L 796.069199 -54.260361 
L 794.196599 -54.32706 
L 792.323999 -54.374691 
L 790.451398 -54.397695 
L 788.578798 -54.388673 
L 786.706198 -54.341295 
L 784.833597 -54.259668 
L 782.960997 -54.164715 
L 781.088397 -54.084364 
L 779.215796 -54.034153 
L 777.343196 -54.011043 
L 775.470596 -54.004193 
L 773.597995 -54.006703 
L 771.725395 -54.018698 
L 769.852795 -54.042654 
L 767.980195 -54.074581 
L 766.107594 -54.099636 
L 764.234994 -54.101687 
L 762.362394 -54.079324 
L 760.489793 -54.047568 
L 758.617193 -54.023286 
L 756.744593 -54.014402 
L 754.871992 -54.02233 
L 752.999392 -54.04619 
L 751.126792 -54.079711 
L 749.254191 -54.109292 
L 747.381591 -54.12405 
L 745.508991 -54.127116 
L 743.63639 -54.128728 
L 741.76379 -54.13162 
L 739.89119 -54.136203 
L 738.018589 -54.156906 
L 736.145989 -54.214507 
L 734.273389 -54.308183 
L 732.400788 -54.412376 
L 730.528188 -54.507292 
L 728.655588 -54.591616 
L 726.782987 -54.657921 
L 724.910387 -54.684233 
L 723.037787 -54.662603 
L 721.165186 -54.614798 
L 719.292586 -54.575492 
L 717.419986 -54.568702 
L 715.547385 -54.589157 
L 713.674785 -54.603386 
L 711.802185 -54.582447 
L 709.929584 -54.530191 
L 708.056984 -54.473485 
L 706.184384 -54.43563 
L 704.311783 -54.421681 
L 702.439183 -54.420954 
L 700.566583 -54.423744 
L 698.693982 -54.433566 
L 696.821382 -54.45569 
L 694.948782 -54.482256 
L 693.076181 -54.50085 
L 691.203581 -54.510663 
L 689.330981 -54.525569 
L 687.458381 -54.566071 
L 685.58578 -54.640983 
L 683.71318 -54.735195 
L 681.84058 -54.82817 
L 679.967979 -54.920981 
L 678.095379 -55.035305 
L 676.222779 -55.185747 
L 674.350178 -55.344144 
L 672.477578 -55.437145 
L 670.604978 -55.409886 
L 668.732377 -55.289821 
L 666.859777 -55.168314 
L 664.987177 -55.138865 
L 663.114576 -55.253783 
L 661.241976 -55.488036 
L 659.369376 -55.731971 
L 657.496775 -55.870973 
L 655.624175 -55.895197 
L 653.751575 -55.904108 
L 651.878974 -55.997881 
L 650.006374 -56.192882 
L 648.133774 -56.443667 
L 646.261173 -56.705519 
L 644.388573 -56.956896 
L 642.515973 -57.191169 
L 640.643372 -57.407157 
L 638.770772 -57.594953 
L 636.898172 -57.722711 
L 635.025571 -57.75578 
L 633.152971 -57.722826 
L 631.280371 -57.767348 
L 629.40777 -58.10131 
L 627.53517 -58.908584 
L 625.66257 -60.294447 
L 623.789969 -62.217346 
L 621.917369 -64.371188 
L 620.044769 -66.250703 
L 618.172168 -67.5034 
L 616.299568 -68.261186 
L 614.426968 -69.229779 
L 612.554367 -71.603386 
L 610.681767 -76.791619 
L 608.809167 -86.104737 
L 606.936566 -101.025673 
L 605.063966 -124.10919 
L 603.191366 -158.962411 
L 601.318766 -207.89643 
L 599.446165 -267.975516 
L 597.573565 -327.273375 
L 595.700965 -364.628571 
L 593.828364 -358.663438 
L 591.955764 -304.761896 
L 590.083164 -223.364309 
L 588.210563 -146.286167 
L 586.337963 -94.065322 
L 584.465363 -67.730663 
L 582.592762 -57.688775 
L 580.720162 -54.772749 
z
" style="stroke: #1f77b4"/>
    </defs>
    <g clip-path="url(#pfb5225078e)">
     <use xlink:href="#mcd33fcf7c8" x="0" y="432" style="fill: #1f77b4; fill-opacity: 0.25; stroke: #1f77b4"/>
    </g>
   </g>
   <g id="matplotlib.axis_3">
    <g id="xtick_10">
     <g id="line2d_19">
      <g>
       <use xlink:href="#me3e1d9bb34" x="591.545455" y="378" style="stroke: #000000; stroke-width: 0.8"/>
      </g>
     </g>
     <g id="text_22">
      <!-- 0 -->
      <g transform="translate(588.364205 392.598437)scale(0.1 -0.1)">
       <use xlink:href="#DejaVuSans-30"/>
      </g>
     </g>
    </g>
    <g id="xtick_11">
     <g id="line2d_20">
      <g>
       <use xlink:href="#me3e1d9bb34" x="649.085927" y="378" style="stroke: #000000; stroke-width: 0.8"/>
      </g>
     </g>
     <g id="text_23">
      <!-- 20 -->
      <g transform="translate(642.723427 392.598437)scale(0.1 -0.1)">
       <use xlink:href="#DejaVuSans-32"/>
       <use xlink:href="#DejaVuSans-30" x="63.623047"/>
      </g>
     </g>
    </g>
    <g id="xtick_12">
     <g id="line2d_21">
      <g>
       <use xlink:href="#me3e1d9bb34" x="706.626399" y="378" style="stroke: #000000; stroke-width: 0.8"/>
      </g>
     </g>
     <g id="text_24">
      <!-- 40 -->
      <g transform="translate(700.263899 392.598437)scale(0.1 -0.1)">
       <use xlink:href="#DejaVuSans-34"/>
       <use xlink:href="#DejaVuSans-30" x="63.623047"/>
      </g>
     </g>
    </g>
    <g id="xtick_13">
     <g id="line2d_22">
      <g>
       <use xlink:href="#me3e1d9bb34" x="764.166871" y="378" style="stroke: #000000; stroke-width: 0.8"/>
      </g>
     </g>
     <g id="text_25">
      <!-- 60 -->
      <g transform="translate(757.804371 392.598437)scale(0.1 -0.1)">
       <use xlink:href="#DejaVuSans-36"/>
       <use xlink:href="#DejaVuSans-30" x="63.623047"/>
      </g>
     </g>
    </g>
    <g id="xtick_14">
     <g id="line2d_23">
      <g>
       <use xlink:href="#me3e1d9bb34" x="821.707343" y="378" style="stroke: #000000; stroke-width: 0.8"/>
      </g>
     </g>
     <g id="text_26">
      <!-- 80 -->
      <g transform="translate(815.344843 392.598437)scale(0.1 -0.1)">
       <use xlink:href="#DejaVuSans-38"/>
       <use xlink:href="#DejaVuSans-30" x="63.623047"/>
      </g>
     </g>
    </g>
    <g id="xtick_15">
     <g id="line2d_24">
      <g>
       <use xlink:href="#me3e1d9bb34" x="879.247815" y="378" style="stroke: #000000; stroke-width: 0.8"/>
      </g>
     </g>
     <g id="text_27">
      <!-- 100 -->
      <g transform="translate(869.704065 392.598437)scale(0.1 -0.1)">
       <use xlink:href="#DejaVuSans-31"/>
       <use xlink:href="#DejaVuSans-30" x="63.623047"/>
       <use xlink:href="#DejaVuSans-30" x="127.246094"/>
      </g>
     </g>
    </g>
    <g id="xtick_16">
     <g id="line2d_25">
      <g>
       <use xlink:href="#me3e1d9bb34" x="936.788287" y="378" style="stroke: #000000; stroke-width: 0.8"/>
      </g>
     </g>
     <g id="text_28">
      <!-- 120 -->
      <g transform="translate(927.244537 392.598437)scale(0.1 -0.1)">
       <use xlink:href="#DejaVuSans-31"/>
       <use xlink:href="#DejaVuSans-32" x="63.623047"/>
       <use xlink:href="#DejaVuSans-30" x="127.246094"/>
      </g>
     </g>
    </g>
    <g id="text_29">
     <!-- Elevation error (m) -->
     <g transform="translate(734.494602 406.276563)scale(0.1 -0.1)">
      <use xlink:href="#DejaVuSans-45"/>
      <use xlink:href="#DejaVuSans-6c" x="63.183594"/>
      <use xlink:href="#DejaVuSans-65" x="90.966797"/>
      <use xlink:href="#DejaVuSans-76" x="152.490234"/>
      <use xlink:href="#DejaVuSans-61" x="211.669922"/>
      <use xlink:href="#DejaVuSans-74" x="272.949219"/>
      <use xlink:href="#DejaVuSans-69" x="312.158203"/>
      <use xlink:href="#DejaVuSans-6f" x="339.941406"/>
      <use xlink:href="#DejaVuSans-6e" x="401.123047"/>
      <use xlink:href="#DejaVuSans-20" x="464.501953"/>
      <use xlink:href="#DejaVuSans-65" x="496.289062"/>
      <use xlink:href="#DejaVuSans-72" x="557.8125"/>
      <use xlink:href="#DejaVuSans-72" x="597.175781"/>
      <use xlink:href="#DejaVuSans-6f" x="636.039062"/>
      <use xlink:href="#DejaVuSans-72" x="697.220703"/>
      <use xlink:href="#DejaVuSans-20" x="738.333984"/>
      <use xlink:href="#DejaVuSans-28" x="770.121094"/>
      <use xlink:href="#DejaVuSans-6d" x="809.134766"/>
      <use xlink:href="#DejaVuSans-29" x="906.546875"/>
     </g>
    </g>
   </g>
   <g id="matplotlib.axis_4">
    <g id="ytick_10">
     <g id="line2d_26">
      <g>
       <use xlink:href="#m998923966a" x="591.545455" y="378" style="stroke: #000000; stroke-width: 0.8"/>
      </g>
     </g>
     <g id="text_30">
      <!-- 0.000 -->
      <g transform="translate(555.91733 381.799219)scale(0.1 -0.1)">
       <use xlink:href="#DejaVuSans-30"/>
       <use xlink:href="#DejaVuSans-2e" x="63.623047"/>
       <use xlink:href="#DejaVuSans-30" x="95.410156"/>
       <use xlink:href="#DejaVuSans-30" x="159.033203"/>
       <use xlink:href="#DejaVuSans-30" x="222.65625"/>
      </g>
     </g>
    </g>
    <g id="ytick_11">
     <g id="line2d_27">
      <g>
       <use xlink:href="#m998923966a" x="591.545455" y="340.678647" style="stroke: #000000; stroke-width: 0.8"/>
      </g>
     </g>
     <g id="text_31">
      <!-- 0.025 -->
      <g transform="translate(555.91733 344.477866)scale(0.1 -0.1)">
       <use xlink:href="#DejaVuSans-30"/>
       <use xlink:href="#DejaVuSans-2e" x="63.623047"/>
       <use xlink:href="#DejaVuSans-30" x="95.410156"/>
       <use xlink:href="#DejaVuSans-32" x="159.033203"/>
       <use xlink:href="#DejaVuSans-35" x="222.65625"/>
      </g>
     </g>
    </g>
    <g id="ytick_12">
     <g id="line2d_28">
      <g>
       <use xlink:href="#m998923966a" x="591.545455" y="303.357295" style="stroke: #000000; stroke-width: 0.8"/>
      </g>
     </g>
     <g id="text_32">
      <!-- 0.050 -->
      <g transform="translate(555.91733 307.156514)scale(0.1 -0.1)">
       <use xlink:href="#DejaVuSans-30"/>
       <use xlink:href="#DejaVuSans-2e" x="63.623047"/>
       <use xlink:href="#DejaVuSans-30" x="95.410156"/>
       <use xlink:href="#DejaVuSans-35" x="159.033203"/>
       <use xlink:href="#DejaVuSans-30" x="222.65625"/>
      </g>
     </g>
    </g>
    <g id="ytick_13">
     <g id="line2d_29">
      <g>
       <use xlink:href="#m998923966a" x="591.545455" y="266.035942" style="stroke: #000000; stroke-width: 0.8"/>
      </g>
     </g>
     <g id="text_33">
      <!-- 0.075 -->
      <g transform="translate(555.91733 269.835161)scale(0.1 -0.1)">
       <use xlink:href="#DejaVuSans-30"/>
       <use xlink:href="#DejaVuSans-2e" x="63.623047"/>
       <use xlink:href="#DejaVuSans-30" x="95.410156"/>
       <use xlink:href="#DejaVuSans-37" x="159.033203"/>
       <use xlink:href="#DejaVuSans-35" x="222.65625"/>
      </g>
     </g>
    </g>
    <g id="ytick_14">
     <g id="line2d_30">
      <g>
       <use xlink:href="#m998923966a" x="591.545455" y="228.71459" style="stroke: #000000; stroke-width: 0.8"/>
      </g>
     </g>
     <g id="text_34">
      <!-- 0.100 -->
      <g transform="translate(555.91733 232.513808)scale(0.1 -0.1)">
       <use xlink:href="#DejaVuSans-30"/>
       <use xlink:href="#DejaVuSans-2e" x="63.623047"/>
       <use xlink:href="#DejaVuSans-31" x="95.410156"/>
       <use xlink:href="#DejaVuSans-30" x="159.033203"/>
       <use xlink:href="#DejaVuSans-30" x="222.65625"/>
      </g>
     </g>
    </g>
    <g id="ytick_15">
     <g id="line2d_31">
      <g>
       <use xlink:href="#m998923966a" x="591.545455" y="191.393237" style="stroke: #000000; stroke-width: 0.8"/>
      </g>
     </g>
     <g id="text_35">
      <!-- 0.125 -->
      <g transform="translate(555.91733 195.192456)scale(0.1 -0.1)">
       <use xlink:href="#DejaVuSans-30"/>
       <use xlink:href="#DejaVuSans-2e" x="63.623047"/>
       <use xlink:href="#DejaVuSans-31" x="95.410156"/>
       <use xlink:href="#DejaVuSans-32" x="159.033203"/>
       <use xlink:href="#DejaVuSans-35" x="222.65625"/>
      </g>
     </g>
    </g>
    <g id="ytick_16">
     <g id="line2d_32">
      <g>
       <use xlink:href="#m998923966a" x="591.545455" y="154.071884" style="stroke: #000000; stroke-width: 0.8"/>
      </g>
     </g>
     <g id="text_36">
      <!-- 0.150 -->
      <g transform="translate(555.91733 157.871103)scale(0.1 -0.1)">
       <use xlink:href="#DejaVuSans-30"/>
       <use xlink:href="#DejaVuSans-2e" x="63.623047"/>
       <use xlink:href="#DejaVuSans-31" x="95.410156"/>
       <use xlink:href="#DejaVuSans-35" x="159.033203"/>
       <use xlink:href="#DejaVuSans-30" x="222.65625"/>
      </g>
     </g>
    </g>
    <g id="ytick_17">
     <g id="line2d_33">
      <g>
       <use xlink:href="#m998923966a" x="591.545455" y="116.750532" style="stroke: #000000; stroke-width: 0.8"/>
      </g>
     </g>
     <g id="text_37">
      <!-- 0.175 -->
      <g transform="translate(555.91733 120.549751)scale(0.1 -0.1)">
       <use xlink:href="#DejaVuSans-30"/>
       <use xlink:href="#DejaVuSans-2e" x="63.623047"/>
       <use xlink:href="#DejaVuSans-31" x="95.410156"/>
       <use xlink:href="#DejaVuSans-37" x="159.033203"/>
       <use xlink:href="#DejaVuSans-35" x="222.65625"/>
      </g>
     </g>
    </g>
    <g id="ytick_18">
     <g id="line2d_34">
      <g>
       <use xlink:href="#m998923966a" x="591.545455" y="79.429179" style="stroke: #000000; stroke-width: 0.8"/>
      </g>
     </g>
     <g id="text_38">
      <!-- 0.200 -->
      <g transform="translate(555.91733 83.228398)scale(0.1 -0.1)">
       <use xlink:href="#DejaVuSans-30"/>
       <use xlink:href="#DejaVuSans-2e" x="63.623047"/>
       <use xlink:href="#DejaVuSans-32" x="95.410156"/>
       <use xlink:href="#DejaVuSans-30" x="159.033203"/>
       <use xlink:href="#DejaVuSans-30" x="222.65625"/>
      </g>
     </g>
    </g>
    <g id="text_39">
     <!-- Density -->
     <g transform="translate(549.837642 233.928594)rotate(-90)scale(0.1 -0.1)">
      <use xlink:href="#DejaVuSans-44"/>
      <use xlink:href="#DejaVuSans-65" x="77.001953"/>
      <use xlink:href="#DejaVuSans-6e" x="138.525391"/>
      <use xlink:href="#DejaVuSans-73" x="201.904297"/>
      <use xlink:href="#DejaVuSans-69" x="254.003906"/>
      <use xlink:href="#DejaVuSans-74" x="281.787109"/>
      <use xlink:href="#DejaVuSans-79" x="320.996094"/>
     </g>
    </g>
   </g>
   <g id="patch_8">
    <path d="M 591.545455 378 
L 591.545455 51.84 
" style="fill: none; stroke: #000000; stroke-width: 0.8; stroke-linejoin: miter; stroke-linecap: square"/>
   </g>
   <g id="patch_9">
    <path d="M 972 378 
L 972 51.84 
" style="fill: none; stroke: #000000; stroke-width: 0.8; stroke-linejoin: miter; stroke-linecap: square"/>
   </g>
   <g id="patch_10">
    <path d="M 591.545455 378 
L 972 378 
" style="fill: none; stroke: #000000; stroke-width: 0.8; stroke-linejoin: miter; stroke-linecap: square"/>
   </g>
   <g id="patch_11">
    <path d="M 591.545455 51.84 
L 972 51.84 
" style="fill: none; stroke: #000000; stroke-width: 0.8; stroke-linejoin: miter; stroke-linecap: square"/>
   </g>
   <g id="text_40">
    <!-- Including outliers, avg= 3.02m -->
    <g transform="translate(689.00429 45.84)scale(0.12 -0.12)">
     <defs>
      <path id="DejaVuSans-49" d="M 628 4666 
L 1259 4666 
L 1259 0 
L 628 0 
L 628 4666 
z
" transform="scale(0.015625)"/>
     </defs>
     <use xlink:href="#DejaVuSans-49"/>
     <use xlink:href="#DejaVuSans-6e" x="29.492188"/>
     <use xlink:href="#DejaVuSans-63" x="92.871094"/>
     <use xlink:href="#DejaVuSans-6c" x="147.851562"/>
     <use xlink:href="#DejaVuSans-75" x="175.634766"/>
     <use xlink:href="#DejaVuSans-64" x="239.013672"/>
     <use xlink:href="#DejaVuSans-69" x="302.490234"/>
     <use xlink:href="#DejaVuSans-6e" x="330.273438"/>
     <use xlink:href="#DejaVuSans-67" x="393.652344"/>
     <use xlink:href="#DejaVuSans-20" x="457.128906"/>
     <use xlink:href="#DejaVuSans-6f" x="488.916016"/>
     <use xlink:href="#DejaVuSans-75" x="550.097656"/>
     <use xlink:href="#DejaVuSans-74" x="613.476562"/>
     <use xlink:href="#DejaVuSans-6c" x="652.685547"/>
     <use xlink:href="#DejaVuSans-69" x="680.46875"/>
     <use xlink:href="#DejaVuSans-65" x="708.251953"/>
     <use xlink:href="#DejaVuSans-72" x="769.775391"/>
     <use xlink:href="#DejaVuSans-73" x="810.888672"/>
     <use xlink:href="#DejaVuSans-2c" x="862.988281"/>
     <use xlink:href="#DejaVuSans-20" x="894.775391"/>
     <use xlink:href="#DejaVuSans-61" x="926.5625"/>
     <use xlink:href="#DejaVuSans-76" x="987.841797"/>
     <use xlink:href="#DejaVuSans-67" x="1047.021484"/>
     <use xlink:href="#DejaVuSans-3d" x="1110.498047"/>
     <use xlink:href="#DejaVuSans-20" x="1194.287109"/>
     <use xlink:href="#DejaVuSans-33" x="1226.074219"/>
     <use xlink:href="#DejaVuSans-2e" x="1289.697266"/>
     <use xlink:href="#DejaVuSans-30" x="1321.484375"/>
     <use xlink:href="#DejaVuSans-32" x="1385.107422"/>
     <use xlink:href="#DejaVuSans-6d" x="1448.730469"/>
    </g>
   </g>
  </g>
  <g id="text_41">
   <!-- Elevation measurement errors (m) -->
   <g transform="translate(436.378125 17.758125)scale(0.12 -0.12)">
    <use xlink:href="#DejaVuSans-45"/>
    <use xlink:href="#DejaVuSans-6c" x="63.183594"/>
    <use xlink:href="#DejaVuSans-65" x="90.966797"/>
    <use xlink:href="#DejaVuSans-76" x="152.490234"/>
    <use xlink:href="#DejaVuSans-61" x="211.669922"/>
    <use xlink:href="#DejaVuSans-74" x="272.949219"/>
    <use xlink:href="#DejaVuSans-69" x="312.158203"/>
    <use xlink:href="#DejaVuSans-6f" x="339.941406"/>
    <use xlink:href="#DejaVuSans-6e" x="401.123047"/>
    <use xlink:href="#DejaVuSans-20" x="464.501953"/>
    <use xlink:href="#DejaVuSans-6d" x="496.289062"/>
    <use xlink:href="#DejaVuSans-65" x="593.701172"/>
    <use xlink:href="#DejaVuSans-61" x="655.224609"/>
    <use xlink:href="#DejaVuSans-73" x="716.503906"/>
    <use xlink:href="#DejaVuSans-75" x="768.603516"/>
    <use xlink:href="#DejaVuSans-72" x="831.982422"/>
    <use xlink:href="#DejaVuSans-65" x="870.845703"/>
    <use xlink:href="#DejaVuSans-6d" x="932.369141"/>
    <use xlink:href="#DejaVuSans-65" x="1029.78125"/>
    <use xlink:href="#DejaVuSans-6e" x="1091.304688"/>
    <use xlink:href="#DejaVuSans-74" x="1154.683594"/>
    <use xlink:href="#DejaVuSans-20" x="1193.892578"/>
    <use xlink:href="#DejaVuSans-65" x="1225.679688"/>
    <use xlink:href="#DejaVuSans-72" x="1287.203125"/>
    <use xlink:href="#DejaVuSans-72" x="1326.566406"/>
    <use xlink:href="#DejaVuSans-6f" x="1365.429688"/>
    <use xlink:href="#DejaVuSans-72" x="1426.611328"/>
    <use xlink:href="#DejaVuSans-73" x="1467.724609"/>
    <use xlink:href="#DejaVuSans-20" x="1519.824219"/>
    <use xlink:href="#DejaVuSans-28" x="1551.611328"/>
    <use xlink:href="#DejaVuSans-6d" x="1590.625"/>
    <use xlink:href="#DejaVuSans-29" x="1688.037109"/>
   </g>
  </g>
 </g>
 <defs>
  <clipPath id="pf0d3a618e8">
   <rect x="135" y="51.84" width="380.454545" height="326.16"/>
  </clipPath>
  <clipPath id="pfb5225078e">
   <rect x="591.545455" y="51.84" width="380.454545" height="326.16"/>
  </clipPath>
 </defs>
</svg>
