<?xml version="1.0" encoding="utf-8" standalone="no"?>
<!DOCTYPE svg PUBLIC "-//W3C//DTD SVG 1.1//EN"
  "http://www.w3.org/Graphics/SVG/1.1/DTD/svg11.dtd">
<svg xmlns:xlink="http://www.w3.org/1999/xlink" width="576pt" height="576pt" viewBox="0 0 576 576" xmlns="http://www.w3.org/2000/svg" version="1.1">
 <metadata>
  <rdf:RDF xmlns:dc="http://purl.org/dc/elements/1.1/" xmlns:cc="http://creativecommons.org/ns#" xmlns:rdf="http://www.w3.org/1999/02/22-rdf-syntax-ns#">
   <cc:Work>
    <dc:type rdf:resource="http://purl.org/dc/dcmitype/StillImage"/>
    <dc:date>2022-01-26T11:36:19.853293</dc:date>
    <dc:format>image/svg+xml</dc:format>
    <dc:creator>
     <cc:Agent>
      <dc:title>Matplotlib v3.5.0, https://matplotlib.org/</dc:title>
     </cc:Agent>
    </dc:creator>
   </cc:Work>
  </rdf:RDF>
 </metadata>
 <defs>
  <style type="text/css">*{stroke-linejoin: round; stroke-linecap: butt}</style>
 </defs>
 <g id="figure_1">
  <g id="patch_1">
   <path d="M 0 576 
L 576 576 
L 576 0 
L 0 0 
L 0 576 
z
" style="fill: none"/>
  </g>
  <g id="axes_1">
   <g id="patch_2">
    <path d="M 83.325 181.5 
L 545.55 181.5 
L 545.55 29.2 
L 83.325 29.2 
z
" style="fill: #ffffff"/>
   </g>
   <g id="PolyCollection_1">
    <path d="M 120.410988 181.499649 
L 120.410988 181.5 
L 124.351911 181.5 
L 128.292834 181.5 
L 132.233757 181.5 
L 136.17468 181.5 
L 140.115603 181.5 
L 144.056526 181.5 
L 147.997449 181.5 
L 151.938372 181.5 
L 155.879294 181.5 
L 159.820217 181.5 
L 163.76114 181.5 
L 167.702063 181.5 
L 171.642986 181.5 
L 175.583909 181.5 
L 179.524832 181.5 
L 183.465755 181.5 
L 187.406677 181.5 
L 191.3476 181.5 
L 195.288523 181.5 
L 199.229446 181.5 
L 203.170369 181.5 
L 207.111292 181.5 
L 211.052215 181.5 
L 214.993138 181.5 
L 218.934061 181.5 
L 222.874983 181.5 
L 226.815906 181.5 
L 230.756829 181.5 
L 234.697752 181.5 
L 238.638675 181.5 
L 242.579598 181.5 
L 246.520521 181.5 
L 250.461444 181.5 
L 254.402367 181.5 
L 258.343289 181.5 
L 262.284212 181.5 
L 266.225135 181.5 
L 270.166058 181.5 
L 274.106981 181.5 
L 278.047904 181.5 
L 281.988827 181.5 
L 285.92975 181.5 
L 289.870673 181.5 
L 293.811595 181.5 
L 297.752518 181.5 
L 301.693441 181.5 
L 305.634364 181.5 
L 309.575287 181.5 
L 313.51621 181.5 
L 317.457133 181.5 
L 321.398056 181.5 
L 325.338978 181.5 
L 329.279901 181.5 
L 333.220824 181.5 
L 337.161747 181.5 
L 341.10267 181.5 
L 345.043593 181.5 
L 348.984516 181.5 
L 352.925439 181.5 
L 356.866362 181.5 
L 360.807284 181.5 
L 364.748207 181.5 
L 368.68913 181.5 
L 372.630053 181.5 
L 376.570976 181.5 
L 380.511899 181.5 
L 384.452822 181.5 
L 388.393745 181.5 
L 392.334668 181.5 
L 396.27559 181.5 
L 400.216513 181.5 
L 404.157436 181.5 
L 408.098359 181.5 
L 412.039282 181.5 
L 415.980205 181.5 
L 419.921128 181.5 
L 423.862051 181.5 
L 427.802974 181.5 
L 431.743896 181.5 
L 435.684819 181.5 
L 439.625742 181.5 
L 443.566665 181.5 
L 447.507588 181.5 
L 451.448511 181.5 
L 455.389434 181.5 
L 459.330357 181.5 
L 463.271279 181.5 
L 467.212202 181.5 
L 471.153125 181.5 
L 475.094048 181.5 
L 479.034971 181.5 
L 482.975894 181.5 
L 486.916817 181.5 
L 490.85774 181.5 
L 494.798663 181.5 
L 498.739585 181.5 
L 502.680508 181.5 
L 506.621431 181.5 
L 510.562354 181.5 
L 514.503277 181.5 
L 518.4442 181.5 
L 522.385123 181.5 
L 526.326046 181.5 
L 530.266969 181.5 
L 534.207891 181.5 
L 538.148814 181.5 
L 542.089737 181.5 
L 546.03066 181.5 
L 549.971583 181.5 
L 553.912506 181.5 
L 557.853429 181.5 
L 561.794352 181.5 
L 565.735275 181.5 
L 569.676197 181.5 
L 573.61712 181.5 
L 577.558043 181.5 
L 581.498966 181.5 
L 585.439889 181.5 
L 589.380812 181.5 
L 593.321735 181.5 
L 597.262658 181.5 
L 601.20358 181.5 
L 605.144503 181.5 
L 609.085426 181.5 
L 613.026349 181.5 
L 616.967272 181.5 
L 620.908195 181.5 
L 624.849118 181.5 
L 628.790041 181.5 
L 632.730964 181.5 
L 636.671886 181.5 
L 640.612809 181.5 
L 644.553732 181.5 
L 648.494655 181.5 
L 652.435578 181.5 
L 656.376501 181.5 
L 660.317424 181.5 
L 664.258347 181.5 
L 668.19927 181.5 
L 672.140192 181.5 
L 676.081115 181.5 
L 680.022038 181.5 
L 683.962961 181.5 
L 687.903884 181.5 
L 691.844807 181.5 
L 695.78573 181.5 
L 699.726653 181.5 
L 703.667576 181.5 
L 707.608498 181.5 
L 711.549421 181.5 
L 715.490344 181.5 
L 719.431267 181.5 
L 723.37219 181.5 
L 727.313113 181.5 
L 731.254036 181.5 
L 735.194959 181.5 
L 739.135881 181.5 
L 743.076804 181.5 
L 747.017727 181.5 
L 750.95865 181.5 
L 754.899573 181.5 
L 758.840496 181.5 
L 762.781419 181.5 
L 766.722342 181.5 
L 770.663265 181.5 
L 774.604187 181.5 
L 778.54511 181.5 
L 782.486033 181.5 
L 786.426956 181.5 
L 790.367879 181.5 
L 794.308802 181.5 
L 798.249725 181.5 
L 802.190648 181.5 
L 806.131571 181.5 
L 810.072493 181.5 
L 814.013416 181.5 
L 817.954339 181.5 
L 821.895262 181.5 
L 825.836185 181.5 
L 829.777108 181.5 
L 833.718031 181.5 
L 837.658954 181.5 
L 841.599877 181.5 
L 845.540799 181.5 
L 849.481722 181.5 
L 853.422645 181.5 
L 857.363568 181.5 
L 861.304491 181.5 
L 865.245414 181.5 
L 869.186337 181.5 
L 873.12726 181.5 
L 877.068182 181.5 
L 881.009105 181.5 
L 884.950028 181.5 
L 888.890951 181.5 
L 892.831874 181.5 
L 896.772797 181.5 
L 900.71372 181.5 
L 904.654643 181.5 
L 904.654643 181.499682 
L 904.654643 181.499682 
L 900.71372 181.499012 
L 896.772797 181.497394 
L 892.831874 181.494169 
L 888.890951 181.488926 
L 884.950028 181.482146 
L 881.009105 181.475518 
L 877.068182 181.471296 
L 873.12726 181.470729 
L 869.186337 181.472676 
L 865.245414 181.473589 
L 861.304491 181.468931 
L 857.363568 181.454958 
L 853.422645 181.429921 
L 849.481722 181.394604 
L 845.540799 181.352549 
L 841.599877 181.309661 
L 837.658954 181.272215 
L 833.718031 181.243311 
L 829.777108 181.220396 
L 825.836185 181.1971 
L 821.895262 181.169051 
L 817.954339 181.138666 
L 814.013416 181.114096 
L 810.072493 181.102911 
L 806.131571 181.105915 
L 802.190648 181.116028 
L 798.249725 181.122856 
L 794.308802 181.119537 
L 790.367879 181.10715 
L 786.426956 181.093447 
L 782.486033 181.086416 
L 778.54511 181.087336 
L 774.604187 181.089269 
L 770.663265 181.082771 
L 766.722342 181.063948 
L 762.781419 181.037709 
L 758.840496 181.01369 
L 754.899573 180.998718 
L 750.95865 180.991804 
L 747.017727 180.985099 
L 743.076804 180.969991 
L 739.135881 180.944137 
L 735.194959 180.914321 
L 731.254036 180.892724 
L 727.313113 180.889193 
L 723.37219 180.905248 
L 719.431267 180.933872 
L 715.490344 180.964262 
L 711.549421 180.987741 
L 707.608498 181.001735 
L 703.667576 181.010712 
L 699.726653 181.023886 
L 695.78573 181.050246 
L 691.844807 181.093436 
L 687.903884 181.150087 
L 683.962961 181.212729 
L 680.022038 181.274242 
L 676.081115 181.329904 
L 672.140192 181.376576 
L 668.19927 181.411714 
L 664.258347 181.434006 
L 660.317424 181.444424 
L 656.376501 181.445914 
L 652.435578 181.441953 
L 648.494655 181.435618 
L 644.553732 181.429684 
L 640.612809 181.426671 
L 636.671886 181.428163 
L 632.730964 181.434237 
L 628.790041 181.443809 
L 624.849118 181.455423 
L 620.908195 181.467586 
L 616.967272 181.47878 
L 613.026349 181.487714 
L 609.085426 181.4938 
L 605.144503 181.4973 
L 601.20358 181.498992 
L 597.262658 181.499679 
L 593.321735 181.499913 
L 589.380812 181.49998 
L 585.439889 181.499996 
L 581.498966 181.499999 
L 577.558043 181.5 
L 573.61712 181.5 
L 569.676197 181.5 
L 565.735275 181.5 
L 561.794352 181.5 
L 557.853429 181.5 
L 553.912506 181.5 
L 549.971583 181.5 
L 546.03066 181.5 
L 542.089737 181.5 
L 538.148814 181.5 
L 534.207891 181.5 
L 530.266969 181.5 
L 526.326046 181.5 
L 522.385123 181.5 
L 518.4442 181.5 
L 514.503277 181.5 
L 510.562354 181.5 
L 506.621431 181.5 
L 502.680508 181.5 
L 498.739585 181.5 
L 494.798663 181.5 
L 490.85774 181.5 
L 486.916817 181.5 
L 482.975894 181.5 
L 479.034971 181.5 
L 475.094048 181.5 
L 471.153125 181.5 
L 467.212202 181.5 
L 463.271279 181.5 
L 459.330357 181.5 
L 455.389434 181.499999 
L 451.448511 181.499992 
L 447.507588 181.499961 
L 443.566665 181.499832 
L 439.625742 181.499374 
L 435.684819 181.498007 
L 431.743896 181.494545 
L 427.802974 181.487118 
L 423.862051 181.473577 
L 419.921128 181.452418 
L 415.980205 181.423476 
L 412.039282 181.387227 
L 408.098359 181.342519 
L 404.157436 181.284514 
L 400.216513 181.205091 
L 396.27559 181.095861 
L 392.334668 180.951368 
L 388.393745 180.770012 
L 384.452822 180.552108 
L 380.511899 180.295947 
L 376.570976 179.993578 
L 372.630053 179.629104 
L 368.68913 179.181024 
L 364.748207 178.625954 
L 360.807284 177.93969 
L 356.866362 177.096971 
L 352.925439 176.074961 
L 348.984516 174.858814 
L 345.043593 173.439748 
L 341.10267 171.803333 
L 337.161747 169.921822 
L 333.220824 167.76244 
L 329.279901 165.298781 
L 325.338978 162.501079 
L 321.398056 159.312124 
L 317.457133 155.657132 
L 313.51621 151.522735 
L 309.575287 147.061797 
L 305.634364 142.614387 
L 301.693441 138.57298 
L 297.752518 135.154141 
L 293.811595 132.244165 
L 289.870673 129.446347 
L 285.92975 126.305285 
L 281.988827 122.561026 
L 278.047904 118.284377 
L 274.106981 113.838046 
L 270.166058 109.7173 
L 266.225135 106.380439 
L 262.284212 104.154139 
L 258.343289 103.22226 
L 254.402367 103.649756 
L 250.461444 105.395868 
L 246.520521 108.308124 
L 242.579598 112.117163 
L 238.638675 116.458048 
L 234.697752 120.933238 
L 230.756829 125.208515 
L 226.815906 129.105399 
L 222.874983 132.647777 
L 218.934061 136.046556 
L 214.993138 139.632876 
L 211.052215 143.749358 
L 207.111292 148.606766 
L 203.170369 154.150234 
L 199.229446 160.021551 
L 195.288523 165.672593 
L 191.3476 170.578852 
L 187.406677 174.424744 
L 183.465755 177.163356 
L 179.524832 178.952561 
L 175.583909 180.039472 
L 171.642986 180.663902 
L 167.702063 181.009992 
L 163.76114 181.199092 
L 159.820217 181.303516 
L 155.879294 181.364051 
L 151.938372 181.402946 
L 147.997449 181.43145 
L 144.056526 181.454103 
L 140.115603 181.471854 
L 136.17468 181.484572 
L 132.233757 181.492564 
L 128.292834 181.496883 
L 124.351911 181.498872 
L 120.410988 181.499649 
z
" clip-path="url(#p24b17c90de)" style="fill: #2ca02c; fill-opacity: 0.3; stroke: #2ca02c"/>
   </g>
   <g id="PolyCollection_2">
    <defs>
     <path id="m9e71434849" d="M 62.003493 -394.502628 
L 62.003493 -394.5 
L 64.503626 -394.5 
L 67.00376 -394.5 
L 69.503893 -394.5 
L 72.004027 -394.5 
L 74.50416 -394.5 
L 77.004294 -394.5 
L 79.504428 -394.5 
L 82.004561 -394.5 
L 84.504695 -394.5 
L 87.004828 -394.5 
L 89.504962 -394.5 
L 92.005095 -394.5 
L 94.505229 -394.5 
L 97.005362 -394.5 
L 99.505496 -394.5 
L 102.00563 -394.5 
L 104.505763 -394.5 
L 107.005897 -394.5 
L 109.50603 -394.5 
L 112.006164 -394.5 
L 114.506297 -394.5 
L 117.006431 -394.5 
L 119.506564 -394.5 
L 122.006698 -394.5 
L 124.506831 -394.5 
L 127.006965 -394.5 
L 129.507099 -394.5 
L 132.007232 -394.5 
L 134.507366 -394.5 
L 137.007499 -394.5 
L 139.507633 -394.5 
L 142.007766 -394.5 
L 144.5079 -394.5 
L 147.008033 -394.5 
L 149.508167 -394.5 
L 152.008301 -394.5 
L 154.508434 -394.5 
L 157.008568 -394.5 
L 159.508701 -394.5 
L 162.008835 -394.5 
L 164.508968 -394.5 
L 167.009102 -394.5 
L 169.509235 -394.5 
L 172.009369 -394.5 
L 174.509502 -394.5 
L 177.009636 -394.5 
L 179.50977 -394.5 
L 182.009903 -394.5 
L 184.510037 -394.5 
L 187.01017 -394.5 
L 189.510304 -394.5 
L 192.010437 -394.5 
L 194.510571 -394.5 
L 197.010704 -394.5 
L 199.510838 -394.5 
L 202.010971 -394.5 
L 204.511105 -394.5 
L 207.011239 -394.5 
L 209.511372 -394.5 
L 212.011506 -394.5 
L 214.511639 -394.5 
L 217.011773 -394.5 
L 219.511906 -394.5 
L 222.01204 -394.5 
L 224.512173 -394.5 
L 227.012307 -394.5 
L 229.512441 -394.5 
L 232.012574 -394.5 
L 234.512708 -394.5 
L 237.012841 -394.5 
L 239.512975 -394.5 
L 242.013108 -394.5 
L 244.513242 -394.5 
L 247.013375 -394.5 
L 249.513509 -394.5 
L 252.013642 -394.5 
L 254.513776 -394.5 
L 257.01391 -394.5 
L 259.514043 -394.5 
L 262.014177 -394.5 
L 264.51431 -394.5 
L 267.014444 -394.5 
L 269.514577 -394.5 
L 272.014711 -394.5 
L 274.514844 -394.5 
L 277.014978 -394.5 
L 279.515112 -394.5 
L 282.015245 -394.5 
L 284.515379 -394.5 
L 287.015512 -394.5 
L 289.515646 -394.5 
L 292.015779 -394.5 
L 294.515913 -394.5 
L 297.016046 -394.5 
L 299.51618 -394.5 
L 302.016313 -394.5 
L 304.516447 -394.5 
L 307.016581 -394.5 
L 309.516714 -394.5 
L 312.016848 -394.5 
L 314.516981 -394.5 
L 317.017115 -394.5 
L 319.517248 -394.5 
L 322.017382 -394.5 
L 324.517515 -394.5 
L 327.017649 -394.5 
L 329.517783 -394.5 
L 332.017916 -394.5 
L 334.51805 -394.5 
L 337.018183 -394.5 
L 339.518317 -394.5 
L 342.01845 -394.5 
L 344.518584 -394.5 
L 347.018717 -394.5 
L 349.518851 -394.5 
L 352.018984 -394.5 
L 354.519118 -394.5 
L 357.019252 -394.5 
L 359.519385 -394.5 
L 362.019519 -394.5 
L 364.519652 -394.5 
L 367.019786 -394.5 
L 369.519919 -394.5 
L 372.020053 -394.5 
L 374.520186 -394.5 
L 377.02032 -394.5 
L 379.520453 -394.5 
L 382.020587 -394.5 
L 384.520721 -394.5 
L 387.020854 -394.5 
L 389.520988 -394.5 
L 392.021121 -394.5 
L 394.521255 -394.5 
L 397.021388 -394.5 
L 399.521522 -394.5 
L 402.021655 -394.5 
L 404.521789 -394.5 
L 407.021923 -394.5 
L 409.522056 -394.5 
L 412.02219 -394.5 
L 414.522323 -394.5 
L 417.022457 -394.5 
L 419.52259 -394.5 
L 422.022724 -394.5 
L 424.522857 -394.5 
L 427.022991 -394.5 
L 429.523124 -394.5 
L 432.023258 -394.5 
L 434.523392 -394.5 
L 437.023525 -394.5 
L 439.523659 -394.5 
L 442.023792 -394.5 
L 444.523926 -394.5 
L 447.024059 -394.5 
L 449.524193 -394.5 
L 452.024326 -394.5 
L 454.52446 -394.5 
L 457.024594 -394.5 
L 459.524727 -394.5 
L 462.024861 -394.5 
L 464.524994 -394.5 
L 467.025128 -394.5 
L 469.525261 -394.5 
L 472.025395 -394.5 
L 474.525528 -394.5 
L 477.025662 -394.5 
L 479.525795 -394.5 
L 482.025929 -394.5 
L 484.526063 -394.5 
L 487.026196 -394.5 
L 489.52633 -394.5 
L 492.026463 -394.5 
L 494.526597 -394.5 
L 497.02673 -394.5 
L 499.526864 -394.5 
L 502.026997 -394.5 
L 504.527131 -394.5 
L 507.027265 -394.5 
L 509.527398 -394.5 
L 512.027532 -394.5 
L 514.527665 -394.5 
L 517.027799 -394.5 
L 519.527932 -394.5 
L 522.028066 -394.5 
L 524.528199 -394.5 
L 527.028333 -394.5 
L 529.528466 -394.5 
L 532.0286 -394.5 
L 534.528734 -394.5 
L 537.028867 -394.5 
L 539.529001 -394.5 
L 542.029134 -394.5 
L 544.529268 -394.5 
L 547.029401 -394.5 
L 549.529535 -394.5 
L 552.029668 -394.5 
L 554.529802 -394.5 
L 557.029935 -394.5 
L 559.530069 -394.5 
L 559.530069 -394.500184 
L 559.530069 -394.500184 
L 557.029935 -394.500504 
L 554.529802 -394.501235 
L 552.029668 -394.502718 
L 549.529535 -394.505402 
L 547.029401 -394.509754 
L 544.529268 -394.516133 
L 542.029134 -394.524695 
L 539.529001 -394.535391 
L 537.028867 -394.548018 
L 534.528734 -394.562232 
L 532.0286 -394.577455 
L 529.528466 -394.592809 
L 527.028333 -394.607245 
L 524.528199 -394.619936 
L 522.028066 -394.630685 
L 519.527932 -394.640006 
L 517.027799 -394.648807 
L 514.527665 -394.657953 
L 512.027532 -394.668133 
L 509.527398 -394.680151 
L 507.027265 -394.695258 
L 504.527131 -394.714969 
L 502.026997 -394.740212 
L 499.526864 -394.77032 
L 497.02673 -394.80269 
L 494.526597 -394.833504 
L 492.026463 -394.859212 
L 489.52633 -394.87799 
L 487.026196 -394.890557 
L 484.526063 -394.900058 
L 482.025929 -394.911089 
L 479.525795 -394.92828 
L 477.025662 -394.9551 
L 474.525528 -394.993531 
L 472.025395 -395.04486 
L 469.525261 -395.111248 
L 467.025128 -395.197167 
L 464.524994 -395.309597 
L 462.024861 -395.456261 
L 459.524727 -395.642266 
L 457.024594 -395.866528 
L 454.52446 -396.119828 
L 452.024326 -396.38579 
L 449.524193 -396.64498 
L 447.024059 -396.880735 
L 444.523926 -397.08403 
L 442.023792 -397.254569 
L 439.523659 -397.397371 
L 437.023525 -397.517328 
L 434.523392 -397.615703 
L 432.023258 -397.69058 
L 429.523124 -397.739589 
L 427.022991 -397.761769 
L 424.522857 -397.757559 
L 422.022724 -397.728859 
L 419.52259 -397.681069 
L 417.022457 -397.626048 
L 414.522323 -397.58258 
L 412.02219 -397.572196 
L 409.522056 -397.611949 
L 407.021923 -397.708156 
L 404.521789 -397.854141 
L 402.021655 -398.032222 
L 399.521522 -398.218465 
L 397.021388 -398.388996 
L 394.521255 -398.526902 
L 392.021121 -398.627542 
L 389.520988 -398.698678 
L 387.020854 -398.753459 
L 384.520721 -398.799407 
L 382.020587 -398.831122 
L 379.520453 -398.833231 
L 377.02032 -398.792732 
L 374.520186 -398.712272 
L 372.020053 -398.614852 
L 369.519919 -398.53679 
L 367.019786 -398.513935 
L 364.519652 -398.569536 
L 362.019519 -398.709357 
L 359.519385 -398.924085 
L 357.019252 -399.195478 
L 354.519118 -399.502547 
L 352.018984 -399.825852 
L 349.518851 -400.149608 
L 347.018717 -400.462134 
L 344.518584 -400.75574 
L 342.01845 -401.027407 
L 339.518317 -401.280968 
L 337.018183 -401.529953 
L 334.51805 -401.79892 
L 332.017916 -402.121466 
L 329.517783 -402.535498 
L 327.017649 -403.078964 
L 324.517515 -403.789547 
L 322.017382 -404.70863 
L 319.517248 -405.885583 
L 317.017115 -407.37686 
L 314.516981 -409.237454 
L 312.016848 -411.507121 
L 309.516714 -414.19676 
L 307.016581 -417.280403 
L 304.516447 -420.69778 
L 302.016313 -424.371659 
L 299.51618 -428.239866 
L 297.016046 -432.292064 
L 294.515913 -436.591359 
L 292.015779 -441.260378 
L 289.515646 -446.425818 
L 287.015512 -452.139475 
L 284.515379 -458.313171 
L 282.015245 -464.704627 
L 279.515112 -470.965889 
L 277.014978 -476.728853 
L 274.514844 -481.680361 
L 272.014711 -485.590134 
L 269.514577 -488.290332 
L 267.014444 -489.638063 
L 264.51431 -489.499342 
L 262.014177 -487.774468 
L 259.514043 -484.456211 
L 257.01391 -479.690623 
L 254.513776 -473.805052 
L 252.013642 -467.279777 
L 249.513509 -460.662624 
L 247.013375 -454.450341 
L 244.513242 -448.977025 
L 242.013108 -444.351919 
L 239.512975 -440.473164 
L 237.012841 -437.113189 
L 234.512708 -434.037448 
L 232.012574 -431.100644 
L 229.512441 -428.278032 
L 227.012307 -425.62855 
L 224.512173 -423.225609 
L 222.01204 -421.103105 
L 219.511906 -419.24324 
L 217.011773 -417.599301 
L 214.511639 -416.127155 
L 212.011506 -414.804122 
L 209.511372 -413.631717 
L 207.011239 -412.63138 
L 204.511105 -411.840657 
L 202.010971 -411.307485 
L 199.510838 -411.074361 
L 197.010704 -411.149956 
L 194.510571 -411.479346 
L 192.010437 -411.933815 
L 189.510304 -412.336413 
L 187.01017 -412.519764 
L 184.510037 -412.390446 
L 182.009903 -411.966243 
L 179.50977 -411.365725 
L 177.009636 -410.755157 
L 174.509502 -410.278516 
L 172.009369 -410.001671 
L 169.509235 -409.892044 
L 167.009102 -409.837966 
L 164.508968 -409.695289 
L 162.008835 -409.339163 
L 159.508701 -408.700188 
L 157.008568 -407.77483 
L 154.508434 -406.612945 
L 152.008301 -405.293724 
L 149.508167 -403.902963 
L 147.008033 -402.520476 
L 144.5079 -401.218637 
L 142.007766 -400.064612 
L 139.507633 -399.115778 
L 137.007499 -398.4043 
L 134.507366 -397.919367 
L 132.007232 -397.603272 
L 129.507099 -397.370985 
L 127.006965 -397.145279 
L 124.506831 -396.886103 
L 122.006698 -396.596876 
L 119.506564 -396.308325 
L 117.006431 -396.055103 
L 114.506297 -395.859703 
L 112.006164 -395.727472 
L 109.50603 -395.649172 
L 107.005897 -395.608102 
L 104.505763 -395.59018 
L 102.00563 -395.592413 
L 99.505496 -395.622411 
L 97.005362 -395.686282 
L 94.505229 -395.772725 
L 92.005095 -395.84707 
L 89.504962 -395.863001 
L 87.004828 -395.786043 
L 84.504695 -395.613126 
L 82.004561 -395.375059 
L 79.504428 -395.121072 
L 77.004294 -394.896506 
L 74.50416 -394.727142 
L 72.004027 -394.616554 
L 69.503893 -394.553503 
L 67.00376 -394.521948 
L 64.503626 -394.50804 
L 62.003493 -394.502628 
z
" style="stroke: #ff7f0e"/>
    </defs>
    <g clip-path="url(#p24b17c90de)">
     <use xlink:href="#m9e71434849" x="0" y="576" style="fill: #ff7f0e; fill-opacity: 0.3; stroke: #ff7f0e"/>
    </g>
   </g>
   <g id="PolyCollection_3">
    <path d="M 66.309743 181.497734 
L 66.309743 181.5 
L 70.214342 181.5 
L 74.118941 181.5 
L 78.02354 181.5 
L 81.928139 181.5 
L 85.832738 181.5 
L 89.737337 181.5 
L 93.641936 181.5 
L 97.546535 181.5 
L 101.451134 181.5 
L 105.355733 181.5 
L 109.260333 181.5 
L 113.164932 181.5 
L 117.069531 181.5 
L 120.97413 181.5 
L 124.878729 181.5 
L 128.783328 181.5 
L 132.687927 181.5 
L 136.592526 181.5 
L 140.497125 181.5 
L 144.401724 181.5 
L 148.306323 181.5 
L 152.210923 181.5 
L 156.115522 181.5 
L 160.020121 181.5 
L 163.92472 181.5 
L 167.829319 181.5 
L 171.733918 181.5 
L 175.638517 181.5 
L 179.543116 181.5 
L 183.447715 181.5 
L 187.352314 181.5 
L 191.256913 181.5 
L 195.161513 181.5 
L 199.066112 181.5 
L 202.970711 181.5 
L 206.87531 181.5 
L 210.779909 181.5 
L 214.684508 181.5 
L 218.589107 181.5 
L 222.493706 181.5 
L 226.398305 181.5 
L 230.302904 181.5 
L 234.207503 181.5 
L 238.112102 181.5 
L 242.016702 181.5 
L 245.921301 181.5 
L 249.8259 181.5 
L 253.730499 181.5 
L 257.635098 181.5 
L 261.539697 181.5 
L 265.444296 181.5 
L 269.348895 181.5 
L 273.253494 181.5 
L 277.158093 181.5 
L 281.062692 181.5 
L 284.967292 181.5 
L 288.871891 181.5 
L 292.77649 181.5 
L 296.681089 181.5 
L 300.585688 181.5 
L 304.490287 181.5 
L 308.394886 181.5 
L 312.299485 181.5 
L 316.204084 181.5 
L 320.108683 181.5 
L 324.013282 181.5 
L 327.917882 181.5 
L 331.822481 181.5 
L 335.72708 181.5 
L 339.631679 181.5 
L 343.536278 181.5 
L 347.440877 181.5 
L 351.345476 181.5 
L 355.250075 181.5 
L 359.154674 181.5 
L 363.059273 181.5 
L 366.963872 181.5 
L 370.868472 181.5 
L 374.773071 181.5 
L 378.67767 181.5 
L 382.582269 181.5 
L 386.486868 181.5 
L 390.391467 181.5 
L 394.296066 181.5 
L 398.200665 181.5 
L 402.105264 181.5 
L 406.009863 181.5 
L 409.914462 181.5 
L 413.819062 181.5 
L 417.723661 181.5 
L 421.62826 181.5 
L 425.532859 181.5 
L 429.437458 181.5 
L 433.342057 181.5 
L 437.246656 181.5 
L 441.151255 181.5 
L 445.055854 181.5 
L 448.960453 181.5 
L 452.865052 181.5 
L 456.769651 181.5 
L 460.674251 181.5 
L 464.57885 181.5 
L 468.483449 181.5 
L 472.388048 181.5 
L 476.292647 181.5 
L 480.197246 181.5 
L 484.101845 181.5 
L 488.006444 181.5 
L 491.911043 181.5 
L 495.815642 181.5 
L 499.720241 181.5 
L 503.624841 181.5 
L 507.52944 181.5 
L 511.434039 181.5 
L 515.338638 181.5 
L 519.243237 181.5 
L 523.147836 181.5 
L 527.052435 181.5 
L 530.957034 181.5 
L 534.861633 181.5 
L 538.766232 181.5 
L 542.670831 181.5 
L 546.575431 181.5 
L 550.48003 181.5 
L 554.384629 181.5 
L 558.289228 181.5 
L 562.193827 181.5 
L 566.098426 181.5 
L 570.003025 181.5 
L 573.907624 181.5 
L 577.812223 181.5 
L 581.716822 181.5 
L 585.621421 181.5 
L 589.526021 181.5 
L 593.43062 181.5 
L 597.335219 181.5 
L 601.239818 181.5 
L 605.144417 181.5 
L 609.049016 181.5 
L 612.953615 181.5 
L 616.858214 181.5 
L 620.762813 181.5 
L 624.667412 181.5 
L 628.572011 181.5 
L 632.476611 181.5 
L 636.38121 181.5 
L 640.285809 181.5 
L 644.190408 181.5 
L 648.095007 181.5 
L 651.999606 181.5 
L 655.904205 181.5 
L 659.808804 181.5 
L 663.713403 181.5 
L 667.618002 181.5 
L 671.522601 181.5 
L 675.4272 181.5 
L 679.3318 181.5 
L 683.236399 181.5 
L 687.140998 181.5 
L 691.045597 181.5 
L 694.950196 181.5 
L 698.854795 181.5 
L 702.759394 181.5 
L 706.663993 181.5 
L 710.568592 181.5 
L 714.473191 181.5 
L 718.37779 181.5 
L 722.28239 181.5 
L 726.186989 181.5 
L 730.091588 181.5 
L 733.996187 181.5 
L 737.900786 181.5 
L 741.805385 181.5 
L 745.709984 181.5 
L 749.614583 181.5 
L 753.519182 181.5 
L 757.423781 181.5 
L 761.32838 181.5 
L 765.23298 181.5 
L 769.137579 181.5 
L 773.042178 181.5 
L 776.946777 181.5 
L 780.851376 181.5 
L 784.755975 181.5 
L 788.660574 181.5 
L 792.565173 181.5 
L 796.469772 181.5 
L 800.374371 181.5 
L 804.27897 181.5 
L 808.18357 181.5 
L 812.088169 181.5 
L 815.992768 181.5 
L 819.897367 181.5 
L 823.801966 181.5 
L 827.706565 181.5 
L 831.611164 181.5 
L 835.515763 181.5 
L 839.420362 181.5 
L 843.324961 181.5 
L 843.324961 181.499918 
L 843.324961 181.499918 
L 839.420362 181.499566 
L 835.515763 181.498435 
L 831.611164 181.496154 
L 827.706565 181.493569 
L 823.801966 181.492684 
L 819.897367 181.494337 
L 815.992768 181.497016 
L 812.088169 181.498924 
L 808.18357 181.499677 
L 804.27897 181.499555 
L 800.374371 181.498116 
L 796.469772 181.493364 
L 792.565173 181.481624 
L 788.660574 181.458871 
L 784.755975 181.424334 
L 780.851376 181.383952 
L 776.946777 181.347939 
L 773.042178 181.324384 
L 769.137579 181.316644 
L 765.23298 181.322446 
L 761.32838 181.335065 
L 757.423781 181.351497 
L 753.519182 181.37369 
L 749.614583 181.39763 
L 745.709984 181.413052 
L 741.805385 181.41524 
L 737.900786 181.407186 
L 733.996187 181.392501 
L 730.091588 181.371586 
L 726.186989 181.343771 
L 722.28239 181.311496 
L 718.37779 181.280353 
L 714.473191 181.258096 
L 710.568592 181.254618 
L 706.663993 181.272923 
L 702.759394 181.301193 
L 698.854795 181.324303 
L 694.950196 181.340225 
L 691.045597 181.35996 
L 687.140998 181.391519 
L 683.236399 181.427049 
L 679.3318 181.451575 
L 675.4272 181.460256 
L 671.522601 181.459824 
L 667.618002 181.458118 
L 663.713403 181.458223 
L 659.808804 181.458918 
L 655.904205 181.456043 
L 651.999606 181.446527 
L 648.095007 181.43371 
L 644.190408 181.425221 
L 640.285809 181.425301 
L 636.38121 181.432597 
L 632.476611 181.442131 
L 628.572011 181.44556 
L 624.667412 181.435574 
L 620.762813 181.413817 
L 616.858214 181.389419 
L 612.953615 181.365305 
L 609.049016 181.324457 
L 605.144417 181.230456 
L 601.239818 181.049818 
L 597.335219 180.7914 
L 593.43062 180.537714 
L 589.526021 180.4218 
L 585.621421 180.527804 
L 581.716822 180.799817 
L 577.812223 181.087299 
L 573.907624 181.281444 
L 570.003025 181.370841 
L 566.098426 181.395808 
L 562.193827 181.399295 
L 558.289228 181.405999 
L 554.384629 181.418206 
L 550.48003 181.42786 
L 546.575431 181.432111 
L 542.670831 181.434211 
L 538.766232 181.435232 
L 534.861633 181.431568 
L 530.957034 181.417074 
L 527.052435 181.384657 
L 523.147836 181.330409 
L 519.243237 181.259642 
L 515.338638 181.187211 
L 511.434039 181.129161 
L 507.52944 181.095427 
L 503.624841 181.092957 
L 499.720241 181.125367 
L 495.815642 181.181464 
L 491.911043 181.237832 
L 488.006444 181.277547 
L 484.101845 181.297948 
L 480.197246 181.301287 
L 476.292647 181.278834 
L 472.388048 181.203925 
L 468.483449 181.047055 
L 464.57885 180.803857 
L 460.674251 180.514609 
L 456.769651 180.266061 
L 452.865052 180.160505 
L 448.960453 180.229273 
L 445.055854 180.369136 
L 441.151255 180.433992 
L 437.246656 180.390278 
L 433.342057 180.326128 
L 429.437458 180.328163 
L 425.532859 180.38514 
L 421.62826 180.403329 
L 417.723661 180.314234 
L 413.819062 180.166326 
L 409.914462 180.067951 
L 406.009863 180.035891 
L 402.105264 179.985241 
L 398.200665 179.851222 
L 394.296066 179.663075 
L 390.391467 179.564646 
L 386.486868 179.704074 
L 382.582269 180.029773 
L 378.67767 180.338005 
L 374.773071 180.522905 
L 370.868472 180.624254 
L 366.963872 180.673985 
L 363.059273 180.621836 
L 359.154674 180.383765 
L 355.250075 179.913899 
L 351.345476 179.268308 
L 347.440877 178.595744 
L 343.536278 178.037675 
L 339.631679 177.628286 
L 335.72708 177.231618 
L 331.822481 176.635361 
L 327.917882 175.81626 
L 324.013282 174.962598 
L 320.108683 174.112249 
L 316.204084 172.9201 
L 312.299485 170.845886 
L 308.394886 167.396644 
L 304.490287 162.207685 
L 300.585688 155.175435 
L 296.681089 146.420705 
L 292.77649 135.556377 
L 288.871891 120.797836 
L 284.967292 99.988844 
L 281.062692 74.200804 
L 277.158093 49.969134 
L 273.253494 36.452381 
L 269.348895 39.948432 
L 265.444296 59.8864 
L 261.539697 88.53475 
L 257.635098 115.796406 
L 253.730499 135.461624 
L 249.8259 147.016196 
L 245.921301 153.256374 
L 242.016702 157.190846 
L 238.112102 160.190668 
L 234.207503 162.130486 
L 230.302904 162.535634 
L 226.398305 160.962182 
L 222.493706 156.615842 
L 218.589107 148.782968 
L 214.684508 138.614571 
L 210.779909 130.115515 
L 206.87531 127.852382 
L 202.970711 133.065581 
L 199.066112 142.857729 
L 195.161513 153.241587 
L 191.256913 161.719673 
L 187.352314 167.304606 
L 183.447715 170.152982 
L 179.543116 171.50223 
L 175.638517 172.794597 
L 171.733918 174.515136 
L 167.829319 176.168622 
L 163.92472 177.275039 
L 160.020121 177.927085 
L 156.115522 178.460092 
L 152.210923 179.034089 
L 148.306323 179.614055 
L 144.401724 180.159827 
L 140.497125 180.666385 
L 136.592526 181.077129 
L 132.687927 181.313201 
L 128.783328 181.342641 
L 124.878729 181.139659 
L 120.97413 180.651107 
L 117.069531 179.892899 
L 113.164932 179.000248 
L 109.260333 177.970362 
L 105.355733 176.568649 
L 101.451134 175.08442 
L 97.546535 174.702758 
L 93.641936 176.085046 
L 89.737337 178.292679 
L 85.832738 180.020164 
L 81.928139 180.919532 
L 78.02354 181.296285 
L 74.118941 181.439442 
L 70.214342 181.486177 
L 66.309743 181.497734 
z
" clip-path="url(#p24b17c90de)" style="fill: #1f77b4; fill-opacity: 0.3; stroke: #1f77b4"/>
   </g>
   <g id="matplotlib.axis_1">
    <g id="xtick_1">
     <g id="line2d_1">
      <defs>
       <path id="m9571412164" d="M 0 0 
L 0 3.5 
" style="stroke: #000000; stroke-width: 0.8"/>
      </defs>
      <g>
       <use xlink:href="#m9571412164" x="83.325" y="181.5" style="stroke: #000000; stroke-width: 0.8"/>
      </g>
     </g>
    </g>
    <g id="xtick_2">
     <g id="line2d_2">
      <g>
       <use xlink:href="#m9571412164" x="160.3625" y="181.5" style="stroke: #000000; stroke-width: 0.8"/>
      </g>
     </g>
    </g>
    <g id="xtick_3">
     <g id="line2d_3">
      <g>
       <use xlink:href="#m9571412164" x="237.4" y="181.5" style="stroke: #000000; stroke-width: 0.8"/>
      </g>
     </g>
    </g>
    <g id="xtick_4">
     <g id="line2d_4">
      <g>
       <use xlink:href="#m9571412164" x="314.4375" y="181.5" style="stroke: #000000; stroke-width: 0.8"/>
      </g>
     </g>
    </g>
    <g id="xtick_5">
     <g id="line2d_5">
      <g>
       <use xlink:href="#m9571412164" x="391.475" y="181.5" style="stroke: #000000; stroke-width: 0.8"/>
      </g>
     </g>
    </g>
    <g id="xtick_6">
     <g id="line2d_6">
      <g>
       <use xlink:href="#m9571412164" x="468.5125" y="181.5" style="stroke: #000000; stroke-width: 0.8"/>
      </g>
     </g>
    </g>
    <g id="xtick_7">
     <g id="line2d_7">
      <g>
       <use xlink:href="#m9571412164" x="545.55" y="181.5" style="stroke: #000000; stroke-width: 0.8"/>
      </g>
     </g>
    </g>
   </g>
   <g id="matplotlib.axis_2">
    <g id="ytick_1">
     <g id="line2d_8">
      <defs>
       <path id="m9d04859f6b" d="M 0 0 
L -3.5 0 
" style="stroke: #000000; stroke-width: 0.8"/>
      </defs>
      <g>
       <use xlink:href="#m9d04859f6b" x="83.325" y="181.5" style="stroke: #000000; stroke-width: 0.8"/>
      </g>
     </g>
    </g>
    <g id="ytick_2">
     <g id="line2d_9">
      <g>
       <use xlink:href="#m9d04859f6b" x="83.325" y="134.139879" style="stroke: #000000; stroke-width: 0.8"/>
      </g>
     </g>
    </g>
    <g id="ytick_3">
     <g id="line2d_10">
      <g>
       <use xlink:href="#m9d04859f6b" x="83.325" y="86.779758" style="stroke: #000000; stroke-width: 0.8"/>
      </g>
     </g>
    </g>
    <g id="ytick_4">
     <g id="line2d_11">
      <g>
       <use xlink:href="#m9d04859f6b" x="83.325" y="39.419636" style="stroke: #000000; stroke-width: 0.8"/>
      </g>
     </g>
    </g>
    <g id="text_1">
     <!-- Density -->
     <g transform="translate(69.205469 133.862891)rotate(-90)scale(0.15 -0.15)">
      <defs>
       <path id="DejaVuSans-44" d="M 1259 4147 
L 1259 519 
L 2022 519 
Q 2988 519 3436 956 
Q 3884 1394 3884 2338 
Q 3884 3275 3436 3711 
Q 2988 4147 2022 4147 
L 1259 4147 
z
M 628 4666 
L 1925 4666 
Q 3281 4666 3915 4102 
Q 4550 3538 4550 2338 
Q 4550 1131 3912 565 
Q 3275 0 1925 0 
L 628 0 
L 628 4666 
z
" transform="scale(0.015625)"/>
       <path id="DejaVuSans-65" d="M 3597 1894 
L 3597 1613 
L 953 1613 
Q 991 1019 1311 708 
Q 1631 397 2203 397 
Q 2534 397 2845 478 
Q 3156 559 3463 722 
L 3463 178 
Q 3153 47 2828 -22 
Q 2503 -91 2169 -91 
Q 1331 -91 842 396 
Q 353 884 353 1716 
Q 353 2575 817 3079 
Q 1281 3584 2069 3584 
Q 2775 3584 3186 3129 
Q 3597 2675 3597 1894 
z
M 3022 2063 
Q 3016 2534 2758 2815 
Q 2500 3097 2075 3097 
Q 1594 3097 1305 2825 
Q 1016 2553 972 2059 
L 3022 2063 
z
" transform="scale(0.015625)"/>
       <path id="DejaVuSans-6e" d="M 3513 2113 
L 3513 0 
L 2938 0 
L 2938 2094 
Q 2938 2591 2744 2837 
Q 2550 3084 2163 3084 
Q 1697 3084 1428 2787 
Q 1159 2491 1159 1978 
L 1159 0 
L 581 0 
L 581 3500 
L 1159 3500 
L 1159 2956 
Q 1366 3272 1645 3428 
Q 1925 3584 2291 3584 
Q 2894 3584 3203 3211 
Q 3513 2838 3513 2113 
z
" transform="scale(0.015625)"/>
       <path id="DejaVuSans-73" d="M 2834 3397 
L 2834 2853 
Q 2591 2978 2328 3040 
Q 2066 3103 1784 3103 
Q 1356 3103 1142 2972 
Q 928 2841 928 2578 
Q 928 2378 1081 2264 
Q 1234 2150 1697 2047 
L 1894 2003 
Q 2506 1872 2764 1633 
Q 3022 1394 3022 966 
Q 3022 478 2636 193 
Q 2250 -91 1575 -91 
Q 1294 -91 989 -36 
Q 684 19 347 128 
L 347 722 
Q 666 556 975 473 
Q 1284 391 1588 391 
Q 1994 391 2212 530 
Q 2431 669 2431 922 
Q 2431 1156 2273 1281 
Q 2116 1406 1581 1522 
L 1381 1569 
Q 847 1681 609 1914 
Q 372 2147 372 2553 
Q 372 3047 722 3315 
Q 1072 3584 1716 3584 
Q 2034 3584 2315 3537 
Q 2597 3491 2834 3397 
z
" transform="scale(0.015625)"/>
       <path id="DejaVuSans-69" d="M 603 3500 
L 1178 3500 
L 1178 0 
L 603 0 
L 603 3500 
z
M 603 4863 
L 1178 4863 
L 1178 4134 
L 603 4134 
L 603 4863 
z
" transform="scale(0.015625)"/>
       <path id="DejaVuSans-74" d="M 1172 4494 
L 1172 3500 
L 2356 3500 
L 2356 3053 
L 1172 3053 
L 1172 1153 
Q 1172 725 1289 603 
Q 1406 481 1766 481 
L 2356 481 
L 2356 0 
L 1766 0 
Q 1100 0 847 248 
Q 594 497 594 1153 
L 594 3053 
L 172 3053 
L 172 3500 
L 594 3500 
L 594 4494 
L 1172 4494 
z
" transform="scale(0.015625)"/>
       <path id="DejaVuSans-79" d="M 2059 -325 
Q 1816 -950 1584 -1140 
Q 1353 -1331 966 -1331 
L 506 -1331 
L 506 -850 
L 844 -850 
Q 1081 -850 1212 -737 
Q 1344 -625 1503 -206 
L 1606 56 
L 191 3500 
L 800 3500 
L 1894 763 
L 2988 3500 
L 3597 3500 
L 2059 -325 
z
" transform="scale(0.015625)"/>
      </defs>
      <use xlink:href="#DejaVuSans-44"/>
      <use xlink:href="#DejaVuSans-65" x="77.001953"/>
      <use xlink:href="#DejaVuSans-6e" x="138.525391"/>
      <use xlink:href="#DejaVuSans-73" x="201.904297"/>
      <use xlink:href="#DejaVuSans-69" x="254.003906"/>
      <use xlink:href="#DejaVuSans-74" x="281.787109"/>
      <use xlink:href="#DejaVuSans-79" x="320.996094"/>
     </g>
    </g>
   </g>
   <g id="patch_3">
    <path d="M 83.325 181.5 
L 83.325 29.2 
" style="fill: none; stroke: #000000; stroke-width: 0.8; stroke-linejoin: miter; stroke-linecap: square"/>
   </g>
   <g id="patch_4">
    <path d="M 545.55 181.5 
L 545.55 29.2 
" style="fill: none; stroke: #000000; stroke-width: 0.8; stroke-linejoin: miter; stroke-linecap: square"/>
   </g>
   <g id="patch_5">
    <path d="M 83.325 181.5 
L 545.55 181.5 
" style="fill: none; stroke: #000000; stroke-width: 0.8; stroke-linejoin: miter; stroke-linecap: square"/>
   </g>
   <g id="patch_6">
    <path d="M 83.325 29.2 
L 545.55 29.2 
" style="fill: none; stroke: #000000; stroke-width: 0.8; stroke-linejoin: miter; stroke-linecap: square"/>
   </g>
   <g id="text_2">
    <!-- Radiometric ages - WALIS -->
    <g transform="translate(83.325 23.2)scale(0.08 -0.08)">
     <defs>
      <path id="DejaVuSans-52" d="M 2841 2188 
Q 3044 2119 3236 1894 
Q 3428 1669 3622 1275 
L 4263 0 
L 3584 0 
L 2988 1197 
Q 2756 1666 2539 1819 
Q 2322 1972 1947 1972 
L 1259 1972 
L 1259 0 
L 628 0 
L 628 4666 
L 2053 4666 
Q 2853 4666 3247 4331 
Q 3641 3997 3641 3322 
Q 3641 2881 3436 2590 
Q 3231 2300 2841 2188 
z
M 1259 4147 
L 1259 2491 
L 2053 2491 
Q 2509 2491 2742 2702 
Q 2975 2913 2975 3322 
Q 2975 3731 2742 3939 
Q 2509 4147 2053 4147 
L 1259 4147 
z
" transform="scale(0.015625)"/>
      <path id="DejaVuSans-61" d="M 2194 1759 
Q 1497 1759 1228 1600 
Q 959 1441 959 1056 
Q 959 750 1161 570 
Q 1363 391 1709 391 
Q 2188 391 2477 730 
Q 2766 1069 2766 1631 
L 2766 1759 
L 2194 1759 
z
M 3341 1997 
L 3341 0 
L 2766 0 
L 2766 531 
Q 2569 213 2275 61 
Q 1981 -91 1556 -91 
Q 1019 -91 701 211 
Q 384 513 384 1019 
Q 384 1609 779 1909 
Q 1175 2209 1959 2209 
L 2766 2209 
L 2766 2266 
Q 2766 2663 2505 2880 
Q 2244 3097 1772 3097 
Q 1472 3097 1187 3025 
Q 903 2953 641 2809 
L 641 3341 
Q 956 3463 1253 3523 
Q 1550 3584 1831 3584 
Q 2591 3584 2966 3190 
Q 3341 2797 3341 1997 
z
" transform="scale(0.015625)"/>
      <path id="DejaVuSans-64" d="M 2906 2969 
L 2906 4863 
L 3481 4863 
L 3481 0 
L 2906 0 
L 2906 525 
Q 2725 213 2448 61 
Q 2172 -91 1784 -91 
Q 1150 -91 751 415 
Q 353 922 353 1747 
Q 353 2572 751 3078 
Q 1150 3584 1784 3584 
Q 2172 3584 2448 3432 
Q 2725 3281 2906 2969 
z
M 947 1747 
Q 947 1113 1208 752 
Q 1469 391 1925 391 
Q 2381 391 2643 752 
Q 2906 1113 2906 1747 
Q 2906 2381 2643 2742 
Q 2381 3103 1925 3103 
Q 1469 3103 1208 2742 
Q 947 2381 947 1747 
z
" transform="scale(0.015625)"/>
      <path id="DejaVuSans-6f" d="M 1959 3097 
Q 1497 3097 1228 2736 
Q 959 2375 959 1747 
Q 959 1119 1226 758 
Q 1494 397 1959 397 
Q 2419 397 2687 759 
Q 2956 1122 2956 1747 
Q 2956 2369 2687 2733 
Q 2419 3097 1959 3097 
z
M 1959 3584 
Q 2709 3584 3137 3096 
Q 3566 2609 3566 1747 
Q 3566 888 3137 398 
Q 2709 -91 1959 -91 
Q 1206 -91 779 398 
Q 353 888 353 1747 
Q 353 2609 779 3096 
Q 1206 3584 1959 3584 
z
" transform="scale(0.015625)"/>
      <path id="DejaVuSans-6d" d="M 3328 2828 
Q 3544 3216 3844 3400 
Q 4144 3584 4550 3584 
Q 5097 3584 5394 3201 
Q 5691 2819 5691 2113 
L 5691 0 
L 5113 0 
L 5113 2094 
Q 5113 2597 4934 2840 
Q 4756 3084 4391 3084 
Q 3944 3084 3684 2787 
Q 3425 2491 3425 1978 
L 3425 0 
L 2847 0 
L 2847 2094 
Q 2847 2600 2669 2842 
Q 2491 3084 2119 3084 
Q 1678 3084 1418 2786 
Q 1159 2488 1159 1978 
L 1159 0 
L 581 0 
L 581 3500 
L 1159 3500 
L 1159 2956 
Q 1356 3278 1631 3431 
Q 1906 3584 2284 3584 
Q 2666 3584 2933 3390 
Q 3200 3197 3328 2828 
z
" transform="scale(0.015625)"/>
      <path id="DejaVuSans-72" d="M 2631 2963 
Q 2534 3019 2420 3045 
Q 2306 3072 2169 3072 
Q 1681 3072 1420 2755 
Q 1159 2438 1159 1844 
L 1159 0 
L 581 0 
L 581 3500 
L 1159 3500 
L 1159 2956 
Q 1341 3275 1631 3429 
Q 1922 3584 2338 3584 
Q 2397 3584 2469 3576 
Q 2541 3569 2628 3553 
L 2631 2963 
z
" transform="scale(0.015625)"/>
      <path id="DejaVuSans-63" d="M 3122 3366 
L 3122 2828 
Q 2878 2963 2633 3030 
Q 2388 3097 2138 3097 
Q 1578 3097 1268 2742 
Q 959 2388 959 1747 
Q 959 1106 1268 751 
Q 1578 397 2138 397 
Q 2388 397 2633 464 
Q 2878 531 3122 666 
L 3122 134 
Q 2881 22 2623 -34 
Q 2366 -91 2075 -91 
Q 1284 -91 818 406 
Q 353 903 353 1747 
Q 353 2603 823 3093 
Q 1294 3584 2113 3584 
Q 2378 3584 2631 3529 
Q 2884 3475 3122 3366 
z
" transform="scale(0.015625)"/>
      <path id="DejaVuSans-20" transform="scale(0.015625)"/>
      <path id="DejaVuSans-67" d="M 2906 1791 
Q 2906 2416 2648 2759 
Q 2391 3103 1925 3103 
Q 1463 3103 1205 2759 
Q 947 2416 947 1791 
Q 947 1169 1205 825 
Q 1463 481 1925 481 
Q 2391 481 2648 825 
Q 2906 1169 2906 1791 
z
M 3481 434 
Q 3481 -459 3084 -895 
Q 2688 -1331 1869 -1331 
Q 1566 -1331 1297 -1286 
Q 1028 -1241 775 -1147 
L 775 -588 
Q 1028 -725 1275 -790 
Q 1522 -856 1778 -856 
Q 2344 -856 2625 -561 
Q 2906 -266 2906 331 
L 2906 616 
Q 2728 306 2450 153 
Q 2172 0 1784 0 
Q 1141 0 747 490 
Q 353 981 353 1791 
Q 353 2603 747 3093 
Q 1141 3584 1784 3584 
Q 2172 3584 2450 3431 
Q 2728 3278 2906 2969 
L 2906 3500 
L 3481 3500 
L 3481 434 
z
" transform="scale(0.015625)"/>
      <path id="DejaVuSans-2d" d="M 313 2009 
L 1997 2009 
L 1997 1497 
L 313 1497 
L 313 2009 
z
" transform="scale(0.015625)"/>
      <path id="DejaVuSans-57" d="M 213 4666 
L 850 4666 
L 1831 722 
L 2809 4666 
L 3519 4666 
L 4500 722 
L 5478 4666 
L 6119 4666 
L 4947 0 
L 4153 0 
L 3169 4050 
L 2175 0 
L 1381 0 
L 213 4666 
z
" transform="scale(0.015625)"/>
      <path id="DejaVuSans-41" d="M 2188 4044 
L 1331 1722 
L 3047 1722 
L 2188 4044 
z
M 1831 4666 
L 2547 4666 
L 4325 0 
L 3669 0 
L 3244 1197 
L 1141 1197 
L 716 0 
L 50 0 
L 1831 4666 
z
" transform="scale(0.015625)"/>
      <path id="DejaVuSans-4c" d="M 628 4666 
L 1259 4666 
L 1259 531 
L 3531 531 
L 3531 0 
L 628 0 
L 628 4666 
z
" transform="scale(0.015625)"/>
      <path id="DejaVuSans-49" d="M 628 4666 
L 1259 4666 
L 1259 0 
L 628 0 
L 628 4666 
z
" transform="scale(0.015625)"/>
      <path id="DejaVuSans-53" d="M 3425 4513 
L 3425 3897 
Q 3066 4069 2747 4153 
Q 2428 4238 2131 4238 
Q 1616 4238 1336 4038 
Q 1056 3838 1056 3469 
Q 1056 3159 1242 3001 
Q 1428 2844 1947 2747 
L 2328 2669 
Q 3034 2534 3370 2195 
Q 3706 1856 3706 1288 
Q 3706 609 3251 259 
Q 2797 -91 1919 -91 
Q 1588 -91 1214 -16 
Q 841 59 441 206 
L 441 856 
Q 825 641 1194 531 
Q 1563 422 1919 422 
Q 2459 422 2753 634 
Q 3047 847 3047 1241 
Q 3047 1584 2836 1778 
Q 2625 1972 2144 2069 
L 1759 2144 
Q 1053 2284 737 2584 
Q 422 2884 422 3419 
Q 422 4038 858 4394 
Q 1294 4750 2059 4750 
Q 2388 4750 2728 4690 
Q 3069 4631 3425 4513 
z
" transform="scale(0.015625)"/>
     </defs>
     <use xlink:href="#DejaVuSans-52"/>
     <use xlink:href="#DejaVuSans-61" x="67.232422"/>
     <use xlink:href="#DejaVuSans-64" x="128.511719"/>
     <use xlink:href="#DejaVuSans-69" x="191.988281"/>
     <use xlink:href="#DejaVuSans-6f" x="219.771484"/>
     <use xlink:href="#DejaVuSans-6d" x="280.953125"/>
     <use xlink:href="#DejaVuSans-65" x="378.365234"/>
     <use xlink:href="#DejaVuSans-74" x="439.888672"/>
     <use xlink:href="#DejaVuSans-72" x="479.097656"/>
     <use xlink:href="#DejaVuSans-69" x="520.210938"/>
     <use xlink:href="#DejaVuSans-63" x="547.994141"/>
     <use xlink:href="#DejaVuSans-20" x="602.974609"/>
     <use xlink:href="#DejaVuSans-61" x="634.761719"/>
     <use xlink:href="#DejaVuSans-67" x="696.041016"/>
     <use xlink:href="#DejaVuSans-65" x="759.517578"/>
     <use xlink:href="#DejaVuSans-73" x="821.041016"/>
     <use xlink:href="#DejaVuSans-20" x="873.140625"/>
     <use xlink:href="#DejaVuSans-2d" x="904.927734"/>
     <use xlink:href="#DejaVuSans-20" x="941.011719"/>
     <use xlink:href="#DejaVuSans-57" x="972.798828"/>
     <use xlink:href="#DejaVuSans-41" x="1066.175781"/>
     <use xlink:href="#DejaVuSans-4c" x="1134.583984"/>
     <use xlink:href="#DejaVuSans-49" x="1190.296875"/>
     <use xlink:href="#DejaVuSans-53" x="1219.789062"/>
    </g>
   </g>
   <g id="legend_1">
    <g id="patch_7">
     <path d="M 379.659375 129.26875 
L 535.05 129.26875 
Q 538.05 129.26875 538.05 126.26875 
L 538.05 39.7 
Q 538.05 36.7 535.05 36.7 
L 379.659375 36.7 
Q 376.659375 36.7 376.659375 39.7 
L 376.659375 126.26875 
Q 376.659375 129.26875 379.659375 129.26875 
z
" style="fill: #ffffff; opacity: 0.8; stroke: #cccccc; stroke-linejoin: miter"/>
    </g>
    <g id="text_3">
     <!-- Method -->
     <g transform="translate(429.225 54.097656)scale(0.15 -0.15)">
      <defs>
       <path id="DejaVuSans-4d" d="M 628 4666 
L 1569 4666 
L 2759 1491 
L 3956 4666 
L 4897 4666 
L 4897 0 
L 4281 0 
L 4281 4097 
L 3078 897 
L 2444 897 
L 1241 4097 
L 1241 0 
L 628 0 
L 628 4666 
z
" transform="scale(0.015625)"/>
       <path id="DejaVuSans-68" d="M 3513 2113 
L 3513 0 
L 2938 0 
L 2938 2094 
Q 2938 2591 2744 2837 
Q 2550 3084 2163 3084 
Q 1697 3084 1428 2787 
Q 1159 2491 1159 1978 
L 1159 0 
L 581 0 
L 581 4863 
L 1159 4863 
L 1159 2956 
Q 1366 3272 1645 3428 
Q 1925 3584 2291 3584 
Q 2894 3584 3203 3211 
Q 3513 2838 3513 2113 
z
" transform="scale(0.015625)"/>
      </defs>
      <use xlink:href="#DejaVuSans-4d"/>
      <use xlink:href="#DejaVuSans-65" x="86.279297"/>
      <use xlink:href="#DejaVuSans-74" x="147.802734"/>
      <use xlink:href="#DejaVuSans-68" x="187.011719"/>
      <use xlink:href="#DejaVuSans-6f" x="250.390625"/>
      <use xlink:href="#DejaVuSans-64" x="311.572266"/>
     </g>
    </g>
    <g id="patch_8">
     <path d="M 382.659375 76.114844 
L 412.659375 76.114844 
L 412.659375 65.614844 
L 382.659375 65.614844 
z
" style="fill: #1f77b4; fill-opacity: 0.3; stroke: #1f77b4; stroke-linejoin: miter"/>
    </g>
    <g id="text_4">
     <!-- U-Series -->
     <g transform="translate(424.659375 76.114844)scale(0.15 -0.15)">
      <defs>
       <path id="DejaVuSans-55" d="M 556 4666 
L 1191 4666 
L 1191 1831 
Q 1191 1081 1462 751 
Q 1734 422 2344 422 
Q 2950 422 3222 751 
Q 3494 1081 3494 1831 
L 3494 4666 
L 4128 4666 
L 4128 1753 
Q 4128 841 3676 375 
Q 3225 -91 2344 -91 
Q 1459 -91 1007 375 
Q 556 841 556 1753 
L 556 4666 
z
" transform="scale(0.015625)"/>
      </defs>
      <use xlink:href="#DejaVuSans-55"/>
      <use xlink:href="#DejaVuSans-2d" x="73.193359"/>
      <use xlink:href="#DejaVuSans-53" x="109.277344"/>
      <use xlink:href="#DejaVuSans-65" x="172.753906"/>
      <use xlink:href="#DejaVuSans-72" x="234.277344"/>
      <use xlink:href="#DejaVuSans-69" x="275.390625"/>
      <use xlink:href="#DejaVuSans-65" x="303.173828"/>
      <use xlink:href="#DejaVuSans-73" x="364.697266"/>
     </g>
    </g>
    <g id="patch_9">
     <path d="M 382.659375 98.132031 
L 412.659375 98.132031 
L 412.659375 87.632031 
L 382.659375 87.632031 
z
" style="fill: #ff7f0e; fill-opacity: 0.3; stroke: #ff7f0e; stroke-linejoin: miter"/>
    </g>
    <g id="text_5">
     <!-- Luminescence -->
     <g transform="translate(424.659375 98.132031)scale(0.15 -0.15)">
      <defs>
       <path id="DejaVuSans-75" d="M 544 1381 
L 544 3500 
L 1119 3500 
L 1119 1403 
Q 1119 906 1312 657 
Q 1506 409 1894 409 
Q 2359 409 2629 706 
Q 2900 1003 2900 1516 
L 2900 3500 
L 3475 3500 
L 3475 0 
L 2900 0 
L 2900 538 
Q 2691 219 2414 64 
Q 2138 -91 1772 -91 
Q 1169 -91 856 284 
Q 544 659 544 1381 
z
M 1991 3584 
L 1991 3584 
z
" transform="scale(0.015625)"/>
      </defs>
      <use xlink:href="#DejaVuSans-4c"/>
      <use xlink:href="#DejaVuSans-75" x="53.962891"/>
      <use xlink:href="#DejaVuSans-6d" x="117.341797"/>
      <use xlink:href="#DejaVuSans-69" x="214.753906"/>
      <use xlink:href="#DejaVuSans-6e" x="242.537109"/>
      <use xlink:href="#DejaVuSans-65" x="305.916016"/>
      <use xlink:href="#DejaVuSans-73" x="367.439453"/>
      <use xlink:href="#DejaVuSans-63" x="419.539062"/>
      <use xlink:href="#DejaVuSans-65" x="474.519531"/>
      <use xlink:href="#DejaVuSans-6e" x="536.042969"/>
      <use xlink:href="#DejaVuSans-63" x="599.421875"/>
      <use xlink:href="#DejaVuSans-65" x="654.402344"/>
     </g>
    </g>
    <g id="patch_10">
     <path d="M 382.659375 120.149219 
L 412.659375 120.149219 
L 412.659375 109.649219 
L 382.659375 109.649219 
z
" style="fill: #2ca02c; fill-opacity: 0.3; stroke: #2ca02c; stroke-linejoin: miter"/>
    </g>
    <g id="text_6">
     <!-- ESR -->
     <g transform="translate(424.659375 120.149219)scale(0.15 -0.15)">
      <defs>
       <path id="DejaVuSans-45" d="M 628 4666 
L 3578 4666 
L 3578 4134 
L 1259 4134 
L 1259 2753 
L 3481 2753 
L 3481 2222 
L 1259 2222 
L 1259 531 
L 3634 531 
L 3634 0 
L 628 0 
L 628 4666 
z
" transform="scale(0.015625)"/>
      </defs>
      <use xlink:href="#DejaVuSans-45"/>
      <use xlink:href="#DejaVuSans-53" x="63.183594"/>
      <use xlink:href="#DejaVuSans-52" x="126.660156"/>
     </g>
    </g>
   </g>
  </g>
  <g id="axes_2">
   <g id="patch_11">
    <path d="M 83.325 518.8 
L 545.55 518.8 
L 545.55 214.2 
L 83.325 214.2 
z
" style="fill: #ffffff"/>
   </g>
   <g id="PolyCollection_4">
    <path d="M 83.325 284.259635 
L 83.325 255.052637 
L 84.86575 257.341634 
L 86.4065 261.503445 
L 87.94725 263.74785 
L 89.488 269.202796 
L 91.02875 274.092924 
L 92.5695 280.78155 
L 94.11025 282.282775 
L 95.651 286.102723 
L 97.19175 289.461899 
L 98.7325 296.403206 
L 100.27325 307.848187 
L 101.814 324.213024 
L 103.35475 341.008905 
L 104.8955 360.688328 
L 106.43625 373.366989 
L 107.977 386.699649 
L 109.51775 397.193359 
L 111.0585 406.765525 
L 112.59925 414.895921 
L 114.14 423.858679 
L 115.68075 429.78926 
L 117.2215 439.361426 
L 118.76225 450.107817 
L 120.303 457.227487 
L 121.84375 454.641219 
L 123.3845 450.464544 
L 124.92525 445.024462 
L 126.466 438.14261 
L 128.00675 431.751257 
L 129.5475 426.757083 
L 131.08825 420.172503 
L 132.629 415.312102 
L 134.16975 412.354243 
L 135.7105 411.239472 
L 137.25125 409.113976 
L 138.792 408.47484 
L 140.33275 409.143703 
L 141.8735 406.810116 
L 143.41425 402.306441 
L 144.955 394.889499 
L 146.49575 389.642644 
L 148.0365 386.967194 
L 149.57725 383.875562 
L 151.118 382.30002 
L 152.65875 381.646021 
L 154.1995 382.062202 
L 155.74025 381.735202 
L 157.281 379.223252 
L 158.82175 373.322398 
L 160.3625 368.729542 
L 161.90325 367.94177 
L 163.444 366.782409 
L 164.98475 364.909594 
L 166.5255 369.130859 
L 168.06625 372.296809 
L 169.607 375.403304 
L 171.14775 378.643571 
L 172.6885 379.966432 
L 174.22925 378.59898 
L 175.77 379.802933 
L 177.31075 376.369438 
L 178.8515 378.331435 
L 180.39225 380.546113 
L 181.933 384.678197 
L 183.47375 386.878012 
L 185.0145 383.801244 
L 186.55525 377.781481 
L 188.096 371.568492 
L 189.63675 357.730469 
L 191.1775 345.126126 
L 192.71825 334.350007 
L 194.259 325.119704 
L 195.79975 316.350173 
L 197.3405 313.273406 
L 198.88125 309.096731 
L 200.422 305.6781 
L 201.96275 306.228053 
L 203.5035 306.436144 
L 205.04425 308.576504 
L 206.585 310.508774 
L 208.12575 307.313097 
L 209.6665 305.291646 
L 211.20725 303.270195 
L 212.748 303.225604 
L 214.28875 304.920056 
L 215.8295 308.576504 
L 217.37025 312.753179 
L 218.911 319.932304 
L 220.45175 324.213024 
L 221.9925 324.644069 
L 223.53325 322.132118 
L 225.074 320.764666 
L 226.61475 323.098253 
L 228.1555 321.15112 
L 229.69625 313.689587 
L 231.237 305.811872 
L 232.77775 298.082794 
L 234.3185 296.299161 
L 235.85925 295.585707 
L 237.4 295.511389 
L 238.94075 295.55598 
L 240.4815 297.844976 
L 242.02225 302.735105 
L 243.563 315.027312 
L 245.10375 321.834846 
L 246.6445 326.650656 
L 248.18525 331.347558 
L 249.726 335.568824 
L 251.26675 337.010594 
L 252.8075 334.662143 
L 254.34825 332.269102 
L 255.889 325.357522 
L 257.42975 316.587991 
L 258.9705 307.327961 
L 260.51125 297.354477 
L 262.052 288.466037 
L 263.59275 282.119275 
L 265.1335 273.974016 
L 266.67425 263.926214 
L 268.215 260.953491 
L 269.75575 259.63063 
L 271.2965 260.433265 
L 272.83725 264.372122 
L 274.378 269.871659 
L 275.91875 276.025194 
L 277.4595 283.754272 
L 279.00025 293.980437 
L 280.541 305.365964 
L 282.08175 322.0578 
L 283.6225 341.454814 
L 285.16325 368.239043 
L 286.704 393.343683 
L 288.24475 410.347655 
L 289.7855 428.823125 
L 291.32625 440.699151 
L 292.867 444.712326 
L 294.40775 444.816371 
L 295.9485 443.344874 
L 297.48925 439.569516 
L 299.03 435.452296 
L 300.57075 431.097258 
L 302.1115 425.196404 
L 303.65225 420.03873 
L 305.193 415.38642 
L 306.73375 411.432699 
L 308.2745 407.285751 
L 309.81525 405.294027 
L 311.356 400.716035 
L 312.89675 394.963817 
L 314.4375 388.453555 
L 315.97825 382.924291 
L 317.519 379.892114 
L 319.05975 378.301708 
L 320.6005 378.628707 
L 322.14125 380.233977 
L 323.682 382.656746 
L 325.22275 384.410652 
L 326.7635 385.733514 
L 328.30425 385.51056 
L 329.845 382.954018 
L 331.38575 379.416479 
L 332.9265 373.604807 
L 334.46725 368.387679 
L 336.008 361.253145 
L 337.54875 355.263109 
L 339.0895 353.672703 
L 340.63025 350.714844 
L 342.171 346.597624 
L 343.71175 344.382945 
L 345.2525 343.297902 
L 346.79325 344.546445 
L 348.334 346.344942 
L 349.87475 349.287937 
L 351.4155 350.625662 
L 352.95625 349.570346 
L 354.497 349.763573 
L 356.03775 351.160752 
L 357.5785 353.33084 
L 359.11925 354.93611 
L 360.66 357.299424 
L 362.20075 357.685878 
L 363.7415 358.637149 
L 365.28225 359.633011 
L 366.823 359.974874 
L 368.36375 359.737057 
L 369.9045 358.800649 
L 371.44525 356.036017 
L 372.986 350.209481 
L 374.52675 344.353218 
L 376.0675 334.498643 
L 377.60825 327.631655 
L 379.149 322.741526 
L 380.68975 315.651583 
L 382.2305 308.948094 
L 383.77125 298.93002 
L 385.312 289.313263 
L 386.85275 283.263773 
L 388.3935 283.263773 
L 389.93425 283.977226 
L 391.475 284.69068 
L 393.01575 287.276948 
L 394.5565 290.918533 
L 396.09725 291.542805 
L 397.638 286.979676 
L 399.17875 278.997916 
L 400.7195 274.286151 
L 402.26025 271.387747 
L 403.801 268.697433 
L 405.34175 269.351432 
L 406.8825 267.835344 
L 408.42325 266.512482 
L 409.964 264.44644 
L 411.50475 265.739574 
L 413.0455 267.582662 
L 414.58625 273.929425 
L 416.127 280.603186 
L 417.66775 287.20263 
L 419.2085 298.885429 
L 420.74925 312.470771 
L 422.29 324.658932 
L 423.83075 336.921412 
L 425.3715 349.986527 
L 426.91225 358.934422 
L 428.453 364.582594 
L 429.99375 367.079681 
L 431.5345 366.068955 
L 433.07525 365.147411 
L 434.616 361.743644 
L 436.15675 354.207793 
L 437.6975 345.616625 
L 439.23825 332.313692 
L 440.779 319.590441 
L 442.31975 309.825048 
L 443.8605 299.940746 
L 445.40125 291.067169 
L 446.942 286.756722 
L 448.48275 288.674128 
L 450.0235 292.01844 
L 451.56425 296.120797 
L 453.105 303.760694 
L 454.64575 310.508774 
L 456.1865 318.906714 
L 457.72725 314.893539 
L 459.268 324.540023 
L 460.80875 328.895062 
L 462.3495 332.01642 
L 463.89025 348.098848 
L 465.431 376.191075 
L 466.97175 382.106793 
L 468.5125 386.922603 
L 470.05325 388.126555 
L 471.594 384.574152 
L 473.13475 380.635295 
L 474.6755 378.316572 
L 476.21625 374.229078 
L 477.757 368.655224 
L 479.29775 375.670849 
L 480.8385 389.612917 
L 482.37925 390.504733 
L 483.92 384.752515 
L 485.46075 377.930118 
L 487.0015 375.700576 
L 488.54225 377.90039 
L 490.083 378.613844 
L 491.62375 376.696438 
L 493.1645 381.170385 
L 494.70525 385.302469 
L 496.246 388.260328 
L 497.78675 392.243776 
L 499.3275 395.647543 
L 500.86825 389.761553 
L 502.409 382.820246 
L 503.94975 371.196901 
L 505.4905 358.547968 
L 507.03125 349.748709 
L 508.572 340.919724 
L 510.11275 334.127053 
L 511.6535 327.36411 
L 513.19425 323.573889 
L 514.735 320.140394 
L 516.27575 317.539262 
L 517.8165 312.515361 
L 519.35725 311.311409 
L 520.898 312.188362 
L 522.43875 315.413766 
L 523.9795 317.227126 
L 525.52025 323.12798 
L 527.061 329.385561 
L 528.60175 338.690182 
L 530.1425 347.073259 
L 531.68325 349.674391 
L 533.224 346.894896 
L 534.76475 343.401947 
L 536.3055 339.581999 
L 537.84625 335.76205 
L 539.387 328.597789 
L 540.92775 325.089977 
L 542.4685 320.541712 
L 544.00925 317.093354 
L 545.55 314.848948 
L 547.09075 310.196638 
L 548.6315 305.737554 
L 550.17225 302.006788 
L 551.713 301.813561 
L 553.25375 299.435383 
L 554.7945 297.904431 
L 556.33525 295.333026 
L 557.876 291.899532 
L 559.41675 288.688991 
L 560.9575 284.913634 
L 562.49825 282.401684 
L 564.039 277.526419 
L 565.57975 273.810516 
L 567.1205 269.693295 
L 568.66125 268.028571 
L 570.202 265.30853 
L 571.74275 265.992256 
L 573.2835 267.850207 
L 574.82425 268.415025 
L 576.365 266.928663 
L 577.90575 263.851896 
L 579.4465 260.760264 
L 580.98725 260.760264 
L 582.528 258.590177 
L 584.06875 261.711536 
L 585.6095 263.628942 
L 587.15025 263.227624 
L 588.691 261.280491 
L 590.23175 261.993944 
L 591.7725 264.832894 
L 593.31325 270.317567 
L 594.854 285.38927 
L 596.39475 299.79211 
L 597.9355 314.893539 
L 599.47625 325.75884 
L 601.017 337.070048 
L 602.55775 356.37788 
L 604.0985 385.911877 
L 605.63925 395.320544 
L 607.18 401.622715 
L 608.72075 404.803528 
L 610.2615 406.839843 
L 611.80225 411.417835 
L 613.343 412.666379 
L 614.88375 412.725833 
L 616.4245 412.473152 
L 617.96525 411.061109 
L 619.506 410.823291 
L 621.04675 409.143703 
L 622.5875 402.945577 
L 624.12825 397.906812 
L 625.669 395.662407 
L 627.20975 393.135593 
L 628.7505 393.016684 
L 630.29125 396.494769 
L 631.832 404.535983 
L 633.37275 408.10325 
L 634.9135 404.476529 
L 636.45425 396.836632 
L 637.995 386.491558 
L 639.53575 374.674987 
L 641.0765 367.763407 
L 642.61725 365.533865 
L 644.158 357.225106 
L 645.69875 345.928761 
L 647.2395 338.972591 
L 648.78025 334.632416 
L 650.321 329.920651 
L 651.86175 326.873611 
L 653.4025 326.82902 
L 654.94325 330.515195 
L 656.484 333.978417 
L 658.02475 337.263275 
L 659.5655 338.883409 
L 661.10625 340.399497 
L 662.647 338.853682 
L 664.18775 328.404563 
L 665.7285 311.93568 
L 667.26925 299.152974 
L 668.81 295.630298 
L 670.35075 289.952398 
L 671.8915 287.232357 
L 673.43225 288.525492 
L 674.973 293.04403 
L 676.51375 291.43876 
L 678.0545 293.25212 
L 679.59525 294.976299 
L 681.136 297.413932 
L 682.67675 298.082794 
L 684.2175 295.674889 
L 685.75825 289.803762 
L 687.299 278.1061 
L 688.83975 268.563661 
L 690.3805 264.372122 
L 691.92125 258.56045 
L 693.462 254.517547 
L 695.00275 246.030425 
L 696.5435 240.08498 
L 698.08425 233.426082 
L 699.625 230.914132 
L 701.16575 228.253545 
L 702.7065 228.045455 
L 704.24725 230.096633 
L 705.788 232.653174 
L 707.32875 231.954584 
L 708.8695 235.952896 
L 710.41025 241.214615 
L 711.951 245.852062 
L 713.49175 250.177373 
L 715.0325 256.984907 
L 716.57325 265.724711 
L 718.114 276.01033 
L 719.65475 280.855868 
L 721.1955 285.790587 
L 722.73625 293.103484 
L 724.277 301.159562 
L 725.81775 311.014137 
L 727.3585 317.464944 
L 728.89925 321.760528 
L 730.44 322.265891 
L 731.98075 336.163368 
L 733.5215 352.63225 
L 735.06225 362.843551 
L 736.603 375.581667 
L 738.14375 388.096828 
L 739.6845 398.88781 
L 741.22525 414.271649 
L 742.766 422.015591 
L 744.30675 425.523403 
L 745.8475 426.965173 
L 745.8475 503.735729 
L 745.8475 503.735729 
L 744.30675 504.954545 
L 742.766 502.516913 
L 741.22525 494.505426 
L 739.6845 483.119899 
L 738.14375 471.912736 
L 736.603 456.172171 
L 735.06225 435.586068 
L 733.5215 422.17909 
L 731.98075 414.836466 
L 730.44 407.419524 
L 728.89925 400.716035 
L 727.3585 390.757415 
L 725.81775 380.590704 
L 724.277 366.321637 
L 722.73625 354.118611 
L 721.1955 349.109574 
L 719.65475 344.457263 
L 718.114 339.180681 
L 716.57325 332.165056 
L 715.0325 322.949617 
L 713.49175 317.747353 
L 711.951 310.8655 
L 710.41025 306.837462 
L 708.8695 302.898604 
L 707.32875 301.828424 
L 705.788 300.282609 
L 704.24725 299.896155 
L 702.7065 301.709515 
L 701.16575 305.484873 
L 699.625 310.464183 
L 698.08425 314.804358 
L 696.5435 316.409628 
L 695.00275 318.490533 
L 693.462 319.976895 
L 691.92125 321.567301 
L 690.3805 326.115566 
L 688.83975 331.436739 
L 687.299 338.318592 
L 685.75825 340.771088 
L 684.2175 342.792539 
L 682.67675 341.187269 
L 681.136 341.335905 
L 679.59525 342.822266 
L 678.0545 347.459713 
L 676.51375 350.001391 
L 674.973 352.79575 
L 673.43225 352.855204 
L 671.8915 355.738745 
L 670.35075 360.227556 
L 668.81 368.001225 
L 667.26925 371.10772 
L 665.7285 372.371127 
L 664.18775 374.793895 
L 662.647 374.897941 
L 661.10625 374.006124 
L 659.5655 372.87649 
L 658.02475 374.838486 
L 656.484 376.518074 
L 654.94325 379.698887 
L 653.4025 381.60143 
L 651.86175 384.693061 
L 650.321 389.835871 
L 648.78025 394.621954 
L 647.2395 398.531084 
L 645.69875 400.344444 
L 644.158 403.227985 
L 642.61725 408.177568 
L 641.0765 415.089148 
L 639.53575 422.060182 
L 637.995 430.250032 
L 636.45425 433.861889 
L 634.9135 437.889928 
L 633.37275 438.573654 
L 631.832 436.730567 
L 630.29125 434.307798 
L 628.7505 432.048529 
L 627.20975 431.439121 
L 625.669 436.269795 
L 624.12825 444.459645 
L 622.5875 450.538862 
L 621.04675 454.462856 
L 619.506 458.951666 
L 617.96525 463.425614 
L 616.4245 466.78479 
L 614.88375 469.118377 
L 613.343 469.356195 
L 611.80225 469.192695 
L 610.2615 467.423925 
L 608.72075 463.351296 
L 607.18 458.461167 
L 605.63925 453.065676 
L 604.0985 447.358049 
L 602.55775 438.603382 
L 601.017 428.912307 
L 599.47625 417.006553 
L 597.9355 403.540121 
L 596.39475 386.58074 
L 594.854 370.825311 
L 593.31325 357.091334 
L 591.7725 345.943625 
L 590.23175 335.464778 
L 588.691 329.162607 
L 587.15025 328.672108 
L 585.6095 329.370697 
L 584.06875 328.701835 
L 582.528 328.137018 
L 580.98725 327.185746 
L 579.4465 328.359972 
L 577.90575 329.905787 
L 576.365 330.648968 
L 574.82425 330.678695 
L 573.2835 330.78274 
L 571.74275 332.001557 
L 570.202 333.190646 
L 568.66125 336.416049 
L 567.1205 337.991592 
L 565.57975 340.785951 
L 564.039 343.669492 
L 562.49825 347.296213 
L 560.9575 352.037706 
L 559.41675 355.159064 
L 557.876 361.550417 
L 556.33525 365.80141 
L 554.7945 365.414956 
L 553.25375 365.608183 
L 551.713 367.525589 
L 550.17225 369.472722 
L 548.6315 372.38599 
L 547.09075 375.195213 
L 545.55 379.728615 
L 544.00925 382.612155 
L 542.4685 383.087791 
L 540.92775 384.143107 
L 539.387 384.663334 
L 537.84625 385.18356 
L 536.3055 385.138969 
L 534.76475 385.213287 
L 533.224 384.559289 
L 531.68325 383.399927 
L 530.1425 381.646021 
L 528.60175 378.480071 
L 527.061 373.41158 
L 525.52025 368.714678 
L 523.9795 367.19859 
L 522.43875 367.213453 
L 520.898 366.945908 
L 519.35725 367.451271 
L 517.8165 371.925218 
L 516.27575 377.082892 
L 514.735 382.924291 
L 513.19425 388.810282 
L 511.6535 396.138042 
L 510.11275 402.58885 
L 508.572 408.177568 
L 507.03125 412.38397 
L 505.4905 416.679554 
L 503.94975 423.873542 
L 502.409 436.254931 
L 500.86825 439.792471 
L 499.3275 440.684287 
L 497.78675 438.841199 
L 496.246 438.098019 
L 494.70525 434.44157 
L 493.1645 430.963485 
L 491.62375 426.638174 
L 490.083 424.839677 
L 488.54225 423.754633 
L 487.0015 423.234407 
L 485.46075 426.697628 
L 483.92 433.415981 
L 482.37925 438.900654 
L 480.8385 446.198687 
L 479.29775 453.229176 
L 477.757 461.389299 
L 476.21625 464.302567 
L 474.6755 467.617152 
L 473.13475 468.672469 
L 471.594 466.606427 
L 470.05325 461.879798 
L 468.5125 455.59249 
L 466.97175 450.137545 
L 465.431 443.017874 
L 463.89025 436.180613 
L 462.3495 430.101396 
L 460.80875 421.450773 
L 459.268 409.797702 
L 457.72725 398.88781 
L 456.1865 386.001059 
L 454.64575 375.120895 
L 453.105 358.51824 
L 451.56425 344.2789 
L 450.0235 335.55396 
L 448.48275 335.494505 
L 446.942 338.214546 
L 445.40125 343.684356 
L 443.8605 353.301113 
L 442.31975 364.627185 
L 440.779 376.99371 
L 439.23825 387.844147 
L 437.6975 391.604641 
L 436.15675 395.558361 
L 434.616 401.19167 
L 433.07525 407.642478 
L 431.5345 409.767974 
L 429.99375 414.033831 
L 428.453 414.464876 
L 426.91225 413.602786 
L 425.3715 407.597887 
L 423.83075 400.864671 
L 422.29 388.304919 
L 420.74925 377.231528 
L 419.2085 361.505826 
L 417.66775 348.678529 
L 416.127 339.418499 
L 414.58625 332.358283 
L 413.0455 328.538335 
L 411.50475 328.315381 
L 409.964 329.980105 
L 408.42325 330.113878 
L 406.8825 330.396287 
L 405.34175 335.360733 
L 403.801 332.105602 
L 402.26025 330.857059 
L 400.7195 336.326868 
L 399.17875 337.887547 
L 397.638 336.668731 
L 396.09725 338.809091 
L 394.5565 337.174094 
L 393.01575 333.487918 
L 391.475 328.003245 
L 389.93425 327.141156 
L 388.3935 326.204748 
L 386.85275 332.150193 
L 385.312 341.335905 
L 383.77125 345.958488 
L 382.2305 352.647114 
L 380.68975 359.945147 
L 379.149 367.183726 
L 377.60825 375.968121 
L 376.0675 381.616293 
L 374.52675 389.835871 
L 372.986 397.312268 
L 371.44525 404.03062 
L 369.9045 407.300615 
L 368.36375 411.878607 
L 366.823 414.375694 
L 365.28225 415.59451 
L 363.7415 415.356693 
L 362.20075 414.910784 
L 360.66 412.948787 
L 359.11925 410.184156 
L 357.5785 408.876158 
L 356.03775 406.081799 
L 354.497 403.614439 
L 352.95625 400.968716 
L 351.4155 401.652442 
L 349.87475 397.98113 
L 348.334 396.227224 
L 346.79325 396.583951 
L 345.2525 398.263539 
L 343.71175 399.616127 
L 342.171 403.198258 
L 340.63025 409.366657 
L 339.0895 414.583785 
L 337.54875 420.811638 
L 336.008 423.561406 
L 334.46725 430.056805 
L 332.9265 434.382116 
L 331.38575 438.960108 
L 329.845 441.130196 
L 328.30425 447.135095 
L 326.7635 450.271317 
L 325.22275 450.702362 
L 323.682 449.840272 
L 322.14125 449.260591 
L 320.6005 447.40264 
L 319.05975 445.871688 
L 317.519 445.529825 
L 315.97825 447.283731 
L 314.4375 450.211863 
L 312.89675 453.021085 
L 311.356 454.373674 
L 309.81525 455.681672 
L 308.2745 457.717987 
L 306.73375 460.006983 
L 305.193 463.054023 
L 303.65225 466.2497 
L 302.1115 473.131552 
L 300.57075 477.664954 
L 299.03 483.476626 
L 297.48925 487.40062 
L 295.9485 490.44766 
L 294.40775 490.98275 
L 292.867 490.165252 
L 291.32625 488.931572 
L 289.7855 485.616986 
L 288.24475 478.824316 
L 286.704 470.352057 
L 285.16325 455.666808 
L 283.6225 435.229342 
L 282.08175 412.443425 
L 280.541 391.054687 
L 279.00025 366.485136 
L 277.4595 345.215308 
L 275.91875 330.396287 
L 274.378 316.796082 
L 272.83725 308.903504 
L 271.2965 306.198326 
L 269.75575 306.465871 
L 268.215 311.593817 
L 266.67425 319.367486 
L 265.1335 331.094876 
L 263.59275 338.957727 
L 262.052 347.207032 
L 260.51125 353.613248 
L 258.9705 359.157376 
L 257.42975 363.794823 
L 255.889 366.559454 
L 254.34825 367.793134 
L 252.8075 369.130859 
L 251.26675 370.557766 
L 249.726 368.209315 
L 248.18525 365.117684 
L 246.6445 361.268009 
L 245.10375 358.503377 
L 243.563 351.680979 
L 242.02225 346.077397 
L 240.4815 342.064222 
L 238.94075 338.110501 
L 237.4 335.628278 
L 235.85925 334.721598 
L 234.3185 338.496955 
L 232.77775 344.159991 
L 231.237 352.305251 
L 229.69625 357.210243 
L 228.1555 359.573557 
L 226.61475 361.624735 
L 225.074 365.920319 
L 223.53325 366.708091 
L 221.9925 370.126721 
L 220.45175 371.583355 
L 218.911 370.825311 
L 217.37025 368.26877 
L 215.8295 365.637911 
L 214.28875 358.265559 
L 212.748 355.040155 
L 211.20725 353.018704 
L 209.6665 352.126887 
L 208.12575 352.513341 
L 206.585 350.521617 
L 205.04425 350.506754 
L 203.5035 351.680979 
L 201.96275 352.944386 
L 200.422 353.851066 
L 198.88125 362.338189 
L 197.3405 368.060679 
L 195.79975 375.477622 
L 194.259 385.198424 
L 192.71825 393.180183 
L 191.1775 399.422901 
L 189.63675 408.370795 
L 188.096 413.335241 
L 186.55525 418.507778 
L 185.0145 423.828951 
L 183.47375 426.78681 
L 181.933 427.202991 
L 180.39225 430.502713 
L 178.8515 432.241756 
L 177.31075 431.349939 
L 175.77 432.420119 
L 174.22925 432.62821 
L 172.6885 429.328488 
L 171.14775 425.820675 
L 169.607 423.457361 
L 168.06625 417.942961 
L 166.5255 412.324516 
L 164.98475 405.056209 
L 163.444 403.138803 
L 161.90325 404.060347 
L 160.3625 407.910023 
L 158.82175 407.181706 
L 157.281 410.853018 
L 155.74025 411.165154 
L 154.1995 411.84888 
L 152.65875 408.742385 
L 151.118 410.496291 
L 149.57725 410.526019 
L 148.0365 416.218782 
L 146.49575 422.416908 
L 144.955 428.689352 
L 143.41425 434.545616 
L 141.8735 444.415054 
L 140.33275 448.487684 
L 138.792 449.438955 
L 137.25125 449.141683 
L 135.7105 450.464544 
L 134.16975 449.111955 
L 132.629 450.330771 
L 131.08825 453.868311 
L 129.5475 459.412438 
L 128.00675 464.689021 
L 126.466 470.36692 
L 124.92525 476.163729 
L 123.3845 479.730996 
L 121.84375 481.143039 
L 120.303 481.737584 
L 118.76225 481.960538 
L 117.2215 481.648402 
L 115.68075 481.499766 
L 114.14 480.994403 
L 112.59925 477.709545 
L 111.0585 474.097687 
L 109.51775 468.137379 
L 107.977 459.352984 
L 106.43625 446.808095 
L 104.8955 431.795847 
L 103.35475 414.777012 
L 101.814 395.855634 
L 100.27325 376.815347 
L 98.7325 356.273835 
L 97.19175 337.218684 
L 95.651 324.599478 
L 94.11025 315.012448 
L 92.5695 306.792871 
L 91.02875 300.044791 
L 89.488 297.205841 
L 87.94725 292.003577 
L 86.4065 288.406583 
L 84.86575 286.013541 
L 83.325 284.259635 
z
" clip-path="url(#p1874ccc4f2)" style="fill: #d3d3d3; fill-opacity: 0.6"/>
   </g>
   <g id="matplotlib.axis_3">
    <g id="xtick_8">
     <g id="line2d_12">
      <g>
       <use xlink:href="#m9571412164" x="83.325" y="518.8" style="stroke: #000000; stroke-width: 0.8"/>
      </g>
     </g>
     <g id="text_7">
      <!-- 0 -->
      <g transform="translate(78.553125 537.197656)scale(0.15 -0.15)">
       <defs>
        <path id="DejaVuSans-30" d="M 2034 4250 
Q 1547 4250 1301 3770 
Q 1056 3291 1056 2328 
Q 1056 1369 1301 889 
Q 1547 409 2034 409 
Q 2525 409 2770 889 
Q 3016 1369 3016 2328 
Q 3016 3291 2770 3770 
Q 2525 4250 2034 4250 
z
M 2034 4750 
Q 2819 4750 3233 4129 
Q 3647 3509 3647 2328 
Q 3647 1150 3233 529 
Q 2819 -91 2034 -91 
Q 1250 -91 836 529 
Q 422 1150 422 2328 
Q 422 3509 836 4129 
Q 1250 4750 2034 4750 
z
" transform="scale(0.015625)"/>
       </defs>
       <use xlink:href="#DejaVuSans-30"/>
      </g>
     </g>
    </g>
    <g id="xtick_9">
     <g id="line2d_13">
      <g>
       <use xlink:href="#m9571412164" x="160.3625" y="518.8" style="stroke: #000000; stroke-width: 0.8"/>
      </g>
     </g>
     <g id="text_8">
      <!-- 50 -->
      <g transform="translate(150.81875 537.197656)scale(0.15 -0.15)">
       <defs>
        <path id="DejaVuSans-35" d="M 691 4666 
L 3169 4666 
L 3169 4134 
L 1269 4134 
L 1269 2991 
Q 1406 3038 1543 3061 
Q 1681 3084 1819 3084 
Q 2600 3084 3056 2656 
Q 3513 2228 3513 1497 
Q 3513 744 3044 326 
Q 2575 -91 1722 -91 
Q 1428 -91 1123 -41 
Q 819 9 494 109 
L 494 744 
Q 775 591 1075 516 
Q 1375 441 1709 441 
Q 2250 441 2565 725 
Q 2881 1009 2881 1497 
Q 2881 1984 2565 2268 
Q 2250 2553 1709 2553 
Q 1456 2553 1204 2497 
Q 953 2441 691 2322 
L 691 4666 
z
" transform="scale(0.015625)"/>
       </defs>
       <use xlink:href="#DejaVuSans-35"/>
       <use xlink:href="#DejaVuSans-30" x="63.623047"/>
      </g>
     </g>
    </g>
    <g id="xtick_10">
     <g id="line2d_14">
      <g>
       <use xlink:href="#m9571412164" x="237.4" y="518.8" style="stroke: #000000; stroke-width: 0.8"/>
      </g>
     </g>
     <g id="text_9">
      <!-- 100 -->
      <g transform="translate(223.084375 537.197656)scale(0.15 -0.15)">
       <defs>
        <path id="DejaVuSans-31" d="M 794 531 
L 1825 531 
L 1825 4091 
L 703 3866 
L 703 4441 
L 1819 4666 
L 2450 4666 
L 2450 531 
L 3481 531 
L 3481 0 
L 794 0 
L 794 531 
z
" transform="scale(0.015625)"/>
       </defs>
       <use xlink:href="#DejaVuSans-31"/>
       <use xlink:href="#DejaVuSans-30" x="63.623047"/>
       <use xlink:href="#DejaVuSans-30" x="127.246094"/>
      </g>
     </g>
    </g>
    <g id="xtick_11">
     <g id="line2d_15">
      <g>
       <use xlink:href="#m9571412164" x="314.4375" y="518.8" style="stroke: #000000; stroke-width: 0.8"/>
      </g>
     </g>
     <g id="text_10">
      <!-- 150 -->
      <g transform="translate(300.121875 537.197656)scale(0.15 -0.15)">
       <use xlink:href="#DejaVuSans-31"/>
       <use xlink:href="#DejaVuSans-35" x="63.623047"/>
       <use xlink:href="#DejaVuSans-30" x="127.246094"/>
      </g>
     </g>
    </g>
    <g id="xtick_12">
     <g id="line2d_16">
      <g>
       <use xlink:href="#m9571412164" x="391.475" y="518.8" style="stroke: #000000; stroke-width: 0.8"/>
      </g>
     </g>
     <g id="text_11">
      <!-- 200 -->
      <g transform="translate(377.159375 537.197656)scale(0.15 -0.15)">
       <defs>
        <path id="DejaVuSans-32" d="M 1228 531 
L 3431 531 
L 3431 0 
L 469 0 
L 469 531 
Q 828 903 1448 1529 
Q 2069 2156 2228 2338 
Q 2531 2678 2651 2914 
Q 2772 3150 2772 3378 
Q 2772 3750 2511 3984 
Q 2250 4219 1831 4219 
Q 1534 4219 1204 4116 
Q 875 4013 500 3803 
L 500 4441 
Q 881 4594 1212 4672 
Q 1544 4750 1819 4750 
Q 2544 4750 2975 4387 
Q 3406 4025 3406 3419 
Q 3406 3131 3298 2873 
Q 3191 2616 2906 2266 
Q 2828 2175 2409 1742 
Q 1991 1309 1228 531 
z
" transform="scale(0.015625)"/>
       </defs>
       <use xlink:href="#DejaVuSans-32"/>
       <use xlink:href="#DejaVuSans-30" x="63.623047"/>
       <use xlink:href="#DejaVuSans-30" x="127.246094"/>
      </g>
     </g>
    </g>
    <g id="xtick_13">
     <g id="line2d_17">
      <g>
       <use xlink:href="#m9571412164" x="468.5125" y="518.8" style="stroke: #000000; stroke-width: 0.8"/>
      </g>
     </g>
     <g id="text_12">
      <!-- 250 -->
      <g transform="translate(454.196875 537.197656)scale(0.15 -0.15)">
       <use xlink:href="#DejaVuSans-32"/>
       <use xlink:href="#DejaVuSans-35" x="63.623047"/>
       <use xlink:href="#DejaVuSans-30" x="127.246094"/>
      </g>
     </g>
    </g>
    <g id="xtick_14">
     <g id="line2d_18">
      <g>
       <use xlink:href="#m9571412164" x="545.55" y="518.8" style="stroke: #000000; stroke-width: 0.8"/>
      </g>
     </g>
     <g id="text_13">
      <!-- 300 -->
      <g transform="translate(531.234375 537.197656)scale(0.15 -0.15)">
       <defs>
        <path id="DejaVuSans-33" d="M 2597 2516 
Q 3050 2419 3304 2112 
Q 3559 1806 3559 1356 
Q 3559 666 3084 287 
Q 2609 -91 1734 -91 
Q 1441 -91 1130 -33 
Q 819 25 488 141 
L 488 750 
Q 750 597 1062 519 
Q 1375 441 1716 441 
Q 2309 441 2620 675 
Q 2931 909 2931 1356 
Q 2931 1769 2642 2001 
Q 2353 2234 1838 2234 
L 1294 2234 
L 1294 2753 
L 1863 2753 
Q 2328 2753 2575 2939 
Q 2822 3125 2822 3475 
Q 2822 3834 2567 4026 
Q 2313 4219 1838 4219 
Q 1578 4219 1281 4162 
Q 984 4106 628 3988 
L 628 4550 
Q 988 4650 1302 4700 
Q 1616 4750 1894 4750 
Q 2613 4750 3031 4423 
Q 3450 4097 3450 3541 
Q 3450 3153 3228 2886 
Q 3006 2619 2597 2516 
z
" transform="scale(0.015625)"/>
       </defs>
       <use xlink:href="#DejaVuSans-33"/>
       <use xlink:href="#DejaVuSans-30" x="63.623047"/>
       <use xlink:href="#DejaVuSans-30" x="127.246094"/>
      </g>
     </g>
    </g>
    <g id="text_14">
     <!-- Time (ka) -->
     <g transform="translate(279.043359 555.714844)scale(0.15 -0.15)">
      <defs>
       <path id="DejaVuSans-54" d="M -19 4666 
L 3928 4666 
L 3928 4134 
L 2272 4134 
L 2272 0 
L 1638 0 
L 1638 4134 
L -19 4134 
L -19 4666 
z
" transform="scale(0.015625)"/>
       <path id="DejaVuSans-28" d="M 1984 4856 
Q 1566 4138 1362 3434 
Q 1159 2731 1159 2009 
Q 1159 1288 1364 580 
Q 1569 -128 1984 -844 
L 1484 -844 
Q 1016 -109 783 600 
Q 550 1309 550 2009 
Q 550 2706 781 3412 
Q 1013 4119 1484 4856 
L 1984 4856 
z
" transform="scale(0.015625)"/>
       <path id="DejaVuSans-6b" d="M 581 4863 
L 1159 4863 
L 1159 1991 
L 2875 3500 
L 3609 3500 
L 1753 1863 
L 3688 0 
L 2938 0 
L 1159 1709 
L 1159 0 
L 581 0 
L 581 4863 
z
" transform="scale(0.015625)"/>
       <path id="DejaVuSans-29" d="M 513 4856 
L 1013 4856 
Q 1481 4119 1714 3412 
Q 1947 2706 1947 2009 
Q 1947 1309 1714 600 
Q 1481 -109 1013 -844 
L 513 -844 
Q 928 -128 1133 580 
Q 1338 1288 1338 2009 
Q 1338 2731 1133 3434 
Q 928 4138 513 4856 
z
" transform="scale(0.015625)"/>
      </defs>
      <use xlink:href="#DejaVuSans-54"/>
      <use xlink:href="#DejaVuSans-69" x="57.958984"/>
      <use xlink:href="#DejaVuSans-6d" x="85.742188"/>
      <use xlink:href="#DejaVuSans-65" x="183.154297"/>
      <use xlink:href="#DejaVuSans-20" x="244.677734"/>
      <use xlink:href="#DejaVuSans-28" x="276.464844"/>
      <use xlink:href="#DejaVuSans-6b" x="315.478516"/>
      <use xlink:href="#DejaVuSans-61" x="371.638672"/>
      <use xlink:href="#DejaVuSans-29" x="432.917969"/>
     </g>
    </g>
   </g>
   <g id="matplotlib.axis_4">
    <g id="ytick_5">
     <g id="line2d_19">
      <g>
       <use xlink:href="#m9d04859f6b" x="83.325" y="504.657273" style="stroke: #000000; stroke-width: 0.8"/>
      </g>
     </g>
     <g id="text_15">
      <!-- 150 -->
      <g transform="translate(35.124219 510.356101)scale(0.15 -0.15)">
       <defs>
        <path id="DejaVuSans-2212" d="M 678 2272 
L 4684 2272 
L 4684 1741 
L 678 1741 
L 678 2272 
z
" transform="scale(0.015625)"/>
       </defs>
       <use xlink:href="#DejaVuSans-2212"/>
       <use xlink:href="#DejaVuSans-31" x="83.789062"/>
       <use xlink:href="#DejaVuSans-35" x="147.412109"/>
       <use xlink:href="#DejaVuSans-30" x="211.035156"/>
      </g>
     </g>
    </g>
    <g id="ytick_6">
     <g id="line2d_20">
      <g>
       <use xlink:href="#m9d04859f6b" x="83.325" y="467.498243" style="stroke: #000000; stroke-width: 0.8"/>
      </g>
     </g>
     <g id="text_16">
      <!-- 125 -->
      <g transform="translate(35.124219 473.197071)scale(0.15 -0.15)">
       <use xlink:href="#DejaVuSans-2212"/>
       <use xlink:href="#DejaVuSans-31" x="83.789062"/>
       <use xlink:href="#DejaVuSans-32" x="147.412109"/>
       <use xlink:href="#DejaVuSans-35" x="211.035156"/>
      </g>
     </g>
    </g>
    <g id="ytick_7">
     <g id="line2d_21">
      <g>
       <use xlink:href="#m9d04859f6b" x="83.325" y="430.339213" style="stroke: #000000; stroke-width: 0.8"/>
      </g>
     </g>
     <g id="text_17">
      <!-- 100 -->
      <g transform="translate(35.124219 436.038042)scale(0.15 -0.15)">
       <use xlink:href="#DejaVuSans-2212"/>
       <use xlink:href="#DejaVuSans-31" x="83.789062"/>
       <use xlink:href="#DejaVuSans-30" x="147.412109"/>
       <use xlink:href="#DejaVuSans-30" x="211.035156"/>
      </g>
     </g>
    </g>
    <g id="ytick_8">
     <g id="line2d_22">
      <g>
       <use xlink:href="#m9d04859f6b" x="83.325" y="393.180183" style="stroke: #000000; stroke-width: 0.8"/>
      </g>
     </g>
     <g id="text_18">
      <!-- 75 -->
      <g transform="translate(44.667969 398.879012)scale(0.15 -0.15)">
       <defs>
        <path id="DejaVuSans-37" d="M 525 4666 
L 3525 4666 
L 3525 4397 
L 1831 0 
L 1172 0 
L 2766 4134 
L 525 4134 
L 525 4666 
z
" transform="scale(0.015625)"/>
       </defs>
       <use xlink:href="#DejaVuSans-2212"/>
       <use xlink:href="#DejaVuSans-37" x="83.789062"/>
       <use xlink:href="#DejaVuSans-35" x="147.412109"/>
      </g>
     </g>
    </g>
    <g id="ytick_9">
     <g id="line2d_23">
      <g>
       <use xlink:href="#m9d04859f6b" x="83.325" y="356.021154" style="stroke: #000000; stroke-width: 0.8"/>
      </g>
     </g>
     <g id="text_19">
      <!-- 50 -->
      <g transform="translate(44.667969 361.719982)scale(0.15 -0.15)">
       <use xlink:href="#DejaVuSans-2212"/>
       <use xlink:href="#DejaVuSans-35" x="83.789062"/>
       <use xlink:href="#DejaVuSans-30" x="147.412109"/>
      </g>
     </g>
    </g>
    <g id="ytick_10">
     <g id="line2d_24">
      <g>
       <use xlink:href="#m9d04859f6b" x="83.325" y="318.862124" style="stroke: #000000; stroke-width: 0.8"/>
      </g>
     </g>
     <g id="text_20">
      <!-- 25 -->
      <g transform="translate(44.667969 324.560952)scale(0.15 -0.15)">
       <use xlink:href="#DejaVuSans-2212"/>
       <use xlink:href="#DejaVuSans-32" x="83.789062"/>
       <use xlink:href="#DejaVuSans-35" x="147.412109"/>
      </g>
     </g>
    </g>
    <g id="ytick_11">
     <g id="line2d_25">
      <g>
       <use xlink:href="#m9d04859f6b" x="83.325" y="281.703094" style="stroke: #000000; stroke-width: 0.8"/>
      </g>
     </g>
     <g id="text_21">
      <!-- 0 -->
      <g transform="translate(66.78125 287.401922)scale(0.15 -0.15)">
       <use xlink:href="#DejaVuSans-30"/>
      </g>
     </g>
    </g>
    <g id="ytick_12">
     <g id="line2d_26">
      <g>
       <use xlink:href="#m9d04859f6b" x="83.325" y="244.544064" style="stroke: #000000; stroke-width: 0.8"/>
      </g>
     </g>
     <g id="text_22">
      <!-- 25 -->
      <g transform="translate(57.2375 250.242892)scale(0.15 -0.15)">
       <use xlink:href="#DejaVuSans-32"/>
       <use xlink:href="#DejaVuSans-35" x="63.623047"/>
      </g>
     </g>
    </g>
    <g id="text_23">
     <!-- Sea level (m) -->
     <g transform="translate(28.004688 416.233203)rotate(-90)scale(0.15 -0.15)">
      <defs>
       <path id="DejaVuSans-6c" d="M 603 4863 
L 1178 4863 
L 1178 0 
L 603 0 
L 603 4863 
z
" transform="scale(0.015625)"/>
       <path id="DejaVuSans-76" d="M 191 3500 
L 800 3500 
L 1894 563 
L 2988 3500 
L 3597 3500 
L 2284 0 
L 1503 0 
L 191 3500 
z
" transform="scale(0.015625)"/>
      </defs>
      <use xlink:href="#DejaVuSans-53"/>
      <use xlink:href="#DejaVuSans-65" x="63.476562"/>
      <use xlink:href="#DejaVuSans-61" x="125"/>
      <use xlink:href="#DejaVuSans-20" x="186.279297"/>
      <use xlink:href="#DejaVuSans-6c" x="218.066406"/>
      <use xlink:href="#DejaVuSans-65" x="245.849609"/>
      <use xlink:href="#DejaVuSans-76" x="307.373047"/>
      <use xlink:href="#DejaVuSans-65" x="366.552734"/>
      <use xlink:href="#DejaVuSans-6c" x="428.076172"/>
      <use xlink:href="#DejaVuSans-20" x="455.859375"/>
      <use xlink:href="#DejaVuSans-28" x="487.646484"/>
      <use xlink:href="#DejaVuSans-6d" x="526.660156"/>
      <use xlink:href="#DejaVuSans-29" x="624.072266"/>
     </g>
    </g>
   </g>
   <g id="line2d_27">
    <path d="M 83.325 269.083887 
L 84.86575 270.362158 
L 86.4065 275.742785 
L 87.94725 275.237423 
L 89.488 277.050783 
L 91.02875 281.703094 
L 92.5695 287.663402 
L 94.11025 290.784761 
L 95.651 295.214117 
L 97.19175 305.232191 
L 98.7325 318.252716 
L 100.27325 334.989143 
L 103.35475 380.248841 
L 109.51775 441.18965 
L 111.0585 449.676773 
L 112.59925 455.131718 
L 114.14 456.439716 
L 115.68075 460.081301 
L 117.2215 468.717059 
L 118.76225 473.027507 
L 120.303 474.930049 
L 121.84375 470.307466 
L 123.3845 463.633704 
L 124.92525 457.509896 
L 126.466 452.91704 
L 128.00675 446.49596 
L 129.5475 438.930381 
L 131.08825 435.541478 
L 132.629 431.275621 
L 134.16975 426.593583 
L 135.7105 426.430083 
L 137.25125 428.600171 
L 138.792 429.432533 
L 140.33275 423.308725 
L 141.8735 420.083321 
L 143.41425 415.92151 
L 144.955 409.381521 
L 146.49575 400.255263 
L 148.0365 394.309818 
L 149.57725 391.56005 
L 151.118 394.93409 
L 152.65875 392.422139 
L 154.1995 394.339545 
L 155.74025 391.247914 
L 157.281 395.721861 
L 158.82175 391.322232 
L 161.90325 375.507349 
L 163.444 382.597292 
L 164.98475 384.039062 
L 166.5255 385.822696 
L 168.06625 389.107554 
L 169.607 397.683858 
L 171.14775 404.684619 
L 172.6885 409.099112 
L 174.22925 404.981891 
L 177.31075 410.362519 
L 178.8515 407.03307 
L 180.39225 407.672205 
L 181.933 405.784526 
L 183.47375 404.654892 
L 185.0145 404.283302 
L 186.55525 399.675582 
L 188.096 387.32392 
L 189.63675 382.939155 
L 191.1775 378.896252 
L 192.71825 358.14665 
L 194.259 351.131025 
L 195.79975 346.865169 
L 197.3405 335.479642 
L 198.88125 330.842195 
L 200.422 328.64238 
L 201.96275 322.860435 
L 203.5035 324.510296 
L 205.04425 330.678695 
L 206.585 327.557337 
L 208.12575 328.315381 
L 209.6665 325.75884 
L 211.20725 319.70935 
L 212.748 327.274928 
L 214.28875 326.279066 
L 215.8295 339.329317 
L 217.37025 345.750398 
L 218.911 350.967525 
L 220.45175 346.270624 
L 221.9925 346.553033 
L 223.53325 341.60345 
L 225.074 343.639765 
L 226.61475 344.368082 
L 228.1555 341.930449 
L 231.237 322.934753 
L 232.77775 314.685449 
L 234.3185 313.199087 
L 235.85925 307.357688 
L 237.4 310.672273 
L 238.94075 308.041414 
L 240.4815 318.906714 
L 242.02225 325.506158 
L 243.563 328.835607 
L 245.10375 332.774464 
L 246.6445 341.648041 
L 248.18525 348.604211 
L 249.726 347.81644 
L 251.26675 350.001391 
L 252.8075 350.610799 
L 254.34825 351.680979 
L 255.889 345.88417 
L 257.42975 339.567135 
L 258.9705 332.001557 
L 260.51125 320.601166 
L 262.052 315.146221 
L 263.59275 302.645923 
L 265.1335 292.939984 
L 266.67425 287.648539 
L 268.215 277.719646 
L 269.75575 277.050783 
L 271.2965 278.329054 
L 272.83725 279.91946 
L 274.378 283.457 
L 275.91875 291.587396 
L 277.4595 300.609608 
L 279.00025 321.983482 
L 280.541 335.405324 
L 282.08175 360.405919 
L 283.6225 391.277641 
L 285.16325 404.967028 
L 286.704 433.520026 
L 288.24475 451.713087 
L 289.7855 460.452891 
L 291.32625 465.655155 
L 292.867 465.937564 
L 294.40775 465.432201 
L 295.9485 464.10934 
L 297.48925 461.463617 
L 299.03 458.401713 
L 300.57075 450.330771 
L 302.1115 446.362187 
L 303.65225 440.372151 
L 305.193 433.90648 
L 306.73375 430.844576 
L 308.2745 431.39453 
L 309.81525 429.62576 
L 311.356 429.120397 
L 312.89675 425.790948 
L 314.4375 416.649827 
L 315.97825 410.897609 
L 317.519 409.381521 
L 319.05975 408.370795 
L 320.6005 410.882745 
L 323.682 419.206368 
L 325.22275 419.444186 
L 326.7635 413.855468 
L 329.845 410.9422 
L 331.38575 408.47484 
L 332.9265 398.739174 
L 334.46725 396.271815 
L 337.54875 388.215737 
L 339.0895 378.747616 
L 340.63025 373.396716 
L 342.171 373.144035 
L 343.71175 368.149861 
L 345.2525 363.958322 
L 346.79325 367.436408 
L 348.334 377.499073 
L 349.87475 375.566803 
L 351.4155 374.065578 
L 352.95625 372.995398 
L 354.497 376.354575 
L 356.03775 374.764168 
L 357.5785 379.847524 
L 359.11925 383.593154 
L 360.66 382.954018 
L 362.20075 383.57829 
L 363.7415 383.652608 
L 365.28225 384.053926 
L 366.823 386.209149 
L 368.36375 387.977919 
L 369.9045 382.047338 
L 371.44525 377.023437 
L 372.986 369.368677 
L 374.52675 364.552867 
L 376.0675 357.462924 
L 377.60825 348.455575 
L 379.149 337.144366 
L 380.68975 330.500332 
L 382.2305 329.905787 
L 383.77125 320.556575 
L 385.312 313.957132 
L 386.85275 301.739243 
L 388.3935 296.700478 
L 389.93425 293.177802 
L 391.475 298.409794 
L 393.01575 310.746592 
L 394.5565 313.659859 
L 396.09725 321.15112 
L 397.638 316.974445 
L 399.17875 303.091831 
L 400.7195 296.328888 
L 402.26025 302.660787 
L 403.801 296.759933 
L 405.34175 297.458522 
L 406.8825 298.751657 
L 409.964 292.672439 
L 411.50475 291.780623 
L 413.0455 292.18194 
L 414.58625 295.34789 
L 416.127 301.174425 
L 417.66775 316.647445 
L 419.2085 325.194022 
L 420.74925 336.416049 
L 423.83075 373.485898 
L 425.3715 381.333885 
L 426.91225 391.218187 
L 428.453 388.944054 
L 429.99375 392.214049 
L 433.07525 381.110931 
L 434.616 378.985434 
L 436.15675 378.405753 
L 437.6975 369.561904 
L 439.23825 358.176377 
L 442.31975 328.657244 
L 445.40125 313.481496 
L 446.942 304.043103 
L 448.48275 295.734343 
L 450.0235 303.730967 
L 451.56425 313.050451 
L 453.105 320.809257 
L 454.64575 333.933826 
L 456.1865 348.440711 
L 457.72725 361.550417 
L 459.268 368.149861 
L 460.80875 362.665188 
L 462.3495 390.356097 
L 463.89025 401.607851 
L 465.431 410.585473 
L 466.97175 412.948787 
L 468.5125 418.121324 
L 470.05325 421.881818 
L 471.594 422.164227 
L 473.13475 423.873542 
L 474.6755 418.403733 
L 476.21625 410.867882 
L 479.29775 420.722456 
L 480.8385 420.990001 
L 482.37925 415.312102 
L 483.92 402.187532 
L 485.46075 398.085175 
L 487.0015 397.163631 
L 488.54225 396.896086 
L 490.083 408.608613 
L 491.62375 407.360069 
L 493.1645 403.718484 
L 494.70525 404.72921 
L 496.246 420.053594 
L 497.78675 426.177402 
L 499.3275 427.678627 
L 500.86825 415.401283 
L 502.409 400.938989 
L 503.94975 394.844908 
L 505.4905 392.25864 
L 507.03125 382.121656 
L 508.572 373.634534 
L 510.11275 366.054092 
L 513.19425 356.214381 
L 514.735 350.16489 
L 516.27575 340.994042 
L 517.8165 338.095638 
L 519.35725 336.237686 
L 520.898 333.814917 
L 522.43875 334.052735 
L 525.52025 337.961865 
L 527.061 345.155853 
L 528.60175 358.770922 
L 530.1425 365.96491 
L 531.68325 368.699815 
L 533.224 365.756819 
L 536.3055 360.8221 
L 537.84625 359.58842 
L 539.387 354.460474 
L 540.92775 353.568658 
L 542.4685 352.453887 
L 544.00925 349.079847 
L 545.55 345.438262 
L 547.09075 340.548134 
L 548.6315 338.199683 
L 550.17225 330.842195 
L 551.713 334.245962 
L 553.25375 340.295452 
L 554.7945 334.885097 
L 556.33525 327.111428 
L 557.876 327.884336 
L 559.41675 323.172571 
L 560.9575 317.524399 
L 562.49825 314.73004 
L 564.039 314.224677 
L 565.57975 309.081867 
L 567.1205 300.119109 
L 568.66125 299.717791 
L 570.202 296.343752 
L 571.74275 297.235568 
L 574.82425 298.513839 
L 576.365 294.247982 
L 577 293.316854 
L 577 293.316854 
" clip-path="url(#p1874ccc4f2)" style="fill: none; stroke: #000000; stroke-opacity: 0.6; stroke-linecap: square"/>
   </g>
   <g id="patch_12">
    <path d="M 83.325 518.8 
L 83.325 214.2 
" style="fill: none; stroke: #000000; stroke-width: 0.8; stroke-linejoin: miter; stroke-linecap: square"/>
   </g>
   <g id="patch_13">
    <path d="M 545.55 518.8 
L 545.55 214.2 
" style="fill: none; stroke: #000000; stroke-width: 0.8; stroke-linejoin: miter; stroke-linecap: square"/>
   </g>
   <g id="patch_14">
    <path d="M 83.325 518.8 
L 545.55 518.8 
" style="fill: none; stroke: #000000; stroke-width: 0.8; stroke-linejoin: miter; stroke-linecap: square"/>
   </g>
   <g id="patch_15">
    <path d="M 83.325 214.2 
L 545.55 214.2 
" style="fill: none; stroke: #000000; stroke-width: 0.8; stroke-linejoin: miter; stroke-linecap: square"/>
   </g>
   <g id="text_24">
    <!-- Data: Spratt and Lisiecki, 2016 (Climate of the Past) -->
    <g transform="translate(83.325 208.2)scale(0.08 -0.08)">
     <defs>
      <path id="DejaVuSans-3a" d="M 750 794 
L 1409 794 
L 1409 0 
L 750 0 
L 750 794 
z
M 750 3309 
L 1409 3309 
L 1409 2516 
L 750 2516 
L 750 3309 
z
" transform="scale(0.015625)"/>
      <path id="DejaVuSans-70" d="M 1159 525 
L 1159 -1331 
L 581 -1331 
L 581 3500 
L 1159 3500 
L 1159 2969 
Q 1341 3281 1617 3432 
Q 1894 3584 2278 3584 
Q 2916 3584 3314 3078 
Q 3713 2572 3713 1747 
Q 3713 922 3314 415 
Q 2916 -91 2278 -91 
Q 1894 -91 1617 61 
Q 1341 213 1159 525 
z
M 3116 1747 
Q 3116 2381 2855 2742 
Q 2594 3103 2138 3103 
Q 1681 3103 1420 2742 
Q 1159 2381 1159 1747 
Q 1159 1113 1420 752 
Q 1681 391 2138 391 
Q 2594 391 2855 752 
Q 3116 1113 3116 1747 
z
" transform="scale(0.015625)"/>
      <path id="DejaVuSans-2c" d="M 750 794 
L 1409 794 
L 1409 256 
L 897 -744 
L 494 -744 
L 750 256 
L 750 794 
z
" transform="scale(0.015625)"/>
      <path id="DejaVuSans-36" d="M 2113 2584 
Q 1688 2584 1439 2293 
Q 1191 2003 1191 1497 
Q 1191 994 1439 701 
Q 1688 409 2113 409 
Q 2538 409 2786 701 
Q 3034 994 3034 1497 
Q 3034 2003 2786 2293 
Q 2538 2584 2113 2584 
z
M 3366 4563 
L 3366 3988 
Q 3128 4100 2886 4159 
Q 2644 4219 2406 4219 
Q 1781 4219 1451 3797 
Q 1122 3375 1075 2522 
Q 1259 2794 1537 2939 
Q 1816 3084 2150 3084 
Q 2853 3084 3261 2657 
Q 3669 2231 3669 1497 
Q 3669 778 3244 343 
Q 2819 -91 2113 -91 
Q 1303 -91 875 529 
Q 447 1150 447 2328 
Q 447 3434 972 4092 
Q 1497 4750 2381 4750 
Q 2619 4750 2861 4703 
Q 3103 4656 3366 4563 
z
" transform="scale(0.015625)"/>
      <path id="DejaVuSans-43" d="M 4122 4306 
L 4122 3641 
Q 3803 3938 3442 4084 
Q 3081 4231 2675 4231 
Q 1875 4231 1450 3742 
Q 1025 3253 1025 2328 
Q 1025 1406 1450 917 
Q 1875 428 2675 428 
Q 3081 428 3442 575 
Q 3803 722 4122 1019 
L 4122 359 
Q 3791 134 3420 21 
Q 3050 -91 2638 -91 
Q 1578 -91 968 557 
Q 359 1206 359 2328 
Q 359 3453 968 4101 
Q 1578 4750 2638 4750 
Q 3056 4750 3426 4639 
Q 3797 4528 4122 4306 
z
" transform="scale(0.015625)"/>
      <path id="DejaVuSans-66" d="M 2375 4863 
L 2375 4384 
L 1825 4384 
Q 1516 4384 1395 4259 
Q 1275 4134 1275 3809 
L 1275 3500 
L 2222 3500 
L 2222 3053 
L 1275 3053 
L 1275 0 
L 697 0 
L 697 3053 
L 147 3053 
L 147 3500 
L 697 3500 
L 697 3744 
Q 697 4328 969 4595 
Q 1241 4863 1831 4863 
L 2375 4863 
z
" transform="scale(0.015625)"/>
      <path id="DejaVuSans-50" d="M 1259 4147 
L 1259 2394 
L 2053 2394 
Q 2494 2394 2734 2622 
Q 2975 2850 2975 3272 
Q 2975 3691 2734 3919 
Q 2494 4147 2053 4147 
L 1259 4147 
z
M 628 4666 
L 2053 4666 
Q 2838 4666 3239 4311 
Q 3641 3956 3641 3272 
Q 3641 2581 3239 2228 
Q 2838 1875 2053 1875 
L 1259 1875 
L 1259 0 
L 628 0 
L 628 4666 
z
" transform="scale(0.015625)"/>
     </defs>
     <use xlink:href="#DejaVuSans-44"/>
     <use xlink:href="#DejaVuSans-61" x="77.001953"/>
     <use xlink:href="#DejaVuSans-74" x="138.28125"/>
     <use xlink:href="#DejaVuSans-61" x="177.490234"/>
     <use xlink:href="#DejaVuSans-3a" x="238.769531"/>
     <use xlink:href="#DejaVuSans-20" x="272.460938"/>
     <use xlink:href="#DejaVuSans-53" x="304.248047"/>
     <use xlink:href="#DejaVuSans-70" x="367.724609"/>
     <use xlink:href="#DejaVuSans-72" x="431.201172"/>
     <use xlink:href="#DejaVuSans-61" x="472.314453"/>
     <use xlink:href="#DejaVuSans-74" x="533.59375"/>
     <use xlink:href="#DejaVuSans-74" x="572.802734"/>
     <use xlink:href="#DejaVuSans-20" x="612.011719"/>
     <use xlink:href="#DejaVuSans-61" x="643.798828"/>
     <use xlink:href="#DejaVuSans-6e" x="705.078125"/>
     <use xlink:href="#DejaVuSans-64" x="768.457031"/>
     <use xlink:href="#DejaVuSans-20" x="831.933594"/>
     <use xlink:href="#DejaVuSans-4c" x="863.720703"/>
     <use xlink:href="#DejaVuSans-69" x="919.433594"/>
     <use xlink:href="#DejaVuSans-73" x="947.216797"/>
     <use xlink:href="#DejaVuSans-69" x="999.316406"/>
     <use xlink:href="#DejaVuSans-65" x="1027.099609"/>
     <use xlink:href="#DejaVuSans-63" x="1088.623047"/>
     <use xlink:href="#DejaVuSans-6b" x="1143.603516"/>
     <use xlink:href="#DejaVuSans-69" x="1201.513672"/>
     <use xlink:href="#DejaVuSans-2c" x="1229.296875"/>
     <use xlink:href="#DejaVuSans-20" x="1261.083984"/>
     <use xlink:href="#DejaVuSans-32" x="1292.871094"/>
     <use xlink:href="#DejaVuSans-30" x="1356.494141"/>
     <use xlink:href="#DejaVuSans-31" x="1420.117188"/>
     <use xlink:href="#DejaVuSans-36" x="1483.740234"/>
     <use xlink:href="#DejaVuSans-20" x="1547.363281"/>
     <use xlink:href="#DejaVuSans-28" x="1579.150391"/>
     <use xlink:href="#DejaVuSans-43" x="1618.164062"/>
     <use xlink:href="#DejaVuSans-6c" x="1687.988281"/>
     <use xlink:href="#DejaVuSans-69" x="1715.771484"/>
     <use xlink:href="#DejaVuSans-6d" x="1743.554688"/>
     <use xlink:href="#DejaVuSans-61" x="1840.966797"/>
     <use xlink:href="#DejaVuSans-74" x="1902.246094"/>
     <use xlink:href="#DejaVuSans-65" x="1941.455078"/>
     <use xlink:href="#DejaVuSans-20" x="2002.978516"/>
     <use xlink:href="#DejaVuSans-6f" x="2034.765625"/>
     <use xlink:href="#DejaVuSans-66" x="2095.947266"/>
     <use xlink:href="#DejaVuSans-20" x="2131.152344"/>
     <use xlink:href="#DejaVuSans-74" x="2162.939453"/>
     <use xlink:href="#DejaVuSans-68" x="2202.148438"/>
     <use xlink:href="#DejaVuSans-65" x="2265.527344"/>
     <use xlink:href="#DejaVuSans-20" x="2327.050781"/>
     <use xlink:href="#DejaVuSans-50" x="2358.837891"/>
     <use xlink:href="#DejaVuSans-61" x="2414.640625"/>
     <use xlink:href="#DejaVuSans-73" x="2475.919922"/>
     <use xlink:href="#DejaVuSans-74" x="2528.019531"/>
     <use xlink:href="#DejaVuSans-29" x="2567.228516"/>
    </g>
   </g>
  </g>
 </g>
 <defs>
  <clipPath id="p24b17c90de">
   <rect x="83.325" y="29.2" width="462.225" height="152.3"/>
  </clipPath>
  <clipPath id="p1874ccc4f2">
   <rect x="83.325" y="214.2" width="462.225" height="304.6"/>
  </clipPath>
 </defs>
</svg>
